<?xml version="1.0" standalone="no"?>
<!DOCTYPE svg PUBLIC "-//W3C//DTD SVG 1.1//EN" "http://www.w3.org/Graphics/SVG/1.1/DTD/svg11.dtd" >
<svg>
<metadata>
Created by FontForge 20090914 at Sat Apr 17 20:28:27 2021
 By www-data
&#194;&#169; Copyright SoftMaker Software GmbH and its licensors
</metadata>
<defs>
<font id="BaskerOldAntiqueHeavy" horiz-adv-x="290" >
  <font-face 
    font-family="BaskerOldAntique-Heavy"
    font-weight="400"
    font-stretch="normal"
    units-per-em="1000"
    panose-1="0 0 9 0 0 0 0 0 0 0"
    ascent="800"
    descent="-200"
    x-height="449.999"
    cap-height="721"
    bbox="-142.001 -286 1159 1029"
    underline-thickness="50"
    underline-position="-75"
    unicode-range="U+0020-U+2212"
  />
<missing-glyph horiz-adv-x="500" 
d="M31 0v1029h438v-1029h-438zM438 31v967h-376v-967h376z" />
    <glyph glyph-name=".notdef" horiz-adv-x="500" 
d="M31 0v1029h438v-1029h-438zM438 31v967h-376v-967h376z" />
    <glyph glyph-name="space" unicode=" " 
 />
    <glyph glyph-name="exclam" unicode="!" horiz-adv-x="302" 
d="M131 250c-11.333 38.667 -22.668 94.999 -34.001 168.999c-6 39.333 -11.833 75.333 -17.5 108s-9.5 53.667 -11.5 63l-6 -8l-8 41c-4 18.667 -9.66699 30.667 -17 36l28 50l91 26l94 -30l17 -40c0 -23.333 -5 -56 -15 -98l-26 -94l-26 -108
c-3.33301 -16.667 -6.66602 -35.667 -9.99902 -57s-5 -38.666 -5 -51.999l-6 4l-22 2l-12 -20l-10 16zM52.998 90.999l47.001 75l72 14l56 -16l35 -77l-48 -75l-64 -40c-14.667 12 -31.334 29.333 -50.001 52l-42 59z" />
    <glyph glyph-name="quotedbl" unicode="&#x22;" horiz-adv-x="498" 
d="M45 350l1.99902 23l48 21l27 56l27 39l17 55c-11.333 -4 -21.333 -6 -30 -6c-5.33301 0 -32.666 13 -81.999 39l-10 59l22 73l63 26l74 -43l43 -85l-7 -61l-42 -54c-15.333 -22.667 -24 -44 -26 -64c-20.667 -5.33301 -43.667 -15.666 -69 -30.999
c-14 -8.66699 -25 -16.334 -33 -23.001s-16 -14.667 -24 -24zM275.999 350l-8 23c30 20 55 46 75 78l55 93l-34 -11l-72 42l-23 67l35 63l43 32l88 -43c14 -44 21 -86.333 21 -127l-1 -25c-16.667 -24.667 -36.667 -62 -60 -112c-38 -13.333 -77.667 -40 -119 -80z" />
    <glyph glyph-name="numbersign" unicode="#" horiz-adv-x="634" 
d="M29 202l-7 14l21 30l3 24l-14 -8l41 18l38 -18l57 20v4l10 39l6 57c1.33301 13.333 3 24 5 32s5 16.667 9 26h-12l-26 18h-47l-34 -12l14 -10l5 42l-3 20l9 6l-16 22h95l23 -18l-4 14l14 71l34 54l-6 75c4 -4.66699 10.667 -8 20 -10l50 2l10 14l-12 4
c0 -16.667 -0.333008 -42 -1 -76s-1 -59.667 -1 -77l-30 -55l12 -14c10.667 5.33301 25.667 8 45 8l19 -4l26 -4l6 109c0 21.333 1.5 40.5 4.5 57.5s7.83301 33.5 14.5 49.5l2 -16l74 18l2 -18l-28 -69l11 -62l-26 -49l4 -26l32 12l33 -10l34 14
c6 -8.66699 9.66699 -16.667 11 -24c0 -32 -2.66699 -52 -8 -60l-2 24c-18.667 -10.667 -43 -16 -73 -16l-36 10l-32 -67l3 -64l-32 -43l60 -16l19 2l46 -6l6 26l-6 -64l-11 -22l10 10l-56 6l-29 -22l-52 14l2 2l-14 -81l-3 -56l-26 -81l10 -2l-16 20l-46 -20l-4 -4l-14 2
l16 71l25 70l14 85l-4 2l-29 -14l-27 2l-31 -4v10l-24 -77l-1 -58l-24 -73l-8 -4v12l-34 2l-20 -26c0 19.333 5.83301 51.833 17.5 97.5s17.5 84.5 17.5 116.5l-8 -8l-73 22l-34 -16zM232 274c30 -8 53.001 -12 69.001 -12h19c0 16 1.16699 30.167 3.5 42.5
s7.16602 27.5 14.499 45.5c13.333 34 21 61.333 23 82l-4 4c-15.333 0 -41 5.33301 -77 16c-8 -10.667 -18 -27.667 -30 -51c0 -24 -1 -44.333 -3 -61s-5.66699 -42 -11 -76z" />
    <glyph glyph-name="dollar" unicode="$" horiz-adv-x="601" 
d="M36 261l29.001 -11.999c10.667 -22.667 16 -45.667 16 -69l-1 -15l43 -65c11.333 -7.33301 25.5 -15.833 42.5 -25.5l38.5 -21.5l60 -15c8 -2 13 0 15 6l18 59l-18 90l14 81l-16 -10l-3 17c-18.667 11.333 -33 21.666 -43 30.999l-2 -28l-145 165l-12 79l27 88
c24.667 38 58 67.667 100 89l96 36l-12 23l12 12l-6 25l-6 2l28 -12l15 21l26 -18l-8 12l-14 -19l6 -55l6 -8c16 0 30.167 -1.33301 42.5 -4s26.5 -8 42.5 -16c26 -12 42.667 -18.667 50 -20c20.667 0 31 17.333 31 52l24 10l-1 -85c0 -10 3 -26.5 9 -49.5
s9 -40.167 9 -51.5l-7 -87l2 8l-22 -3c-10 53.333 -28 97.666 -54 132.999c-32.667 42.667 -72.667 64 -120 64l-10 -8c9.33301 -24.667 14 -61 14 -109l-18 -77l14 4l97 -46c22.667 -31.333 57 -57 103 -77l-2 -79l27 -46c-8.66699 -59.333 -34.667 -120.666 -78 -183.999
c-6 -10 -24.333 -22.167 -55 -36.5s-52.334 -21.5 -65.001 -21.5l-22 3c-4 -42 -10.667 -77.667 -20 -107l8 8l-18 2l-17 -12l-6 24l-26 -4l7 36c2.66699 14.667 3.66699 27 3 37l-10 12c-16.667 0 -35 2.16699 -55 6.5s-47.333 12.5 -82 24.5l-17 8c-4 2 -10 3.66699 -18 5
c-20 0 -30 -15.333 -30 -46l-27 6l7 93c0 71.333 -5.33301 129.333 -16 174v-4zM341.001 235.001c0 -4.66699 -0.332031 -11.667 -0.999023 -21s-2 -21 -4 -35l-3 -55l14 -63v4c11.333 6.66699 25.666 30.667 42.999 72l-13 52zM290.002 530.001l-6 55l18 16l-14 49l2 8
c-19.333 -22.667 -29 -43 -29 -61c0 -20.667 9.66699 -43 29 -67z" />
    <glyph glyph-name="percent" unicode="%" horiz-adv-x="795" 
d="M29 544l6.00098 0.000976562l8 76l30 45l71 41c21.333 4 45.5 7.66699 72.5 11s51.833 5 74.5 5c35.333 -27.333 67.666 -59.333 96.999 -96l3 -82l-3 -77c-17.333 -30.667 -52.333 -62.334 -105 -95.001c-22 0 -47.333 -1.5 -76 -4.5l-71 -7.5l-107 109v75z
M75.001 31.001c37.333 50.667 99.667 130.333 187 239l216 239l173 215l6 20l77 -61l-16 -8l-191 -236l-201 -223l-195 -234l-2 12l-27 5v23zM391.002 173l8 12c18 58.667 33.667 100.667 47 126l74 44l72 4l72 -13l53 -51c25.333 -43.333 38 -80.333 38 -111l-7 -85
c-22 -40 -52.667 -75.333 -92 -106l-66 -17l-90 13l-64 54l-40 68zM258.002 484l10 16l-4 24l-12 14l8 6l-12 22l6 28l14 6l-10 4c0 54 -9.66699 81 -29 81c-3.33301 -2 -6 -3.33301 -8 -4c-7.33301 -4 -14.666 -8.33301 -21.999 -13l-23 -51v-15l-8 -16l18 -14l-10 -30
l-10 12l-4 -44l8 -20l12 4l-6 -10c0 -27.333 1 -45 3 -53c5.33301 -20 17.666 -30 36.999 -30c20 0 33 9.66699 39 29c2 6 3 24 3 54zM537.002 230l-12 -13l12 -24l-8 -7v-26l10 -5l2 -21l6 -11l-10 -6v-6c0 -56 11.667 -84 35 -84l30 29l17 50l12 11v11
c-6 14 -14.667 24.667 -26 32l22 14c-8 12 -15.333 25.667 -22 41l14 15l8 15l-15 49l-26 18l-31 -6c-12.667 -44.667 -18.667 -70 -18 -76z" />
    <glyph glyph-name="ampersand" unicode="&#x26;" horiz-adv-x="815" 
d="M202 403l-23.999 33.001c-10 15.333 -15 26.333 -15 33l-48 58l-6 41l19 57l44 55c25.333 13.333 58 23.833 98 31.5s85.333 11.5 136 11.5l69 -51l25 -82l-5 -52c-20 -18 -58 -49 -114 -93l44 -46l54 -77c28.667 -40 47 -62.333 55 -67c12 27.333 18 48.666 18 63.999
c0 8.66699 -1.33301 16 -4 22l5 54l-68 33l-7 8l99 24l158 -6l-6 -8l1 -19c-12 0 -23.667 -1.83301 -35 -5.5s-23 -8.83398 -35 -15.501c-14 -14 -27 -37.333 -39 -70l-27 -76l-32 -65l19 -8c8.66699 -7.33301 18.334 -16.666 29.001 -27.999
c6.66699 -6.66699 14 -15 22 -25l-6 -4c28 -37.333 51 -56 69 -56c11.333 0 27.166 7.16699 47.499 21.5s34.833 27.833 43.5 40.5l23 -14l-24 -66l-78 -55l-70 -15c-72.667 0 -130.667 25 -174 75c-36.667 -39.333 -76.334 -64 -119.001 -74c-28 -6 -50.667 -9 -68 -9
l-112 15c-10.667 7.33301 -21 15 -31 23l-41 33l-45 65c0 60 -6.33301 101.667 -19 125c21.333 44 79.333 98.667 174 164zM276.001 638.001l4 12.001v-71l68 -79c25.333 23.333 41 46.666 47 69.999l-20 97l-51 19c-32 0 -48 -16 -48 -48zM432.001 97.002
c-20.667 22.667 -48.001 55.332 -82.001 97.999c-4 8.66699 -10.167 20.834 -18.5 36.501s-17.833 32.5 -28.5 50.5l-74 90c-25.333 -27.333 -38 -57.333 -38 -90c0 -10 3.66699 -17.333 11 -22l8 -102l67 -64l69 -28c28.667 0 57.334 10.333 86.001 31z" />
    <glyph glyph-name="quotesingle" unicode="'" horiz-adv-x="268" 
d="M45 350c4 19.333 14.001 40.667 30.001 64c25.333 13.333 54.666 36.333 87.999 69l3 61l-19 -4c-4.66699 0 -7 2.33301 -7 7l-76 22l-36 61l36 79l73 12l76 -19l21 -91l-1 -71l-77 -104c-22.667 -28 -59.667 -56.667 -111 -86z" />
    <glyph glyph-name="parenleft" unicode="(" horiz-adv-x="361" 
d="M316 773l8.00098 -7.99902l9 -1l14 -10l-16 -4l-50 -125c-19.333 -50 -38.333 -90.333 -57 -121c0 -30 -2 -61 -6 -93c-4.66699 -28 -8 -49 -10 -63l13 -54l-23 -74c15.333 -45.333 28.666 -97 39.999 -155c0 -9.33301 2.66699 -28 8 -56l34 -90l69 -84l-28 -14l13 -11
l-4 -4l-6 -14c-47.333 42 -101.666 93.333 -162.999 154l-13 26l-25 52l-34 83c-12 33.333 -26 59.333 -42 78l-8 103c0 40 2.66699 72.5 8 97.5s21.5 68.167 48.5 129.5s48.167 102.666 63.5 123.999c27.333 37.333 79.666 82 156.999 134z" />
    <glyph glyph-name="parenright" unicode=")" horiz-adv-x="361" 
d="M22 -174l-7.99805 -3.99805l60 110l38 68c9.33301 22 19.666 58 30.999 108l11 47l-2 32l-2 32l6 70c-6.66699 17.333 -11.834 34.166 -15.501 50.499s-5.5 33.833 -5.5 52.5l1 105l-22 86c-36.667 37.333 -68 97.333 -94 180l22 -6l-19 15l10 12l10 -14l74 -61
c55.333 -52.667 97 -102.334 125 -149.001c16 -28.667 32 -67 48 -115l21 -67l1 -48l-2 -49l1 -40l2 -39l-20 -87l-69 -78l-49 -88c-29.333 -45.333 -77.333 -98 -144 -158l-8 8l13 5l-2 12z" />
    <glyph glyph-name="asterisk" unicode="*" horiz-adv-x="426" 
d="M204 532c-22.667 7.33301 -54.001 14.6631 -94.001 21.9961c-23.333 4 -39.666 8.33301 -48.999 13c-16.667 8.66699 -25 22.334 -25 41.001c0 14 4.66699 25.667 14 35s21 14 35 14c19.333 0 37.666 -14 54.999 -42l14 1l10 -29l-8 -13l4 14
c8.66699 -10.667 25.334 -26 50.001 -46c-6.66699 34.667 -16.667 60 -30 76l13 14l-18 1l2 4c-7.33301 18.667 -11.666 33.667 -12.999 45c0 14 4.5 25.667 13.5 35s20.833 14 35.5 14c14 0 25.667 -4.66699 35 -14c9.33301 -8 14 -19.667 14 -35l-1 -25v-26l-28 -13l19 -6
l-12 7l-24 -77l57 48l-2 17l9 9l2 5l2 -6c20 28 39 42 57 42c13.333 0 25 -5 35 -15c8 -10 12 -22.333 12 -37v-5l-24 -38c-11.333 -2.66699 -21.5 -5.16699 -30.5 -7.5s-24.167 -7.16602 -45.5 -14.499l13 -3l-12 12c-14.667 0 -37.334 -5.66699 -68.001 -17
c28 -10 59.667 -17 95 -21c24 -2 40.333 -5.66699 49 -11c17.333 -7.33301 26 -20.333 26 -39c0 -14.667 -4.66699 -26.667 -14 -36c-8 -10 -19 -15 -33 -15c-22 0 -43 14 -63 42c-18 28 -39.667 51.667 -65 71c4 -27.333 14 -58 30 -92c12 -26 18 -43.667 18 -53
c0 -29.333 -17.667 -44 -53 -44c-12 0 -23.667 4 -35 12c-9.33301 8 -14 18.667 -14 32c0 12 4 27 12 45l20 42l16 58c-26 -19.333 -48.167 -43 -66.5 -71s-38.833 -42 -61.5 -42c-13.333 0 -24.666 4.66699 -33.999 14c-8.66699 10.667 -13 22.334 -13 35.001
c0 18.667 8.33301 32.334 25 41.001c7.33301 3.33301 24 7 50 11c31.333 2.66699 62.666 9.66699 93.999 21z" />
    <glyph glyph-name="plus" unicode="+" horiz-adv-x="602" 
d="M80 137l-3.99902 47c0 5.33301 0.166992 9.5 0.5 12.5s1.83301 9.16699 4.5 18.5l7 29l4 55h-12l55 -2l26 22l39 2l20 -10l-18 32l20 45l-12 62l-10 -10c59.333 0 104.666 2.66699 135.999 8l28 7c10.667 2.66699 20 3.66699 28 3l8 -66c-5.33301 -12 -8 -36.333 -8 -73
l6 -24l21 24c9.33301 -2.66699 18.5 -4.83398 27.5 -6.50098s20.167 -2.5 33.5 -2.5c26 0 44.667 -2.33301 56 -7c-4 -34 -12 -75 -24 -123l20 -45l-6 -6l-61 20l-26 -24l-59 22l18 -8l-22 -48l14 -33l2 -56l2 -2c-42 8 -86 12 -132 12l-56 -12v8l22 38l-20 55l8 38
c-3.33301 0.666992 -5.33301 1.33398 -6 2.00098h-51l-32 -10l-51 20z" />
    <glyph glyph-name="comma" unicode="," horiz-adv-x="268" 
d="M45 -201l11.999 8.99707l18 60l37 11c22.667 30.667 40.667 68.334 54 113.001c-17.333 -4 -26 -10.667 -26 -20l-88 32l-24 70l22 81l81 24l84 -39l19 -73c0 -16 -2.33301 -36 -7 -60c-4 -14 -14 -35.667 -30 -65s-25.333 -52.666 -28 -69.999
c-31.333 -21.333 -72.666 -45.666 -123.999 -72.999z" />
    <glyph glyph-name="hyphen" unicode="-" horiz-adv-x="375" 
d="M29 157l-6.00098 38l6 57l8 59l4 -16l104 -2c8.66699 0 23.334 3 44.001 9s36 9 46 9l118 -12l-8 -10l8 -44c0 -11.333 -6 -38 -18 -80l2 -16l-102 -2c-12 0 -28.333 2.33301 -49 7l-49 9l-122 2z" />
    <glyph glyph-name="period" unicode="." horiz-adv-x="266" 
d="M36 84l24 67l65 20l61 -23l47 -77l-35 -57l-62 -42l-70 54z" />
    <glyph glyph-name="slash" unicode="/" horiz-adv-x="455" 
d="M351 742l14.002 -10l18 12l13 -22l52 10l-22 -6l-155 -375c-62 -145.333 -120.333 -267.333 -175 -366h16c-10 0 -25 -2 -45 -6c-6.66699 -1.33301 -15.834 -2.33301 -27.501 -3s-19.5 -1 -23.5 -1c17.333 28.667 37.666 71 60.999 127l54 132l115 235z" />
    <glyph glyph-name="zero" unicode="0" horiz-adv-x="602" 
d="M36 357l-1.99805 -6v47.5c0 17 0.333008 35.167 1 54.5l33 99l90 126c58 12 103.333 33.333 136 64c18 -2 41 -7.33301 69 -16l30 -19l31 -19c24 -20.667 59 -64.667 105 -132l33 -114l-2 -38l-2 -38l-2 -105l-9 -30l-17 -59c-8 -18 -28.667 -49 -62 -93l-33 -44
c-6.66699 -7.33301 -20.334 -19 -41.001 -35l-18 -14c-23.333 2.66699 -48.833 5 -76.5 7s-52.834 3 -75.501 3c-36 15.333 -75.667 43.333 -119 84c-35.333 78 -56 133.667 -62 167zM388.002 359l-8.00098 42.001l21 21l-16 46l12 2
c-11.333 18.667 -17.666 33.667 -18.999 45l18 40v-8c-4 43.333 -17 82.666 -39 117.999l-65 32l-50 -26c-12 -38 -18 -84 -18 -138l4 -6c-2.66699 -6 -6.16699 -15.5 -10.5 -28.5s-8.5 -27.833 -12.5 -44.5l20 4l2 -16l-19 -45l14 -38l-22 6l20 -12l2 -38l-8 -2l-10 -10
l23 -94l-3 -33l-3 -33c0 -45.333 7.66699 -83.333 23 -114l51 -16l67 59l37 152l-23 69l16 30l-18 30l6 6h8z" />
    <glyph glyph-name="one" unicode="1" horiz-adv-x="602" 
d="M125 650l6 13.001l90 2c20.667 4 81.334 29 182.001 75l-2 -132l-13 -67l-7.5 -37c-2.33301 -12 -3.5 -21.333 -3.5 -28c0 -12 2.66699 -34.833 8 -68.5s10 -54.167 14 -61.5l-8 -48c0 -12.667 1.66699 -28.334 5 -47.001l5 -47l-8 -70l-2 10v-10
c0 -36 6.5 -62.667 19.5 -80s37.833 -28 74.5 -32l-8 -26l-100 -2c-14.667 0 -37.334 2 -68.001 6s-53.667 6 -69 6l-106 -16l-8 10v22c8.66699 0 16.667 0.5 24 1.5s14 2.83301 20 5.5c10 4.66699 20.667 14.667 32 30c2.66699 4 5 8.16699 7 12.5s3.33301 9.83301 4 16.5
l-3 23h7l15 25l-22 12l14 76l-3 26l-3 26l4 84l8 4l-20 99c0 11.333 2 28 6 50l8 50l4 89h-10l-27 -2l-27 -2z" />
    <glyph glyph-name="two" unicode="2" horiz-adv-x="602" 
d="M28 17l64.999 58.999l10 9l36 61c7.33301 8.66699 25.333 26 54 52c26.667 23.333 45.334 42 56.001 56c33.333 42 64.333 100 93 174l-2 57l28 38c-24 62.667 -45.667 107.334 -65 134.001l-54 17l-43 -30l-47 -77c0 -43.333 13.667 -81.666 41 -114.999l58 -21
c3.33301 -1.33301 9.33301 0 18 4l4 -20c-40.667 -14.667 -68 -22 -82 -22l-88 9c-20.667 37.333 -40.334 86.333 -59.001 147l18 73c43.333 33.333 82.333 66.666 117 99.999l109 3l95 -4l80 -34l56 -69c0 -25.333 0.166992 -49.833 0.5 -73.5s2.16602 -53.5 5.49902 -89.5
c-16 -14 -38.667 -36.667 -68 -68l-50 -66c-22.667 -28.667 -43.667 -47.667 -63 -57c-38.667 -47.333 -83.667 -87 -135 -119c5.33301 0 28 0.666992 68 2s77.667 2 113 2l-18 10l78 4l64 38l21 45l5 -12c0 -36.667 -1.66699 -67.5 -5 -92.5s-8.66602 -49.5 -15.999 -73.5
l-31 -56h-99.5c-27.667 0 -47.167 -0.666992 -58.5 -2l-76 -13l-42 -7.5c-13.333 -2.33301 -23.666 -3.5 -30.999 -3.5h-164z" />
    <glyph glyph-name="three" unicode="3" horiz-adv-x="602" 
d="M164 274l4.99805 -14.999c-18 -16 -30.333 -32.667 -37 -50l-8 -24c-4.66699 -11.333 -9.66699 -20.333 -15 -27l60 -108l84 -17l51 30l51 61l17 110c-18 54.667 -40 96 -66 124c-7.33301 0 -20.5 -5.83301 -39.5 -17.5s-36.5 -17.5 -52.5 -17.5c-13.333 0 -26 4 -38 12
c-10 8 -15 19 -15 33c0 29.333 18 44 54 44h12l13 -1l17 -10l-11 -3l27 2l-6 2c7.33301 -0.666992 11 -3.33398 11 -8.00098l61 26v28c0 63.333 -2 116 -6 158l-31 69l-41 23l-55 -39l-34 -58l10 -62l58 -13l4 -18l-39 -10l-102 32l-38 65l39 69l63 50l106 3l120 -1
c28.667 -16 55.834 -38.167 81.501 -66.5s41.5 -56.833 47.5 -85.5l-16 -83c-26 -32 -57.667 -60.333 -95 -85l-63 -19l98 -5l39 -50l60 -32l2 -65l-6 -100l-43 -59l-137 -79l-85 -3l-105 21c-25.333 8 -68.666 32 -129.999 72l-15 77l13 35c18 30 34.833 50 50.5 60
s40.5 18.333 74.5 25z" />
    <glyph glyph-name="four" unicode="4" horiz-adv-x="602" 
d="M46 171l3.99902 10l-8 37l6 2v18l174 234c65.333 89.333 119.333 169.666 162 240.999l-8 22l17 -26h18l15 26l1 -86l3 -86v-355l10 14l18 -6l39 11c15.333 24 27.333 43.333 36 58c1.33301 2.66699 3.33301 6.33398 6 11.001l20 -62l-10 -79l2 -48h-16
c-4 42.667 -32 64 -84 64l1 9l-26 -23l24 -14l-14 1l15 -35l-10 -2c0 -28 5.16699 -49.167 15.5 -63.5s26.5 -21.5 48.5 -21.5l10 -24l-101 16c-16 0 -34.667 -0.5 -56 -1.5s-44.666 -1.83301 -69.999 -2.5l-44 -7c-18 -2.66699 -32.333 -3.66699 -43 -3v22
c44 5.33301 66 46 66 122l-1 14l7 19l-92 -16c-12 0 -32.333 1 -61 3s-52 3 -70 3zM265.999 451c-32.667 -56.667 -71 -107 -115 -151l-33 -90l-4 2l61 -2l48 10l33 -8l20 6l-14 82l14 75l-16 76h6z" />
    <glyph glyph-name="five" unicode="5" horiz-adv-x="602" 
d="M164 321l-64.001 18.9961l59 179c18.667 64 34 125 46 183l-4 14c84.667 -16.667 135.334 -25 152.001 -25l35 3l36 4c38.667 0 82 6 130 18c-12 -33.333 -22.333 -55.666 -31 -66.999l-55 -61l-133 -38l-60 26l-60 -13c-2 -7.33301 -3.66699 -15.166 -5 -23.499
s-2 -18.166 -2 -29.499c0 -26 -1 -43 -3 -51l-17 -65l2 14c16 16 35.667 30.333 59 43c27.333 14.667 51 22 71 22l8 -2l7 -1l101 -10l70 -41c26 -50 39 -96 39 -138l-5 -43l-4 -42c-10.667 -41.333 -32.334 -85.333 -65.001 -132c-23.333 -19.333 -56 -38.666 -98 -57.999
s-77 -29 -105 -29c-79.333 18.667 -142.666 40.334 -189.999 65.001l-45 48l-5 67l13 34l42 29l62 -18l4 -80c0 -14 2.33301 -33.667 7 -59c10 -24 26 -36 48 -36l65 15c16.667 13.333 37.667 32.666 63 57.999l38 65c0 44 -1.16699 78.833 -3.5 104.5
s-7.5 53.167 -15.5 82.5l-22 37l-49 30l-65 -35z" />
    <glyph glyph-name="six" unicode="6" horiz-adv-x="602" 
d="M229 441l-9.99707 -0.000976562c45.333 19.333 89 31.666 131 36.999c43.333 -27.333 97.333 -49.666 162 -66.999c9.33301 -13.333 23.666 -37.333 42.999 -72l22 -96l-33 -76c-4 -13.333 -7.5 -24 -10.5 -32s-9.16699 -22.667 -18.5 -44l-52 -72
c-42 -7.33301 -120 -16.666 -234 -27.999c-81.333 36 -134 79.667 -158 131c-15.333 34 -31 94.667 -47 182l29 92c1.33301 10 3.66602 22.333 6.99902 37s7.66602 32 12.999 52c4.66699 13.333 18 37 40 71l48 67l71 69l88 32l85 -6l75 3l35 -45l12 -54
c-5.33301 -15.333 -21.666 -32.333 -48.999 -51c-22 0 -38.333 9.33301 -49 28c-1.33301 2.66699 -4 10.167 -8 22.5s-7 21.833 -9 28.5c-4.66699 18 -12.334 27.333 -23.001 28l-23 -5l-26 -5l-60 -59c-24 -56 -41 -112 -51 -168zM290.003 420.999l10 -2.00098l-71 -30
l-20 -90l20 -60v-42l-2 -42c0 -15.333 5.66699 -38.666 17 -69.999c14 -40.667 38.333 -61 73 -61l33 17l44 65l8 109l-11 117c-40 32 -73.667 61.667 -101 89z" />
    <glyph glyph-name="seven" unicode="7" horiz-adv-x="602" 
d="M27 505l23.999 127c10.667 50 23.334 91 38.001 123v-10l17 -1l-2 -9c1.33301 -2.66699 3.16602 -5.83398 5.49902 -9.50098s7.16602 -9.5 14.499 -17.5l22 24l-4 -25l24 16l8 -12c10.667 0 41.334 1.33301 92.001 4s86 4 106 4l198 12l28 -18l-74 -129l-37 -65l-24 -75
l-48 -150c-10 -32.667 -23.667 -69.334 -41 -110.001l-20.5 -51.5c-6.33301 -16.333 -14.166 -35.166 -23.499 -56.499v4c-2 -5.33301 -5.33301 -12.833 -10 -22.5s-10 -19.5 -16 -29.5l-97 -50l-49 23l-40 62l15 48l58 61l83 140l85 138l107 134l-8 -2l-60 4h-96l-52 -24
l-18 16l-51 -16l-70 14c-15.333 -25.333 -36.333 -49.666 -63 -72.999z" />
    <glyph glyph-name="eight" unicode="8" horiz-adv-x="602" 
d="M185 354c-24.667 19.333 -43.3301 36.6689 -55.9971 52.002l-51 68l-12 74c9.33301 40.667 30.666 86.667 63.999 138c4 2 16 7 36 15l57 23l46 4l47 5c56.667 0 103 -10.667 139 -32l56 -52v-144l-109 -100c34 -4 63.333 -18.333 88 -43
c27.333 -61.333 51 -108.666 71 -141.999l-15 -101c-14.667 -30.667 -40.667 -63.334 -78 -98.001c-18.667 -8.66699 -50.667 -21 -96 -37l-75 -5c-69.333 24 -132 39.667 -188 47c-6.66699 9.33301 -13.334 19.666 -20.001 30.999s-15 26.666 -25 45.999l-22 90l4 70
c39.333 22 85.666 52.333 138.999 91zM346.004 449.003h4.00195l24 3l2 -24l2 2c8 28.667 15 51 21 67l23 56l-30 80c-18.667 24.667 -41.334 43.667 -68.001 57l-61 -28l-23 -62c0 -20.667 8 -51 24 -91c15.333 -22 42.666 -42 81.999 -60zM248.006 304.003l-21.998 2l8 9
c-4 1.33301 -11.333 2 -22 2l-44 -67l-18 -69c13.333 -18.667 26.666 -38.334 39.999 -59.001l37 -58l80 -24l52 12l31 97c-14.667 30.667 -37.334 68.334 -68.001 113.001c-24 0 -48.667 14 -74 42z" />
    <glyph glyph-name="nine" unicode="9" horiz-adv-x="602" 
d="M371 274l8 -14.001l-53 1l-65 -25c-40.667 12 -80 30.333 -118 55c-42 26.667 -74.667 55.334 -98 86.001c-6.66699 60 -10 119.667 -10 179c25.333 43.333 56.666 86 93.999 128c53.333 16.667 102 29.334 146 38.001s78.667 13 104 13
c39.333 -30.667 76 -57.334 110 -80.001c13.333 -30.667 25.833 -57.167 37.5 -79.5s22.834 -41.833 33.501 -58.5l3 -86c0 -14 -0.166992 -29.167 -0.5 -45.5s-2.83301 -34.833 -7.5 -55.5c-4 -22.667 -14 -53.334 -30 -92.001c-26 -65.333 -58.667 -116.666 -98 -153.999
c-12.667 -12.667 -35 -29.334 -67 -50.001c-21.333 -12.667 -41.333 -23 -60 -31l-86 -20l-82 5l-53 49l-12 53l12 29l44 25c22 0 38.667 -10 50 -30l18 -55c6 -20 16.333 -30 31 -30c13.333 6.66699 28.333 19.334 45 38.001c18 18 30.333 33.333 37 46l32 80zM209 500.999
c0 -9.33301 4.99902 -38.002 14.999 -86.002c4 -21.333 7.83301 -40.166 11.5 -56.499s6.5 -27.833 8.5 -34.5l54 -41l59 55c14 66 21 113.667 21 143c0 76.667 -8.33301 122.334 -25 137.001l-12 66l-53 9c-23.333 -14 -48.666 -47 -75.999 -99z" />
    <glyph glyph-name="colon" unicode=":" horiz-adv-x="295" 
d="M52 84l10 -12l14 69l65 34l63 -19l51 -87l-43 -55l-72 -36l-60 32zM51 361l-10 14c24 34 58.667 65.333 104 94l76 -53l9 -43l-13 -93l-71 -6l-79 14z" />
    <glyph glyph-name="semicolon" unicode=";" horiz-adv-x="297" 
d="M61 -201l1.99902 29l35 18l51 68c18 28 29 54 33 78c-7.33301 -0.666992 -17.666 -4.66699 -30.999 -12l-70 34l-22 72l22 51l53 38l96 -41l23 -69l-5 -64l-39 -63c-13.333 -23.333 -23 -46 -29 -68c-28 -22 -67.667 -45.667 -119 -71zM50.999 362l8 -11.999l14 75l61 43
c48 -32.667 86.667 -65.334 116 -98.001c-26.667 -46.667 -56 -86 -88 -118l-83 38z" />
    <glyph glyph-name="less" unicode="&#x3c;" horiz-adv-x="296" 
d="M29 237c15.333 21.333 37.668 48.334 67.001 81.001c12 8 25.5 17.667 40.5 29s33.5 26.333 55.5 45l71 85l-8 -6h16c0 -18.667 -5.33301 -39.667 -16 -63l18 6l-20 -63l-30 -42l-36 -73l4 16c4 -16 7.33301 -28.667 10 -38l12 -32l44 -59l12 -60
c-6 -6 -10.667 -12.333 -14 -19c1.33301 -6 2 -13 2 -21v-24l18 -2c-48.667 37.333 -133.334 118.666 -254.001 243.999z" />
    <glyph glyph-name="equal" unicode="=" horiz-adv-x="602" 
d="M76 100c0 9.33301 1.66602 20.333 4.99902 33l5 33l-4 38l156 -4c4.66699 0 12.334 -0.333008 23.001 -1s23.667 -2 39 -4l62 -3l170 14h-16l20 -52v-56l-14 -42l-153 4l-153 4l-140 -14v50zM519.999 391l-4 4c14.667 -31.333 22 -64.333 22 -99l-8 -56l-4 14l-164 -22
c-13.333 0 -34.5 3 -63.5 9s-50.833 9 -65.5 9h-152l-4 -10l8 38l-17 107c8.66699 4 72 6 190 6h262z" />
    <glyph glyph-name="greater" unicode="&#x3e;" horiz-adv-x="296" 
d="M29 -5l-14 15.999l24 32l-10 14l-14 -8c22.667 44.667 51.667 107.334 87 188.001l14 12l-30 33l-45 129l-22 -2l-4 45l24 25l-12 -8c70 -46.667 145.333 -120 226 -220l24 -4c-18.667 -26.667 -45 -61 -79 -103c-6 -6 -20 -16.667 -42 -32c-20 -12 -34 -22 -42 -30
l-77 -91z" />
    <glyph glyph-name="question" unicode="?" horiz-adv-x="450" 
d="M155 392l-9.99805 -35c0 -22 1.83301 -41 5.5 -57s9.16699 -30.333 16.5 -43l-26 2l6 -18l-35 16l-6 6l-6 -18l16 74c-5.33301 33.333 -9.5 61.5 -12.5 84.5l-9.5 76.5l6 -6l25 14l21 -6l11 8l-6 -12c0 -31.333 12.333 -47 37 -47l57 9l1 94v86
c-16.667 36 -38.334 60.333 -65.001 73c-14 0 -24 -4.33301 -30 -13l-13 -31l-23 -60l-35 -7c-26.667 0 -48.334 16.333 -65.001 49l28 58l60 44l69 13c56 -22.667 108 -38.667 156 -48l59 -65c10 -22 17.167 -49.333 21.5 -82s6.5 -71.667 6.5 -117l-70 -96l-76 -12
c-2.66699 -0.666992 -7 -1 -13 -1c-35.333 0 -69 22.333 -101 67zM32.002 83v4l28 52l85 32l68 -24l3 -49l-24 -85l-68 -18l-68 26z" />
    <glyph glyph-name="at" unicode="@" horiz-adv-x="865" 
d="M464 226l-28.999 -46.999l-46 -22l-67 -6c-16.667 8 -35 22 -55 42c-18 19.333 -31 37.333 -39 54l1 76c0 46 3 75.667 9 89l38 79c36.667 36.667 77.667 72 123 106l71 -21l44 -61l10 19l-23 19l28 21l-2 -12l8 20l6 -18l38 10l-20 -8l4 -74
c0 -32.667 -6.66699 -78 -20 -136l-24 12l12 -20l2 -33l-8 -24l-4 -2l-3 -43c0 -28.667 12.667 -43 38 -43c26.667 0 55 23.333 85 70c14 22.667 24.167 42.5 30.5 59.5s9.5 33.5 9.5 49.5c0 18.667 -2 37.667 -6 57s-10.667 41 -20 65
c-14.667 39.333 -33.667 75.666 -57 108.999l-54 38c-52.667 9.33301 -107 16.333 -163 21c-34.667 -17.333 -77 -35.333 -127 -54c-38.667 -42.667 -75 -90.667 -109 -144c-2.66699 -28 -5.5 -52.5 -8.5 -73.5s-6.83301 -45.833 -11.5 -74.5
c2.66699 -12.667 5.33398 -23.334 8.00098 -32.001s7.66699 -23 15 -43l23 -33l33 -84l71 -53c10 -5.33301 21.5 -10.5 34.5 -15.5s28.5 -10.167 46.5 -15.5c33.333 -9.33301 61.666 -15.333 84.999 -18c59.333 24.667 119.333 52 180 82l74 91c6 -26.667 17.667 -51 35 -73
l-12 6l-12 -16l-4 -2c-12.667 -16 -33.334 -37.667 -62.001 -65c-34 -28 -82 -51 -144 -69c-36 0 -78 4.33301 -126 13l-125 24c-38 28.667 -79.333 62.667 -124 102c-26 52.667 -51 118 -75 196l27 84l4 99l34 76c48.667 32 88.334 65.667 119.001 101
c62 8.66699 114.667 28 158 58c32 -12.667 67.667 -19 107 -19h13h10c4.66699 1.33301 8 2 10 2c12.667 -4.66699 26 -10 40 -16c6 -2.66699 17 -8 33 -16l40 -31l40 -31l47 -73l24 -75c-6.66699 -20.667 -11.667 -46.167 -15 -76.5s-5 -61.166 -5 -92.499
c-34.667 -49.333 -58.334 -91.666 -71.001 -126.999c-19.333 -6.66699 -42.333 -12.834 -69 -18.501s-57.667 -11.167 -93 -16.5l-21 38c-8 15.333 -12.667 28.333 -14 39zM316.001 246.001l35.001 -54.001l61 26c12 12.667 24.667 36.667 38 72
c9.33301 26.667 16.666 53.334 21.999 80.001l-7 15l6 15l14 13l-4 7l3 30c0 11.333 -4.33301 23.333 -13 36l-25 32l-40 18l-66 -46c-14 -42 -24.667 -78 -32 -108s-11 -55.333 -11 -76c0 -38 6.33301 -58 19 -60z" />
    <glyph glyph-name="A" unicode="A" horiz-adv-x="668" 
d="M-57 0l-0.000976562 22.001c31.333 4 57.166 21 77.499 51s36.833 48.667 49.5 56l-19 32c0 14 3.66699 24.667 11 32l6 -20l77 181c6.66699 22 16 50 28 84l40 110l99 161l-2 18l6 -6c21.333 0 44.333 -3.33301 69 -10l-20 -2
c124.667 -240.667 206.667 -431.334 246 -572.001l2 6c15.333 -38 28.333 -64 39 -78c18 -24 42.333 -38.333 73 -43l8 -16c-28 0 -64.167 -0.833008 -108.5 -2.5s-70.5 -2.5 -78.5 -2.5c-36 0 -68.167 -0.833008 -96.5 -2.5s-58.166 -4.5 -89.499 -8.5l-14 10l-8 26l54 10
l23 42c0 12 -7.33301 35.667 -22 71l-24 23l-21 55l-98 19c-18 2.66699 -34 4.5 -48 5.5s-31 1.5 -51 1.5l10 -16l-38 -55c0 -10.667 -1.66699 -23.667 -5 -39c0 -6 -3.66699 -15.333 -11 -28c-5.33301 -12 -8.66602 -22.667 -9.99902 -32l2 -57l66 -4l-6 -28l-76 16
c-16 0 -63.333 -4.66699 -142 -14zM258.999 485.001l-34.999 -52.999c0 -20 -5 -44 -15 -72c-8 -26.667 -18.333 -48.334 -31 -65.001l12 10c18.667 0 40 -1.33301 64 -4c37.333 -5.33301 67.666 -9.33301 90.999 -12l-10 8c-8 10 -18 26 -30 48
c-10.667 22 -26.667 72 -48 150z" />
    <glyph glyph-name="B" unicode="B" horiz-adv-x="720" 
d="M8 0l-0.00292969 22.001c44.667 4 67 28.667 67 74l-3 64l-2 64c0 38.667 5.33301 86.667 16 144l-6 4v58l8 69l-18 72l8 10c0 35.333 -3 61 -9 77c-10 23.333 -30 37 -60 41l-14 34l149 -18c13.333 0 34.833 2 64.5 6s51.834 6 66.501 6h129l2 -8l95 -5
c38.667 -16.667 83.667 -46.334 135 -89.001l8 -64l-56 -141c-20 0 -40.167 -1.83301 -60.5 -5.5s-42.5 -9.16699 -66.5 -16.5c15.333 -3.33301 40 -11.333 74 -24c32.667 -16.667 73.667 -48 123 -94l25 -78v-99l-49 -59l-121 -30c-23.333 -6 -41.666 -11 -54.999 -15
l-17 -5h-83h-14h-11h-32c-11.333 1.33301 -18.666 2 -21.999 2c-12.667 0 -37 3 -73 9l-72 7l-112 -16zM279.997 659.001l14 -85.999v-165l-15 -18l28 2l-13 10c12 10 40 18.667 84 26c27.333 20.667 52 54 74 100c-24 41.333 -44.667 82.666 -62 123.999l-87 7l16 -12
l-27 10l-18 -12zM338.997 346.002l-23 -14.001l-45 12l14 14l4 -68c0 -51.333 -4 -93 -12 -125l4 12c0 -34.667 5.66699 -61.167 17 -79.5s33 -33.166 65 -44.499l67 31c20 20 41.333 57.333 64 112l-16 85l-52 35l-43 17z" />
    <glyph glyph-name="C" unicode="C" horiz-adv-x="743" 
d="M689 728l21.001 1.99902l3 -99l10 -43l10 -39l-3 -83h-6l-17 -9l-23 81c-24.667 12.667 -55.334 45.334 -92.001 98.001l-48 25l-175 10c-24 -33.333 -54 -68 -90 -104l-25 -98c-10.667 -51.333 -16 -82.333 -16 -93c0 -52.667 9.66699 -103.334 29 -152.001l64 -138
c22.667 -14 45.5 -25.167 68.5 -33.5s44.833 -12.5 65.5 -12.5l133 46c15.333 6 32 25 50 57c4 8 7.66699 16.333 11 25c6.66699 17.333 13.667 37 21 59l10 -1l8 -12l30 5l-16 -12l-44 -116l-144 -105l-93 -3l-109 21c-15.333 2 -27.833 3.83301 -37.5 5.5
s-24.167 4.5 -43.5 8.5l-58 28c-32 51.333 -71.333 91.333 -118 120c0 58 -11 121 -33 189c19.333 56.667 31.666 113 36.999 169c34 49.333 67 87 99 113c14.667 10.667 41.334 27.334 80.001 50.001l73 36l116 14l168 -42l43 -11c27.333 0 41 14.667 41 44z" />
    <glyph glyph-name="D" unicode="D" horiz-adv-x="806" 
d="M8 0l-0.00195312 21.998c47.333 4 71 35.667 71 95l-2 -12l14 33l-18 -8l18 4l-6 74l-4 74l10 86l-18 -10l10 68l-4 41l-4 41l8 68l-10 -8l-2 22c0 10 3.33301 21.667 10 35l-2 -12c0 52.667 -23.333 81.334 -70 86.001v36c104 -16 186 -24 246 -24l106 4l14 18l186 -34
c26.667 -20 57.667 -47.333 93 -82l89 -85c0 -51.333 10.333 -107 31 -167l-33 -106c-13.333 -44 -21.666 -79 -24.999 -105c-18 -35.333 -44.667 -64.666 -80 -87.999c-13.333 -8.66699 -61 -30.667 -143 -66l-121 -2c-4 0 -10.667 -0.333008 -20 -1s-20.666 -2 -33.999 -4
l-53 -3c-106 0 -193.667 7.33301 -263 22zM315.998 660.998l1.99805 11.999l-39 -26l14 4l-4 12l-6 -155l2 -166l2 -167h4c0 -21.333 0.333008 -37.666 1 -48.999s2.66699 -22.666 6 -33.999c6.66699 -8.66699 29.334 -23.334 68.001 -44.001
c42.667 26 84.334 47.333 125.001 64l39 56c0 18 2.66699 49 8 93l12 48l10 43c0 72.667 -12 141 -36 205l-132 105z" />
    <glyph glyph-name="E" unicode="E" horiz-adv-x="662" 
d="M8 0l-0.00195312 22c44.667 4 67 31 67 81l-2 24l-1 25c0 8 1.66699 17.333 5 28l5 28c0 9.33301 -1.66699 21 -5 35l-5 35l4 70l-8 14c0 21.333 3 52.666 9 93.999c2 14 4.16699 30 6.5 48s3.5 33.333 3.5 46l-1 25l-8 6c0 35.333 -3 61 -9 77
c-10 23.333 -30.333 37 -61 41l8 34c14 0 65 -2.66699 153 -8c55.333 -3.33301 97 -5 125 -5c67.333 0 119 -0.833008 155 -2.5s77 -4.5 123 -8.5l-12 18l17 -81l-8 -53l29 -63c-7.33301 -4 -16.666 -5.33301 -27.999 -4l-15 70l-71 61l-97 -6l-39 8l-34 -6l-31 12l2 -2
l-12 -84l20 -89l-16 -94l26 -4v8l36 -4h-10c42 0 70.667 5.33301 86 16c14.667 20.667 30.334 56 47.001 106l11 10l6 -104c0 -36.667 1 -64.334 3 -83.001c1.33301 -6 3 -12 5 -18l-2 -114l-4 14l-30 -2l-15 72l-20 21l-105 23v6l-34 -16l14 -52l-18 -54l10 -36l32 -115
l51 -10c45.333 0 88.333 3.66699 129 11c4.66699 0.666992 11.667 2 21 4s22.333 5.33301 39 10c6 0.666992 14.667 7.33398 26 20.001l15 17c4.66699 5.33301 7.66699 9.33301 9 12c10 16.667 20.667 47.334 32 92.001l11 -13l15 -67l-32 -154l4 6l-198 -2l-435 8z" />
    <glyph glyph-name="F" unicode="F" horiz-adv-x="559" 
d="M8 699l-2.00195 17.998l182 -8c18.667 0 36.834 1 54.501 3l52 6c17 2 32.833 3.66699 47.5 5s28.334 2 41.001 2l172 -6l6 2l15 -58l-19 -59l21 -70l-4 -6h-17c-12.667 65.333 -33.667 98 -63 98c-33.333 8 -73 22.333 -119 43l-15 -8l-33 14l-45 -18l10 14
c0 -2 -0.666992 -24.333 -2 -67s-2 -84.667 -2 -126l-8 -96l2 8l7 -8l19 12l5 -6l8 8c38 0 61.667 2 71 6c23.333 28 42 66.667 56 116l26 -10c0 -31.333 -0.666992 -84.833 -2 -160.5s-2 -117.5 -2 -125.5l-2 2h-18l-7 66l-65 50l-51 5l-32 -8l-22 4l-4 -61v-84l8 -59l6 6
c0 -36.667 3.33301 -63 10 -79c10 -25.333 30.667 -39.333 62 -42l-14 -22h-227l-116 -14l10 14v22c46.667 4 70 32.333 70 85l1 31l-14 88c10 30.667 18.667 71.334 26 122.001l-18 6c2.66699 23.333 4.66699 46.833 6 70.5s2 50.834 2 81.501l-6 73h4
c0 36.667 -3.33301 62.667 -10 78c-10 25.333 -30.333 39.333 -61 42z" />
    <glyph glyph-name="G" unicode="G" horiz-adv-x="788" 
d="M686 728l22 9.99805l15 -112c0 -7.33301 -1.5 -32.833 -4.5 -76.5s-4.5 -77.167 -4.5 -100.5l8 14l-10 -1c-16 38.667 -42.667 82.334 -80 131.001l-83 55c-32.667 19.333 -63.334 32.333 -92.001 39l-66 -20c-44.667 -32 -86.334 -69.667 -125.001 -113
c-3.33301 -16 -6.33301 -36.167 -9 -60.5s-4 -51.166 -4 -80.499l1 -145l14 -90l45 -80c34 -28 79.667 -48.333 137 -61l55 23l14 49c6 20 9 36.333 9 49v5l-10 14l8 10l-33 63l-44 18l-6 14c62 8 143 12 243 12l110 -4v-22c-45.333 -4 -68 -27.333 -68 -70
c0 -9.33301 3 -22 9 -38l-20 -51v-23l12 -61l-18 10l-19 -3l-17 4l3 21l-16 10l-49 -54l-138 -12c-37.333 -3.33301 -70 -5.83301 -98 -7.5s-50.667 -2.5 -68 -2.5c-11.333 4 -25.666 10 -42.999 18s-36 17.667 -56 29c-45.333 24.667 -75 45 -89 61l-54 71
c-16 44 -24 106.333 -24 187c0 42 1 69 3 81l12 47c8 30 12.667 45.667 14 47l36 55c14.667 14.667 40.334 35 77.001 61c66 47.333 148.667 78 248 92l171 -45l38 -10c29.333 0 44 14.333 44 43z" />
    <glyph glyph-name="H" unicode="H" horiz-adv-x="806" 
d="M8 0l0.00292969 22.0029c26.667 0 46.167 12.167 58.5 36.5s18.5 54.166 18.5 89.499l-16 64l16 64l-16 70l20 22c-6.66699 17.333 -12 37.666 -16 60.999s-6 48.666 -6 75.999l22 84l-8 -4l-14 13l9 6l16 -5l-12 14c0 52 -23 80.667 -69 86l-10 8
c10.667 0 23 0.666992 37 2c42 4 72.667 6 92 6c7.33301 0 17.166 1.33301 29.499 4s22.5 5 30.5 7c28 6 48 9 60 9l109 -16l-4 2l-8 -34l-45 -7l-20 -87c0 -24 1 -46.5 3 -67.5s5.66699 -42.833 11 -65.5l-20 -61h10l167 6l37 3l36 1l-16 53l10 125l4 -6
c0 35.333 -3.33301 61 -10 77c-10 23.333 -30.333 37 -61 41l4 22l108 -6c12.667 0 24.667 1 36 3l32.5 6c10.333 2 20.5 3.66699 30.5 5s19.333 2 28 2l96 -20l8 10v-22c-26.667 0 -45.667 -11 -57 -33c-2.66699 -5.33301 -5.33398 -13.666 -8.00098 -24.999s-4 -24 -4 -38
c0 -28 -3.33301 -49.667 -10 -65l10 -93l-6 -44l-5 -43c0 -8 1.66699 -18 5 -30l5 -28v-47l-2 -47l8 -62h-6v-6c0 -36.667 3.66699 -62.334 11 -77.001c10 -23.333 30.667 -36.333 62 -39v-8l-117 -4c-9.33301 0 -19.5 -1 -30.5 -3s-19.833 -3.66699 -26.5 -5
c-24 -4 -43 -6 -57 -6l-109 6l-6 -2v22c44 4 66 27.667 66 71l-4 30l-4 31c0 48 6.66699 85 20 111l-20 87l6 -14l-80 -6l-80 16l-64 -16l-10 22l-4 -75l2 -35l2 -35l-4 -65h4c0 -37.333 3 -64 9 -80c10 -25.333 30.667 -39.333 62 -42l14 -20
c-26.667 0 -67.334 -1.33301 -122.001 -4s-95.667 -4 -123 -4l-107 18z" />
    <glyph glyph-name="I" unicode="I" horiz-adv-x="362" 
d="M8 0l-9.99902 24l60 25c18 50 27 85 27 105c0 45.333 -6 90 -18 134l20 80l-6 -18l12 54l-16 73l6 66l10 -4l-19 51l9 58l-27 29l-48 22l2 12l116 -2c12.667 0 32.667 2 60 6s47.666 6 60.999 6l104 -4l4 4v-22c-22 0 -39.667 -9 -53 -27
c-8 -12 -14.333 -34.833 -19 -68.5s-7 -58.167 -7 -73.5l3 -30l3 -31v-26c0 -8.66699 0.333008 -17 1 -25c0 -16.667 -1 -32 -3 -46l10 -10l-18 -89c0 -38.667 4 -84.667 12 -138l-2 6c0 -36 3 -62 9 -78c10 -23.333 30.333 -37 61 -41l2 -10l-123 -14l-49 6
c-22 4 -38.333 6 -49 6h-127z" />
    <glyph glyph-name="J" unicode="J" horiz-adv-x="364" 
d="M11 699l-14.001 24l127 -14l113 3l114 3l6 6v-22c-24 -3.33301 -41.333 -12 -52 -26c-4 -6.66699 -10.667 -25.334 -20 -56.001l9 -17l-11 2l13 -17l-14 8l-10 -78c14.667 -36.667 22 -78 22 -124v-13v-10c-1.33301 -4.66699 -2 -8 -2 -10l2 4l6 -118
c0 -16 -2.33301 -38.333 -7 -67l-11 -68l-10 -120l18 -6l-3 -11l4 -51l-13 -5l12 -6c-16 -35.333 -43 -68.333 -81 -99c-24 -11.333 -49.167 -20.333 -75.5 -27s-52.166 -10 -77.499 -10l-99 12l-63 36l-21 49l1 44l54 29l55 -17l18 -55l5 -31c2 -11.333 11.333 -17 28 -17
c33.333 0 50 28 50 84c0 17.333 -2 44.333 -6 81s-6 64.334 -6 83.001c0 18 2.33301 43.333 7 76l7 77l-6 139l4 6l-2 68l2 28l2 29l-6 80l-8 10l5 75z" />
    <glyph glyph-name="K" unicode="K" horiz-adv-x="743" 
d="M8 22c47.333 4 71.002 36.335 71.002 97.002l-4 53l-4 52c0 51.333 6 96 18 134l-12 16l16 139l-8 80l-6 -10c0 35.333 -3.33301 60.666 -10 75.999c-10 24 -29.667 37.333 -59 40l-8 12l125 12c10 0 17.667 -0.333008 23 -1s18.166 -3.33398 38.499 -8.00098
s35.833 -7 46.5 -7l109 16l10 -2v-22c-46.667 -4 -70 -36 -70 -96c0 -9.33301 2.33301 -15 7 -17l-2 -69l4 -76l2 -76l2 12c9.33301 17.333 25.666 43 48.999 77c6 6.66699 17.333 16 34 28l34 27l63 79l6 -10c36 36 54 59.333 54 70l-27 50l-54 1l-12 18l120 14l84 -24
l122 22l-14 -8v-22c-14 0 -27.5 -1.5 -40.5 -4.5s-27.833 -7.5 -44.5 -13.5l-90 -77c-34 -32 -55 -64.667 -63 -98l-55 -32l18 -4c26 -42.667 58 -101.667 96 -177l94 -178l24 10l42 -75l65 -28h13l-6 -12l-120 -12h-30c-17.333 2 -31 3.33301 -41 4l-71 6l-138 2l4 -10
l1 22c42 0 63 14.667 63 44c0 8 -8.66699 19.667 -26 35l14 16l-24 25l10 -8l-20 8l-41 76c-4.66699 13.333 -11 29.833 -19 49.5s-19 44.167 -33 73.5l-2 -8l-36 -7l-11 -10l6 -27l-2 22l-10 -65l2 -25l2 -25l-6 -65l2 12c0 -36.667 3.33301 -62.667 10 -78
c10 -26 29.667 -40.333 59 -43l8 -24l-137 14c-9.33301 0 -16.5 -0.333008 -21.5 -1s-14.167 -3 -27.5 -7l-49 -10l-117 -6v34z" />
    <glyph glyph-name="L" unicode="L" horiz-adv-x="616" 
d="M8 22c31.333 2.66699 52 17.334 62 44.001l19 78c0 15.333 -2 40 -6 74l-7 32l-5 32v76l2 141l18 80l-12 4c0 35.333 -3.33301 60.666 -10 75.999c-10 23.333 -30 36.666 -60 39.999l-6 20l117 4c3.33301 0 10.833 0.333008 22.5 1s26.167 2 43.5 4l65 3l107 -24l-4 14
v-22c-28.667 0 -49 -13 -61 -39c-6.66699 -16.667 -10 -42.334 -10 -77.001l-6 -1c7.33301 -45.333 12.666 -101.666 15.999 -168.999s5 -144 5 -230l-12 14c0 -38 2.83301 -63.667 8.5 -77s23.834 -29 54.501 -47l68 -34c49.333 26 93.333 44 132 54
c36 29.333 56.667 73.666 62 132.999l15 -5c0 -8.66699 -0.333008 -20 -1 -34s-2 -29.667 -4 -47l-6 -33l-4 -32l11 -81l-6 14h-207c-26 0 -59.667 -2.33301 -101 -7l-101 -9l-203 -4c1.33301 2.66699 2.33301 7.33398 3 14.001s1 13.334 1 20.001z" />
    <glyph glyph-name="M" unicode="M" horiz-adv-x="902" 
d="M8 699l-12 11.998l93 10l114 12l103 -4l2 -22l43 -124c8 -36.667 22 -91.667 42 -165l61 -130l6 -2c8.66699 40 23.334 90.667 44.001 152c6.66699 15.333 12 27 16 35l18.5 31.5c4.33301 7.66699 11.166 20.834 20.499 39.501
c6.66699 12.667 11.334 22.334 14.001 29.001l40 160l2 -22c100.667 14.667 161.667 22 183 22l108 -24l-12 12v-22c-11.333 0 -21.333 -1.83301 -30 -5.5s-15.834 -9.16699 -21.501 -16.5s-11.167 -21.333 -16.5 -42c-4 -24 -8.66699 -40.333 -14 -49l4 -94l-6 -60l18 -62
l-20 -16c8 -65.333 12 -113 12 -143l-4 -68h6c0 -36.667 3.33301 -63 10 -79c10 -25.333 30.333 -39.333 61 -42l-6 -20c-2 0 -27.333 -0.666992 -76 -2s-97 -2 -145 -2l-113 -10l-6 12v22c47.333 4 71 31.667 71 83l-2 13l-1 15l14 146v36
c-2 12.667 -3.33301 22.334 -4 29.001l-6 66v140h-10c-18.667 -51.333 -31 -84.666 -37 -99.999l-34 -84l-78 -177l-71 -198h16l-32 -6l-4 12l-24 8l-10 -22c-4.66699 20 -12.167 49 -22.5 87l-33.5 118l-67 177l-70 203l-16 -4l18 -150
c0 -6.66699 -0.333008 -14.834 -1 -24.501s-2 -21.167 -4 -34.5l-7 -60l-6 -150l12 -2c0 -36.667 3 -63 9 -79c10 -25.333 30.333 -39.333 61 -42l8 -12l-75 -16l-80 12l-53 -16v32c45.333 4 68 27.667 68 71c0 12 -2 31 -6 57l18 74l-8 56l2 76v-6l10 92l-25 86
c2.66699 22 4.66699 41.833 6 59.5s2 35.167 2 52.5c0 9.33301 -7 22.666 -21 39.999c-8 10 -23.333 16.333 -46 19z" />
    <glyph glyph-name="N" unicode="N" horiz-adv-x="752" 
d="M8 0l-0.000976562 22c27.333 0 47.333 12.667 60 38l22 72l-24 88l18 54l-16 72l6 2l12 96c0 8 -1.66699 18 -5 30l-6 30l-10 88l9 48c-10 34.667 -31.667 54.334 -65 59.001l-12 10l100 -2c11.333 0 27 3.66699 47 11c12 4 21 6.66699 27 8s13 2.33301 21 3l94 -4l-8 6
l56 -91l45 -68c9.33301 -12 29.666 -32.667 60.999 -62l65 -62l121 -137l-16 18v75c0 71.333 4 129.666 12 174.999l-18 12l18 7c-5.33301 2 -12.666 7 -21.999 15h14c0 52.667 -23.333 81.334 -70 86.001l-8 20l81 8l24 -4l25 -4l77 4l2 -2v-22c-46 -4 -69 -36.333 -69 -97
l2 -19l3 -18c0 -21.333 -0.333008 -38.666 -1 -51.999c-3.33301 -67.333 -5 -109 -5 -125c0 -14.667 -1 -30.834 -3 -48.501l-5 -44.5c-4 -38 -6 -68.667 -6 -92l16 -203v14l-25 -28c-18 8 -33.667 12 -47 12l14 -4l-152 193l-160 182l-168 213l6 -14l-18 -131
c0 -14.667 0.5 -26 1.5 -34s3 -21.833 6 -41.5s5.16699 -35.834 6.5 -48.501s2 -24 2 -34l-8 -127l-2 -2l8 -93l69 -35l-6 -34c-20 8 -48.667 12 -86 12h-25c-33.333 -0 -59.666 3.33301 -78.999 10z" />
    <glyph glyph-name="O" unicode="O" horiz-adv-x="881" 
d="M40 361l-10.002 -5.99707c8 64.667 25 125 51 181c4.66699 10.667 18.334 29.667 41.001 57s40 45.333 52 54c36.667 25.333 96.667 52.666 180 81.999l97 2c24 0 55.5 -3.16699 94.5 -9.5s67.5 -13.5 85.5 -21.5l74 -47c23.333 -35.333 62 -100.333 116 -195
c0 -28.667 1.83301 -59.334 5.5 -92.001s8.83398 -68.667 15.501 -108l-37 -82c-15.333 -18 -43.333 -42.667 -84 -74l-53 -42c-12 -10 -23 -20 -33 -30c-76 -24.667 -142.667 -43.667 -200 -57c-17.333 0 -36.666 2.16699 -57.999 6.5s-44.333 10.5 -69 18.5
c-46 14 -84 32 -114 54c-37.333 53.333 -76 94.666 -116 123.999c-16.667 57.333 -29.334 119 -38.001 185zM276.998 537.003l14 4.00098l-15 -65c-5.33301 -25.333 -8 -47.333 -8 -66l-1 -54l-14 -103c12 -36 34 -89 66 -159c24.667 -14.667 47 -25.834 67 -33.501
s37.667 -11.5 53 -11.5c44.667 14.667 84.334 26.667 119.001 36l40 64c0 33.333 3.16699 68.333 9.5 105s16.166 74 29.499 112l-32 113l-3 92c-64 61.333 -116.333 98.333 -157 111l-69 -17l-61 -43z" />
    <glyph glyph-name="P" unicode="P" horiz-adv-x="636" 
d="M8 0l0.000976562 21.998c14 0 25.5 2.5 34.5 7.5s17.5 14.833 25.5 29.5c4 7.33301 6.66699 15 8 23c0 6.66699 -2.66699 16.334 -8 29.001l10 17l-11 -3l20 19l4 16l-22 51l20 72l-8 91l-10 -4l-2 64l20 74l-8 74c0 34.667 -3.66699 60.334 -11 77.001
c-10.667 24 -31.334 37.333 -62.001 40l-4 18l131 -6c14 0 35.667 2 65 6l66 8l131 -2l10 6c20 -2 45 -9 75 -21s52.333 -24.333 67 -37l59 -66l27 -62c-20 -56 -36 -106 -48 -150c-39.333 -34 -81 -59.667 -125 -77l-108 -1l-67 3l4 -116l-6 -35
c-4 -18 -8.66699 -29.333 -14 -34l16 -85l67 -26l10 -12l-127 -24h-219zM283.001 660.998l-8 -107c0 -10 2.33301 -24.333 7 -43l7 -43l-16 -91l24 -4l17 4l14 5l56 8l49 28l9 91l-12 93l-57 56l-66 -11l9 8l-12 10l-25 -4h4z" />
    <glyph glyph-name="Q" unicode="Q" horiz-adv-x="883" 
d="M612 17c6.66699 -12 28.334 -25.3311 65.001 -39.998l80 -26l41 15l57 55l24 65l8 9l16 -86l-13 -52c-41.333 -42.667 -78.333 -84 -111 -124l-95 -41c-46.667 30 -97.334 53.333 -152.001 70c-46.667 43.333 -72 85.333 -76 126c-10.667 0 -21 0.666992 -31 2l-78 13
l-108 25c-67.333 32 -126.333 90.667 -177 176c0 48.667 -10.667 96.334 -32 143.001c2.66699 13.333 6.16699 29.666 10.5 48.999l15.5 66l25 57l30 92c14 12.667 37 29.334 69 50.001c29.333 17.333 54.666 29.666 75.999 36.999l98 17l91 16h80l50 -12l52 -13l70 -43
c10.667 -13.333 24.334 -31.333 41.001 -54l52 -74l21 -41l20 -40l11 -82c0 -18.667 -5.16699 -49.334 -15.5 -92.001s-19.833 -72.334 -28.5 -89.001c-33.333 -36 -65 -77.667 -95 -125zM277 537.002l8 -7.99902l-35 -82c0 -34 4.33301 -96.667 13 -188l19 -85
c6 -26 24.333 -50 55 -72c24 -18 62 -43 114 -75l62 14l33 62c5.33301 6.66699 11.5 15 18.5 25s14.833 22.333 23.5 37l20 47l19 46l10 102c0 7.33301 -7 41 -21 101l-28 106l-24 50l-66 50l-53 11c-32.667 -10 -64.5 -28.333 -95.5 -55s-55.167 -55.334 -72.5 -86.001z
" />
    <glyph glyph-name="R" unicode="R" horiz-adv-x="786" 
d="M4 699l5.99707 18l129 -10c16.667 0 43.334 4 80.001 12s64 12 82 12l147 -6l2 -12c36 0 66.667 -1.83301 92 -5.5s50.666 -11.5 75.999 -23.5l58 -47l24 -89l-5 -89l-118 -87l-55 -9c34 -4 65 -13.333 93 -28c8.66699 -10 24.334 -30.333 47.001 -61
c19.333 -27.333 31.666 -47.666 36.999 -60.999l30 -116l114 -76l8 1v-18c-16 -4 -30.667 -6.83301 -44 -8.5s-28.666 -2.5 -45.999 -2.5l-91 -1l-103 -6l24 16l-60 63c0 24 -5.16699 49.833 -15.5 77.5s-24.5 56.834 -42.5 87.501l-4 -4c-18.667 37.333 -32 61 -40 71
c-17.333 22 -40.666 33 -69.999 33l-17 -3l-18 -3l-34 10l-13 12l-4 -22l12 -50l-18 -61l18 -68l-20 2l4 -14l14 -6l-8 -32l4 12c0 -51.333 24 -79.666 72 -84.999l4 -24l-134 2l-55 -3l-54 -3l-122 8l14 -2v22c28.667 0 49.334 12.333 62.001 37
c7.33301 13.333 11 24.666 11 33.999c0 7.33301 -1.66699 17 -5 29l-5 28v74l16 56l-18 66c0 9.33301 1.33301 19.666 4 30.999s8 25.666 16 42.999l-16 85l2 74l8 4c0 37.333 -3.66699 63.333 -11 78c-10.667 21.333 -32 34 -64 38zM278.997 661l-14 -85l9 -69
c3.33301 -21.333 5.33301 -40.333 6 -57s1 -37.667 1 -63l-14 22l46 -4l7 -14l32 14l-12 -4l66 -8l62 26l25 46l6 69l-13 54c-28 20 -49 42.333 -63 67l-84 10l-29 2z" />
    <glyph glyph-name="S" unicode="S" horiz-adv-x="602" 
d="M36 251l21.001 0.000976562l7 -68c10.667 -14 20.667 -28 30 -42l35 -54c42 -26.667 93 -40 153 -40l85 28l20 59c0 13.333 -3 28.666 -9 45.999l-16 41c-10 18 -36 39 -78 63l-113 64c-42 28 -71 58 -87 90l-15 87l12 76l54 69l66 44l87 16l83 -4
c50 -22 80 -33.667 90 -35c20.667 0 31 14.667 31 44l26 10l15 -88l-18 -99l27 -62l-6 -6l-21 -5l-12 42c-6 17.333 -14.667 28 -26 32l-50 94l-98 18l-69 -6l-3 -70c11.333 -40.667 39 -80.667 83 -120l8 13l63 -31l-20 -14l84 -38c24 -36 57 -68 99 -96
c-6.66699 -52.667 -16.334 -107 -29.001 -163l-35 -66c-28 -30 -68.333 -55 -121 -75l-90 -26l-82 4c-64 32 -99.333 48 -106 48c-19.333 0 -29 -15.333 -29 -46l-25 12l-27 153l16 91z" />
    <glyph glyph-name="T" unicode="T" horiz-adv-x="750" 
d="M-8 495l4 76.998c0 6.66699 1.66699 16.667 5 30l4 30l-10 87l8 10c41.333 0 105.333 -0.666992 192 -2s179 -2.66602 277 -3.99902s193.667 -2 287 -2l-6 -2c0 -22.667 1.5 -51.667 4.5 -87s7.83301 -77.666 14.5 -126.999l-14 -10l-24 4l-12 65
c-40 40.667 -84.333 73 -133 97l-81 8l-20 -18h-8l2 4h-8l12 -192l-10 -101l2 -6l-12 -148l18 -58l-8 -6c0 -35.333 3 -61.666 9 -78.999c10 -26 30.333 -40.333 61 -43l-10 -22l-109 -6l-55 2l-55 2l-107 -12l-10 14v22c47.333 4 71 32.333 71 85l4 66
c0.666992 9.33301 1.5 16.833 2.5 22.5s1.83301 9.5 2.5 11.5l-4 33l-3 34l3 36l4 36v53v32c-1.33301 11.333 -2 18.666 -2 21.999c0 8 -1 16.833 -3 26.5l-5 23.5c-4 21.333 -6 38 -6 50c0 50.667 2.66699 87 8 109l-33 -8l-52 14l-70 -34l-74 -40
c-9.33301 -36.667 -19.333 -70 -30 -100z" />
    <glyph glyph-name="U" unicode="U" horiz-adv-x="756" 
d="M3 699v18l128 6c6 0 13.333 -0.333008 22 -1s19 -2 31 -4l54 -5l104 16l10 -8v-22c-28 -2.66699 -46.5 -11.834 -55.5 -27.501s-13.5 -38.5 -13.5 -68.5l-14 8l17 -27v-6l-16 -4l16 -123l-3 -57l-3 -57l-2 -143l12 16l-20 -74c12 -30 36.667 -58.333 74 -85l170 1
c42 24 66.833 40.167 74.5 48.5s20.167 33.5 37.5 75.5c-7.33301 15.333 -13 37.5 -17 66.5s-6 65.167 -6 108.5c0 52 6.66699 127 20 225l-6 2c0 37.333 -3 63.666 -9 78.999c-10 25.333 -30.667 39.333 -62 42l12 34l98 -7c36.667 0 68.667 -5.66699 96 -17l-4 12v-22
c-48 0 -72 -30 -72 -90l4 -78l5 -77l-4 -222l-10 -8l-3 -62c0 -11.333 -0.833008 -21.666 -2.5 -30.999s-4.16699 -19.666 -7.5 -30.999l-57 -69c-19.333 0 -40.333 -3.83301 -63 -11.5s-46.667 -19.167 -72 -34.5l-92 13l-97 -13l-66 24c-38.667 14 -62 25 -70 33l-61 62
l6 90l-3 72l-5 72l2 234l-2 6l-2 43c0 15.333 -3.66699 29 -11 41c-12 22 -32.667 34.333 -62 37z" />
    <glyph glyph-name="V" unicode="V" horiz-adv-x="641" 
d="M-43 699l12.001 16l94 -2c65.333 0 145 4 239 12l10 -4v-22c-36.667 0 -55 -15.667 -55 -47c0 -14 5 -34.667 15 -62l49 -128l42 -103c14 -38.667 25 -74 33 -106l40 122c2.66699 10.667 7 24.834 13 42.501s13.333 37.167 22 58.5l58 96l-22 -8l22 20l-7 17l18 20
l-14 -8l5 19c0 3.33301 -2.33301 6 -7 8l-18 40l-32 19l2 26l58 -6c9.33301 0 20.666 1.66699 33.999 5l34 5l82 -10v-20c-30 -3.33301 -55.333 -23 -76 -59l-12 -23c-2 -5.33301 -3.66699 -14.333 -5 -27l-1 -12l-76 -203l-88 -184l-88 -209l16 10l-38 -12l-14 2l-4 -2
c0 4 -14 37.667 -42 101l-49 112l-24 80.5c-9.33301 30.333 -22 68.166 -38 113.499l-79 191h-8c-12.667 34 -24.667 59 -36 75c-18 26 -39.667 41.333 -65 46z" />
    <glyph glyph-name="W" unicode="W" horiz-adv-x="1085" 
d="M-36 699l10.001 31.998l115 -14l53 3l54 5l123 4c1.33301 -3.33301 2 -13.333 2 -30c-26 0 -41.667 -10.667 -47 -32v-23v-18c-1.33301 -9.33301 -2 -16.333 -2 -21l27 2l-8 -15l13 -16l-12 -8l31 -84c9.33301 -32 23.333 -74 42 -126l61 -82v-22
c20 56 33 113.667 39 173l49 62l-16 10c0 10.667 0.5 19.334 1.5 26.001s2.83301 13.667 5.5 21l-33 8l12 33l-23 29l-4 10.5c-1.33301 3.66699 -4.33301 9.83398 -9 18.501c-16 31.333 -41 48.666 -75 51.999l2 20l125 2l124 4l113 -12l-6 10v-22
c-18.667 -2.66699 -32.5 -7.83398 -41.5 -15.501s-13.5 -20.5 -13.5 -38.5c0 -20 8.66699 -51.667 26 -95l36 -84c32.667 -81.333 62 -146.666 88 -195.999l-4 -6c8.66699 31.333 28.667 81.666 60 150.999c14 31.333 25.5 59 34.5 83s16.167 46.667 21.5 68l-6 22l15 14
l6 -9l-3 28l6 -8l4 17l-14 50l-45 19l2 32c3.33301 0 11.666 -0.666992 24.999 -2s25 -2 35 -2c6 0 12.167 -0.833008 18.5 -2.5l26.5 -7c11.333 -3 21.333 -4.5 30 -4.5l79 6l4 2v-22c-27.333 0 -49.666 -10.667 -66.999 -32c-9.33301 -11.333 -20.333 -33.666 -33 -66.999
h8c-12 -12 -23 -21 -33 -27c-18.667 -52.667 -56.667 -148.334 -114 -287.001l-65 -163c-16 -42 -31 -83.667 -45 -125l-16 -4l-7 -12l-24 -4l-15 26l-14 -16c-6.66699 34 -18 81.667 -34 143c-10 30 -30.333 78.667 -61 146l-68 135l10 6l-55 -149l-61 -124l-67 -163l14 14
l-35 -10l-26 8l-1 12l-12 -10l-39 135c-2 14.667 -7.83301 35.334 -17.5 62.001s-25.667 59.5 -48 98.5s-37.833 69.5 -46.5 91.5l-21 70l-43 139l-10 -14c-14 34.667 -27.333 60.334 -40 77.001c-18.667 25.333 -42.334 40 -71.001 44z" />
    <glyph glyph-name="X" unicode="X" horiz-adv-x="774" 
d="M-29 22c11.333 0 21.832 1.50293 31.499 4.50293s19.167 7.5 28.5 13.5c38.667 25.333 70.334 55.333 95.001 90l5 -11l-4 20c0.666992 3.33301 1.33398 5.33301 2.00098 6c9.33301 14.667 24 34.334 44 59.001l76 74l42 57l8 2l-67 100
c-3.33301 9.33301 -7.33301 19.166 -12 29.499s-11.334 23.5 -20.001 39.5l-73 80l8 -20l-24 54l-52 53c-16 13.333 -37.667 22 -65 26l8 30l132 -22l119 8l134 10l2 -4v-22c-31.333 0 -47 -12.333 -47 -37c0 -11.333 5 -26.333 15 -45s20.333 -29.667 31 -33l3 -31l42 -54
l-1 -23l6 -6l49 31l53 73l-14 4l-1 10l32 5l9 22l-10 -2c7.33301 10 12.833 19 16.5 27s5.5 15.667 5.5 23c0 24 -20.667 36 -62 36v10c68.667 0 119.5 2 152.5 6s66.833 10.667 101.5 20l-6 -14v-22c-32.667 -4 -63.834 -19.333 -93.501 -46s-48.5 -56.334 -56.5 -89.001
c-32.667 -28 -67.667 -54 -105 -78l-23 -65l2 16l94 -147c37.333 -57.333 67 -107 89 -149h-12c16 -22 40.333 -49.333 73 -82c20.667 -20.667 44.334 -33 71.001 -37l-12 -36c-78.667 17.333 -159.667 26 -243 26l-69 -4c-36 0 -57.333 -2.66699 -64 -8v22
c36 0 54 13 54 39c0 12.667 -11.667 37 -35 73l-45 66l-65 102h-10l-15 -59l-56 -39l-35 -75l-14 22l17 -16c-10.667 -6.66699 -21.667 -16 -33 -28h4c-15.333 -22.667 -23 -39.334 -23 -50.001c0 -23.333 19.333 -35 58 -35l14 -34c-66.667 0 -128 8 -184 24l-74 -26
c-1.33301 9.33301 -2 17.666 -2 24.999v11z" />
    <glyph glyph-name="Y" unicode="Y" horiz-adv-x="672" 
d="M-43 699l-12 12.001l149 4l107 14l127 6c2.66699 -6 4 -18 4 -36c-29.333 0 -44 -12.667 -44 -38c0 -14 9.33301 -34.667 28 -62l4 4l-11 1c11.333 -16.667 19 -33 23 -49l14 -56l25 -72l51 -61l-4 14c26 76 64.667 144.667 116 206l-10 -6l8 24l10 -3l-6 -2
c12 29.333 18.667 49 20 59c0 27.333 -19 41 -57 41v8l78 22h61c10 0 23 -1.5 39 -4.5s29 -4.16699 39 -3.5v-22c-27.333 -2.66699 -53 -18 -77 -46c-35.333 -42.667 -55.666 -65.667 -60.999 -69c-2.66699 -11.333 -6.83398 -25.333 -12.501 -42s-13.167 -35.667 -22.5 -57
c-4 -8 -14 -22.667 -30 -44c-4.66699 -6.66699 -9.33398 -13 -14.001 -19c-7.33301 -10 -12.666 -18.333 -15.999 -25l-27 -83l-12 4l-6 -35l24 -51l-6 -37v4v-60l-1 -59c0 -8.66699 7 -22 21 -40c8 -10 23.333 -16 46 -18l4 -18h-120c-12 0 -30 -2.33301 -54 -7l-53 -5
l-124 12v18c44.667 4 67 29.333 67 76l-1 19l10 41l-3 122l-42 97c-6 8.66699 -19.167 23.167 -39.5 43.5s-33.5 35.166 -39.5 44.499l-50 103l-21 54c-23.333 45.333 -56.333 71 -99 77z" />
    <glyph glyph-name="Z" unicode="Z" horiz-adv-x="684" 
d="M383 645l-20.002 26.002l-13 -10c-14 2.66699 -36.333 4 -67 4h-13l-6 -6c-13.333 0 -36.666 -2.66699 -69.999 -8c-42.667 -8 -72.667 -19.667 -90 -35c-5.33301 -4.66699 -25 -30.334 -59 -77.001l-7 -40l-23 4c0 13.333 2.66699 36.666 8 69.999l9 37
c4 16 6 28.333 6 37l-10 78l8 4l187 -8l106 3l106 3l215 -10l-8 16c-24 -51.333 -50.5 -103.5 -79.5 -156.5s-64.167 -113.833 -105.5 -182.5l-201 -330l12 -20l41 20l76 2l-8 4l106 -6c48.667 15.333 80.334 28.333 95.001 39l70 67l13 79l25 11l-19 -93
c0 -4 0.333008 -9.66699 1 -17s2 -16 4 -26l5 -43l-7 -71l8 -2l-233 -14l-107 4l-106 4l-235 -8l6 6l90 144l45 72l67 157c5.33301 16 16.333 42 33 78l48 65z" />
    <glyph glyph-name="bracketleft" unicode="[" horiz-adv-x="303" 
d="M72 -195l-6 331l5 87.5c1.33301 23.667 2 48.834 2 75.501l7 164l-7 104l-15 209l14 -8l67 10c7.33301 0 16 -0.333008 26 -1s21.333 -2 34 -4l60 -7l8 14l-14 -23v-14l2 -15l8 -4c-6.66699 0 -12.834 -0.166992 -18.501 -0.5s-11.167 -1.5 -16.5 -3.5l-29 4l18 -14
l-17 -184l-9 -92c0 -32.667 3 -82.334 9 -149.001s9 -116.667 9 -150l-14 -290l-2 12l19 8l22 -24l19 8l28 -23l-6 -18c-3.33301 0 -10.666 3 -21.999 9l-173 -4z" />
    <glyph glyph-name="backslash" unicode="\" horiz-adv-x="355" 
d="M29 720c26 0 58.668 -4.66699 98.001 -14l32 14l8 -8c12 -89.333 35 -209.666 69 -360.999c38.667 -178.667 63.667 -298.334 75 -359.001l-14 18c-46.667 -10.667 -80 -16 -100 -16l-54 8l22 -8c-6.66699 28 -19.334 84.333 -38.001 169l-36 165l-32 156
c-2 9.33301 -5.16699 29.833 -9.5 61.5s-6.83301 49.5 -7.5 53.5l-13 115v6z" />
    <glyph glyph-name="bracketright" unicode="]" horiz-adv-x="303" 
d="M36 -195l-9.99902 19.001l-2 17l22 3l-16 18l22 8l27 -8l10 -18v301c2 27.333 3.66699 51.5 5 72.5s2 44.167 2 69.5l5 142l-8 303l4 -14l-10 -2l-37 6l-2 10l-12 -10l-12 29l4 14l12 13h-4l77 -18c24.667 3.33301 46.667 6.16602 66 8.49902s36.666 3.5 51.999 3.5l-6 8
l11 -227l5 -114l-2 -150l-4 -151l-4 -341l6 2l-77 -4l-57 22l-59 -18z" />
    <glyph glyph-name="asciicircum" unicode="^" 
d="M0 528c4 22.667 16.667 49 38 79c26.667 37.333 43.334 62 50.001 74l2 -2c10 18 17 29 21 33c8.66699 7.33301 20.667 11 36 11c14 0 26.333 -5.33301 37 -16l26 -34c8 -8.66699 18 -22.667 30 -42c7.33301 -24.667 20.666 -59 39.999 -103l24 -8l-26 11l-13 -31l-16 -7
c-32.667 50 -71.334 98.333 -116.001 145l18 -20c-25.333 -29.333 -50.666 -49 -75.999 -59l-26 -42l-2 -16l-12 15l-29 -5l-18 31z" />
    <glyph glyph-name="underscore" unicode="_" horiz-adv-x="452" 
d="M29 -43l-11.999 33v16c5.33301 -2.66699 26.666 -7 63.999 -13l64 -7c85.333 0 169.333 6.66699 252 20l4 -12l-8 -6l-6 -29h12l-4 8c-32.667 -5.33301 -68.667 -9.33301 -108 -12s-87.333 -4 -144 -4l-112 10z" />
    <glyph glyph-name="grave" unicode="`" horiz-adv-x="238" 
d="M110 559l-63 39l-18 58l-12 -6c-16 16 -24.667 29 -26 39c0 10 7.66699 18.333 23 25c14 4.66699 26 7 36 7l19 -3l19 -2c0.666992 -2 1 -10.667 1 -26v-15l20 13l-2 -12c6 -28.667 20.333 -67 43 -115l36 -33l-14 -16l5 12l-16 -25l1 -6z" />
    <glyph glyph-name="a" unicode="a" horiz-adv-x="534" 
d="M302 34l-19.002 -13l-1 4c-49.333 -11.333 -89.666 -26.666 -120.999 -45.999c-39.333 6.66699 -77.666 27.667 -114.999 63l-21 55c16 48.667 40.333 87.667 73 117c73.333 30.667 133 46 179 46l17 48l-8 18l10 14l-24 6l14 -8l6 9l-12 44l-49 28
c-22.667 0 -37 -7.66699 -43 -23c-2 -5.33301 -3 -22 -3 -50s-11 -42 -33 -42c-6 0 -11.667 1.66699 -17 5l-59 -5l-17 36c18 37.333 49.333 69 94 95l103 23c10.667 2 35.334 0 74.001 -6c16.667 -2.66699 34.667 -7.83398 54 -15.501s40.333 -18.167 63 -31.5l14 -89
l-14 -69c7.33301 -28 12.833 -53.667 16.5 -77s5.5 -47.333 5.5 -72l-20 10l10 -14l-8 -11l2 -18l8 14c3.33301 -32 16 -48 38 -48c17.333 0 32.666 11 45.999 33l6 4l-37 -68l-88 -9l-74 11zM284.998 126c-2 11.333 -3.66699 20 -5 26s-4.33301 16.333 -9 31l6 47l8 2
c-6.66699 -2 -17.167 -5.5 -31.5 -10.5s-29.833 -11.167 -46.5 -18.5l-10 -74c6.66699 -2 13.667 -7.66699 21 -17l-20 -3l6 -2c0 -38.667 13.667 -58 41 -58c26.667 0 40 18.667 40 56v21z" />
    <glyph glyph-name="b" unicode="b" horiz-adv-x="599" 
d="M3 682l0.00195312 27l100 2c13.333 9.33301 32.333 15.666 57 18.999s55.334 5 92.001 5l-13 -51c0 -24.667 0.666992 -47.667 2 -69c4 -64.667 6 -98.667 6 -102l-6 -100l4 -6c12.667 11.333 31.667 24 57 38c13.333 6.66699 25.5 11.834 36.5 15.501s20.5 5.5 28.5 5.5
l84 -13c39.333 -43.333 75.666 -86.666 108.999 -129.999l16 -94l-4 -81l-58 -83c-8.66699 -10.667 -41.667 -33.334 -99 -68.001c-20.667 0 -49.334 -0.833008 -86.001 -2.5s-59.334 -2.5 -68.001 -2.5l-59 17c-38 12 -60.333 18 -67 18c-21.333 0 -37 -10 -47 -30l-16 12
l-10 202c0 10.667 0.333008 23.667 1 39s2 32.666 4 51.999l7 92l4 212l-8 -2c0 26.667 -4.83301 46.334 -14.5 59.001s-27.167 19 -52.5 19zM316.002 405l6.00098 6l-74 -27l-17 -110l20 -52l-10 -31l16 -46l-2 10l6 -79l54 -42l34 9c17.333 42.667 33.666 102 48.999 178
c-10 76 -22 133.667 -36 173z" />
    <glyph glyph-name="c" unicode="c" horiz-adv-x="499" 
d="M463 123l18 -4c-9.33301 -29.333 -21.666 -58.333 -36.999 -87l-65 -39l-109 -8l-66 7c-46.667 22.667 -89.334 45.667 -128.001 69c-13.333 29.333 -23.666 71.333 -30.999 126s-13.333 90 -18 106l36 85c11.333 2 22.166 4.83301 32.499 8.5s22.833 9.5 37.5 17.5
c26.667 14 47 28.667 61 44l76 14c61.333 -8 119.666 -25 174.999 -51l19 -54c0 -14 -4.5 -25.5 -13.5 -34.5s-20.5 -13.5 -34.5 -13.5c-24 0 -47 15.333 -69 46l15 3l-1 10l-19 5l10 4c-7.33301 24.667 -19.666 37 -36.999 37l-32 -13l-33 -15l-42 -36l-9 -106l22 -117
l47 -80l64 -16l50 2l60 38z" />
    <glyph glyph-name="d" unicode="d" horiz-adv-x="599" 
d="M352 427l-12 52.9971l26 51l-12 85l8 -14l-34 66c-14 3.33301 -33 10.333 -57 21l133 15c50 6 93.333 16.333 130 31l-5 -29l2 -16l3 -14l-2 -165c0 -13.333 -1.33301 -28.666 -4 -45.999s-5 -31.333 -7 -42c-6 -38 -9 -66.667 -9 -86l22 -187l-8 2
c0 -32.667 3 -56.667 9 -72c9.33301 -22 28 -36 56 -42l-4 -22l-77 3l-77 -23c-14.667 -3.33301 -28.334 -7 -41.001 -11l-36 -12l-6 22l6 9l-16 36l14 -12l-62 -41c-10 2.66699 -22 4.33398 -36 5.00098s-31.333 1 -52 1h-66c-43.333 47.333 -83 121 -119 221
c24.667 58.667 40 108.667 46 150l26.5 23.5c9 7.66699 21.833 17.834 38.5 30.501c8.66699 5.33301 25.834 12 51.501 20s44.167 12.667 55.5 14l77 -1zM293 32.9971l43 49.001l30 105c0 14 -1 27.333 -3 40s-3.66699 22.667 -5 30l-20 37l20 -8l-22 74l-50 50l-50 -12
c-9.33301 -36 -16.333 -67.833 -21 -95.5s-7 -53.5 -7 -77.5l7 -36c10 -50 15 -82 15 -96l-3 -28c11.333 -4.66699 20.833 -8.83398 28.5 -12.501s20.167 -10.167 37.5 -19.5z" />
    <glyph glyph-name="e" unicode="e" horiz-adv-x="534" 
d="M516 271l-95.0029 -7.99902c-6 0 -14.167 0.333008 -24.5 1s-22.166 2 -35.499 4l-60 5l-91 -6l4 4l-1 -20c0 -13.333 3 -23.666 9 -30.999l-4 -100l44 -76l86 -3l79 2l62 79h23c-1.33301 -6.66699 -16.333 -38.334 -45 -95.001l-71 -42l-121 -11l-74 12l-135 77
c-6 54.667 -19.667 108.667 -41 162l4 59c32.667 56 63.334 95.667 92.001 119l36 22l35 22l100 26c56.667 -10 105.334 -26.667 146.001 -50c36.667 -56.667 62.667 -107.334 78 -152.001zM285.997 415.001l2 12.001l-49 -38l-23 -82
c19.333 9.33301 46.333 16.666 81 21.999l37 -10l4 -10l-17 70z" />
    <glyph glyph-name="f" unicode="f" horiz-adv-x="347" 
d="M8 14c20.667 2 41.333 13.666 62 34.999c0 24 3.33301 64.667 10 122l-15 53l14 71l-15 104h-21l-29 -16l6 20l-6 18l8 15l-8 10l-12 -6l27 8l12 10l39 -8l-10 4c8 17.333 12 40.333 12 69l-8 40l2 -6l13 88c19.333 25.333 50.333 53.333 93 84h87l70 -15l61 -39l12 -34
l-12 -62l-41 -9c-14.667 0 -26.834 4.5 -36.501 13.5s-14.5 20.5 -14.5 34.5l3 22l3 22c0 20 -11 30 -33 30c-10 0 -19 -4.33301 -27 -13c-5.33301 -7.33301 -8.66602 -16.666 -9.99902 -27.999l1 -17l1 -17c0 -8.66699 -0.333008 -16 -1 -22
c-2.66699 -14 -4.66699 -25.333 -6 -34l-7 -57l12 -68l-10 22l40 -22l62 10l40 -10l12 20l-14 -34l14 -23l-10 -6l-10 6c-18 -4 -42 -6 -72 -6l-54 12l6 -8c0 -35.333 -4.66699 -80.333 -14 -135l14 -44l-8 -6v-9l-6 -16l14 -25l-6 2l8 -53c4 -37.333 8 -60 12 -68
c8 -15.333 27.333 -25 58 -29l13 -10l-115 3l-114 3l-84 -20l-12 10v14z" />
    <glyph glyph-name="g" unicode="g" horiz-adv-x="532" 
d="M155 -96l-27 5c-16 0 -30 -6.33301 -42 -19c30 -34.667 77 -66.334 141 -95.001l100 50l27 29l-29 50c-14 0 -27.5 1.16699 -40.5 3.5s-25.5 5.83301 -37.5 10.5l10 -9h-35l16 24l-109 5l-83 41l-14 52c0 27.333 11.667 49.333 35 66c12 8 35.667 18.333 71 31
c-14.667 2.66699 -31 11.667 -49 27l-42 39l-24 64l9 89l55 51c44 5.33301 99.667 23 167 53c16 -3.33301 34.833 -8.66602 56.5 -15.999s44.5 -16.666 68.5 -27.999c26 17.333 54.333 29.333 85 36c40.667 -20 69.334 -41.667 86.001 -65c0 -25.333 -13.333 -38 -40 -38
c-16 0 -31.333 10.333 -46 31s-28 31 -40 31l-33 -10l68 -51l13 -72l-27 -77l-36 -43c-28.667 -14.667 -75.667 -28 -141 -40l-20 -2l-44 4l-44 5c-22.667 0 -34 -7 -34 -21c0 -11.333 29 -17 87 -17l27 -22l34 11l4 -2l76 -6c13.333 0 24.666 -1.16699 33.999 -3.5
s23.666 -6.83301 42.999 -13.5c22 -30 49.333 -70.333 82 -121c-28.667 -38 -50 -77.667 -64 -119l-66 -31l-66 -7l-53 -13l-47 -12c-65.333 0 -121.666 11.333 -168.999 34l-39 33c0 25.333 0.833008 46.166 2.5 62.499s5.5 32.833 11.5 49.5l63 9
c41.333 0 64.333 -14.333 69 -43zM196 301l8 -104.999c13.333 0 35.333 -3.66699 66 -11l19 99c0 33.333 -2 63.666 -6 90.999s-17 41 -39 41s-35 -14.667 -39 -44z" />
    <glyph glyph-name="h" unicode="h" horiz-adv-x="601" 
d="M3 24l58.002 34.999l9 81c0 88.667 -3.33301 158.667 -10 210l-1 131c0 8 0.5 14.167 1.5 18.5s3.16699 12.5 6.5 24.5c6 20 9 34.667 9 44l-5 36c1.33301 5.33301 5.66602 11.333 12.999 18l-25 54l-55 6l11 11l31 -1c71.333 0 140 14.333 206 43
c-2 -9.33301 -8 -23.666 -18 -42.999l24 -98c0 -58 -6.66699 -121.333 -20 -190l12 -6c6.66699 5.33301 16.5 12.666 29.5 21.999l41.5 29l71 22l53 -36l38 -5l44 -57l9 -66l-22 -39l28 -58l-28 -69l20 -10l19 -83l37 -34h8l-115 -26l-39 3l-39 3l-95 -4
c1.33301 5.33301 2 10 2 14c-0.666992 4 -1 7.33301 -1 10c28 3.33301 42 27.666 42 72.999l-1 97l16 71l-14 61v21c0 33.333 -16.333 50 -49 50s-53.334 -17.333 -62.001 -52c-3.33301 -13.333 -5 -43.666 -5 -90.999l6 -32c4 -14 6 -24.667 6 -32l-8 -55l2 14
c0 -39.333 3 -70.666 9 -93.999c4 -18 14.333 -28.333 31 -31l-5 -16l-85 10h-99l-91 -16z" />
    <glyph glyph-name="i" unicode="i" horiz-adv-x="322" 
d="M11 14c25.333 3.33301 41.332 17.668 47.999 43.001l29 28l2 67l-26 16l26 12l-26 46l8 -4l16 23l4 58l-4 37l-6 -8l-11 52l-59 24l9 16c58.667 12 137.667 24.667 237 38l-5 -32l2 -23l-16 -87c0 -9.33301 2 -24 6 -44l8 -42l-2 -99v4c0 -38 2.66699 -64 8 -78
c8.66699 -26.667 27.334 -42.334 56.001 -47.001l-12 -4l-101 -4l-45 -6l-45 -4l-101 12v6zM64.999 632.002v-8l34 76l72 24l59 -21l24 -69l-26 -82l-70 -16l-69 18z" />
    <glyph glyph-name="j" unicode="j" horiz-adv-x="316" 
d="M264 462l-6.00098 -37.002c-2.66699 -12.667 -7.66699 -23.667 -15 -33l12 -169c0 -9.33301 1 -20.166 3 -32.499l5 -30.5c4 -26 6 -46.667 6 -62l-24 -147l24 -20l-37 -87c-17.333 -22 -46.666 -48.667 -87.999 -80l-69 -1l-109 21l-55 25l-5 43
c0 33.333 22.333 53.333 67 60l27 -20l25 -42c0 -14 1 -23.667 3 -29c2 -10 9 -15 21 -15c22.667 0 34 18 34 54l-12 29l22 22l-22 -13l8 4l16 154c0 13.333 -3 34.666 -9 63.999s-9 51 -9 65l16 138l-10 6c0 26.667 -4.5 45.834 -13.5 57.501s-26.5 18.834 -52.5 21.501
l-10 8c28.667 0 49.5 0.833008 62.5 2.5s39.333 5.5 79 11.5s78.167 16.667 115.5 32zM70.999 630.998l4 -8l25 64l70 56l70 -32l17 -70l-31 -71l-62 -30l-68 14z" />
    <glyph glyph-name="k" unicode="k" horiz-adv-x="591" 
d="M3 14l-12.001 -9.99707l77 48l-4 76l-3 76c0 8.66699 2.33301 22.334 7 41.001l7 41l-12 72l6 10l10 67c0 8 -0.666992 15.667 -2 23s-2.33301 13 -3 17l-7 40l-8 77l22 12l-13 17l-4 -9l-9 27l12 -2c-3.33301 30 -24.666 45 -63.999 45l-8 25l36 -1
c21.333 0 50.5 2.33301 87.5 7s81.5 12 133.5 22c-6 -22 -9 -39 -9 -51l6 -141c0 -14 -3 -37.333 -9 -70s-9 -56.667 -9 -72l24 -161l-18 2c23.333 26 46.333 44 69 54l26 42h14c22 21.333 33 38.333 33 51c0 19.333 -20 33.666 -60 42.999c43.333 0 86.333 1.16699 129 3.5
s88.334 6.5 137.001 12.5l-2 -2v-14c-23.333 -3.33301 -44 -9 -62 -17l-56 -24l-11 -26c-34 -14 -58.333 -28.333 -73 -43l16 -8c3.33301 -8.66699 6.5 -16.5 9.5 -23.5s13.167 -28.167 30.5 -63.5c3.33301 -6 12.666 -16.667 27.999 -32
c13.333 -12.667 23 -23.334 29 -32.001l32 -79l8 10c16 -22.667 30.333 -40.334 43 -53.001c16 -14 36.667 -23 62 -27l4 -8l-110 -16l-117 3l-118 3l10 4v14c30.667 0 46 9 46 27l-3 18v17l-44 35l-5 38l-30 57h8l-28 -21l-7 13l-8 -9h6v-27l12 -10l-24 -5l14 -8
c0 -56.667 4.66699 -93.334 14 -110.001c4 -8 12.333 -13 25 -15l10 -28l-115 22l-49 -3l-47 -3l-93 2l14 -4z" />
    <glyph glyph-name="l" unicode="l" horiz-adv-x="316" 
d="M3 675l3.99902 9.99902l80 26l67 -3l98 27c-1.33301 -8 -3.5 -17.5 -6.5 -28.5s-7.5 -24.5 -13.5 -40.5v-173c0 -27.333 0.333008 -55.166 1 -83.499s1.66699 -58.166 3 -89.499l22 -181l-2 -10l16 -83l40 -32l2 -26l-114 12c-9.33301 0 -16.166 -0.166992 -20.499 -0.5
s-13.833 -1.83301 -28.5 -4.5l-48 -5l-94 14l-4 -4l-12 12l58 31l19 87l-2 16l-2 58l8 96l-18 56c2 18.667 5.33301 46 10 82c8 63.333 12 114.333 12 153l-8 6c-8 11.333 -12 31.666 -12 60.999z" />
    <glyph glyph-name="m" unicode="m" horiz-adv-x="893" 
d="M11 14c18 2 31.6689 6.99512 41.002 14.9951l29 38l5 89c0 7.33301 -4.66699 25.333 -14 54l-2 -4c2.66699 10 5 22 7 36s3 27 3 39l-6 38l4 10c0 25.333 -4.5 43.833 -13.5 55.5s-26.5 19.5 -52.5 23.5l95 21l54 25l91 8v-16l-2 -11l-1 -10l1 -22
c15.333 10.667 27.666 15.334 36.999 14.001l41 37l78 3c53.333 0 95.666 -17.667 126.999 -53c5.33301 4 17 11.833 35 23.5l33 21.5l64 -7l64 5l53 -21c20 -36 37 -93.667 51 -173l-26 -65l20 -37l-6 2l-1 -96l65 -43l-5 -28l-84 20l-203 -8l8 2v14
c31.333 6 47 43.667 47 113l-6 29l-6 28l-2 80l4 45h10l3 9l-8 15l6 -2c0 32.667 -14.667 53.334 -44 62.001l-64 -38l-19 -50l22 -49l-2 -72l-14 -35l8 -10c0 -16.667 0.333008 -31.167 1 -43.5s2 -22.166 4 -29.499c6 -29.333 20 -46.666 42 -51.999l10 -28l-112 12
l-40 -3l-41 -3l-96 -2l14 10l-1 14c20 4 33.333 19.333 40 46l6 67l5 61l3 61c0 46 -7 83 -21 111l-43 19l-43 1l-26 -82l26 -45c-2.66699 -14 -4.66699 -26.333 -6 -37s-2 -22.667 -2 -36v-16c1.33301 -8 2 -13.667 2 -17l-6 -8c0 -16.667 0.333008 -31.167 1 -43.5
s2 -22.166 4 -29.499c6 -30 19.667 -47.333 41 -52l-12 -12l-76 8c-7.33301 0 -22.333 -0.666992 -45 -2s-41.667 -2 -57 -2l-103 -6h6v14z" />
    <glyph glyph-name="n" unicode="n" horiz-adv-x="618" 
d="M13 14c25.333 4 38.999 13.667 40.999 29l28 26l-6 103l16 24l-18 10l16 14l2 41l-18 24l6 39l-12 20l5 44l-59 20l45 12l50 15l65 3l80 24v-16l-2 -11l-1 -10l1 -22l28 29c36.667 16 72 29 106 39l86 -9l38 -28c28 -88 42 -142.667 42 -164l-3 -35l-3 -35l4 -67l-2 -2
l23 -77l37 -40l-6 -20l-100 -6c-112.667 0 -173.667 4 -183 12l-14 22l60 15c0 26.667 -0.833008 60 -2.5 100s-2.5 63 -2.5 69l20 55l-6 61l-14 -16l18 21l-8 10l6 11l-6 -6c-4 29.333 -16.667 44 -38 44l-62 -9l-25 -55c0 -28.667 2.16699 -63.5 6.5 -104.5
s7.5 -72.5 9.5 -94.5l-8 14c0 -31.333 2 -55 6 -71c6.66699 -24.667 21.334 -42 44.001 -52l6 -6l-89 -8c-34 0 -61 -1.33301 -81 -4l-23 -6l-97 16l-6 -6v14z" />
    <glyph glyph-name="o" unicode="o" horiz-adv-x="587" 
d="M29 223l-4.00098 -5c8 52 25.333 102 52 150l45 45l94 46c16.667 -2.66699 37.834 -4.33398 63.501 -5.00098s56.834 -1 93.501 -1c51.333 -24 98 -51.667 140 -83l45 -79c-2.66699 -23.333 -4.66699 -46 -6 -68s-2 -45.667 -2 -71l-90 -117l-162 -58
c-29.333 4 -58.833 9.16699 -88.5 15.5s-57.834 13.833 -84.501 22.5l-58 71c-6 18.667 -12.333 40.334 -19 65.001c-2.66699 9.33301 -9 33.333 -19 72zM292.999 406c-18.667 -12.667 -39.001 -36.668 -61.001 -72.001l-14 -22l-23 -101l11 -86l94 -102
c20.667 26.667 41.334 58.334 62.001 95.001l3 109l-5 107l-24 52z" />
    <glyph glyph-name="p" unicode="p" horiz-adv-x="600" 
d="M8 422l-14 -4.00098c28.667 8.66699 64.5 16.667 107.5 24s92.833 14 149.5 20l-4 -15l-8 -56c35.333 36.667 78 62.334 128 77.001c50.667 -6 99.667 -28.333 147 -67l55 -72l6 -104l-11 -65c-18 -28 -48 -70.667 -90 -128l-46 -35l-76 -12
c-2 -0.666992 -5.66699 -1 -11 -1c-10 0 -24.333 2.83301 -43 8.5s-32 14.5 -40 26.5l-12 -22l12 -49l-22 -36l24 8l-13 -110l65 -19l5 -15l-95 -4l-61 -6l-60 -4l-48 6c-28.667 4 -43.667 6.66699 -45 8v15c40 6 60 29.667 60 71c0 10 -2 18 -6 24l10 104l10 61
c4 26 6 46.333 6 61l-18 116l8 -4l4 30l-22 47l14 26l-10 10l-5 -3l-2 13l5 27l8 -12c0 12 -6.33301 22.167 -19 30.5s-27 13.5 -43 15.5v14zM317 403.999l-46 -24.999c0 -74.667 -9.33301 -123 -28 -145c0 -18.667 1 -35 3 -49s5.66699 -28 11 -42l-12 6l30 -78l43 -41
l35 20l31 61l17 110l-29 61l1 77c0 11.333 -6.5 21.666 -19.5 30.999s-25.167 14 -36.5 14z" />
    <glyph glyph-name="q" unicode="q" horiz-adv-x="591" 
d="M509 446l16.999 -2l12 -175c0 -17.333 -3 -44.833 -9 -82.5s-9 -65.5 -9 -83.5l18 -181l-10 -6c0 -38 2.33301 -64.333 7 -79c8.66699 -26 27.334 -41.333 56.001 -46l-2 -7l-109 -6l-43 3l-43 3l-105 -20v13l40 51l25 74l-10 49l10 32l-2 27l2 -2v20
c-31.333 -21.333 -52.333 -32.666 -63 -33.999c-44.667 0 -92.334 2.33301 -143.001 7c-43.333 35.333 -78 76 -104 122l-3 80v85c8.66699 21.333 22 49.666 40 84.999c17.333 28 51.333 56.667 102 86h90l27 -4l26 -4l61 -3c4.66699 -8.66699 10.334 -15.667 17.001 -21
l25 -3c10.667 -5.33301 21.667 -8 33 -8c17.333 0 33 10 47 30zM280.999 38l-10 -12.999c26 18 51.667 39.667 77 65l-5 101l2 8l2 9l-2 72h10c0 38 -3.33301 66.667 -10 86c-10 27.333 -30 45.666 -60 54.999l-33 -17l-41 -67v-102l7 -56c4 -35.333 6.66699 -54 8 -56
l24 -55z" />
    <glyph glyph-name="r" unicode="r" horiz-adv-x="413" 
d="M12 14l-5.99805 -5.99902l61 33l1 105l20 22l2 30l-2 32l-14 -12c3.33301 28 8.66602 57.667 15.999 89l-12 15l10 -4l-27 78l-47 12l3 28l80 -11c20.667 12 44.167 21.167 70.5 27.5s55.833 9.5 88.5 9.5c-1.33301 -5.33301 -3.33301 -12 -6 -20
s-7.33398 -18.333 -14.001 -31l20 -13l-6 -18l4 -19l-4 14c14.667 28 28.334 47 41.001 57c7.33301 5.33301 27.666 16.666 60.999 33.999l74 -13l10 -62c0 -39.333 -15.667 -59 -47 -59c-15.333 0 -30 7.33301 -44 22s-29.333 24 -46 28l-43 -44c0 -16 -1 -34.333 -3 -55
s-4.66699 -41.667 -8 -63l20 -39l-12 -42c0 -38.667 2 -65 6 -79c8 -26 27.333 -41.333 58 -46l2 -2c-139.333 0 -243.333 -4.66699 -312 -14l6 2z" />
    <glyph glyph-name="s" unicode="s" horiz-adv-x="424" 
d="M14 165l15 1.00293l15 -43c6 -16 14.333 -28.333 25 -37l46 -33c32.667 -17.333 68 -26 106 -26l33 45c0 21.333 -20.333 44.333 -61 69c-52 32 -80.667 50.667 -86 56l-62 69l-14 64c16 43.333 45.667 82.666 89 117.999c40 0 86.667 -3.33301 140 -10l30 -6l28 -5
c10.667 0 16 9.33301 16 28l6 4l24 -59l-3 -60l-16 -37l14 -2l-26 4l-21 78l-83 34c-12 0 -22.167 -4.16699 -30.5 -12.5s-12.5 -18.833 -12.5 -31.5l7 -44l75 -31h5l18 -27l4 16c24 -16.667 45.5 -38.334 64.5 -65.001s31.167 -53.667 36.5 -81l-11 -99
c-30 -6.66699 -59.333 -14.834 -88 -24.501s-58 -21.167 -88 -34.5c-23.333 0 -50.666 5.66699 -81.999 17c-11.333 4 -22.333 7.66699 -33 11s-20.334 5.33301 -29.001 6c-13.333 0 -21 -11 -23 -33l-20 11c-10 33.333 -15 71 -15 113l19 55z" />
    <glyph glyph-name="t" unicode="t" horiz-adv-x="368" 
d="M11 397l1.99902 22.001l-14 -3l4 40l20 -20c30 23.333 68.667 38 116 44c16 12 33.5 28.833 52.5 50.5s31.167 41.167 36.5 58.5h23l-20 -14l16 -20l-2 -59l6 -62l-8 22l40 -18l47 12l36 -18l-6 16l18 -6c-5.33301 -8 -8 -23.667 -8 -47l-10 12
c-8 -4.66699 -23 -8.83398 -45 -12.501s-49.333 -5.5 -82 -5.5l18 4c0 -36 -1 -81.333 -3 -136s-3 -91.667 -3 -111l-12 12l2 -37l10 -2l2 -5l-2 -10c0 -41.333 20.333 -62 61 -62c24 0 45.667 11.667 65 35l15 -10l-35 -59l-106 -18
c-37.333 -5.33301 -72.666 -8 -105.999 -8l-64 48l-8 44c-0.666992 6 1.33301 38.333 6 97l8 91c0 16.667 -0.333008 30 -1 40c-3.33301 50.667 -5 81 -5 91l-16 -10l-14 6v12l-44 -10z" />
    <glyph glyph-name="u" unicode="u" horiz-adv-x="590" 
d="M5 422l5.99902 9.99609l97 15l51 -17l94 32c-4 -14 -6 -25.333 -6 -34l1 -11l1 -12l-2 -92l-6 -44l-4 -43c0 -55.333 2.66699 -86 8 -92c0 -25.333 1.66699 -42.666 5 -51.999c6 -17.333 19.667 -26 41 -26c38.667 0 58 28.333 58 85l2 61l-18 62l24 51l-10 14
c0 24 -4.66699 42.167 -14 54.5s-26.666 20.5 -51.999 24.5l-5 6c30.667 0 54.167 1 70.5 3s35.5 5.33301 57.5 10c48 7.33301 88.667 19 122 35c-10 -38 -15 -59.667 -15 -65l4 -37l4 -36l-2 -53l-2 -52l2 -81c2 -61.333 24.333 -95.333 67 -102l-10 -27
c-52 0 -95.5 -3 -130.5 -9s-64.833 -15 -89.5 -27l-8 16l14 19l-16 7l-6 21h8c-9.33301 -7.33301 -17.333 -11.666 -24 -12.999l-9 3c-20 -19.333 -56.667 -35 -110 -47l-64 10c-14.667 16.667 -37 44.667 -67 84c0 6.66699 2 52.667 6 138c2 42.667 3 82 3 118h-10
c0 26.667 -4.5 45.834 -13.5 57.501s-26.5 18.834 -52.5 21.501v14z" />
    <glyph glyph-name="v" unicode="v" horiz-adv-x="438" 
d="M-51 432l-4.00293 14.002h114l47 6l47 4l114 -12l-6 2v-14c-26.667 0 -40 -13.333 -40 -40c0 -4.66699 0.333008 -10 1 -16s2 -13.333 4 -22l6 -38c10 -20 29 -53.333 57 -100l-18 8l39 23l16 69l-2 -8c17.333 40.667 26 68.667 26 84c0 23.333 -13 36.666 -39 39.999
l-8 26l61 -22l51 12l87 -2h-14l1 -14c-18 -2 -35.333 -8.33301 -52 -19l-68 -115l-46 -110l-41 -97c-13.333 -34.667 -23.666 -68 -30.999 -100l4 -2l-41 -10l8 20l-31 2l8 -18l-66 99c-4 25.333 -12 62.666 -24 111.999l-56 121l6 -4c-17.333 38 -30.666 63.333 -39.999 76
c-19.333 26 -42.666 41 -69.999 45z" />
    <glyph glyph-name="w" unicode="w" horiz-adv-x="669" 
d="M-43 432l3.99902 13.998l101 1l100 1l102 -10v8l1 -14c-24.667 0 -37 -13.667 -37 -41c0 -10.667 2 -26 6 -46l8 -45l25 -31l-2 -29l29 -7l-20 -18c6.66699 19.333 14.334 39 23.001 59l27 59c22 48 37 88 45 120l14 12l11 -24l32 10l17 -8l-8 14
c2 -18.667 7.33301 -42.667 16 -72l57 -99l30 -62l-14 -12c8 44.667 19.333 74.667 34 90v6c15.333 42 23 70 23 84c0 23.333 -12 36.666 -36 39.999l-7 12c14.667 -1.33301 29.667 -2.33301 45 -3s38.666 -1 69.999 -1l69 20l-10 -14v-14
c-14.667 -2 -26.667 -7.33301 -36 -16l-29 -29l-15 -14c-13.333 -21.333 -26.666 -49.666 -39.999 -84.999l-31 -89l-31 -84c-18 -47.333 -35.333 -90.333 -52 -129l-5 6h-27l6 -14l-55 87c-7.33301 14.667 -14.666 34.834 -21.999 60.501s-15.666 59.834 -24.999 102.501
l-2 -12c-14.667 -16 -29.334 -39 -44.001 -69l-34 -72l-48 -71l6 -18l-11 14l-18 -20l-17 -2l-14 2c-4 32.667 -12 76.334 -24 131.001c-2.66699 9.33301 -10.667 23.666 -24 42.999c-2.66699 4 -6.66699 10.833 -12 20.5s-9 17.167 -11 22.5l-28 115l-18 4l-14 33
c-14.667 30.667 -24.334 49 -29.001 55c-10.667 14.667 -27.667 24 -51 28z" />
    <glyph glyph-name="x" unicode="x" horiz-adv-x="465" 
d="M-43 14c28 4 48.998 11.668 62.998 23.001c8 6 24.667 23.667 50 53c6.66699 9.33301 13.334 18.166 20.001 26.499s16.667 19.833 30 34.5l20 15c4 9.33301 13.333 21.333 28 36l-6 -16c-23.333 53.333 -46.333 96.666 -69 129.999l-2 -2l-48 51l-19 36
c-3.33301 6 -11.5 12.667 -24.5 20s-23.5 11 -31.5 11c64 12 131.667 18 203 18l100 -10l4 6v-14c-20.667 -2 -31 -11 -31 -27c0 -12.667 5.66699 -28.334 17 -47.001l-1 -21l17 -8l14 -24l-5 7l23 7l11 26l-3 9c20.667 16.667 31 35.334 31 56.001
c0 14 -10.667 22.333 -32 25l8 -3c10 5.33301 24.833 9.33301 44.5 12s41.834 4 66.501 4l42 -14l14 12v-14c-19.333 -4 -44 -20.667 -74 -50l-63 -66l-10 -22l1 -13l-38 -22c3.33301 -1.33301 15.666 -16 36.999 -44l8 -50l35 -28l14 14l36 -70
c11.333 -22 21.666 -37.667 30.999 -47s25.333 -16 48 -20l-7 -4c-9.33301 0 -19.166 -0.5 -29.499 -1.5s-48.5 -5.5 -114.5 -13.5c-27.333 -3.33301 -53.666 -5.66602 -78.999 -6.99902s-47.333 -2 -66 -2l-10 14v14c12 2 24 11 36 27l-32 36l-26 67l-2 -19l-45 -46
l-16 -42c0 -12 10 -19.667 30 -23l-13 -24l-43 4l-43 -1l-43 -1c-6 0 -15.333 1.66699 -28 5l-28 3v14z" />
    <glyph glyph-name="y" unicode="y" horiz-adv-x="464" 
d="M-51 432c12 -1.33301 28.333 -0.00195312 49 3.99805l50 8l54 -2l54 -2l90 16l10 -10v-14c-26 0 -39 -12.333 -39 -37c0 -10.667 2 -26.667 6 -48l9 -49c9.33301 -8.66699 21.333 -27.334 36 -56.001l31 -64l-4 -4l38 68l4 38c32.667 44.667 49 83.334 49 116.001
c0 21.333 -12.333 33.333 -37 36l-9 18l64 -4l60 12l62 -12h-8v-14c-20.667 -2.66699 -33.334 -13 -38.001 -31l-50 -39c-8.66699 -30.667 -24 -67.667 -46 -111l-52 -108c-8.66699 -34 -24.667 -83 -48 -147l-83 -143c-14 -29.333 -27 -50.166 -39 -62.499
s-33.667 -25.833 -65 -40.5c-26 30 -49.667 52.333 -71 67c0 32.667 17.667 49 53 49c8 0 11.667 -3.33301 11 -10l16 10l-4 -3l30 -20l-12 10l9 -1c15.333 0 30.833 17.833 46.5 53.5s23.5 61.834 23.5 78.501c0 8.66699 -1.33301 16 -4 22v16l-53 91
c-3.33301 11.333 -8.16602 25.833 -14.499 43.5s-14.833 38.5 -25.5 62.5l-59 77l12 18l-20 55l-39 38c-16 14 -31.667 22.333 -47 25z" />
    <glyph glyph-name="z" unicode="z" horiz-adv-x="493" 
d="M8 0c29.333 60 68.6689 128.333 118.002 205l129 199l-16 -4l-28 4l-14 -6l8 -6c-22.667 0 -53.334 -3.66699 -92.001 -11c-14 -22 -31.333 -53.667 -52 -95l-18 -12l18 77l-5 30l2 65l4 6l128 -20c7.33301 0 17 0.333008 29 1s25.667 2 41 4l70 5l146 -10l10 14
l-123 -204c-48 -80.667 -86.333 -150 -115 -208h-8l4 4l44 20l22 -2l-12 -14c39.333 10.667 67.666 20.334 84.999 29.001c24 10.667 49 27 75 49l17 53l7 6l5 -76c0 -3.33301 -0.333008 -8.83301 -1 -16.5s-2 -16.834 -4 -27.501l-3 -49l6 -6l-154 -6l-86 3l-85 3l-76 -3z
" />
    <glyph glyph-name="braceleft" unicode="{" horiz-adv-x="397" 
d="M29 360l-6 0.000976562l57 7l28 176l-20 100l14 109l-16 -24l36 93l67 27l42 -18l61 18l32 -18l22 16c-5.33301 -12.667 -8 -30.334 -8 -53.001l4 -29l-4 -8c-44 0 -66 -11 -66 -33l1 -7l-18 -103c8.66699 -26 15.167 -53 19.5 -81s6.5 -54.667 6.5 -80l-18 12l-11 -69
l-35 -22c-10.667 -6.66699 -23 -11 -37 -13l12 -1c6.66699 0 13 1.66699 19 5l53 -54c12.667 -36 19 -83 19 -141c0 -36 -0.666992 -67 -2 -93l-6 -72l-6 8c0 -32 18.667 -48 56 -48l25 6c-10 -17.333 -17.333 -41 -22 -71l14 -35l-48 26h-59l-46 -18l12 4l-69 25
c-6 12.667 -12.833 28.5 -20.5 47.5l-17.5 43.5c-8 30 -12 94.333 -12 193l24 115l-8 -22l-22 59z" />
    <glyph glyph-name="bar" unicode="|" horiz-adv-x="218" 
d="M29 0l-0.000976562 240l-4 123l-4 123l12 246l-16 -10h62h28c10.667 2 18.667 3.33301 24 4l52 6l-20 -6l13 -157l7 -79c0 -10 -0.666992 -29.833 -2 -59.5s-2 -49.5 -2 -59.5l-6 -119l-6 -254h10c-5.33301 -0.666992 -10.666 -1 -15.999 -1h-12
c-30 0 -55.333 5.66699 -76 17l-50 -20z" />
    <glyph glyph-name="braceright" unicode="}" horiz-adv-x="397" 
d="M29 -122l12.001 29.001l-20 32l4 25c23.333 0 39 1 47 3c14 4 22.667 15 26 33l10 85l-3 48l-3 48l8 79l-18 6l33 60l28 22c9.33301 6 20.666 10 33.999 12l-28 4l-36 33c-0.666992 3.33301 -2.66699 12.666 -6 27.999l-17 87c-9.33301 60 -14 96.333 -14 109l6 85l6 2
c0 32 -18.667 48 -56 48l1 6c-12.667 11.333 -22 28.333 -28 51l6 27l4 6l54 -6l49 14l40 -24l-6 8l84 -23l21 -85l-3 -100l-3 -99l8 -95l27 -59l32 -3c-26.667 -22 -45 -51.333 -55 -88l8 -93l-4 -58l-4 -58l2 -113l6 20l-29 -65l-74 -53c-72.667 0 -125 8 -157 24z" />
    <glyph glyph-name="asciitilde" unicode="~" horiz-adv-x="385" 
d="M0 809l48 73.002c11.333 14.667 22.5 25.5 33.5 32.5s23.167 10.5 36.5 10.5c20.667 0 59 -11.333 115 -34l-9 4l18 -21l4 14c24.667 -9.33301 42.334 -14 53.001 -14c15.333 0 33.666 15 54.999 45l2 -17l11 -4l26 9c-29.333 -52.667 -46 -81.334 -50 -86.001
c-25.333 -35.333 -50 -53 -74 -53c-28 0 -56 7 -84 21v9l-15 -4l-47 18l-47 11c-10 0 -19.333 -6.66699 -28 -20c-4 -2.66699 -6 -10.334 -6 -23.001l-15 28l-39 13z" />
    <glyph glyph-name="nonbreakingspace" unicode="&#xa0;" 
 />
    <glyph glyph-name="exclamdown" unicode="&#xa1;" horiz-adv-x="302" 
d="M185 468l22 -162.001c8.66699 -65.333 20.667 -117.666 36 -156.999l10 -12l14 -77l-19 -48l-86 -19l-85 15l-28 45c0 10 0.5 17.5 1.5 22.5s3.16699 12.833 6.5 23.5l11 44l15 112c6 43.333 20 114.333 42 213v14l32 -4l-4 -4l34 2zM58 633.999l23 82l84 11l74 -39
l19 -68l-41 -59l-59 -15l-59 19z" />
    <glyph glyph-name="cent" unicode="&#xa2;" horiz-adv-x="499" 
d="M262 459l8 23.001l-10 8l10 37l-14 -6l15 -10l30 24l23 -16l-10 -30l8 -22l-6 6l-4 -12c27.333 -5.33301 50 -10 68 -14l22 -5l66 -85c0 -33.333 -17.667 -50 -53 -50c-18 23.333 -37.667 46.666 -59 69.999c-2 22 -10.333 33 -25 33l-28 -4l-1 -121l-3 -120l6 -141l6 12
l15 -3c7.33301 0 15.666 4 24.999 12l33 -6c30 18 47.667 29.667 53 35c8 8 18 24.333 30 49l17 -4c-10.667 -35.333 -25.667 -61.666 -45 -78.999c-40 -36 -87.333 -54 -142 -54l10 -22l-12 -17l2 -40l18 12l-21 -24l-31 20l-1 -22l-12 10l2 36l-4 6l20 52l-12 -1
c-45.333 0 -112.666 34.333 -201.999 103c-6.66699 14 -11 31.667 -13 53l1 55l-5 86l21 69c52.667 39.333 92 64.666 118 75.999zM261 66.001l2 110l-3 54l-5 55l-4 130l10 -6c-12 -20 -22.667 -46.333 -32 -79l-20 -81l12 -80c4 -29.333 8.16699 -49.833 12.5 -61.5
s13.5 -25.5 27.5 -41.5z" />
    <glyph glyph-name="sterling" unicode="&#xa3;" horiz-adv-x="809" 
d="M265 143c0 16.667 1.16992 37.667 3.50293 63l10.5 110l-55 -2l-33 -20l-25 12l-22 -4c0 6.66699 2.33301 15.667 7 27l13 26l-10 4l42 6l34 -6l42 8l6 -8c0 18.667 4 27.334 12 26.001v93c4 40 27.667 93 71 159l220 107c24 -6.66699 58.333 -18.667 103 -36l69 -52
l29 -79c-3.33301 -16.667 -13 -36.334 -29 -59.001c-7.33301 -10 -14.333 -19 -21 -27s-14.334 -15.333 -23.001 -22h-17h-15h-13h-38.5c-13 0 -26.167 0.333008 -39.5 1h-11l-43 73l20 -1c8 -32 23.667 -48 47 -48l41 20l37 71l-33 70l-45 38c-22 0 -41 -8.5 -57 -25.5
s-27.667 -37.167 -35 -60.5l-22 -80c0 -26.667 3 -60 9 -100l-15 -16l-6 -29h10l3 -9l-4 -23l-8 -2l52 -2l69 26l72 -18l-16 -6l1 -15l-13 -9l7 -17l8 -6h-28.5c-9 0 -20.5 -1 -34.5 -3l-52 -7l-63 4v8c-8 -40.667 -18.333 -76 -31 -106
c-5.33301 -14.667 -20.333 -46 -45 -94l79 -24c28.667 0 56.5 2.16699 83.5 6.5s60.167 11.166 99.5 20.499c37.333 24.667 67 60.334 89 107.001h18l-2 -48l-2 -47l-30 -75c-52 -30 -104.333 -49 -157 -57c-20.667 6 -46.334 12.333 -77.001 19s-68.334 14 -113.001 22
l-36 36c-40 -40 -68.667 -63 -86 -69c-31.333 -10 -64.333 -15 -99 -15l-110 18l-27 61l40 61l60 23l51 17c26.667 0 54.667 -5.33301 84 -16zM165.003 6l-8 -8c14 10 33.667 26.667 59 50l42 69c-14.667 2.66699 -32 9.66699 -52 21l-72 -27l-29 -38l19 -55z" />
    <glyph glyph-name="currency" unicode="&#xa4;" horiz-adv-x="839" 
d="M602 288l-97.999 4.00391l-97 4l-64 -18l-12 10c8 -48 21.667 -92.333 41 -133c23.333 -19.333 44.166 -37.5 62.499 -54.5s33.833 -32.5 46.5 -46.5l79 -10l68 11c44 28 73.333 51.333 88 70c17.333 21.333 29 56 35 104c4 -10.667 11.333 -20.334 22 -29.001l38 3l-8 4
c-10 -34.667 -24 -65.334 -42 -92.001c-12.667 -18.667 -35.334 -44 -68.001 -76l-90 -31c-43.333 -8.66699 -80.666 -13 -111.999 -13c-10 0 -25.667 2 -47 6l-48 8l-69 -1c-49.333 28 -100 65.667 -152 113c-10 59.333 -28 111 -54 155c-12 9.33301 -27.333 17.333 -46 24
l-29 -20l-10 2l-4 13l26 19l-12 43l2 -20c7.33301 1.33301 15.166 3 23.499 5s22.166 5.66699 41.499 11l8 -16l-2 8l3 36c-19.333 -13.333 -38.666 -20 -57.999 -20l-22 18l-6 29l14 -1l20 21l-22 4l55 -14l27 24l-8 -18l22 78c47.333 48 80.333 99.333 99 154
c23.333 5.33301 56 14.666 98 27.999l80 47l89 2c20.667 0 78.667 -12.667 174 -38l43 -11c27.333 0 41 14.667 41 44l9 4c6.66699 -22 11.667 -43 15 -63s5 -43 5 -69l6 -134l-29 -17c-15.333 41.333 -28.666 84 -39.999 128l-113 76l-79 13l-90 -1l-57 -49
c-4.66699 -8.66699 -12.667 -25.334 -24 -50.001l-20 -43l-23 -105c41.333 6.66699 82.5 12 123.5 16s77.5 6 109.5 6l92 -20l10 24l-14 -31l10 -19l-18 -21l-10 12l-157 -7l-157 -5l6 2v-5c0 -10.667 -3 -23.667 -9 -39l105 2l54 9l54 9l105 2l-12 2l-14 -23l18 -15
l-26 -17z" />
    <glyph glyph-name="yen" unicode="&#xa5;" horiz-adv-x="816" 
d="M29 699l-0.000976562 22c42 0 84.5 -1.5 127.5 -4.5l132.5 -9.5l103 8l12 6v-22c-29.333 0 -44 -12.667 -44 -38l2 -19l2 -19l8 -28l23 -15l-4 -6c8.66699 -27.333 24.667 -62.666 48 -105.999c31.333 -56.667 49.333 -91.334 54 -104.001l-16 4l57 69l21 78l37 55l2 -6
c8.66699 23.333 16.667 37.666 24 42.999l-4 12v-6c9.33301 18.667 14 33.667 14 45c0 27.333 -18.667 41 -56 41l6 12c13.333 2 28.5 3.66699 45.5 5s36.5 2 58.5 2l105 1v-20c-30.667 -4 -56.667 -20 -78 -48l-48 -81c-32 -50.667 -52.333 -94.334 -61 -131.001l-48 -57
l18 -12c21.333 6 41.166 10.5 59.499 13.5s38.833 4.5 61.5 4.5l51 -24l-6 24l9 -30c2.66699 -9.33301 4.33398 -16.333 5.00098 -21l-2 -30c-8.66699 -3.33301 -32.667 -5 -72 -5h-75c-32 0 -55.333 -2.33301 -70 -7v13l-4 -32l4 13l-20 -18l14 -12l4 -15l-12 -2l2 -6
l75 14l39 -2l39 -2l81 14v-20l-16 -10l2 -21l16 -30l4 -2l-173 -20l-71 18l6 -4c0 -48.667 2.66699 -80 8 -94c8.66699 -34 30.334 -52.333 65.001 -55l-6 -34l-107 12h-108l-117 -12l-8 12v22c29.333 0 48.666 12.667 57.999 38l11 73l-7 18l8 -2l-12 35l-61 -24l-80 6
l-101 -8l4 2l12 30l-14 71l-2 -20c50 0 138 5.33301 264 16l-2 -22l-12 19l4 23l3 1l-20 17l7 18l-16 6h-67l-83 -20l-77 16l14 -16c0 6.66699 -0.166992 14.334 -0.5 23.001s-2.83301 19.334 -7.5 32.001l12 36l-20 -14l77 -2l26 6l28 8l77 4h-16l-36 49l-15 70l-52 57
l6 -4l-22 65l-49 44c-15.333 13.333 -34.666 22 -57.999 26z" />
    <glyph glyph-name="brokenbar" unicode="&#xa6;" 
 />
    <glyph glyph-name="section" unicode="&#xa7;" horiz-adv-x="659" 
d="M133 514c-24 26 -35.999 55.999 -35.999 89.999l20 73l33 47c107.333 32 166 48 176 48c74.667 0 151.334 -20.333 230.001 -61l25 -73l-9 -74l17 -41l-16 -10l-10 -15l-5 11l-26 1l-2 4l-6 76l-97 83l-89 29l-51 -24l-29 -38c0 -23.333 5.66699 -39.333 17 -48l113 -89
l91 -58l79 -61l-2 -4l57 -68l13 -66c1.33301 -8 -0.333984 -16.333 -5.00098 -25l-11 -22l-15 -64l-70 -82c25.333 -27.333 38 -59.333 38 -96c-4 -18 -14.333 -38.333 -31 -61c-15.333 -22.667 -30.666 -39.667 -45.999 -51l-61 -32l-91 -17h-90c-44 12 -94.667 35 -152 69
l7 67c0 44.667 -8.33301 90.667 -25 138c6 -4 16.667 -13 32 -27l19 27c-0.666992 -5.33301 6.33301 -26 21 -62l30 -69l56 -55l85 -35l54 33l32 46c0 12.667 -4 23 -12 31l-24 21l-95 83c-38.667 34.667 -66.334 58.334 -83.001 71.001
c-28.667 23.333 -59.334 44 -92.001 62h-4l-47 51l-15 79c0 32.667 11.333 66.667 34 102c12 19.333 34.667 48 68 86zM189.001 472.999l-12.001 6.00098c-24.667 -30.667 -37 -59 -37 -85c0 -4.66699 6 -23 18 -55c53.333 -44.667 98 -80 134 -106l103 -64l82 -67l6 -12
c22.667 30 34 53 34 69v50c-25.333 36.667 -68.666 74.667 -129.999 114c-31.333 15.333 -72.333 38.666 -123 69.999z" />
    <glyph glyph-name="dieresis" unicode="&#xa8;" horiz-adv-x="320" 
d="M-22 584l30 52l55 33l45 -21l25 -70l-24 -44l-48 -28l-73 22zM187 584l-12 -8l40 70l41 1l61 -23l19 -28l-13 -64l-68 -40l-50 46z" />
    <glyph glyph-name="copyright" unicode="&#xa9;" horiz-adv-x="932" 
d="M58 360l7.99902 -2.00098l-9 75l59 118c24 46 47.667 82.667 71 110l69 42c13.333 5.33301 44.5 13.5 93.5 24.5s79.167 16.5 90.5 16.5c49.333 0 105.666 -13 168.999 -39c32.667 -39.333 75 -75.333 127 -108l40 -65l7 -30c12 -50 18 -96.667 18 -140
c0 -22.667 -2.33301 -48.834 -7 -78.501s-12 -63.167 -22 -100.5l-60 -69l-21 -13l-41 -25l-45 -50c-48.667 -16 -109.334 -30.667 -182.001 -44c-23.333 6 -50.166 11.833 -80.499 17.5s-59.166 10.5 -86.499 14.5c-49.333 28.667 -90.333 63.334 -123 104.001l-25 42
l-13 21c-9.33301 24.667 -21.666 84.334 -36.999 179.001zM126.999 359.999l6 -14v-65c22 -56 50.667 -100.667 86 -134c14 -13.333 59.667 -46 137 -98c28 6 67 12 117 18c32.667 2.66699 58 5.16699 76 7.5s31.667 4.5 41 6.5c29.333 60 76.333 122.667 141 188l4 91
l-5 24c-18 84.667 -46.333 153.334 -85 206.001c-51.333 12 -93 30.333 -125 55l-99 16l-80 -8c-33.333 -22.667 -70 -44.334 -110 -65.001c-43.333 -51.333 -74 -96 -92 -134zM589.999 530.999l-29.001 -7.99902l12 -45l-21 -6l-6 -6c-17.333 15.333 -40.666 25 -69.999 29
c-54 -12 -99.333 -24.667 -136 -38l-16 -75c0 -24 2.33301 -46.5 7 -67.5s13 -44.167 25 -69.5l50 -19c22 -6.66699 39.333 -10 52 -10c14.667 0 30.834 2.83301 48.501 8.5s27.5 13.5 29.5 23.5l34 -32l11 -40l8 8c-26 -20 -57.667 -36.333 -95 -49
c-54.667 0 -110.334 9.33301 -167.001 28l-63 56l-22 61c-8 24 -12 45.333 -12 64c0 12 1.66699 23 5 33l9 30l11 62c14 20 36 42 66 66c26 21.333 52 38.666 78 51.999h86l60 -15z" />
    <glyph glyph-name="ordfeminine" unicode="&#xaa;" horiz-adv-x="488" 
d="M38 319l134.002 14c13.333 0 33.666 -3.33301 60.999 -10s45.666 -10 54.999 -10l146 2l-24 -10c0 -19.333 2 -50 6 -92l14 18l-146 -2l-58 -3l-58 -3h-142l8 40l16 22l-4 38zM316.002 668l-9.99902 27l24 18l-26 -1l16 14c20 -5.33301 44 -8 72 -8l41 10l-8 -20l-2 -108
l3 -60l4 -60l-2 -128l-8 14l-34 -2l-47 12l-14 -22l-10 6l8 10l-20 19l12 20v12c-3.33301 -6 -6.66602 -15 -9.99902 -27c-36.667 -20 -88 -33.667 -154 -41c-32.667 26 -65.667 49 -99 69l-32 79c21.333 56.667 34.666 112.667 39.999 168l62 57
c24 0 47.667 -1.33301 71 -4s50 -6.66699 80 -12c17.333 -11.333 31.666 -25.333 42.999 -42zM130.003 532l22.998 -43l54 -46l61 12l48 71c0 8 3.33301 20.667 10 38l-44 59l-49 12l-74 -30c-3.33301 -12 -7.16602 -23.5 -11.499 -34.5s-10.166 -23.833 -17.499 -38.5z" />
    <glyph glyph-name="guillemotleft" unicode="&#xab;" horiz-adv-x="491" 
d="M29 237l49 50.998c14 14.667 31.333 34 52 58l56 64l89 67l-16 -4l-4 -10c2 -22.667 10 -43.667 24 -63l-4 8c-22 -26 -45.333 -63 -70 -111l-2 -45l-8 -16l40 -93c20 -51.333 29.333 -80.666 28 -87.999l-8 -11c0 -9.33301 1 -18.166 3 -26.499s5 -18.5 9 -30.5l6 6
l-39.5 38l-47.5 48l-84 89l-27 24c-8 7.33301 -20 19 -36 35zM224 236.998c58.667 52 138.667 136.669 240 254.002l-12 2l8 -32l-8 -13l10 -34l-8 -12c-10 -64 -35 -120 -75 -168l-4 16l42 -76c0 -10.667 0.666992 -20.5 2 -29.5s4.33301 -20.5 9 -34.5
c7.33301 -22.667 17.333 -42.334 30 -59.001l14 20l2 -45l-2 -6l-20 -21l6 -12c-21.333 41.333 -56.333 87.666 -105 138.999c-8 8.66699 -23 24 -45 46l-80 77z" />
    <glyph glyph-name="logicalnot" unicode="&#xac;" horiz-adv-x="685" 
d="M29 360l5.99805 36.001l-2 28l-2 28l4 54l-10 12c30.667 -3.33301 50.834 -5.66602 60.501 -6.99902l42.5 -6c18.667 -2.66699 38.667 -4.83398 60 -6.50098s36.333 -2.5 45 -2.5l366 20c2.66699 -5.33301 6 -25 10 -59l4 -61l-6 -39c-4 -17.333 -6 -30.333 -6 -39
l12 -108l2 6c-18 0 -33 0.666992 -45 2s-23.667 4.66602 -35 9.99902l-30 -12l-10 -10l-12 46c0 24.667 0.333008 42.5 1 53.5s3 32.5 7 64.5l-156 -24c-9.33301 0 -20.166 1 -32.499 3s-28.833 5.66699 -49.5 11c-38.667 9.33301 -66 14 -82 14l-130 -16z" />
    <glyph glyph-name="minus" unicode="&#xad;" 
 />
    <glyph glyph-name="registered" unicode="&#xae;" horiz-adv-x="932" 
d="M58 360l-7.99805 -6.00293l21 93l36 77c5.33301 16.667 14.666 40.334 27.999 71.001l52 68c16 4 34.167 9 54.5 15s43.166 13.667 68.499 23l122 43l218 -83c78 -76.667 126 -148.667 144 -216l-3 -99l11 -86l-28 -73c-16 -11.333 -35.333 -27 -58 -47l-48 -62l-43 -33
l-42 -33c-13.333 -8 -39 -14.5 -77 -19.5s-87.667 -7.5 -149 -7.5c-58.667 36 -112 59.667 -160 71c-20.667 25.333 -39 48.833 -55 70.5s-31 43.834 -45 66.501c-8 52.667 -21 108.334 -39 167.001zM127.002 359.997l14 1.99805c0 -35.333 5.33301 -72.333 16 -111
c13.333 -44.667 30 -78 50 -100l82 -74l70 -12l66 -10c66.667 0 121.667 7.33301 165 22c3.33301 6.66699 9 16.834 17 30.501l24 39.5l56 70l21 49l11 25l12 136l-84 145l-149 101l-25 -1c-14 0 -25.167 -0.5 -33.5 -1.5s-16.5 -2.83301 -24.5 -5.5l-50 -20
c-22 -5.33301 -51.333 -14.666 -88 -27.999c-25.333 -12 -54 -38.333 -86 -79c-24 -32 -44.667 -66 -62 -102zM296.002 150.995l2 154c-4 38 -7.66699 82.167 -11 132.5s-5 95.833 -5 136.5c27.333 0 52.166 0.833008 74.499 2.5l71.5 5.5l-4 10l61 -6l47 -34
c10 -6.66699 20.833 -19 32.5 -37s18.5 -33.333 20.5 -46l4 -60l-33 -40l-63 -33l-16 -2l52 -55c10 -42.667 35.333 -84.667 76 -126l-4 4l-28 -18l-44 12l-20 -4l-12 10c-3.33301 8 -7.5 17.5 -12.5 28.5s-11.5 23.5 -19.5 37.5l-44 47l-30 62l-12 8l-4 -64
c0 -7.33301 3.33301 -27.333 10 -60l12 -65l-12 -8c-10 0 -17.667 0.5 -23 1.5s-13.666 3.16699 -24.999 6.5l-31 -12zM383.002 378.995l11 -14l13 4l11 10l-8 12l66 1l2 41l-10 42l-59 42l2 -6l-16 -14l2 10v-12l-24 -27l2 -42l-6 -49z" />
    <glyph glyph-name="macron" unicode="&#xaf;" horiz-adv-x="331" 
d="M0 507l6 43l-18 19l2 33l8 10l120 -18l44 3l45 3l124 -4l-2 4l-10 -19l12 -53v-13l-12 6l-84 -22l-125 16l-114 -2z" />
    <glyph glyph-name="degree" unicode="&#xb0;" 
 />
    <glyph glyph-name="plusminus" unicode="&#xb1;" horiz-adv-x="594" 
d="M506 87l12.001 -27l-18 -30l18 -25l-10 24l-144 -18c-8.66699 0 -20 0.333008 -34 1s-29.667 2 -47 4l-81 5l-154 -10l-4 12l10 29l-4 26l-4 5l8 6l148 -12c10 0 20.167 0.666992 30.5 2s26.166 4.33301 47.499 9c36.667 7.33301 62.667 11 78 11l138 -6zM309.001 453
c-1.33301 -11.333 -2.33301 -20.6689 -3 -28.002s-3 -21 -7 -41l20 -53l-10 10l66 -14l32 4l33 4l56 -4l20 -12l-10 -23l12 -10l-4 -9l-135 -14l-80 4l10 6l-14 -57l22 -24l-10 -43l14 4l-47 -16c-2.66699 0.666992 -4.66699 1.33398 -6 2.00098
c-17.333 6.66699 -30.333 11.334 -39 14.001l10 -22l-6 51c3.33301 7.33301 5.5 16.5 6.5 27.5s1.5 28.167 1.5 51.5l8 -6l-72 8c-8.66699 0 -22 -2.33301 -40 -7l-39 -7l-46 6l4 -6l-2 41l-22 14l-2 33v-6l88 8l125 -18l-10 6c0 23.333 0.333008 40.5 1 51.5
s3 35.167 7 72.5l27 14l6 -10h41z" />
    <glyph glyph-name="twosuperior" unicode="&#xb2;" 
 />
    <glyph glyph-name="threesuperior" unicode="&#xb3;" 
 />
    <glyph glyph-name="acute" unicode="&#xb4;" horiz-adv-x="203" 
d="M71 520l44 82.999c16 29.333 27.667 59 35 89l-10 -20l22 4l6 6c-4 6.66699 -6.66699 14 -8 22c6 12 21.333 18 46 18c12.667 0 24.667 -3 36 -9s17 -14.333 17 -25c0 -9.33301 -10 -23.666 -30 -42.999l-39 -36l-78 -111l-4 2l-18 -1l-15 24l-14 3z" />
    <glyph glyph-name="mu" unicode="&#xb5;" 
 />
    <glyph glyph-name="paragraph" unicode="&#xb6;" horiz-adv-x="670" 
d="M366 726c84 0 158.332 -5.33203 222.999 -15.999l8 16l4 -28l-4 -43l-18 -8v-18c-33.333 0 -56.666 0.5 -69.999 1.5s-35.666 3.16699 -66.999 6.5l-85 8h-121l-3 -14l-46 -16l-66 -57l-26 -61c20.667 -43.333 49 -83 85 -119c20 0 38.167 -2.33301 54.5 -7
s30.166 -11 41.499 -19l14 8l12 2l4 -6l-14 82c0 52.667 7.33301 97.667 22 135l-18 12l39 -4l16 12l51 -10l-10 6l10 -397l-22 -184l4 6c-22.667 -13.333 -40.334 -21.333 -53.001 -24l-17 14h-16l4 86c0 5.33301 3 19.666 9 42.999l7 42l-14 114l2 6l-20 -22l-34 -6
l-20 16l2 -12l-83 27c-29.333 19.333 -56.666 47.333 -81.999 84s-42.666 72 -51.999 106l19 89l61 90l79 43c57.333 10.667 120.666 16 189.999 16zM449.999 0.000976562l-8 206l3 89l5 90l2 206l-12 -16l31 8l79 -6l-4 10l-20 -202c0 -162.667 6 -295 18 -397l-18 24h-21
l-16 -24l-51 18z" />
    <glyph glyph-name="periodcentered" unicode="&#xb7;" horiz-adv-x="294" 
d="M51 236l30 69l69 18l73 -27l25 -75l-33 -56l-56 -28l-72 24z" />
    <glyph glyph-name="periodcentered" unicode="&#x2219;" horiz-adv-x="294" 
d="M51 236l30 69l69 18l73 -27l25 -75l-33 -56l-56 -28l-72 24z" />
    <glyph glyph-name="cedilla" unicode="&#xb8;" horiz-adv-x="185" 
d="M50 -125l-23.002 4l4 21h-9l-8 4l43 25l60 84l20 -18l8 4l3 -1l24 12v-8l-43 -18l1 -31l-45 -26l12 -2c6 0 15.667 2.33301 29 7l49 -30l18 -55l-31 -62l-94 -14l-54 6l-14 32c0 13.333 7 20 21 20c10.667 0 20.167 -7.16699 28.5 -21.5s18.833 -21.5 31.5 -21.5
s23.834 5.16699 33.501 15.5s14.5 21.833 14.5 34.5c0 30.667 -16 46 -48 46c-6.66699 0 -11.667 -0.333008 -15 -1s-8.66602 -2.66699 -15.999 -6z" />
    <glyph glyph-name="onesuperior" unicode="&#xb9;" 
 />
    <glyph glyph-name="ordmasculine" unicode="&#xba;" horiz-adv-x="488" 
d="M35 223l4 42l-10 8l-8 42l12 8l255 8l141 -8l-2 2l-22 -28c0 -27.333 3.33301 -55.333 10 -84l-2 8l-122 -3l-121 -3l-141 6zM29 544l-8.00098 -11.998l19 101c50 27.333 92.667 59.666 128 96.999c34.667 0 66.334 -2.16699 95.001 -6.5s59 -12.833 91 -25.5
c33.333 -50.667 58 -99.334 74 -146.001l-13 -97c-40.667 -44 -104.667 -78 -192 -102l-70 14c-38.667 32.667 -74 70 -106 112zM123.999 516.002c30 -26.667 60.333 -49.668 91 -69.001l80 23l21 74c0.666992 4.66699 -3.33301 13.334 -12 26.001l-6 51l-68 16l-76 -28
l-18 -48l-3 -22c0 -5.33301 -3 -13 -9 -23z" />
    <glyph glyph-name="guillemotright" unicode="&#xbb;" horiz-adv-x="491" 
d="M43 27l-21.999 4.00098l8 16l36 79l25 42l20 71l-16 4c-10.667 16.667 -22.334 46 -35.001 88c-6 21.333 -11.833 39.833 -17.5 55.5s-10.5 27.167 -14.5 34.5l6 -6l-10 15l18 24l-16 37l-10 -18c30 -34.667 72 -75.334 126 -122.001l136 -112l-10 4l-67 -73
c-10.667 -8 -24.667 -19.333 -42 -34s-37.333 -32.667 -60 -54l-69 -89zM224.001 -4.99902l9.99805 9.99902l2 30l-6 16l-12 -2l44 57c2.66699 22.667 5.66699 45.334 9 68.001c0.666992 6 5 29.667 13 71l6 -16l-18 67l-21 52c-5.33301 16 -9.66602 35 -12.999 57l-8 8
l-10 29l6 16v15l6 6c94.667 -78 171.334 -162 230.001 -252l-2 16l-151 -177l-85 -63v-8z" />
    <glyph glyph-name="onequarter" unicode="&#xbc;" 
 />
    <glyph glyph-name="onehalf" unicode="&#xbd;" 
 />
    <glyph glyph-name="threequarters" unicode="&#xbe;" 
 />
    <glyph glyph-name="questiondown" unicode="&#xbf;" horiz-adv-x="450" 
d="M303 324l-13.999 42.999l20 48l-4 51l-6 -4l6 -8l26 -2l10 16l6 4l14 -96v-71l-6 -76l-8 10l-3 10l-15 -10l-31 -4l8 4c0 32.667 -14.333 49 -43 49h-7l-42 -40l-24 -85l53 -125l33 -14c18.667 0 34.667 10 48 30l4 69l48 12c24 0 46 -13 66 -39l-29 -72
c-41.333 -19.333 -93 -33.666 -155 -42.999c-60 12 -114.667 35.333 -164 70l-48 61l-17 77l12 85c31.333 36.667 55.666 71.667 72.999 105l73 11c43.333 0 82 -22 116 -66zM227.001 631.999l6 8l12 50l75 45l74 -39l21 -58l-27 -78l-67 -15l-56 13z" />
    <glyph glyph-name="Agrave" unicode="&#xc0;" horiz-adv-x="668" 
d="M-57 0l-0.00195312 21.9971c26 2.66699 48.333 15 67 37c21.333 26 34 52 38 78l23 24h-14l15 4l-12 4l97 179l80 194l75 187l-2 -14l30 -2l11 10l26 -8l-4 -6c41.333 -142 126 -330.667 254 -566h-14c15.333 -38 28.333 -64 39 -78c18 -24 42.333 -38.333 73 -43l-2 -30
h-132c-15.333 0 -36.666 2.33301 -63.999 7l-63 7l-128 -6h10l-14 26h54l29 52l-10 69c-20.667 18.667 -41.667 51.334 -63 98.001c-16 -7.33301 -38.167 -12.166 -66.5 -14.499s-68.5 -3.5 -120.5 -3.5l-2 -2l-22 -57l-19 -38
c-7.33301 -15.333 -11.666 -28.666 -12.999 -39.999l2 -22l2 -22l62 -24l-12 -10l-56 -14l-84 14l-78 -2zM258.998 484.997c-4 -44.667 -17.334 -89.001 -40.001 -133.001l-51 -53l14 10c42 -8 73 -16 93 -24l70 6l-22 -8c-13.333 35.333 -27.666 79 -42.999 131
c-2.66699 14.667 -9.66699 38.334 -21 71.001zM364.997 800.996l-52 38l-23 69l-68 46l10 -10c-16 16 -24.667 29 -26 39c0 10 7.66699 18.333 23 25c14 4.66699 26 7 36 7c19.333 0 28 -7 26 -21l24 -13l-5 4l-2 -19l10 16l30 -69l23 -34l20 -63l12 -6l-29 12l10 -21l-7 -2
z" />
    <glyph glyph-name="Aacute" unicode="&#xc1;" horiz-adv-x="668" 
d="M-57 0v22.001c32.667 4 60.334 23.333 83.001 58l31 69l-2 24l15 18h6l83 179l58 168l73 183l-2 12l38 -24l37 14l22 -16l-20 12c16 -33.333 34.167 -75 54.5 -125l67.5 -169c52 -138.667 91.333 -237.334 118 -296.001l8 14c15.333 -38 28.333 -64 39 -78
c18 -24 42.333 -38.333 73 -43l-4 -22l-126 -8l-69 3l-68 3l-122 -8l10 10l-10 24l62 22l17 32c0 12 -7.33301 35.667 -22 71l-2 45l-41 33l-61 20c-17.333 0 -35 -1.5 -53 -4.5s-39.667 -7.5 -65 -13.5l-18 20l-12 -81c-18.667 -17.333 -33.334 -43 -44.001 -77l4 -57
l64 -12l-12 -24l-58 8l-79 -1l-79 -1zM259 485.001l-44 -96.999c-15.333 -38.667 -26.333 -72.334 -33 -101.001l-4 16l46 -20c39.333 0 77 3.33301 113 10l2 6c-10 36 -28.333 72.333 -55 109l-13 77h-12zM303 814.002l38 59l-1 48c24 32 36 53.667 36 65l16 -14l-4 24
l6 -8l-2 10c6 12 21.333 18 46 18c12.667 0 24.667 -3 36 -9s17 -14.333 17 -25c0 -10 -23.667 -39.667 -71 -89l-86 -83v-16l-10 19l-7 -18l-12 23z" />
    <glyph glyph-name="Acircumflex" unicode="&#xc2;" horiz-adv-x="668" 
d="M-57 0l-0.00195312 21.999c30 4 55.333 19.667 76 47l49 80l-11 -4c9.33301 10.667 15 20.667 17 30v-8l85 199l78 164l65 179l-12 6c8 -2.66699 15.667 -4.66699 23 -6s16 -2 26 -2l22 6l16 12c18 -47.333 58.333 -145.666 121 -294.999
c46.667 -112 84.334 -211 113.001 -297l2 10c15.333 -38 28.333 -64 39 -78c18 -24 42.333 -38.333 73 -43v-24l-114 12c-15.333 0 -39.333 -3 -72 -9s-57 -9 -73 -9l-132 2l12 6l2 24h64l3 59c0 10 -4.66699 29 -14 57l-18 48l-43 53l-47 6l-40 -4l-39 -4l-57 6l-12 -73
c-28.667 -28.667 -43 -55.667 -43 -81c0 -8.66699 2.33301 -18 7 -28l-2 -13l58 -28l10 -32l-118 17c-22.667 3.33301 -42.167 5.33301 -58.5 6s-36.166 1 -59.499 1zM258.998 484.999l-41 -75l-3 -52l-39 -75l-8 20l54 -14l61 6l52 -8l-8 8l-23 59
c-2 11.333 -3.5 19 -4.5 23s-4.16699 14.333 -9.5 31l-39 87zM188.998 821.999l92.002 145l-2 6c10 18 17 29 21 33c8.66699 7.33301 20.667 11 36 11c11.333 0 22.666 -4 33.999 -12l31 -22l14 -74c21.333 -32 44.666 -63 69.999 -93l8 -2l-24 7l-13 -7l-4 -25l-6 20
c-28 34 -55.333 56.333 -82 67l-32 48v4l-38 -62l-34 -21l-30 -42h-4l-4 -9l-21 33l-18 7z" />
    <glyph glyph-name="Atilde" unicode="&#xc3;" horiz-adv-x="668" 
d="M-57 22c26 2.66699 48.334 14.999 67.001 36.999c23.333 29.333 34 53.333 32 72l15 24l20 4l-17 24l20 -8c11.333 40 30.333 98.333 57 175c3.33301 8 9.16602 20.833 17.499 38.5s17.833 35.834 28.5 54.501l48 93l67 175l16 6l12 -4c24 4 40.333 10.667 49 20l-2 -14
l84 -187l84 -184l58 -201l14 -4c15.333 -38 28.333 -64 39 -78c18 -24 42.333 -38.333 73 -43l-6 -36l-237 16l-124 -6l-12 4l-10 30l66 -6l13 54c1.33301 5.33301 0.666016 12 -2.00098 20s-7.66699 18.667 -15 32l-27 48l-13 55l-59 8l-69 -8
c-47.333 12 -74.333 17.333 -81 16l-28 -53l-3 -53c-6 -16.667 -15 -34.667 -27 -54l24 -63l50 -4l-6 -10c-33.333 -8 -84.666 -12 -153.999 -12l-62 4v18zM220.001 433.999c-8.66699 -44 -25.998 -89.667 -51.998 -137l8 12c27.333 -8.66699 54.166 -15.167 80.499 -19.5
s55.166 -6.5 86.499 -6.5l-2 14l-43 67c0 41.333 -11.667 85 -35 131c0 -4 -14.333 -24.333 -43 -61zM160.003 831.999l44.998 59c19.333 22 40 33 62 33c10.667 0 21.834 -1.33301 33.501 -4s27.834 -8 48.501 -16c36.667 -13.333 64 -20 82 -20c14.667 0 26.667 8 36 24
l16 -8l3 -4c5.33301 1.33301 12.666 2 21.999 2l-43 -62c-19.333 -24 -39.666 -36 -60.999 -36l-15 1h-14l-27 -3l-11 28l-18 5l-13 -10l8 2l-43 12c-14.667 4 -29 6.66699 -43 8c-17.333 0 -26 -7 -26 -21l3 -16l-8 16c-12 2 -21.667 6 -29 12z" />
    <glyph glyph-name="Adieresis" unicode="&#xc4;" horiz-adv-x="668" 
d="M-57 0v21.999c26 2.66699 48.333 15 67 37c28 34 48.333 70.667 61 110l-18 -16l23 26l-4 14l71 157c12.667 38 36.667 100.667 72 188l95 175v20l8 -22h28h22c8.66699 1.33301 15 2 19 2l-28 -6l100 -179l18 -42c6 -14.667 13 -33.334 21 -56.001l37 -100
c14.667 -39.333 40.667 -101.666 78 -186.999l40 -78c16.667 -23.333 40.667 -37.666 72 -42.999l12 -12l-140 -2l-66 2l-65 2l-130 -10l10 -2l2 18l64 12l3 53c0 7.33301 -6 28 -18 62l-26 29l-17 53l-61 20l-79 -12c-30.667 0 -51.667 3.33301 -63 10l-16 -55l-19 -51
c-4 -12 -7.16699 -22.167 -9.5 -30.5s-3.83301 -15.5 -4.5 -21.5l3 -18l-2 -21l62 -26l10 -10l-154 -20l-74 18zM148 809.999l10 -2l18 58l48 27l46 -24l41 -71c-13.333 -11.333 -27 -21.833 -41 -31.5s-29 -19.167 -45 -28.5l-47 26zM373 811.999
c14.667 30 37 54.333 67 73l73 -15l16 -51l-20 -55l-59 -22h-69zM184 294.999l53 6c22 0 55.667 -6 101 -18l-44 61l-7 66l-42 59l6 12c-33.333 -73.333 -54.333 -140 -63 -200z" />
    <glyph glyph-name="Aring" unicode="&#xc5;" horiz-adv-x="668" 
d="M-57 0l-0.00195312 21.999c28.667 4 53.334 18.667 74.001 44c18 22 29 49 33 81l11 -6l21 26l28 93l35 102c10 24.667 24.667 55.334 44 92.001l46 92l65 167l-8 -6l46 22l-3 -16l46 -2l-6 10c15.333 -50 37.333 -117 66 -201c8.66699 -20.667 24.667 -52 48 -94
c7.33301 -12.667 17.333 -31 30 -55c9.33301 -17.333 16 -30.333 20 -39l76 -201l-2 12c15.333 -38 28.333 -64 39 -78c18 -24 42.333 -38.333 73 -43l6 -10h-180.5c-43.667 0 -72.5 0.333008 -86.5 1h20c8.66699 0 20 0.333008 34 1h17
c-79.333 0 -144.333 -4.66699 -195 -14h6l-2 24c29.333 11.333 53 29.333 71 54c0 12 -5 28.667 -15 50l-23 48l-23 63l-65 14c-24.667 -4.66699 -47.167 -8.16699 -67.5 -10.5s-41.166 -3.5 -62.499 -3.5l-14 -14l2 -29c-33.333 -59.333 -50 -102.333 -50 -129l26 -43
l42 -2l-4 -32c-92 14.667 -144 22 -156 22l-64 -10zM236.998 826.999l6 4l13 71l76 20l78 -26l16 -67l-26 -57l-63 -41l-81 33zM183.998 294.999l57 2l36 -12l61 8l-8 4l-85 184l22 4l-45 -67l-1 -54l-37 -77v8zM288.998 827.999c0 -11.333 4.16699 -21.5 12.5 -30.5
s18.5 -13.5 30.5 -13.5s22.167 4.33301 30.5 13s12.5 19 12.5 31s-4.33301 22.167 -13 30.5s-18.667 12.5 -30 12.5c-12 0 -22.167 -4.16699 -30.5 -12.5s-12.5 -18.5 -12.5 -30.5z" />
    <glyph glyph-name="AE" unicode="&#xc6;" horiz-adv-x="1004" 
d="M-57 0l2.00098 21.999l13 -14l43 35l30 60l19 -3l2 9l-6 10l114 137c35.333 47.333 70.333 99.333 105 156l84 153l25 42c10 18 15 33 15 45c0 25.333 -18.333 40 -55 44l-12 17c26 0 47 0.333008 63 1c81.333 3.33301 131.333 5 150 5c21.333 0 36.333 0.333008 45 1
c20.667 3.33301 37 5.33301 49 6l93 5l217 -10v-6c-3.33301 -20.667 -6.16602 -48.334 -8.49902 -83.001s-3.5 -72 -3.5 -112l4 8h-17c-6 30 -12.667 51.5 -20 64.5s-23.333 30.167 -48 51.5l-35 -4c-11.333 0 -31.5 3 -60.5 9s-47.5 12.667 -55.5 20c-14 0 -37 -8 -69 -24
l-10 16c13.333 -57.333 20 -115.333 20 -174l-14 -102h6l16 18l28 -18l-2 10c30 0 61.333 2.33301 94 7c22 30 36 68.333 42 115l25 -11l4 -99l-4 -38l-6 -38l-6 -101l6 -8l-16 -10l-9 88c-33.333 17.333 -79 29 -137 35l-16 -4l-15 16l-18 -2h26
c-8.66699 -27.333 -14.834 -57 -18.501 -89s-5.5 -63.667 -5.5 -95l6 28l17 -57c5.33301 -16.667 9 -27.5 11 -32.5s6 -12.167 12 -21.5l66 -33c8 3.33301 21 7.83301 39 13.5s36.333 10.834 55 15.501l95 22c20 16.667 34.333 36.334 43 59.001c6 14 12 38 18 72l11 2
l5 -81l-4 -33l-4 -32l3 -93h8l-233 2c-22 0 -56.5 3.33301 -103.5 10s-81.833 10 -104.5 10l-71 -7l-142 -13l8 8v22c15.333 0 28.166 3.83301 38.499 11.5s18.5 18.834 24.5 33.501l18 82l-14 40l4 3l-2 46l6 4l-81 -6l-73 16l-67 -22l-18 -44l-34 -11l-32 -62l10 12
c-16 -26.667 -24.667 -44.334 -26 -53.001c0 -28 20 -44.667 60 -50l-10 -12l-52 -10l-50 6c-22 4 -38.667 6 -50 6l-30 -7l-17.5 -3.5c-5 -1 -9.16699 -1.5 -12.5 -1.5zM422.001 574.999l-67 -101l-46 -90l-57 -89l-8 4l43 -18l78 18l65 -10l6 109
c0 8.66699 -2.33301 21 -7 37l-7 37l10 107z" />
    <glyph glyph-name="Ccedilla" unicode="&#xc7;" horiz-adv-x="743" 
d="M689 728l12.9971 0.000976562l-1 -99c0 -4.66699 0.333008 -10.667 1 -18s2 -16 4 -26l7 -44l3 -73l8 -2l-19 5l-21 51l-31 39l-47 69l-72 39c-24 0 -50.167 -0.5 -78.5 -1.5s-51.166 -1.83301 -68.499 -2.5l-55 -42c-30 -46.667 -59 -94.667 -87 -144l1 -101l10 -61
l6 -77c0 -12.667 6 -29.334 18 -50.001l29 -45l38 -65c34 -20 81.333 -30 142 -30l50 1c46 28 76.333 49.333 91 64c16.667 18.667 32 51.334 46 98.001l6 -5c10 0 19.333 3 28 9l12 -8c-8.66699 -41.333 -21.667 -83 -39 -125
c-58.667 -30.667 -106.667 -60.334 -144 -89.001l-85 -8l-15 -9c-4.66699 -2.66699 -10.667 -5.33398 -18 -8.00098l1 -5c4.66699 0 7.33398 1.66699 8.00098 5l-4 10l59 -34l26 -61l-30 -41l-68 -41c-38.667 8 -68.334 23.333 -89.001 46c0 13.333 6.66699 20 20 20
c10 0 19.667 -7 29 -21c8 -14 18.667 -21 32 -21c12.667 0 23.834 4.83301 33.501 14.5s14.5 21.167 14.5 34.5c0 31.333 -16 47 -48 47c-9.33301 0 -22.333 -5.33301 -39 -16l-1 18l-16 -8l1 14l21 29l20 5l7 13l4 -7c-84.667 16 -154.334 36 -209.001 60
c-27.333 26.667 -55.666 61.334 -84.999 104.001l-72 113l6 81l3 94l24 105c9.33301 18 24 40.667 44 68l73 57l62 54l95 2c13.333 2.66699 24.333 5 33 7c14.667 4.66699 26 8 34 10c26 8 48.333 12 67 12c10 0 17.667 -0.666992 23 -2l71 -30
c38.667 -14.667 64.334 -22 77.001 -22c27.333 0 41 14.667 41 44z" />
    <glyph glyph-name="Egrave" unicode="&#xc8;" horiz-adv-x="662" 
d="M8 0v22c43.333 4 65 25.667 65 65c0 6 -1.66699 13.667 -5 23l-4 22l2 96v56l12 74l-1 8l-1 8c0 12.667 0.333008 22 1 28s2.66699 17.167 6 33.5s5.66602 29 6.99902 38s2 17.5 2 25.5l-8 92l-6 -10c0 35.333 -3 61 -9 77c-10 23.333 -30.333 37 -61 41l12 14
c104 12 228.667 18 374 18l168 -20l18 14l-15 -63l26 -73l-17 -55l12 -8h-16c-8.66699 38 -14.667 60.333 -18 67s-8.5 14.834 -15.5 24.501s-17.833 22.834 -32.5 39.501l-103 14l-51 -22l-32 24l-51 2l6 -12c8 -50 12 -111 12 -183l-8 -80l12 -18l22 18h-8l26 -4l84 4
c12 14 23.167 32.667 33.5 56s15.5 44 15.5 62l19 12l-6 -104c0 -37.333 -1 -65.333 -3 -84c-2 -6.66699 -3.66699 -13 -5 -19l22 -110l-8 10l-18 6l-17 50l-32 33l-81 23l-14 -12l-20 22l-10 -8l-6 12l-14 -66l20 -54c0 -16.667 -1.16699 -35.334 -3.5 -56.001l-8.5 -72
c14 -16 39.333 -28.333 76 -37c12.667 -3.33301 26.334 -6 41.001 -8s29.667 -3 45 -3l70 14c40 11.333 70 30.666 90 57.999c13.333 18.667 26 52.334 38 101.001l5 3l15 -65c0 -16 -0.333008 -41.333 -1 -76s-1 -61.334 -1 -80.001l-10 -18h-198l-116 4l-115 4l-194 -6z
M223 944h6c-16 16 -24.667 29 -26 39c0 10 7.66699 18.333 23 25c14 4.66699 26 7 36 7l25 -4c14.667 -2 23 -3.66699 25 -5l11 -35l-8 5l-4 -10l20 -55l43 -34l14 -69l-2 16l-5 -26l-8 7l-11 -2c-16 33.333 -62.333 80.333 -139 141z" />
    <glyph glyph-name="Eacute" unicode="&#xc9;" horiz-adv-x="662" 
d="M8 0l-0.00195312 22.0029c44 4 66 28.333 66 73c0 13.333 -2 33.666 -6 60.999c5.33301 9.33301 9.5 22.166 12.5 38.499s4.5 35.166 4.5 56.499l1 103l-14 4l-4 74c0 7.33301 2.33301 19 7 35l7 36l-8 78h4c0 35.333 -3 61 -9 77c-10 23.333 -30.333 37 -61 41l-4 28
l196 -2l89 4l89 4l190 -2l8 -10l3 -59v-85l-3 -41l10 -10h-16l-15 80l-55 31c-39.333 0 -77.166 2.66699 -113.499 8s-71.5 12.666 -105.5 21.999l6 4c0 -28.667 -0.833008 -54.667 -2.5 -78s-6.16699 -57 -13.5 -101l20 -88l-12 4l20 -4l10 -14l10 10l10 -4h13
c28.667 0 46.167 1.5 52.5 4.5s22.833 18.833 49.5 47.5l18 70h9l20 -108l-4 -93l-4 -92l-2 -2l-32 14l5 50c-36 18.667 -81.667 38.667 -137 60l-8 -14l-22 -2l6 10h-6l10 -66l-24 -30l-4 -58l12 -2l-6 -76c50 -28 99.333 -42 148 -42h78l54 18c15.333 4.66699 32 21 50 49
c10 16.667 20.667 47.334 32 92.001l15 -7l-7 -79c0 -46 3.33301 -91.333 10 -136l-16 -8h-194c-21.333 0 -41.666 1 -60.999 3l-55.5 6c-17.667 2 -35 3.66699 -52 5s-32.5 2 -46.5 2l-220 -16zM323.998 877.003l35.002 34.001l20 77l8 -2l-10 2l18 12l2 6l-8 -8
c6 12 21.333 18 46 18c12.667 0 24.667 -3 36 -9s17 -14.333 17 -25c0 -14 -9 -29 -27 -45l-42 -36c-14.667 -20.667 -43.334 -52.334 -86.001 -95.001l8 -14l-8 17l-43 -7c3.33301 2 14.666 27 33.999 75z" />
    <glyph glyph-name="Ecircumflex" unicode="&#xca;" horiz-adv-x="662" 
d="M8 0l-0.000976562 21.999c31.333 3.33301 52.333 18.666 63 45.999c6 17.333 9 45.333 9 84l-8 28l-8 28c0 72.667 5.33301 124 16 154l-2 -12l-12 163l24 68h-12c0 35.333 -3 61 -9 77c-10 23.333 -30.333 37 -61 41v16c46.667 0 102.834 1.33301 168.501 4l201.5 8
c68.667 2.66699 134 4 196 4l17 -63l-3 -36l-3 -35l15 -85l-14 14h-16l-9 37c-4.66699 14 -12.667 23 -24 27l-53 65l-85 20l-35 -20c-11.333 2.66699 -22 4.33398 -32 5.00098s-22.333 1 -37 1h-10l-4 12l1 -89l1 -88c0 -64.667 -2.66699 -100 -8 -106l12 10l34 -12l8 8
c40.667 0 72.667 4.66699 96 14l27 40l10 68l29 2c0 -36 -0.333008 -65.333 -1 -88c-3.33301 -114 -5 -185 -5 -213l-4 4l-32 -14l7 80l-54 33c-44 10 -78.333 15 -103 15l2 4l-18 -16l10 2l-24 -52l12 -54l-8 -40l16 12l6 -90l10 -17l61 -28l51 3l94 -4
c44.667 28 73.834 50.667 87.501 68s26.5 51 38.5 101l23 9l-23 -85l2 -41l3 -40l-7 -71l14 -4l-143 13l-71 7c-22 0 -38 -0.333008 -48 -1s-30 -2.66699 -60 -6s-53.333 -5.66602 -70 -6.99902s-32.334 -2 -47.001 -2l-196 14zM185.999 821.999l47 74
c15.333 26.667 27.666 53 36.999 79l6 -2c10 18 17 29 21 33c8.66699 7.33301 20.667 11 36 11c17.333 0 28 -5 32 -15l9 -31c24 -42.667 50 -75.667 78 -99l16 -48l2 4l-6 -23l-19 1l-2 -19l-16 6l-27 42c-10 17.333 -17 32.333 -21 45l-48 52l4 -14
c-27.333 -18.667 -56.666 -45.667 -87.999 -81l-22 -50l6 10l-22 -1l-1 19l-28 17z" />
    <glyph glyph-name="Edieresis" unicode="&#xcb;" horiz-adv-x="662" 
d="M8 0v22.002c46.667 4 70 33.667 70 89v26c-2 10 -3.33301 17.333 -4 22l-4 47v162l-4 -12l16 90l-14 49l22 84l-12 2c0 35.333 -3 61 -9 77c-10 23.333 -30.333 37 -61 41l-14 12l216 10l182 -8l168 -6l20 6l11 -59l-22 -63l11 -65h-10c-8 31.333 -17.333 54 -28 68
l-60 53l-61 7c-27.333 3.33301 -47 7.66602 -59 12.999l-54 -10l-35 6v10l-2 -114l9 -36l11 -39l2 -74l-4 -22l16 12l18 -18l6 14c29.333 0 50 2 62 6l57 30l14 86l13 4l-6 -94c0 -10.667 2 -27.334 6 -50.001s6 -39.667 6 -51l-10 -104h10l-30 -12l-13 68l-32 37l-73 33
l-14 -10l-32 4l10 -6l-10 -10l-6 -48c0 -37.333 4.66699 -65.333 14 -84l-22 -18l2 -66c32 -8 61 -29 87 -63l59 1l88 12l46 24c36.667 18.667 64 65.667 82 141l19 11l-7 -99l1 -27l2 -26l-5 -89l6 4l-228 -6l-108 3l-107 3l-194 -14zM149 878.002l4 -0.000976562l28 42
l49 23l80 -51l-20 -76l-78 -30c-28.667 30.667 -49.667 61.334 -63 92.001zM358 878.001l28 54l53 15l61 -23l7 -52l-17 -48l-56 -14l-52 20z" />
    <glyph glyph-name="Igrave" unicode="&#xcc;" horiz-adv-x="362" 
d="M8 0l-14.001 12l66 37l19 65c0 10 -3.33301 17.333 -10 22c0 6.66699 0.833008 23.334 2.5 50.001s2.5 47 2.5 61c0 22.667 0.333008 42.667 1 60l2 51l-2 4c2.66699 17.333 5 36.166 7 56.499s3 37.166 3 50.499l-4 76l2 -4l1 63l-19 28l-5 63l-52 4l10 26l106 8
c45.333 0 86.333 -2 123 -6s71.334 -10.667 104.001 -20l4 14v-22c-30 0 -49.667 -12.667 -59 -38l-12 -34l-4 -89l14 -77l-20 -34l4 -128c0 -11.333 2.33301 -26.666 7 -45.999l7 -45v-79l-10 12c0 -36 3 -62 9 -78c10 -23.333 30.333 -37 61 -41l8 -34l-127 18
c-40.667 0 -78.167 -1 -112.5 -3s-70.5 -5.66699 -108.5 -11zM179.999 861c-28 28 -63.001 51.667 -105.001 71l4 12c-16 16 -24.667 29 -26 39c0 10 7.66699 18.333 23 25c14 4.66699 26 7 36 7c20 0 30 -9 30 -27l6 -9l9 14l-6 -35l6 12
c4.66699 -16.667 11.834 -33.167 21.501 -49.5s22.167 -32.833 37.5 -49.5l10 -55l22 -2l-5 -8l-32 -13l7 -6c-1.33301 5.33301 -14 30 -38 74z" />
    <glyph glyph-name="Iacute" unicode="&#xcd;" horiz-adv-x="362" 
d="M8 0l13.999 26l38 5c6.66699 26 10.667 42.333 12 49c4 19.333 6.66699 33 8 41l-3 9l9 84l7 80c0 6 -2 15 -6 27l-6 25l1 9l1 11c0 40.667 -4 73.667 -12 99l8 56l-8 20l15 57c-14 20 -24.667 45.667 -32 77l-46 24l-8 16l122 12l125 -10l112 -8l-4 12v-22
c-24.667 0 -45.667 -8.66699 -63 -26l-6 -58l-9 -42l-7 -41v-30.5c0 -8.33301 0.666992 -15.833 2 -22.5l7 -31l7 -29l-4 -67l-10 8l20 -79c0 -24 -1.83301 -47.333 -5.5 -70s-9.16699 -46.667 -16.5 -72l12 2c0 -36 3 -62 9 -78c10 -23.333 30.333 -37 61 -41l8 -28
c-85.333 12 -167.666 18 -246.999 18h-113zM149.999 814c12 26 31.001 57.668 57.001 95.001l16 73l10 -8l-2 16v-4l6 20l2 -8c6 12 21.333 18 46 18c12.667 0 24.667 -3 36 -9s17 -14.333 17 -25c0 -16 -9.66699 -24 -29 -24l-22 -65
c-10.667 -15.333 -28.334 -32 -53.001 -50c-22 -14.667 -44.333 -26.334 -67 -35.001l20 6l-28 -19l3 19h-12z" />
    <glyph glyph-name="Icircumflex" unicode="&#xce;" horiz-adv-x="362" 
d="M22 32l36 23.002l21 52c0 11.333 3.33301 23.666 10 36.999l6 70l-26 74l10 74l-12 -2c16 47.333 24 85.666 24 114.999l-10 62v-16l-13 93l19 12c-26 28 -52.333 52.333 -79 73v24l108 -14c16.667 0 37.667 2.33301 63 7l64 9l108 4l4 -8v-22
c-36 0 -56.333 -12.667 -61 -38l-4 -34l-11 -47l-7 -46v-43.5c0 -11.667 0.666992 -21.5 2 -29.5l6 -23l6 -21l-2 -57l-2 6l-10 -79c0 -7.33301 0.166992 -12.833 0.5 -16.5s1.83301 -11.5 4.5 -23.5l5 -39l-14 -73l14 6c0 -36 3 -62 9 -78c10 -23.333 30.333 -37 61 -41
l12 -28l-125 6c-14 0 -34.667 -2.33301 -62 -7l-62 -7l-107 12zM36 822.002c9.33301 10 24.001 34.667 44.001 74c16 32 32.667 54.333 50 67l-4 10c10 18 17 29 21 33c8.66699 7.33301 20.667 11 36 11c21.333 0 39.666 -12.667 54.999 -38l32 -54l14 -63l32 -44l-2 16
l-10 -7l-3 -31l-18 7l10 -10l-36 52c-19.333 8 -36.333 22.333 -51 43c-16.667 24 -27.667 38 -33 42l-40 -42l-18 -39l-42 -60h8l-26 13l-15 26z" />
    <glyph glyph-name="Idieresis" unicode="&#xcf;" horiz-adv-x="362" 
d="M8 0l-14.001 18l62 39l23 50v12c0 9.33301 -1.33301 18.333 -4 27l6 80l-14 64l8 58l14 10v44v25c-1.33301 8.66699 -2 14.334 -2 17.001c0 17.333 -0.666992 30.666 -2 39.999s-4.66602 24.333 -9.99902 45h10l-17 83l11 22l-23 59l-48 6l-10 18l124 -6
c17.333 0 39 2.33301 65 7l66 9l88 2l14 -8v-22c-28.667 0 -49 -16 -61 -48l2 -28l-20 -91c5.33301 -23.333 9.33301 -43.5 12 -60.5s4 -34.5 4 -52.5l-22 -65l16 4l6 -71l-6 -33c-4 -14 -6 -24.667 -6 -32l10 -89l-8 8c0 -36 3 -62 9 -78c10 -23.333 30.333 -37 61 -41
l-2 -14l-107 -4c-8 0 -17.333 -1 -28 -3l-26 -5c-23.333 -4 -41.333 -6 -54 -6h-133zM3.99902 886l29.998 55.999l59 7l57 -31l19 -48l-36 -38l-48 -20l-55 20c-1.33301 2.66699 -4.66602 9.83398 -9.99902 21.501s-10.666 22.5 -15.999 32.5zM216.997 877.999l10 -12l6 52
l61 47c35.333 -22 61.333 -53 78 -93l-15 -52l-54 -8h-56z" />
    <glyph glyph-name="Eth" unicode="&#xd0;" 
 />
    <glyph glyph-name="Ntilde" unicode="&#xd1;" horiz-adv-x="752" 
d="M8 0l0.000976562 21.9961c26.667 0 46.667 13 60 39s20 53.667 20 83c0 10.667 -1.66699 24.334 -5 41.001l-5 41l3 35l3 35l-4 62l12 -4l-6 90l1 75l2 75l-15 46c-6 20.667 -13.167 34.834 -21.5 42.501s-22.833 13.167 -43.5 16.5v28
c51.333 -13.333 113.666 -20 186.999 -20l78 22c14.667 -22 31.5 -45.5 50.5 -70.5s41.833 -52.5 68.5 -82.5l110 -116l105 -149l16 10c-12 88 -18 145 -18 171l8 87l-12 -6l12 3v36l-14 5l14 -4c0 52.667 -23.333 81.334 -70 86.001v14c20.667 4 87.667 10.667 201 20v-34
c-46 -4 -69 -35.667 -69 -95c0 -9.33301 3 -21 9 -35l-20 -195c0 -114 6 -236 18 -366l-8 -16l-25 8l-12 12l-29 -18v14c-42.667 54.667 -120 149 -232 283l-92 110l-76 95l-62 80l-12 -14l-2 -139c0 -6.66699 0.333008 -15.667 1 -27s2 -24.666 4 -39.999l5 -67v-155
l-16 10l30 -91l53 -31l-6 -22l-61 -14l-33 3c-20 2 -31 3.66699 -33 5l-79 6h10zM247.001 890.996c19.333 22 39.9971 33 61.9971 33c10.667 0 21.834 -1.33301 33.501 -4s27.834 -8 48.501 -16c36.667 -13.333 64 -20 82 -20c16 0 26 10.667 30 32h20l25 -16l-2 -6l4 4
l-43 -62c-19.333 -24 -39.666 -36 -60.999 -36l-24 2l-22 2l-33 -2l10 19l-19 -12l-2 14l-43 12c-14.667 4 -29 6.66699 -43 8c-15.333 0 -24 -5.66699 -26 -17l3 -2l-28 -14l-19 14v8z" />
    <glyph glyph-name="Ograve" unicode="&#xd2;" horiz-adv-x="881" 
d="M40 361l3.99707 6.00195v83c21.333 62 60 122 116 180l20 21c42.667 34 93.334 61.333 152.001 82l123 6l74 -6l50 -22l50 -23c9.33301 -5.33301 21.333 -14.166 36 -26.499l56 -48.5c44 -38.667 70.667 -66.667 80 -84s20.333 -46.666 33 -87.999
c8.66699 -32 15.334 -63.667 20.001 -95c0 -12.667 -1.33301 -24.834 -4 -36.501s-4.66699 -20.834 -6 -27.501l-16 -32c-12.667 -26.667 -24.167 -48.834 -34.5 -66.501s-20.5 -33.167 -30.5 -46.5c-26 -34 -59 -62.667 -99 -86l-53 -31c-14.667 0 -29.667 -1.33301 -45 -4
s-35.333 -7.33398 -60 -14.001l-61 -17l-91 -1l-104 24l-97 85c-37.333 33.333 -65.666 65 -84.999 95c0 30 -2.16699 59 -6.5 87s-11.5 56.667 -21.5 86zM276.997 537.002l-14 2.00098l-3 -86v-18c2 -10.667 3.33301 -19 4 -25l5 -44l2 -107
c0 -10.667 1.33301 -24.667 4 -42l8 -51.5c2.66699 -17 14.667 -37.167 36 -60.5c10 -11.333 29.333 -29.333 58 -54l74 -8c28.667 5.33301 63 18.666 103 39.999c11.333 16 28.666 44 51.999 84l23 81l-1 60l-1 60v93l-29 90l-26 86c-49.333 10 -97.666 27 -144.999 51
l-55 -19l-49 -43zM470.997 801.003l-54 46l-29 39l-40 44c-24 27.333 -36 45 -36 53c0 10 7.66699 18.333 23 25c14 4.66699 26 7 36 7c19.333 0 31.333 -10.333 36 -31l2 7l25 -13l-16 -4l34 -43c6.66699 -18.667 13 -38.5 19 -59.5s12 -44.167 18 -69.5l-2 20l7 -18
l-18 -9l-1 6h-4z" />
    <glyph glyph-name="Oacute" unicode="&#xd3;" horiz-adv-x="881" 
d="M40 361l13.998 -6.00195c0 24 1.83301 51.167 5.5 81.5s8.83398 65.5 15.501 105.5l58 47l61 58l150 90l97 8l90 -10l80 -53c12.667 -4 26.334 -8.66699 41.001 -14c5.33301 -2 17 -7 35 -15c32 -16.667 63 -44.667 93 -84c26 -33.333 47 -69.666 63 -108.999l1 -44
c0 -91.333 -12.333 -166.666 -37 -225.999l-61 -57c-7.33301 -10.667 -16.333 -22.667 -27 -36l-26 -31l-68 -56l-92 -24c-103.333 0 -202 20.333 -296 61l-49 21c-40 25.333 -80 69.333 -120 132c0 26.667 -2.16699 53.167 -6.5 79.5s-11.5 53.5 -21.5 81.5z
M276.998 536.998l8.00098 -5.99805c-6.66699 -68 -18 -158 -34 -270l33 -92c18 -42.667 36.333 -70.334 55 -83.001l44 -27l64 -14l56 12l55 38c28 52 55 136.333 81 253l-22 113c0 16.667 -2 35.667 -6 57c-5.33301 21.333 -9 37.666 -11 48.999l-32 66
c-38 20 -79 38.333 -123 55c-42.667 -14 -85.334 -40 -128.001 -78zM409.999 814l20 61l39 42l24 57l-12 -2l10 14l-4 -4l16 24l-4 -8c6 12 21.333 18 46 18c12.667 0 24.667 -3 36 -9s17 -14.333 17 -25c0 -14.667 -7.66699 -30.667 -23 -48l-38 -39l-40 -54
c-14 -18 -30 -33 -48 -45l-8 10l2 11l-33 -10l-12 1z" />
    <glyph glyph-name="Ocircumflex" unicode="&#xd4;" horiz-adv-x="881" 
d="M40 361l12 -6l8 93c10 48 35 101 75 159c38 27.333 83.667 57 137 89c30.667 3.33301 59.167 8.16602 85.5 14.499s54.166 15.166 83.499 26.499l94 -6c43.333 -25.333 118.333 -66.666 225 -123.999c5.33301 -8.66699 13 -23 23 -43l18 -36
c16 -35.333 25.833 -61.666 29.5 -78.999s5.5 -78.333 5.5 -183c-24.667 -51.333 -48 -102.333 -70 -153l-59 -61l-84 -20c-21.333 -9.33301 -52.666 -21.333 -93.999 -36l-44 -3l-46 -4c-36 0 -63.667 2.33301 -83 7c-42.667 9.33301 -102 32 -178 68
c-26 21.333 -51.167 51.5 -75.5 90.5s-40.833 75.833 -49.5 110.5zM277 537l-8.00098 -42c-6 -28.667 -9.66699 -44 -11 -46c-2 -14 -4 -43 -6 -87s-3 -77 -3 -99c26.667 -72.667 41.334 -111 44.001 -115c13.333 -26.667 38 -57 74 -91l62 -26c46 14 88.333 39.333 127 76
l22 28l22 28l18 54l9 27v128c0 50.667 -2.66699 89.667 -8 117l-47 130c-48.667 28 -96.334 48.333 -143.001 61c-45.333 -16 -84.666 -40 -117.999 -72zM294.999 822c23.333 20.667 40 53 50 97l46 52l-6 2c10 18 17 29 21 33c8.66699 7.33301 20.667 11 36 11
c16 0 27 -5.66699 33 -17l18 -35l46 -66c14.667 -24 26 -48.333 34 -73l16 -12l-26 -9l-9 -9l-10 -1l16 -8c-10 22 -29.333 45.333 -58 70l-72 57l18 6c-20.667 -8 -41.667 -26.333 -63 -55l-53 -68l-4 16l4 5l-29 -17l-4 35z" />
    <glyph glyph-name="Otilde" unicode="&#xd5;" horiz-adv-x="881" 
d="M40 361l-12 0.00292969c8 63.333 23 117 45 161c8.66699 17.333 25.834 42.166 51.501 74.499s46.167 55.166 61.5 68.499l70 39c14.667 5.33301 77 19.666 187 42.999l94 -32c24 -2 56 -8.33301 96 -19l56 -33c14 -12 34.333 -35 61 -69
c23.333 -31.333 40.666 -57 51.999 -77l15 -37l14 -37l5 -48l6 -49l-3 -29l-7 -59l-31 -70l-37 -47l-61 -83c-18 -12 -42.667 -26 -74 -42l-180 -35l-105 29c-15.333 0 -29.333 1 -42 3s-22.667 3.66699 -30 5l-100 48l-59 61l-27 53l-45 77zM277 537.003l-13.999 -4l1 -82
l-4 -40l-3 -39c0 -12.667 4 -51 12 -115c6 -46.667 12.5 -80.167 19.5 -100.5s22.5 -46.5 46.5 -78.5c3.33301 -0.666992 10.166 -2.16699 20.499 -4.5s23.5 -5.5 39.5 -9.5l52 -11l64 2c51.333 41.333 86 105 104 191c6.66699 34.667 11.667 62 15 82s5 35.333 5 46v17v14
c0 31.333 -1.33301 51.333 -4 60l-39 104l-24 68c-19.333 4 -38.833 9.66699 -58.5 17s-42.5 17.333 -68.5 30l-87 -11zM373.001 924.003c10.667 0 21.8301 -1.33398 33.4971 -4.00098s27.834 -8 48.501 -16c36.667 -13.333 64 -20 82 -20
c16.667 0 25.334 4.66699 26.001 14l36 14l3 -24l4 6l8 4l-43 -62c-19.333 -24 -39.666 -36 -60.999 -36c-18 0 -38 6 -60 18l1 -12l-12 15l-19 -12v14l-43 12c-9.33301 2.66699 -17.333 4.66699 -24 6s-13 2 -19 2c-7.33301 0 -14 -2.66699 -20 -8s-9 -11.666 -9 -18.999
l-8 -4l-7 12l-26 6l46 59c18 23.333 39 35 63 35z" />
    <glyph glyph-name="Odieresis" unicode="&#xd6;" horiz-adv-x="881" 
d="M194 810l14 6l6 38l70 31l50 -18l3 -61l-15 -52l-52 -12l-64 14zM531 818l18 47l70 14l52 -7l25 -73l-27 -55l-64 -8l-44 26zM40 361h6l-8 93c29.333 62.667 57 107 83 133l46 40l23 20l76 35l46.5 19.5c15.667 6.33301 27.667 10.5 36 12.5s19.333 3.66699 33 5
s30.167 2 49.5 2c74 0 136.667 -12.333 188 -37c30 -14 72.333 -44.333 127 -91c56 -80.667 92 -157.667 108 -231l-7 -34c-7.33301 -40 -13 -64 -17 -72c-4 -11.333 -15.667 -33.333 -35 -66l-45 -75l-24 -25l-23 -24l-45 -27l-45 -25
c-11.333 -4.66699 -38.833 -11 -82.5 -19s-73.5 -12 -89.5 -12c-27.333 0 -87 11 -179 33c-42.667 28 -91.667 63 -147 105c-40.667 86 -65.667 166 -75 240zM277 537l-9.99805 12l-15 -100c0 -10 1.66699 -21.667 5 -35l6 -36c0 -12 3.16699 -41.5 9.5 -88.5
s9.5 -87.167 9.5 -120.5c4 -8 7.83301 -16.167 11.5 -24.5s14.167 -29.833 31.5 -64.5c35.333 -14.667 78.666 -31 129.999 -49c43.333 12 77 29.333 101 52c31.333 62 49.666 114.333 54.999 157l2 130l14 117c-12 42 -32.333 85.333 -61 130l-70 58
c-22.667 0 -43.5 -1.5 -62.5 -4.5s-40.167 -8.16699 -63.5 -15.5l-73 -57z" />
    <glyph glyph-name="multiply" unicode="&#xd7;" 
 />
    <glyph glyph-name="Oslash" unicode="&#xd8;" horiz-adv-x="881" 
d="M561 712l-4.00195 8.99707l1 23l18 -5l-10 -6l22 10l36 -4l28 6l6 10l-1 -24l-32 -21l-9 -26l16 8c30.667 -16.667 62.667 -42 96 -76l82 -91c16 -70 24 -125.333 24 -166c0 -22 -2.66699 -47.167 -8 -75.5s-14.333 -63.166 -27 -104.499c-48 -64 -82 -104 -102 -120
l-82 -51l-77 -9l-43 -9l-42 -7l-75 3l-48 24v-19l-25 -8l12 -11l4 -16l-34 18l-17 -6l-48 12l34 20l-17 -2l30 34l-71 9c-39.333 34.667 -82.666 82.334 -129.999 143.001c-14 32.667 -24.5 61.834 -31.5 87.501s-10.5 50.167 -10.5 73.5c26 118 79 223.667 159 317
c54.667 20.667 106.334 41.667 155.001 63l109 2c48.667 0 86 -5 112 -15zM585.998 591.997l-76.999 -164c-14.667 -48 -36.334 -109.667 -65.001 -185l-97 -184l8 10c23.333 -12.667 41 -19 53 -19c8.66699 0 20 2 34 6l59 -4c34.667 38.667 70.667 73 108 103
c10 106 15 185.667 15 239l-3 32l-5 32l-6 71c-2.66699 20 -10.667 41 -24 63zM303.999 130.997l116.001 256c46 102 81 189 105 261l8 2c-28.667 11.333 -50.667 17 -66 17c-10 0 -19.667 -2.33301 -29 -7l-82 1c-22 -55.333 -48.667 -100 -80 -134l4 -68l-9 -93l-10 -113
l18 -62c7.33301 -24 15.666 -44 24.999 -60z" />
    <glyph glyph-name="Ugrave" unicode="&#xd9;" horiz-adv-x="756" 
d="M3 699l14.001 20.001l112 14c59.333 0 135.666 -5.33301 228.999 -16l-6 4v-22c-28 -3.33301 -48 -15.666 -60 -36.999c-4 -7.33301 -6.66699 -15 -8 -23c0 -7.33301 1.66699 -17.333 5 -30l-16 -18l-3 7l12 -10l-12 -8c6.66699 -44.667 12 -88.834 16 -132.501
s6 -83.167 6 -118.5l-8 -125h-12l18 -62l-3 -35l69 -42l74 -15c34.667 0 79.667 10.333 135 31c6.66699 2 14.667 9.16699 24 21.5s14.333 22.166 15 29.499v18l13 91l12 100c0 10.667 -1 21.5 -3 32.5s-3.66699 19.833 -5 26.5l-10 60l-6 114l12 4
c0 37.333 -3 63.666 -9 78.999c-10 25.333 -30.667 39.333 -62 42l-4 26l67 -4l38 -7l38 -5l67 8l-4 4v-22c-28.667 0 -49.334 -14.333 -62.001 -43c-7.33301 -18 -11 -44.667 -11 -80v-126c0 -8.66699 0.5 -15.5 1.5 -20.5s3.66699 -17 8 -36s6.5 -33.5 6.5 -43.5l-12 -128
l6 -4l-27 -68l-2 -66c-82 -48 -146 -83 -192 -105l-82 -7l-105 23c-24.667 5.33301 -44.167 9.83301 -58.5 13.5s-24.166 6.83398 -29.499 9.50098l-72 32c-5.33301 9.33301 -15.5 33.833 -30.5 73.5s-22.5 64.5 -22.5 74.5v116c0 24 0.166992 48.5 0.5 73.5
s0.833008 50.5 1.5 76.5c0 13.333 0.333008 22.666 1 27.999c3.33301 12.667 5.33301 22.334 6 29.001l5 57c0 38 -3.33301 64.667 -10 80c-10 23.333 -31.667 37 -65 41zM409.001 801.001l-66 70.001c-12 14 -22.167 27.167 -30.5 39.5s-15.833 26.166 -22.5 41.499l-14 -8
c-16 16 -24.667 29 -26 39c0 10 7.66699 18.333 23 25c14 4.66699 26 7 36 7c3.33301 0 7.5 -0.5 12.5 -1.5s17.5 -4.16699 37.5 -9.5l-16 -29l9 -4l-2 -11l14 22l26 -65c2.66699 -16.667 7 -36.667 13 -60c2 -4.66699 4.16699 -9 6.5 -13s5.5 -8.66699 9.5 -14
c6.66699 -12.667 10 -22 10 -28l11 12l-10 -3l-23 -24z" />
    <glyph glyph-name="Uacute" unicode="&#xda;" horiz-adv-x="756" 
d="M3 699l-2.00098 11.999l112 20l59 -3c10.667 0 21.334 -0.333008 32.001 -1s20 -2 28 -4l114 -4l6 2v-22c-22 0 -39.667 -8.33301 -53 -25l-28 -55l16 -16l3 -1l4 -36l-24 24l-4 -125c0 -65.333 9.33301 -153 28 -263l-14 8c10.667 -32 16 -62.667 16 -92
c0 -8.66699 -0.333008 -15 -1 -19c40.667 -27.333 89 -47.666 145 -60.999l78 30l44 14c19.333 8 29 18.667 29 32l-1 10c6.66699 13.333 18.334 51.666 35.001 114.999l-20 100l22 109l-10 124c0 22 -0.833008 40.333 -2.5 55s-3.5 23.667 -5.5 27c-8 26 -29 41 -63 45l2 8
l63 26l56 -12l77 6l4 -6v-22c-23.333 0 -41.333 -10 -54 -30s-19 -48.333 -19 -85l3 -56l3 -56c0 -103.333 -5.33301 -186 -16 -248l12 4c0 -42.667 -0.833008 -74 -2.5 -94s-5.83398 -36.667 -12.501 -50l-39 -43c-88 -32 -202 -48 -342 -48l-77 18l-59 27l-47 74
c-0.666992 2.66699 -2.66699 11.334 -6 26.001c-8 36 -12.667 58 -14 66v118l-6 69l-4 69l20 112l-10 6c0 38 -3.33301 64.667 -10 80c-10 23.333 -31.667 37 -65 41zM346.999 813.999l32 51.001c0 32 11 71 33 117l4 -10l26 4l-20 4l10 32l4 -14c6 12 21.333 18 46 18
c12.667 0 24.667 -3 36 -9s17 -14.333 17 -25l-7 -28c-51.333 -54.667 -102 -101.334 -152 -140.001l10 -14l-32 -5l3 24l2 -3z" />
    <glyph glyph-name="Ucircumflex" unicode="&#xdb;" horiz-adv-x="756" 
d="M3 699l-12.001 12.002l138 10l48 -2l49 -4l124 -4l2 10v-22c-28 -3.33301 -48 -15.666 -60 -36.999l-7 -19c0 -4.66699 3.33301 -12.667 10 -24l-6 -22l-17 -5l14 -28l-12 16l-6 -127l10 -124l12 -125h-22c0 -22.667 1.83301 -43.167 5.5 -61.5
s8.83398 -34.833 15.501 -49.5c33.333 -17.333 87.666 -36.333 162.999 -57l60 28l25.5 8.5c7 2.33301 18.5 7.16602 34.5 14.499c13.333 7.33301 25.333 23.666 36 48.999c-3.33301 5.33301 -5 33.666 -5 84.999c0 13.333 2 32.666 6 57.999l8 58l2 139l-2 102
c0 38.667 -3 65 -9 79c-9.33301 25.333 -30 39.333 -62 42l12 24l45 4c12 0 26 -1.66699 42 -5l42 -5l69 4h-8v-22c-18.667 -2 -34.5 -9.16699 -47.5 -21.5s-19.5 -28.166 -19.5 -47.499c0 -7.33301 1.66699 -17 5 -29l5 -27v-232l-8 -130l-18 2l19 -74
c-23.333 -27.333 -45.666 -63.666 -66.999 -108.999c-48.667 0 -95 -11.333 -139 -34l-187 10l-87 4c-18 0 -36 11.667 -54 35l-11 18l-51 52l-12 84c0 10.667 0.833008 31 2.5 61s2.5 51.667 2.5 65l5 126l-8 114c0 23.333 -0.833008 42.166 -2.5 56.499
s-3.5 24.5 -5.5 30.5c-8 26.667 -30.333 42 -67 46zM232.999 822.002c5.33301 7.33301 11.334 16.833 18.001 28.5l26 47.5c18.667 34.667 34 59.667 46 75l21 33c6 7.33301 18 11 36 11c13.333 0 25.666 -5 36.999 -15l24 -35l26 -40c2 -7.33301 5.16699 -16.833 9.5 -28.5
s9.83301 -24.5 16.5 -38.5l36 -46l2 22l-14 -21l-33 -1l2 -19l6 14l-54 28c-4 21.333 -21.333 46.333 -52 75l-50 -26l-24 -43l-36 -30l-14 -26l-18 27l11 -7l-18 17z" />
    <glyph glyph-name="Udieresis" unicode="&#xdc;" horiz-adv-x="756" 
d="M259 821l-2 -8l34 61l53 23l39 -19l19 -56l-1 -54l-77 -28l-51 22zM470 822l11.999 -10l18 54l39 31l71 -21l13 -43l-19 -79c-45.333 0 -82.666 2.66699 -111.999 8zM2.99902 699l-5.99902 29.999l110 -22c11.333 0 22.833 1 34.5 3s22.5 4 32.5 6s20.167 3.66699 30.5 5
s19.5 2 27.5 2l126 -16l-6 14v-22c-47.333 -5.33301 -71 -34 -71 -86h10c-2.66699 -8 -6.33398 -23.667 -11.001 -47l4 18l-8 -131l3 -66l3 -66l-6 -57c-4 -32.667 -6.66699 -50 -8 -52l31 -95l55 -48l98 -29c25.333 22 63 35.667 113 41c16 10 32.333 27.667 49 53l5 95
l6 128l2 217l-10 4c0 37.333 -3 63.666 -9 78.999c-10 25.333 -30.667 39.333 -62 42l-6 18l85 4l32 -3l32 -3l67 14l-8 -8v-22c-46 -4 -69 -29 -69 -75l2 -19l2 -19l-6 -114l3 -58l3 -58l-18 -144l2 22l3 -92l-57 -103c-30 -17.333 -80.333 -34.666 -151 -51.999l-74 9
l-49 -1l-48 -2l-87 18c-28 6 -51 24.333 -69 55l-51 36c0 16 -0.666992 49.833 -2 101.5s-2 87.834 -2 108.501c0 9.33301 -3.33301 59.333 -10 150c-4 54.667 -6 96.667 -6 126l14 -10c0 38 -3.33301 64.667 -10 80c-10 23.333 -31.667 37 -65 41z" />
    <glyph glyph-name="Yacute" unicode="&#xdd;" 
 />
    <glyph glyph-name="Thorn" unicode="&#xde;" 
 />
    <glyph glyph-name="germandbls" unicode="&#xdf;" horiz-adv-x="578" 
d="M3 14l5.99902 -2.00098l40 38c18.667 104.667 28 176.334 28 215.001l-3 98l-3 99l7 8l-6 106c12 40.667 39.333 77.667 82 111c6 2 17 5.33301 33 10c30.667 8.66699 46.667 13 48 13c36 8 62.667 12 80 12l56 -1l73 -31c14 -12 27.167 -29.167 39.5 -51.5
s20.5 -42.5 24.5 -60.5l-23 -77c-36 -32 -76 -54 -120 -66c45.333 -16 90.333 -34 135 -54c18.667 -43.333 40 -102.333 64 -177c-16 -63.333 -33.333 -119 -52 -167c-40 -32 -86.667 -54 -140 -66l-80 32l-36 59c0 29.333 13.667 44 41 44c18 0 29.333 -6.66699 34 -20
l1 -42c0 -4 0.333008 -6.5 1 -7.5s1.33398 -1.83301 2.00098 -2.5l3 6l38 34l14 126l-30 91l2 50l-20 51l-65 18c1.33301 4.66699 18 21.667 50 51v84l-3 120l-29 6l-51 -9l-13 -102l3 -96c0 -17.333 0.333008 -34.5 1 -51.5s2 -32.167 4 -45.5
c0 -12.667 3.33301 -80.667 10 -204c4 -74 6 -131 6 -171l-26 -4l-58 16l-101 -18l-64 8c-2 4 -3 10.667 -3 20z" />
    <glyph glyph-name="agrave" unicode="&#xe0;" horiz-adv-x="534" 
d="M302 34c-6 -4.66699 -12.667 -8.83594 -20 -12.5029s-15.666 -7.16699 -24.999 -10.5l-51 -12l-53 -20l-60 16c-31.333 33.333 -50 72.666 -56 117.999l20 57l55 48c33.333 9.33301 62.333 18.333 87 27s48 18.334 70 29.001l17 22l2 22h6l-18 14l10 6
c-2 6 -3.83301 12.333 -5.5 19s-4.5 19.334 -8.5 38.001l-41 24c-22.667 0 -37 -7.66699 -43 -23c-2 -5.33301 -3 -22.333 -3 -51c0 -27.333 -16 -46.666 -48 -57.999l-63 25l-7 40l23 62l61 43l105 1c44.667 0 77.667 -4 99 -12c11.333 -5.33301 40 -24.333 86 -57l24 -71
c0 -21.333 1.33301 -47.666 4 -78.999l4 -32l2 -32l-10 -65l-10 -8l4 -2l-4 -25l12 6l-6 -2c3.33301 -32 16 -48 38 -48c17.333 0 32.666 11 45.999 33l16 -10l-61 -60l-72 -21c-58 22.667 -100 43 -126 61zM285 125.998l-14 47l18 22l-14 33l10 4
c-7.33301 -4.66699 -20.333 -7 -39 -7l-29 -30l-4 -58l-20 -15l19 6l2 -21h-10c0 -38.667 13.667 -58 41 -58c26.667 0 40 18.667 40 56v21zM298 506.998c-16 22 -38.333 47 -67 75l-72 72l6 -4c-16 16 -24.667 29 -26 39c0 10 7.66699 18.333 23 25c14 4.66699 26 7 36 7
l19 -2l19 -1l-5 -25l16 -19c17.333 -24.667 46.333 -80.667 87 -168l2 22l-5 -14l-24 11l-13 -20z" />
    <glyph glyph-name="aacute" unicode="&#xe1;" horiz-adv-x="534" 
d="M302 34c-10.667 -8 -19 -12.665 -25 -13.998l-5 1l-44 -34l-67 -6l-62 12l-65 65l-13 53l26 69l41 38l86 26c32 8 61 14 87 18c8.66699 24.667 17.667 40 27 46l8 34l-14 -14l4 10c-2 17.333 -10 43.666 -24 78.999l-35 2c-21.333 0 -34.666 -8 -39.999 -24l-2 -50
c0 -32 -23.333 -50 -70 -54l-47 15l-13 34l41 66l69 45l104 7c37.333 0 68 -4.66699 92 -14c16 -6.66699 43.333 -22.334 82 -47.001l28 -67l-6 -81l3 -38l3 -38l-16 -69l18 12c-4.66699 -4.66699 -9.33398 -13.667 -14.001 -27l16 -16l-14 6c3.33301 -32 16 -48 38 -48
c12 0 22 4.33301 30 13l22 26l-45 -72l-92 -25c-50 12 -87.333 32.333 -112 61zM285 126.002l9.99902 27c0 11.333 -0.666992 22 -2 32s-4 28.333 -8 55v-8c-5.33301 -0.666992 -24.666 -13.667 -57.999 -39l-26 -66l6 -7l-13 -16l22 3h-12c0 -38.667 13.667 -58 41 -58
c18.667 0 31 9 37 27c2 6 3 22.667 3 50zM235.999 520.002l46 82.999c17.333 33.333 28.333 62.333 33 87l-4 2v-12c2 4 4.5 9.83301 7.5 17.5s5.16699 13.834 6.5 18.501v-12c6 12 21.333 18 46 18c12.667 0 24.667 -3 36 -9s17 -14.333 17 -25c0 -7.33301 -7 -24 -21 -50
l-58 -45l-20 -40l-66 -45l8 -14l-24 11c-4 8 -10.333 16.333 -19 25z" />
    <glyph glyph-name="acircumflex" unicode="&#xe2;" horiz-adv-x="534" 
d="M302 34l-11 -9.00391l-7 -5l2 3l-60 -32c-34 0 -61.167 1.33301 -81.5 4s-37.5 6.66699 -51.5 12l-61 33c0 30 0.833008 54.5 2.5 73.5s6.5 42.5 14.5 70.5c15.333 8 52.333 21.333 111 40c48 14.667 83 31.334 105 50.001c12 24 17 42.667 15 56l-4 -2l10 10
c-1.33301 1.33301 -6.66602 22.333 -15.999 63l-39 18c-22.667 0 -37 -7.66699 -43 -23c-2 -5.33301 -3 -22.333 -3 -51c0 -11.333 -3.66699 -21.666 -11 -30.999c-2.66699 -3.33301 -6.5 -6.33301 -11.5 -9s-10.5 -4 -16.5 -4l-78 9c5.33301 18 10 51.333 14 100l83 33
l91 15c42 0 90 -8 144 -24l43 -35l30 -89v-121l-8 -75l-16 -8c4 -7.33301 5.33301 -15.666 4 -24.999v10l8 -12c3.33301 -32 16 -48 38 -48c17.333 0 32.666 11 45.999 33l22 -14c-40.667 -33.333 -85 -59.666 -133 -78.999l-82 21zM285 125.996l-5.99902 35.001l3 42l3 41
v-12l-45 -13c-10.667 -12.667 -18.834 -26.334 -24.501 -41.001s-8.5 -31 -8.5 -49l-13 -24l10 2c0 -38.667 13.667 -58 41 -58c26.667 0 40 18.667 40 56v21zM152.001 565.997l17.999 73.001l44 32l-2 8c10 18 17 29 21 33c8.66699 7.33301 20.667 11 36 11
s28.333 -6.33301 39 -19l26 -39l4 -48l36 -25l34 -60l-8 -16l-14 11l-13 -7l-12 -27l26 2l-38 64l-50 23l-26 32l8 12l-62 -56c-28 -26 -44 -46.333 -48 -61l-8 2l-10 -7l-5 19l-40 -9c8.66699 7.33301 23.334 24.666 44.001 51.999z" />
    <glyph glyph-name="atilde" unicode="&#xe3;" horiz-adv-x="534" 
d="M302 34c-18 -14 -43.999 -30.333 -77.999 -49l-69 -2l-70 4l-39 61l-5 53l4 65l51 52l104 37l65 -1l13 54l20 16l2 -2l-26 24l12 -8c-10.667 11.333 -20 30.333 -28 57l-27 24c-22.667 0 -37 -7.66699 -43 -23c-2 -5.33301 -3 -22.333 -3 -51
c0 -14 -4.83301 -25.333 -14.5 -34s-21.167 -13 -34.5 -13l-42 6l-31 40l15 58l89 33c48 15.333 77.667 23 89 23c16.667 0 41 -2 73 -6s52.333 -9.33301 61 -16l59 -47l10 -71l-10 -73c8.66699 -18 15.167 -37.833 19.5 -59.5s6.5 -46.167 6.5 -73.5l-20 8l-4 -18l12 -3
l-4 -28l2 8c3.33301 -32 16 -48 38 -48c17.333 0 32.666 11 45.999 33l16 2l-47 -72l-92 3l-72 -5zM293.001 149v56l-5 13l-3 14l-74 -31l-18 -54l9 -33v-19l2 12c0 -38.667 13.667 -58 41 -58c22 0 34.333 9.33301 37 28l3 49zM93.001 538l44.998 59c19.333 22 40 33 62 33
c10.667 0 21.834 -1.33301 33.501 -4s27.834 -8 48.501 -16c36.667 -13.333 64 -20 82 -20c14.667 0 28 11.333 40 34l43 -6l-20 -34l-36 -51c-16 -18 -34 -27 -54 -27l-42 3l-41 3l2 3c-0.666992 3.33301 -3.66699 8 -9 14l-43 12c-14.667 4 -29 6.66699 -43 8
c-13.333 0 -25 -11 -35 -33l-14 2l-19 12v8z" />
    <glyph glyph-name="adieresis" unicode="&#xe4;" horiz-adv-x="534" 
d="M302 34c-14.667 -10.667 -24.666 -21.668 -29.999 -33.001l-63 -9l-60 -7l-64 8c-26 30 -42.667 66.667 -50 110l24 75l35 40c23.333 6 51.666 12.5 84.999 19.5s64 13.167 92 18.5c4.66699 16 8 29.667 10 41c0 2 0.333008 4.33301 1 7l8 14
c-1.33301 8.66699 -4.66602 20.334 -9.99902 35.001v38l-49 28c-22.667 0 -37 -7.66699 -43 -23c-2 -5.33301 -3 -22.333 -3 -51c0 -28 -24.667 -49.333 -74 -64l-19 17l-27 54l19 58l61 31c44 12 87 18 129 18c11.333 0 31 -3 59 -9c13.333 -2.66699 24.5 -4.66699 33.5 -6
s17.5 -2 25.5 -2l61 -35c0 -20 2 -51 6 -93l6 -29l4 -28v-90l-6 -65l-12 -6l16 -4l-2 5l-2 -22l-2 4c3.33301 -32 16 -48 38 -48c17.333 0 32.666 11 45.999 33h22l-61 -68c-59.333 -9.33301 -109.333 -14 -150 -14zM83.001 567.999c6 6 17.333 22.667 34 50l55 20l57 -10
l5 -50l-12 -78l-56 -16l-57 24zM292.001 567.999l-4 -12l18 62l75 28l50 -24l1 -56l-23 -64l-35 -14l-56 36zM295.001 227.999l-9.99902 4l-11 -4l-20 5l-63 -82l16 -31l-7 -8l4 -13v8c0 -38.667 13.667 -58 41 -58c19.333 0 31.666 9 36.999 27l3 50
c0 18 0.833008 35 2.5 51s4.16699 33 7.5 51z" />
    <glyph glyph-name="aring" unicode="&#xe5;" horiz-adv-x="534" 
d="M302 34l-23.999 -15l-4 2l-50 -38l-53 -6l-86 36c-25.333 23.333 -46 54 -62 92c16 48 41.667 83.667 77 107c75.333 17.333 131 38 167 62l5 34l28 14l-24 6l18 19l-18 62l-45 10c-22.667 0 -37 -7.66699 -43 -23c-2 -5.33301 -3 -22.666 -3 -51.999
s-15.333 -44 -46 -44l-71 10c2 20.667 12.667 51.334 32 92.001l79 33c40 14 65.667 21.667 77 23c7.33301 0 16.666 -0.333008 27.999 -1s28.833 -2.5 52.5 -5.5s38.834 -7.5 45.501 -13.5l67 -59v-57c0 -6.66699 1.66699 -16.334 5 -29.001l5 -30
c0 -8 -0.666992 -15.333 -2 -22s-2.33301 -12 -3 -16l-5 -38l20 -91l-12 10l18 6l-6 -25l-6 2l-2 -10c0 -12.667 3.5 -23.834 10.5 -33.501s16.167 -14.5 27.5 -14.5c17.333 0 32.666 11 45.999 33l28 -20l-61 -54l-102 -19c-30 26 -66 47 -108 63zM190.001 578l-12 -10
l32 66l61 31l80 -37l33 -44l-35 -64l-60 -44l-87 36zM283.001 157c0 7.33301 2.33301 19.333 7 36l9 37l-14 2l-38 -15c-6 -3.33301 -11 -6 -15 -8s-11 -6.66699 -21 -14l-8 -56l2 -11l7 4l4 -27l-12 2c0 -38.667 13.667 -58 41 -58s41 17.667 41 53l-2 27zM282.001 623
c-12 0 -22.333 -4.33301 -31 -13s-13 -19 -13 -31s4.33301 -22.333 13 -31s19 -13 31 -13s22.167 4.33301 30.5 13s12.5 19 12.5 31s-4.33301 22.333 -13 31s-18.667 13 -30 13z" />
    <glyph glyph-name="ae" unicode="&#xe6;" horiz-adv-x="778" 
d="M389 427l12.0029 14l131 23c58 -8 118 -26.667 180 -56c8.66699 -23.333 16.334 -48 23.001 -74s11.334 -50.667 14.001 -74c-32 6.66699 -64.833 12 -98.5 16s-66.5 6 -98.5 6l-94 -22l-2 12l-2 -65l13 -97l56 -53l62 -24l79 23l68 67l19 2l-27 -60
c-24.667 -28.667 -57 -54.667 -97 -78l-126 7c-24 0 -46 2 -66 6s-38.333 9.66699 -55 17l-55 46c-4.66699 -4.66699 -9.83398 -8.5 -15.501 -11.5s-10.834 -4.83301 -15.501 -5.5l-10 1l-67 -49l-57 -13l-61 19c-24 38 -49.333 71.333 -76 100l32 90l89 34l11 15l46 3
l-2 -2c29.333 8 47.666 15.333 54.999 22c10.667 10 16 28.333 16 55l-14 34l6 -2l8 12c0 36 -17.333 54 -52 54c-26.667 0 -45.334 -11.667 -56.001 -35c-4 -10 -9 -34 -15 -72l-37 -4c-34 0 -54.667 21 -62 63c15.333 24.667 52 51.667 110 81l110 8
c41.333 0 81.666 -11 120.999 -33zM256.003 235l14 -0.000976562l-30 -20c-16 -10 -26.333 -26.333 -31 -49c-2 -11.333 -3 -31.666 -3 -60.999c0 -35.333 10 -53 30 -53c17.333 0 32 15.333 44 46c-3.33301 3.33301 -6 13 -8 29l-2 -9c0 6.66699 -0.333008 15 -1 25
s-2 21 -4 33zM530.003 415.999l-2 -6l-45 -19l-26 -56c29.333 -14.667 56.333 -22 81 -22l55 4l-14 4l-15 63z" />
    <glyph glyph-name="ccedilla" unicode="&#xe7;" horiz-adv-x="503" 
d="M463 123l18.001 -3.99902c-10.667 -35.333 -25.667 -61.666 -45 -78.999c-41.333 -36 -87.333 -54 -138 -54l-8 -13l-14 6l2 -31l-10 10h6l13 -2l11 -3l38 -4l8 -61l-33 -73l-47 -9l-61 6l-32 29c0 14 6.66699 21 20 21c10.667 0 20.5 -7.16699 29.5 -21.5
s19.5 -21.5 31.5 -21.5c12.667 0 23.667 4.83301 33 14.5s14 21.167 14 34.5c0 32 -19.333 48 -58 48c-6 0 -11.333 1.33301 -16 4l-11 -2l-4 -6l-29 24l24 8v6l35 11l26 38l-16 -20c-49.333 13.333 -98 30.666 -146 51.999l-51 58c-14 39.333 -24 84.333 -30 135
c11.333 59.333 26.666 102.666 45.999 129.999c28 40 69.667 75.333 125 106c21.333 0 54.5 -1.16699 99.5 -3.5s75.833 -3.5 92.5 -3.5c29.333 -22 55.333 -54 78 -96c0 -14 -4.5 -25.5 -13.5 -34.5s-20.5 -13.5 -34.5 -13.5c-13.333 0 -24.833 4 -34.5 12
s-14.5 19.333 -14.5 34l3 13l-25 -12l-3 15l10 6c-8 26 -24 39 -48 39c-4.66699 0 -20 -4 -46 -12l-32 -64l-25 -112l11 -102l64 -87l56 -8l50 2c37.333 26 64.333 56 81 90z" />
    <glyph glyph-name="egrave" unicode="&#xe8;" horiz-adv-x="534" 
d="M516 271h-109.001c-4.66699 0 -11 0.333008 -19 1s-17 2 -27 4l-46 5l-105 -8l4 -2l-2 -59l12 -94l50 -54l88 -29l71 10l56 77h23c-11.333 -30.667 -26.333 -56.334 -45 -77.001c-29.333 -15.333 -65.666 -27.666 -108.999 -36.999c-54 -12 -112.333 -18 -175 -18
c-48.667 27.333 -88.334 51 -119.001 71l-37 225l46 89c58.667 35.333 105.334 58 140.001 68l39 6l40 6l92 -9c40 -30 76.667 -61.667 110 -95zM285.999 415v-10l-39 -16l-21 -78l31 -4l52 18h33l-14 -12l3 82zM297.999 507l-69.001 71c-26.667 26 -52.667 46 -78 60l14 12
c-16 16 -24.667 29 -26 39c0 10 7.66699 18.333 23 25c14 4.66699 26 7 36 7c17.333 0 33.333 -10.333 48 -31l-14 13c0 -12.667 3.66699 -23.667 11 -33l12 8c6.66699 -13.333 17.334 -41 32.001 -83c12 -38.667 24.333 -67.667 37 -87l10 8l-7 -4l-34 11l15 -16h-10z" />
    <glyph glyph-name="eacute" unicode="&#xe9;" horiz-adv-x="534" 
d="M516 271l-94.998 -11.999c-11.333 0 -30.333 4 -57 12s-46.334 12 -59.001 12l-99 -4l8 -8l-1 -20c0 -12.667 1.33301 -32.334 4 -59.001l7 -68l56 -66l68 -23l91 26l50 61h23c-10 -28.667 -26.333 -51.667 -49 -69l-73 -58l-181 1c-18.667 6.66699 -42.667 18 -72 34
c-27.333 18.667 -63 54.667 -107 108l-2 31c0 58 17 124 51 198l60 60l64 26l163 3c47.333 -24 86.666 -55 117.999 -93zM286.002 415.001l8 2l-51 -26l-23 -80l39 8l54 -4l23 10l-6 8l-13 56zM236.002 520.001l28 55l15 54c5.33301 18.667 14 35 26 49l20 14l-12 -6l12 2
l-14 12l14 4c6 12 21.333 18 46 18c12.667 0 24.667 -3 36 -9s17 -14.333 17 -25c0 -14.667 -3.66699 -22 -11 -22l-156 -170l22 16l-31 -1z" />
    <glyph glyph-name="ecircumflex" unicode="&#xea;" horiz-adv-x="534" 
d="M516 271l-186.998 -0.000976562l-113 8c-2 -6 -3 -16.333 -3 -31c0 -33.333 8.33301 -77.333 25 -132l28 -64l98 -27l65 32l60 65h23c-12 -31.333 -28.333 -59.666 -49 -84.999l-67 -34c-38.667 0 -73.834 -1.66699 -105.501 -5s-65.5 -8 -101.5 -14l-62 54l-65 23
c-6.66699 25.333 -12.5 58.666 -17.5 99.999s-7.5 90.333 -7.5 147c13.333 32.667 43.333 70.334 90 113.001c56 6 112.333 19.333 169 40c29.333 -2.66699 46.333 -4.33398 51 -5.00098c18.667 -4 33 -6.66699 43 -8l56 -29c29.333 -43.333 52.666 -92.666 69.999 -147.999
zM286.002 414.999l-1.99902 6l-43 -26l-23 -84c20 4.66699 32.667 8 38 10c13.333 5.33301 23.666 9.33301 30.999 12l43 -20l22 8c-22 42.667 -44 74 -66 94zM122.003 527.999l90 145v6c10 18 17 29 21 33c8.66699 7.33301 20.667 11 36 11
c26.667 0 51.334 -21.667 74.001 -65c15.333 -30 25.666 -61.333 30.999 -94l50 -38l-6 14l-28 -25l3 -13l-10 15l-14 -16l-26 52l-50 19l-38 54l24 -12c-10.667 -4.66699 -20.5 -10.167 -29.5 -16.5s-20.5 -15.5 -34.5 -27.5c-24 -20 -40 -39 -48 -57l-2 4l-18 9l-3 -19
l-20 17z" />
    <glyph glyph-name="edieresis" unicode="&#xeb;" horiz-adv-x="534" 
d="M516 271l-89 -8c-9.33301 0 -25.5 3 -48.5 9s-40.167 9 -51.5 9l-127 -20l14 10c0 -14 -1.33301 -25 -4 -33c-2 -10 -6 -20 -12 -30l24 -82l56 -74l62 -25l79 30l70 65h23c-14 -36 -29.667 -60.333 -47 -73l-93 -64l-99 -7c-23.333 0 -75.333 16.667 -156 50
c-15.333 12 -31.166 29.167 -47.499 51.5s-27.5 43.833 -33.5 64.5l-9 83c15.333 48.667 33.333 96 54 142l62 58l52 22l105 4c45.333 0 96.666 -10 153.999 -30l48 -60zM272 421l-25 -30l-19 -58l29 -14l30 16l55 -10l-12 8l7 46l-28.5 20c-9 6 -21.167 13.333 -36.5 22z
M85 584l-10 6.00098c26.667 35.333 53.667 61.666 81 78.999l67 -43l27 -54l-34 -52l-64 -16l-57 14zM294 584.001l-6 -6l38 58l45 33l63 -27l9 -62l-19 -46l-64 -40l-32 26z" />
    <glyph glyph-name="igrave" unicode="&#xec;" horiz-adv-x="322" 
d="M11 14c19.333 2 37.999 9.66797 55.999 23.001c8 18 14.167 39.5 18.5 64.5s6.5 55.167 6.5 90.5l-10 32l4 -20l-3 63l-1 63l-18 4l-15 40l-37 34l-1 24l83 13l71 -11l93 28c-11.333 -44 -17 -122.667 -17 -236l4 -87h6c0 -38 2.66699 -64 8 -78
c8.66699 -26.667 27.334 -42.334 56.001 -47.001l2 -12l-95 -2h-122l-85 4l-4 -4v14zM191.999 507.001c-11.333 19.333 -33.499 42.168 -66.499 68.501s-56.5 51.166 -70.5 74.499h4c-16 16 -24.667 29 -26 39c0 10 7.66699 18.333 23 25c14 4.66699 26 7 36 7
c16.667 0 32 -12 46 -36l11 16l-20 -27l28 -6c9.33301 -57.333 31.666 -107.333 66.999 -150l-8 14l-3 -28l-2 -3l-25 16z" />
    <glyph glyph-name="iacute" unicode="&#xed;" horiz-adv-x="322" 
d="M11 14c26 2.66699 41.3311 16.334 45.998 41.001l19 30l-8 49l6 34l-10 18l2 28l24 -12l-22 130l14 6l-21 50l-49 20l7 8c10.667 4.66699 23.334 8.83398 38.001 12.501l52 12.5l58 1l91 20c-6 -20.667 -8.33301 -36.334 -7 -47.001l12 -97c0 -20 -2 -50 -6 -90
s-6 -69.667 -6 -89c0 -38 2.66699 -64 8 -78c8.66699 -26.667 27.334 -42.334 56.001 -47.001c-4 -2.66699 -13.667 -4 -29 -4l-49 1l-33 1c-10 0 -25 -2 -45 -6s-35 -6 -45 -6h-103v14zM129.998 520l36.001 65l9 42l32 55l10 -2l-12 16l6 10l20 -2h-12
c6 12 21.333 18 46 18c12.667 0 24.667 -3 36 -9s17 -14.333 17 -25c0 -12 -3 -20 -9 -24c-34.667 -32.667 -65.334 -69 -92.001 -109l-70 -45l10 1l-15 -4v23z" />
    <glyph glyph-name="icircumflex" unicode="&#xee;" horiz-adv-x="322" 
d="M11 14c17.333 2 29.999 7.33398 37.999 16.001l21 35l12 65l-8 40l4 42l2 -4c0 71.333 2 116 6 134l-18 -8l-7 66l-49 8l-5 26l93 11l59 -7l99 24l-4 -24c0 -7.33301 3 -15.666 9 -24.999c0 -48.667 -2 -96.334 -6 -143.001s-9.33301 -93 -16 -139l10 8
c0 -38 2.66699 -64 8 -78c8.66699 -26.667 27.334 -42.334 56.001 -47.001l4 -10l-101 6h-118l-79 -16l-10 6v14zM15.999 528.001l8.99805 30c2 6.66699 5.66699 16.667 11 30l31 45c12 17.333 21 35.333 27 54l12 -8c10 18 17 29 21 33c8.66699 7.33301 20.667 11 36 11
c14.667 0 24.667 -3.66699 30 -11c3.33301 -4.66699 6.33301 -15.667 9 -33c8.66699 -20.667 25.334 -44.5 50.001 -71.5s42 -49.5 52 -67.5l-8 -14l10 -5l-35 7l-10 -13h-6c-27.333 16.667 -58.666 53.667 -93.999 111l10 -6c-27.333 -29.333 -55.333 -51.666 -84 -66.999
l-30 -44l-6 12l-20 -9c-1.33301 5.33301 -5 10.666 -11 15.999h-4z" />
    <glyph glyph-name="idieresis" unicode="&#xef;" horiz-adv-x="322" 
d="M11 14c18.667 2 35.332 8.33398 49.999 19.001c5.33301 23.333 9.5 43.5 12.5 60.5s4.5 35.167 4.5 54.5l-6 20l14 24l-8 26l-10 -12c0 20.667 1.66699 43.667 5 69c2 24 8.33301 47 19 69h-16l-11 30l-53 34l-9 14l99 9l73 3l83 28l-11 -53l14 -77l-3 -57l-3 -57l8 -81
l-12 2c0 -38 2.66699 -64 8 -78c8.66699 -26.667 27.334 -42.334 56.001 -47.001l8 -8l-105 -14l-106 22l-107 -20l6 6v14zM10.998 584.001l-2 -10c19.333 36 42.333 69.667 69 101l65 -35l9 -46l-22 -54l-34 -34l-49 10zM219.998 594.001l26 38l39 19l63 -21l25 -38
l-15 -66l-62 -22l-54 14c-16 46 -23.333 71.333 -22 76z" />
    <glyph glyph-name="eth" unicode="&#xf0;" 
 />
    <glyph glyph-name="ntilde" unicode="&#xf1;" horiz-adv-x="618" 
d="M13 14c18 2 32.334 8.66699 43.001 20l28 41c0 21.333 -2 53 -6 95c-4 9.33301 -8 23.333 -12 42l20 16l-8 37l10 16l-6 39l10 18l-41 64l-37 6v10l79 27l77 -5l84 22v-16l-2 -11l-1 -10l1 -22c13.333 11.333 26 17 38 17l43 45l71 2c9.33301 0 25.5 -3.66699 48.5 -11
s40.833 -14.666 53.5 -21.999l37 -65l9 -56c0 -29.333 -6.66699 -64.333 -20 -105l28 -71l-10 -12l-1 -87l59 -24l-4 -10l-96 2c-7.33301 0 -20.5 -3 -39.5 -9s-32.833 -9 -41.5 -9l-110 12l6 24l36 31c8.66699 52 13 114 13 186l-2 42c0 21.333 0.666992 34.333 2 39l-14 9
v12l12 -1c-2 15.333 -8 28 -18 38c-4 4 -16 11 -36 21l-54 -22l-15 -83l3 -20l3 -20l-3 -26c-0.666992 -6 -1.33398 -11.333 -2.00098 -16s-1.66699 -8.33398 -3 -11.001l-4 -70l12 4c0 -44 5 -75 15 -93c6 -10.667 20.333 -22 43 -34l-117 -12l-84 -8l-97 18v6z
M135.001 538l44.9971 59c19.333 22 40 33 62 33c10.667 0 21.834 -1.33301 33.501 -4s27.834 -8 48.501 -16c36.667 -13.333 64 -20 82 -20c17.333 0 26 11.333 26 34l24 -6l5 -6l36 -2l-14 -6l-43 -62c-19.333 -24 -39.666 -36 -60.999 -36
c-19.333 0 -37.333 5.33301 -54 16l-19 -6l6 3l-17 2l-6 8l-43 12c-14.667 4 -29 6.66699 -43 8c-7.33301 0 -14 -3.33301 -20 -10c-3.33301 -4.66699 -11 -7 -23 -7l4 -6l-5 4l-38 8h14z" />
    <glyph glyph-name="ograve" unicode="&#xf2;" horiz-adv-x="587" 
d="M25 236c4 33.333 17.999 78.668 41.999 136.001l69 57c30 12 68.667 20.667 116 26l119 4l75 -36c29.333 -44 63.333 -88.667 102 -134l-4 -69l10 -62l-41 -82c-51.333 -22.667 -98.666 -49.334 -141.999 -80.001l-93 -11l-60 3c-70.667 40 -132.667 95.333 -186 166
c0 26 -2.33301 53.333 -7 82zM292.999 406.002l-2 -10l-38 2l-33 -78l1 -99l-5 -96l28 -76l60 -12l42 28l28 43l7 103l-13 129c-18 29.333 -43 51.333 -75 66zM323.999 507.002c-16 40 -61.667 86.334 -137 139.001l4 4c-16 16 -24.667 29 -26 39c0 10 7.66699 18.333 23 25
c14 4.66699 26 7 36 7c12.667 0 21 -1.66699 25 -5c4 -2 8.33301 -9.66699 13 -23l1 6v-23c7.33301 -9.33301 14.833 -20.833 22.5 -34.5s14.5 -27.834 20.5 -42.501l36 -83l4 6h-17l14 -3l-19 -6v-6z" />
    <glyph glyph-name="oacute" unicode="&#xf3;" horiz-adv-x="587" 
d="M29 223l13.9971 8.99902l-15 63l43 79c24.667 18.667 59.334 36.667 104.001 54l108 45l90 -14l30 -15l59 -31c15.333 -10 32.5 -25.833 51.5 -47.5s31.833 -40.5 38.5 -56.5l18 -75l-26 -102l-33 -38c-16 -18 -29 -32 -39 -42c-24 -24 -52.333 -46.667 -85 -68l-109 -9
c-27.333 0 -63 13 -107 39c-32 19.333 -62.667 42.666 -92 69.999c-9.33301 18.667 -18.166 39.334 -26.499 62.001s-16.166 48.334 -23.499 77.001zM292.997 405.999l-2 3.99902l-58 -18c-2 -19.333 -4.16699 -37.166 -6.5 -53.499s-5.83301 -35.5 -10.5 -57.5l-13 -62
l7 -104l46 -54l28 -14l64 20l32 37l-17 113l5 111l-18 50zM262.997 519.998c19.333 43.333 40.334 79.667 63.001 109l14 63l2 -8l-12 4l18 20l12 -8l-8 4c6 12 21.333 18 46 18c12.667 0 24.667 -3 36 -9s17 -14.333 17 -25c0 -16 -6.33301 -24 -19 -24
c-46.667 -78 -93.334 -134.667 -140.001 -170l-20 23l5 2l-10 13z" />
    <glyph glyph-name="ocircumflex" unicode="&#xf4;" horiz-adv-x="587" 
d="M29 223l11.998 -5l-9 95c24 35.333 60 67 108 95s94.333 45.667 139 53c31.333 -10 62.333 -18.167 93 -24.5s58 -9.5 82 -9.5l63 -63c12 -20 21.5 -43 28.5 -69s10.5 -53 10.5 -81c-5.33301 -19.333 -12.166 -41.333 -20.499 -66s-17.833 -50 -28.5 -76l-67 -49
c-16.667 -6 -42.667 -13 -78 -21c-10.667 -2.66699 -24.667 -5.5 -42 -8.5s-28.666 -4.5 -33.999 -4.5l-80 1l-76 44c-29.333 16.667 -51 28.667 -65 36c-18 54 -30 105 -36 153zM292.998 406c-10 0 -27.333 -9.33203 -52 -27.999c-16 -63.333 -24 -110.333 -24 -141
c0 -90.667 6.33301 -155.334 19 -194.001l60 -18l32 24l44 69l-1 101l7 109l-38 70zM147.998 528.001l35.501 62.499l48.5 92.5l6 -4c10 18 17 29 21 33c8.66699 7.33301 20.667 11 36 11c21.333 0 39.666 -12 54.999 -36l28 -64l42 -33l6 -62l8 -3l-21 -19l-22 13l18 -10
l-50 26c-20.667 32 -44 65.667 -70 101c-7.33301 -5.33301 -19 -20.666 -35 -45.999l-27 -53l-46 -22l-10 -20l4 13l-21 25l-16 5z" />
    <glyph glyph-name="otilde" unicode="&#xf5;" horiz-adv-x="587" 
d="M29 223l-6 -0.999023c10.667 52 30 102.667 58 152c26.667 9.33301 64.334 29 113.001 59c4 4 12.667 9.33301 26 16l83 18l64 -28c8.66699 -2 18.5 -5 29.5 -9s24.833 -9.66699 41.5 -17l69 -49l39 -63l22 -85c-3.33301 -22.667 -10.833 -48.834 -22.5 -78.501
s-23.834 -52.167 -36.501 -67.5l-57 -49c-71.333 -18.667 -122 -28 -152 -28l-106 11c-71.333 42.667 -122 92.667 -152 150zM293 406.001l-36 -20l-43 -62l-2 -217l30 -60l52 -10l38 30c21.333 36.667 37 86 47 148l-29 165zM119 538.001l44.9971 59c19.333 22 40 33 62 33
c10.667 0 21.834 -1.33301 33.501 -4s27.834 -8 48.501 -16c36.667 -13.333 64 -20 82 -20c2 0 7.33301 1.16699 16 3.5s20.667 5.83301 36 10.5l-6 2l7 -8l10 -2l14 8l-43 -62c-19.333 -24 -39.666 -36 -60.999 -36c-8.66699 0 -17.667 1 -27 3s-21 5.66699 -35 11l-11 10
l-10 -15l-15 16l8 -2l-43 12c-9.33301 2.66699 -17.333 4.66699 -24 6s-13 2 -19 2s-11.667 -1.83301 -17 -5.5s-8.33301 -8.5 -9 -14.5l3 -13l-22 20l-25 -16l10 22z" />
    <glyph glyph-name="odieresis" unicode="&#xf6;" horiz-adv-x="587" 
d="M29 223l-4.00098 -13l21 89c14 24 27.333 44.833 40 62.5s28 36.167 46 55.5c27.333 5.33301 53.333 11 78 17s52.334 13.667 83.001 23c45.333 -18 100.333 -30 165 -36c20.667 -20.667 41.334 -52.667 62.001 -96l48 -105c-26.667 -40 -48.334 -83.333 -65.001 -130
l-65 -63l-71 -31l-87 -17l-74 9l-131 84zM113.999 568v-10l20 60l64 16l59 -14l7 -38l-10 -68l-56 -12l-62 6zM319.999 578l22 54l49 8l55 -18l41 -52l-35 -72l-40 -6l-66 22zM292.999 406h-10l-38 -20c-25.333 -56.667 -38 -135 -38 -235l1 -40l50 -54l40 -20l38 12l36 65
l3 105l-5 105l-26 60z" />
    <glyph glyph-name="divide" unicode="&#xf7;" horiz-adv-x="594" 
d="M275 158c16 0 29.333 -5.33301 40 -16s16 -24.334 16 -41.001c0 -15.333 -5.66699 -28.666 -17 -39.999c-10 -11.333 -23 -17 -39 -17s-29.667 5.33301 -41 16c-10.667 12 -16 25.667 -16 41c0 16 5.5 29.5 16.5 40.5s24.5 16.5 40.5 16.5zM506 270l-1.99902 -15l6 -22
l-8 -45v14l-144 -14l-171 9c-42.667 0 -73.167 0.5 -91.5 1.5s-37.833 2.16699 -58.5 3.5l-6 35l24 20l-24 3l-2 16l170 -16c16.667 0 42.667 2 78 6s61.666 6 78.999 6l154 -10zM275.001 427c15.333 0 28.5 -5.66895 39.5 -17.002s16.5 -24.666 16.5 -39.999
s-5.66699 -28.666 -17 -39.999c-10 -11.333 -23 -17 -39 -17s-29.667 5.33301 -41 16c-10.667 12 -16 25.667 -16 41c0 16 5.5 29.5 16.5 40.5s24.5 16.5 40.5 16.5z" />
    <glyph glyph-name="oslash" unicode="&#xf8;" horiz-adv-x="587" 
d="M417 431l20.002 4.00293l1 8l-2 22l-6 10c20 2 42.333 -4 67 -18l8 4c-6 -5.33301 -13.333 -13 -22 -23s-18.334 -22 -29.001 -36l2 -4l58 -51l52 -130c-2.66699 -15.333 -5.16699 -27.5 -7.5 -36.5s-6.5 -23.5 -12.5 -43.5l-84 -122
c-16.667 0 -49.334 -3.33301 -98.001 -10l-19 -5.5c-6 -1.66699 -14 -4.5 -24 -8.5l-39 -14c-49.333 0 -86.666 6 -111.999 18l14 16l-11 -35l-10 -4l-19 -4c-12.667 2 -27.334 6 -44.001 12l2 -14l16 39l-9 7l38 19c-10 3.33301 -23.833 13.166 -41.5 29.499
s-39.167 39.166 -64.5 68.499l-1 171c14 17.333 28.667 36.666 44 57.999l44 62l84 39l84 8l73 -4zM378.002 286.003l-107 -134l-31 -85l-10 12c13.333 -27.333 34.333 -41 63 -41l65 19c6 40 10.667 74.167 14 102.5s5 52.833 5 73.5c0 12 -3.66699 17.667 -11 17l20 5
l6 14l-16 5zM216.002 149.003c37.333 44 84.333 113.001 141 207.001h6c-14 28 -33.333 42 -58 42l-67 -8c-4 -14.667 -7 -30.334 -9 -47.001l-3 -49c0 -6 -0.333008 -11.333 -1 -16l-7 -31l-5 -48z" />
    <glyph glyph-name="ugrave" unicode="&#xf9;" horiz-adv-x="590" 
d="M5 422l-12 -8c10.667 0 24 0.333008 40 1s34.333 2 55 4l91 29l74 14c-4 -14 -7.16699 -25.833 -9.5 -35.5s-3.83301 -18.167 -4.5 -25.5c0 -17.333 2 -45.5 6 -84.5s6 -67.833 6 -86.5l-20 -88l14 -8c0 -25.333 1.66699 -42.666 5 -51.999c6 -17.333 19.667 -26 41 -26
c34 0 51 17 51 51c0 4.66699 -0.333008 11 -1 19s-2 17 -4 27l24 59l-18 42v67l4 8c0 24 -4.66699 42.167 -14 54.5s-26.666 20.5 -51.999 24.5c4.66699 2 8.33398 3.66699 11.001 5c29.333 14.667 51.666 25.334 66.999 32.001l84 -3l83 20l-13 -47l12 -101l-14 -85
l20 -105l-12 14c0 -61.333 21.667 -95.333 65 -102l14 -17l-89 -24l-96 8l-65 -24l2 18l10 13l-22 5l14 15l-6 6l-17 -16c-5.33301 -6.66699 -9.33301 -13.334 -12 -20.001c-38.667 0 -74 -9.66699 -106 -29l-56 12c-12.667 5.33301 -28.834 15.166 -48.501 29.499
s-33.167 26.5 -40.5 36.5l-9 87l22 72l-8 63c0 9.33301 -0.333008 24 -1 44s-1 35 -1 45c-6 28 -27.333 44 -64 48v14zM326 507l-35.998 48c-6.66699 4 -14.667 9.33301 -24 16s-20.333 15 -33 25l-48 56l8 -2c-16 16 -24.667 29 -26 39c0 10 7.66699 18.333 23 25
c14 4.66699 26 7 36 7c15.333 0 30.666 -6.33301 45.999 -19l-14 -3l17 -18l-2 3l18 6c2.66699 -9.33301 7.16699 -27.333 13.5 -54s11.5 -49.667 15.5 -69l12 -14c7.33301 -9.33301 16.666 -22.333 27.999 -39c-5.33301 4 -17 7.66699 -35 11l-9 -32z" />
    <glyph glyph-name="uacute" unicode="&#xfa;" horiz-adv-x="590" 
d="M5 422l-10 9.99609l105 -11l71 37l82 4c-4 -12 -6 -21 -6 -27s2 -12 6 -18c-12 -75.333 -18 -141.666 -18 -198.999l4 -72l6 -12c0 -25.333 1.66699 -42.666 5 -51.999c6 -17.333 19.667 -26 41 -26c19.333 0 35.166 9.16699 47.499 27.5s18.5 37.5 18.5 57.5l-4 36
l-4 37l4 22l4 22l-12 77l2 -6c0 24 -4.66699 42.167 -14 54.5s-26.666 20.5 -51.999 24.5l-1 26l91 -5l40 11l42 12l73 10c-2 -10 -7 -25 -15 -45l12 -109c0 -7.33301 -0.666992 -14.333 -2 -21s-2.33301 -12 -3 -16l-5 -36l14 -91l-8 -6c0 -61.333 21.667 -95.333 65 -102
l-8 -19l-77 4l-68 -28h-77l-8 -4l-6 13l18 11c-6 6 -10 13.667 -12 23l-69 -56c-90 0 -151 13.667 -183 41l-16 28l-1 83c0 10 -1 20.833 -3 32.5l-5 28.5c-4 26 -6 46.667 -6 62l18 88l-10 -14c0 26.667 -4.5 45.834 -13.5 57.501s-26.5 18.834 -52.5 21.501v14z
M264 519.996l32.999 76c7.33301 16 14.333 29.333 21 40s14.334 20.667 23.001 30l-14 26l18 -4l8 18h-8l8 -2c6 12 21.333 18 46 18c12.667 0 24.667 -3 36 -9s17 -14.333 17 -25c0 -14.667 -8.33301 -22 -25 -22c-28 -29.333 -56.667 -71 -86 -125l-58 -37l10 -6l-6 25
l-13 -8l-24 -3z" />
    <glyph glyph-name="ucircumflex" unicode="&#xfb;" horiz-adv-x="590" 
d="M5 422l3.99805 9.99707l85 -7c38 0 91 12.333 159 37c-4 -14.667 -6.66699 -22.667 -8 -24c-3.33301 -8.66699 -8 -15.667 -14 -21l18 -199l-2 -94l-2 10v-11c0 -44.667 15.333 -67 46 -67c20.667 0 36.667 8.66699 48 26c5.33301 8.66699 12 26.334 20 53.001l-26 77
c0 25.333 1.83301 46.833 5.5 64.5s10.5 34.5 20.5 50.5l-12 2c0 24 -4.66699 42.167 -14 54.5s-26.666 20.5 -51.999 24.5l1 16c34 0 75 5 123 15l121 23l-5 -26c0 -6 2 -11 6 -15l-12 -93l3 -46l3 -45l-12 -89l10 -10c0 -61.333 21.667 -95.333 65 -102l-12 -19l-87 -15
l-66 -3l-79 -28l14 2l-18 39l22 1l-22 37l10 -14c-13.333 -12 -23.666 -17.333 -30.999 -16l-104 -43l-58 6l-49 32l-22 54l-7 75l-6 28l-4 28c0 59.333 5.33301 101 16 125l-10 4c0 26.667 -4.5 45.834 -13.5 57.501s-26.5 18.834 -52.5 21.501v14zM149.998 527.997
c31.333 22.667 62 77 92 163l-2 -12c10 18 17 29 21 33c8.66699 7.33301 20.667 11 36 11c14 0 23 -2.33301 27 -7s8 -15 12 -31l54 -42c4 -36 23.333 -72.333 58 -109l-2 -18l-14 7l-29 -24l2 -4c-15.333 15.333 -32.333 37 -51 65c-22.667 33.333 -39 55.333 -49 66l-22 4
l-14 -38l-82 -75l-10 2l8 -1l-13 -3l-28 19z" />
    <glyph glyph-name="udieresis" unicode="&#xfc;" horiz-adv-x="589" 
d="M4 422l-14.001 -6.00195l105 9l65 19l92 18c-6 -18.667 -8 -33 -6 -43l-16 -90c0 -79.333 4 -145 12 -197l2 2c0 -12 0.333008 -22.5 1 -31.5s2 -15.833 4 -20.5c6 -17.333 19.667 -26 41 -26c36 0 54 23.333 54 70l-4 40l-4 40v72l24 65l-14 -14
c0 47.333 -22 73.666 -66 78.999l-3 24l107 -1c19.333 0 66.333 10.333 141 31c-2 -10 -7 -26.333 -15 -49l-4 -85c0 -10 2 -24 6 -42l8 -43v-52l-2 -53c0 -61.333 21.667 -95.333 65 -102l-8 -21c-51.333 -12.667 -87.666 -21 -108.999 -25
c-39.333 -7.33301 -75.666 -11 -108.999 -11l-4 -4l-22 23l2 11l18 27h-6c-3.33301 -3.33301 -10.333 -7.66602 -21 -12.999l-4 3l-66 -40l-38 -3l-66 6c-20.667 20.667 -44.334 40 -71.001 58l-3 71l4 92l-18 43l8 76c0 26.667 -4.5 45.834 -13.5 57.501
s-26.5 18.834 -52.5 21.501v14zM104.999 567.998l-6 -8l40 62l51 36l81 -90l-43 -50l-46 -24l-45 28zM313.999 567.998l10 8l4 32l72 48c26.667 -25.333 52 -56 76 -92l-23 -58l-58 -8l-73 18z" />
    <glyph glyph-name="yacute" unicode="&#xfd;" 
 />
    <glyph glyph-name="thorn" unicode="&#xfe;" 
 />
    <glyph glyph-name="ydieresis" unicode="&#xff;" horiz-adv-x="464" 
d="M-51 432l-13.002 13.998l116 4c8.66699 0 15.667 -0.333008 21 -1s15.333 -3 30 -7c3.33301 -0.666992 12 -2.16699 26 -4.5s22.333 -3.5 25 -3.5l94 2l8 10v-14c-26 0 -39 -12.333 -39 -37c0 -13.333 8 -39 24 -77s25.667 -66.667 29 -86l33 -48l-10 18l28 14l30 50
l-6 34l12 8c19.333 44.667 29 74 29 88c0 14.667 -5 24.667 -15 30l-35 10l78 12l55 -3h39c6 0 9.33301 0.333008 10 1v-14c-17.333 -2 -34 -9.66699 -50 -23l-14 -55l-41 -38c-18.667 -30 -47 -83.667 -85 -161c-20.667 -42.667 -41 -88.667 -61 -138
s-40 -103.333 -60 -162h-6c-14 -29.333 -27 -50.666 -39 -63.999c-17.333 -18 -39.666 -27 -66.999 -27l-37 9l-32 44c0 32.667 19.667 49 59 49c6.66699 0 14.334 1.33301 23.001 4l-4 -18l16 -9v10l9 -1c15.333 0 30.833 17.833 46.5 53.5s23.5 61.834 23.5 78.501
c0 8.66699 -1.33301 16 -4 22l-55 105c-11.333 25.333 -36.333 89 -75 191l-22 14l-8 49l-38 41c-14.667 13.333 -30.667 22 -48 26zM49.998 583.998l-6 -14l20 54l55 41c39.333 -18 69.333 -44.333 90 -79l-26 -66l-62 -24l-49 18zM258.998 583.998l12.001 4l8 52l67 7
l43 -5l31 -70c-22.667 -27.333 -46.334 -50 -71.001 -68l-70 14z" />
    <glyph glyph-name="c279" unicode="&#x117;" 
 />
    <glyph glyph-name="dotlessi" unicode="&#x131;" horiz-adv-x="322" 
d="M11 14c24 2.66699 41.3311 15.001 51.998 37.001l-3 26l28 63l-22 24l22 22l-2 36l-22 -8l10 49l-1 7l-1 9l4 55l14 6l-33 58l-45 10l-1 18l101 -3c42.667 18 91.334 31 146.001 39c-3.33301 -14 -6 -23.667 -8 -29c-5.33301 -11.333 -9 -20 -11 -26l24 -101l-20 -84
l4 -95l4 12c0 -38 2.66699 -64 8 -78c8.66699 -26.667 27.334 -42.334 56.001 -47.001l2 -6l-113 -18l-82 6l-95 5l-16 -1v14z" />
    <glyph glyph-name="OE" unicode="&#x152;" horiz-adv-x="1136" 
d="M579 721c8.66699 0 20.001 -0.334961 34.001 -1.00195s29.667 -2 47 -4l82 -5c110 0 215 5.33301 315 16l-6 2l20 -68c-16.667 -40 -25 -76 -25 -108c0 -8.66699 0.333008 -15 1 -19l14 -6h-18c-5.33301 33.333 -14 57.666 -26 72.999c-24 32.667 -37 51 -39 55l-44 -4
l-52 4h-28c-8.66699 0 -16.334 -1 -23.001 -3l-42 16l-46 -22l2 8l2 -91l-2 -88l-2 -88l4 10l29 -7l18 16l19 -19l2 8c26 0 44 1.33301 54 4c13.333 2 30 9 50 21l-6 39l23 57l8 -12l3 -142c0 -60.667 3.66699 -107.667 11 -141l-23 -1c-10 74 -36.667 111 -80 111
c-10.667 0 -22.667 -2.33301 -36 -7c-8.66699 3.33301 -15.167 5.5 -19.5 6.5s-9.5 1.5 -15.5 1.5l-20 -6l-16 4c0 -22.667 1.5 -42.167 4.5 -58.5s8.83301 -33.833 17.5 -52.5l-4 -56h-4l8 -51l52 -55l83 -10l60 7l75 38c32.667 16.667 56 61.334 70 134.001l13 -15l11 -53
c-7.33301 -27.333 -13 -54.166 -17 -80.499s-6 -54.5 -6 -84.5l20 12l-202 -8l-90 -6l-89 -4l-180 6l-6 18c-20.667 -11.333 -41.5 -19.833 -62.5 -25.5s-43.833 -8.5 -68.5 -8.5c-36.667 9.33301 -93 27.333 -169 54c-50 20.667 -98.333 46.334 -145 77.001l-49 76l-13 45
l-10 46l-21 67l38 186c38 53.333 73.667 97.333 107 132l96 21l74 31l105 28l48 -21zM536.001 91.998l4 -10l-4 54l6 24l7 26v66l-2 66c0 12.667 3 32.667 9 60s9 47.666 9 60.999l-4 118h-14c-4 36.667 -17.333 73.334 -40 110.001l-71 11c-42 -6 -85.333 -23.333 -130 -52
l-24 -57c-2 -10 -3 -25.333 -3 -46v-20c0 -8.66699 -0.666992 -17 -2 -25l-34 -98c20 -71.333 30 -138.333 30 -201l-1 -29c29.333 -44 62.333 -75.667 99 -95l64 -15l48 5z" />
    <glyph glyph-name="oe" unicode="&#x153;" horiz-adv-x="892" 
d="M472 406l33 26.0049l59 31l89 8l59 -12c8 -3.33301 23.667 -12.333 47 -27l50 -26l44 -76l5 -50c-136 -13.333 -232 -20 -288 -20l-2 10l-1 -16c0 -8.66699 0.666992 -15.834 2 -21.501s4.33301 -12.834 9 -21.501l-10 -69c23.333 -30.667 45.333 -65 66 -103l83 -9
c19.333 8 43 19.667 71 35l56 57l25 -6c-6 -12.667 -16.667 -28.334 -32 -47.001c-16.667 -16.667 -38.667 -34.334 -66 -53.001c-24 -16 -52.667 -26 -86 -30c-15.333 -2 -45.666 -3 -90.999 -3c-8.66699 0 -14.334 -0.666992 -17.001 -2l-62 17l-49 39l-14 -7
c-2 2.66699 -3 4.66699 -3 6l-82 -43c-18.667 0 -46.334 -1 -83.001 -3s-63.667 -3 -81 -3l-80 32c-19.333 47.333 -44.666 91.666 -75.999 132.999l-7 61l7 92l29 57c40 38 85.333 68.667 136 92c58.667 -7.33301 116 -11 172 -11zM297 409.005l4 2.00098l-63 -28l-30 -68
c0 -52.667 2.33301 -100.834 7 -144.501s12.667 -86.167 24 -127.5l62 -1l30 7l43 56l24 97l-4 46l-4 44l-27 65c-14 34.667 -36 52 -66 52zM642 415.006l-10 -14l-42 3l-16 -95l33 16l56 4l31 -22l2 14c0 62.667 -18 94 -54 94z" />
    <glyph glyph-name="Scaron" unicode="&#x160;" horiz-adv-x="602" 
d="M36 251l34.998 12c0 -28.667 0.5 -51 1.5 -67s2.83301 -31.333 5.5 -46l65 -73c40.667 -21.333 80.334 -32 119.001 -32l81 22l44 67c0 17.333 -3.66699 33.666 -11 48.999c-3.33301 8 -6.33301 15.667 -9 23s-6.33398 15.666 -11.001 24.999l-29 12
c-28 14.667 -60.333 33.667 -97 57c-21.333 14.667 -62.666 40.334 -123.999 77.001c-11.333 24.667 -20.666 48 -27.999 70s-13.666 45.333 -18.999 70l34 79c8.66699 21.333 16.667 42 24 62l94 64l89 6c14 0 30.167 -1.66699 48.5 -5s41.5 -9.33301 69.5 -18l21 -9l22 -5
c20.667 0 31 14.667 31 44l26 12l15 -104c0 -13.333 1 -32.666 3 -57.999s4.66699 -53.666 8 -84.999l-8 -10l-21 -5l-13 45c-6.66699 15.333 -16.334 27 -29.001 35l-44 82l-106 20l-45 -10l-31 -70c6 -11.333 12.5 -21.5 19.5 -30.5s17.167 -19.167 30.5 -30.5l59 -52
l31 2l20 -9l-16 -24l96 -36l44 -42l45 -139c-16.667 -62.667 -34.667 -114.667 -54 -156c-30.667 -32.667 -75.667 -61 -135 -85l-92 -10c-50.667 8 -77 12.667 -79 14l-53 23c-26.667 11.333 -44 17.666 -52 18.999c-19.333 0 -29 -15.333 -29 -46l-25 8
c0 78 -6.33301 163.333 -19 256zM159.998 991l37 32l-4 -10l78 -64l32 -66l-4 4c11.333 25.333 29 50.333 53 75l65 67h-10l16 -27l33 2l-14 -8c-18 -34 -46.667 -80.667 -86 -140v-12c-9.33301 -17.333 -16.666 -28 -21.999 -32c-7.33301 -7.33301 -19 -11 -35 -11
c-14.667 0 -26.334 4.66699 -35.001 14l-18 38c-8.66699 22 -24.667 54 -48 96l-48 55z" />
    <glyph glyph-name="scaron" unicode="&#x161;" horiz-adv-x="424" 
d="M14 165l14.999 1c4.66699 -16 8 -26.333 10 -31l12 -26l13 -14l41 -66l76 -9l46 9l27 43c0 20 -19.667 42 -59 66s-64 46.333 -74 67l-62 61l-16 68l28 57c34.667 34.667 73.334 61 116.001 79l57 -16l37 -16c15.333 -6 27.666 -9.66699 36.999 -11
c10.667 0 16 9.33301 16 28l14 -14l6 -37l-11 -48l10 -51l6 -4l-12 -2l-39 72l-79 46c-21.333 0 -39.666 -12.667 -54.999 -38l31 -50l45 -24l-2 -3c11.333 -12 24.333 -22.333 39 -31l-2 16l73 -67l34 -79l-11 -87l-75 -61l-97 -10c-20 -2 -46 3.16699 -78 15.5
s-54 18.5 -66 18.5c-13.333 0 -21 -11 -23 -33l-20 -3l3 65v70l-11 57v-8zM66.999 702l21 18l12 1v-12l52 -20c24 -28 40 -56.667 48 -86c6.66699 4 19 15.333 37 34c13.333 16 27.666 26.667 42.999 32l52 62l14 -15l-1 3l-2 -29l12 8l-22 -57l-32 -28l-20 -77l-14 14
c-9.33301 -17.333 -16.666 -28 -21.999 -32c-7.33301 -7.33301 -19 -11 -35 -11c-10.667 0 -21.667 3 -33 9l-30 20c-14.667 50 -36 88.333 -64 115l-4 57z" />
    <glyph glyph-name="Ydieresis" unicode="&#x178;" horiz-adv-x="672" 
d="M-43 699l-2.00293 28.0029l123 -2c11.333 0 30.833 -3 58.5 -9s47.834 -9 60.501 -9h145l-10 14v-22c-29.333 0 -44 -12.667 -44 -38l2 -21v-21l4 -14l21 -27l-10 12l20 -22c12 -51.333 34.667 -95.666 68 -132.999l11 -49l16 -14c9.33301 28 26.333 64.667 51 110
l57 108l-8 -22v10l8 35l22 14l-8 -14c9.33301 18.667 14 33.667 14 45c0 27.333 -19 41 -57 41l10 22l58 -10c4.66699 0 10 0.333008 16 1s13.333 2 22 4l39 7l80 4l-8 -6v-22c-32 -4 -59 -21 -81 -51l-51 -84l-51 -79c-4.66699 -18 -14.667 -44 -30 -78l-59 -79l14 -8
l-22 -45l24 -27l-10 -61l2 20l-9 -79c10 -38.667 17 -62.334 21 -71.001c10.667 -20 30 -31.667 58 -35l-14 -12l-102 -2c-7.33301 0 -24.666 -4 -51.999 -12c-11.333 -2.66699 -21 -4.83398 -29 -6.50098s-15.333 -2.83398 -22 -3.50098l-134 18l6 -4v22
c14.667 0 26.167 2.5 34.5 7.5s15.833 14.833 22.5 29.5c4 8.66699 6.66699 16.667 8 24c0 6.66699 -3 14.667 -9 24c8.66699 21.333 17 75 25 161c-83.333 118.667 -139.666 220 -168.999 304c-32 77.333 -75.333 119.666 -130 126.999zM153.997 878.003l12 -14l14 54
l51 49l55 -35l17 -64l-28 -60l-38 -10l-71 24zM362.997 890.003l14 32l59 25l71 -1l3 -68l-13 -54l-56 -32l-60 16c-12.667 50 -18.667 77.333 -18 82z" />
    <glyph glyph-name="florin" unicode="&#x192;" horiz-adv-x="451" 
d="M106 397c-15.333 3.33301 -23.6641 5.33496 -24.9971 6.00195c-8 4 -13.667 6.66699 -17 8l-14 -10l4 18l-10 2l-6 36l41 -20l-1 14l35 6l-10 -10l13 26c0 19.333 2 48.666 6 87.999l-2 -8l14 73l48 57c54 14.667 105.333 35.334 154 62.001
c9.33301 0 20.166 -1.66699 32.499 -5s25.166 -7.66602 38.499 -12.999c27.333 -10.667 48.333 -22.334 63 -35.001l15 -53c-24 -30 -47.333 -53.333 -70 -70c-12 0 -23.167 3.5 -33.5 10.5s-15.5 16.5 -15.5 28.5c0 8 1.83301 17.5 5.5 28.5s5.5 19.833 5.5 26.5
c0 18.667 -8.33301 28 -25 28c-4.66699 0 -11.834 -3 -21.501 -9s-15.834 -14.333 -18.501 -25l-8 -32l-19 -61l14 -52c0 -38 -5 -65 -15 -81l44 6l18 -2l18 -2l64 12l-26 8l8 -22l16 -8l-16 -34l-8 -6c-7.33301 3.33301 -25.333 6.66602 -54 9.99902
c-12 0 -23.167 1.16699 -33.5 3.5s-19.833 5.83301 -28.5 10.5l-24 -72c-8.66699 -30.667 -13 -55.334 -13 -74.001c0 -10.667 0.666992 -19.334 2 -26.001l-8 -6l9 -106l-24 -117l-25 -116l10 -24l-16 -8l16 -36l-6 -8v6c-43.333 -27.333 -87 -61.666 -131 -102.999l-77 -3
l-51 13l-61 15l-29 57l30 58l35 18c32.667 0 49 -14.333 49 -43c0 -7.33301 -1.83301 -16.333 -5.5 -27s-5.5 -18.667 -5.5 -24c0 -17.333 9 -26 27 -26c8.66699 0 26.334 10.333 53.001 31l1 35l-21 -5l16 6c14 54.667 26 120 36 196l19 198l-8 4l19 58l-16 63l11 48z" />
    <glyph glyph-name="circumflex" unicode="&#x2c6;" 
d="M0 528l40 48l12 63l38 44v-4c10 18 17 29 21 33c8.66699 7.33301 20.667 11 36 11c16 0 27 -5.33301 33 -16l10 -38c6 -10 23.333 -32.333 52 -67c21.333 -24.667 36 -48 44 -70l12 2l-24 -19l-11 1l-4 -21l8 22l-96 61l-36 62l-2 -8c-28 -28 -44 -54.333 -48 -79
l-36 -42l-6 10l-16 -19l-5 9l-30 17h8z" />
    <glyph glyph-name="caron" unicode="&#x2c7;" 
d="M0 702l3.99805 21.001l9 -11l22 11h-10l54 -42l20 -40l54 -36l47 60c16.667 18.667 36.334 36 59.001 52l-16 -8l26 7l13 -5v-5l12 -6c-36 -64.667 -68.667 -111.334 -98 -140.001l4 -10c-9.33301 -17.333 -16.666 -28 -21.999 -32c-7.33301 -7.33301 -19 -11 -35 -11
c-14 0 -24 3 -30 9l-17 26l-44 59l-18 58z" />
    <glyph glyph-name="c274" unicode="&#x2c9;" horiz-adv-x="331" 
d="M0 507l6 43l-18 19l2 33l8 10l120 -18l44 3l45 3l124 -4l-2 4l-10 -19l12 -53v-13l-12 6l-84 -22l-125 16l-114 -2z" />
    <glyph glyph-name="breve" unicode="&#x2d8;" horiz-adv-x="291" 
d="M0 720c8.66699 12.667 18.333 21.667 29 27l18 -1l-24 -18l54 -77l80 -1l40 17l58 63l8 -3l6 12l34 -19v-14c-39.333 -32 -68.333 -59.667 -87 -83l-20 -55l4 -12l-19 -36c-7.33301 -9.33301 -19.333 -14 -36 -14c-20 0 -36.333 13.333 -49 40l-27 67l-35 44l-38 61z" />
    <glyph glyph-name="dotaccent" unicode="&#x2d9;" horiz-adv-x="253" 
d="M174 773l-35.001 66l-59 47l-33 56l-8 -12c-16 18 -24 31.667 -24 41c0 10.667 6.33301 19.5 19 26.5s25.334 10.5 38.001 10.5c18 0 29.333 -5.66699 34 -17c1.33301 -2 2.5 -7 3.5 -15s1.5 -17 1.5 -27c13.333 -12 23.333 -21.667 30 -29
c1.33301 -1.33301 9.33301 -10.333 24 -27c13.333 -18.667 27 -53 41 -103l8 -8l-19 -13l-16 9l-15 -1z" />
    <glyph glyph-name="ring" unicode="&#x2da;" horiz-adv-x="240" 
d="M29 578v-12l32 70l73 29c26.667 -10 55.667 -34.333 87 -73l-29 -70l-86 -26l-61 6zM121 623c-12 0 -22.333 -4.33301 -31 -13s-13 -19 -13 -31s4.33301 -22.333 13 -31s19 -13 31 -13s22.167 4.33301 30.5 13s12.5 19 12.5 31s-4.33301 22.333 -13 31s-18.667 13 -30 13
z" />
    <glyph glyph-name="ogonek" unicode="&#x2db;" 
 />
    <glyph glyph-name="tilde" unicode="&#x2dc;" horiz-adv-x="348" 
d="M107 630c10.667 0 21.8301 -1.33301 33.4971 -4s27.834 -8 48.501 -16c36.667 -13.333 64 -20 82 -20c10.667 0 27.334 6.66699 50.001 20v12l7 -28l30 12l-10 -2l-43 -62c-19.333 -24 -39.666 -36 -60.999 -36l-28 2l-28 2l-13 12l2 15l-19 -4l-4 -4l-43 12
c-14.667 4 -29 6.66699 -43 8c-17.333 0 -26 -7 -26 -21l3 -16l-30 8l-9 12l-18 -6l51 65c22 26 44.667 39 68 39z" />
    <glyph glyph-name="c275" unicode="&#x3bc;" 
 />
    <glyph glyph-name="c276" unicode="&#x2010;" horiz-adv-x="375" 
d="M29 157l-6.00098 38l6 57l8 59l4 -16l104 -2c8.66699 0 23.334 3 44.001 9s36 9 46 9l118 -12l-8 -10l8 -44c0 -11.333 -6 -38 -18 -80l2 -16l-102 -2c-12 0 -28.333 2.33301 -49 7l-49 9l-122 2z" />
    <glyph glyph-name="endash" unicode="&#x2013;" horiz-adv-x="602" 
d="M76 152l12 34c0 15.333 -2.33301 31.5 -7 48.5s-11 34.5 -19 52.5c10 0 20.167 0.5 30.5 1.5s24.833 2.83301 43.5 5.5c40 6 66 9 78 9c20 0 45 -2.33301 75 -7l75 -9h162l-6 -2l6 -32l-6 -49l-8 -50l12 8c-128 -16 -230.667 -24 -308 -24l-148 10z" />
    <glyph glyph-name="emdash" unicode="&#x2014;" horiz-adv-x="996" 
d="M30 274l3.99805 60.999c0 6 1.66699 15.333 5 28l3 28l-6 65l-12 4c73.333 0 145 -1.16699 215 -3.5s145.167 -4.66602 225.5 -6.99902s142.166 -3.5 185.499 -3.5l330 8l-14 -8l-12 -51v-68l8 -51l8 -8c-52.667 0 -131.667 0.333008 -237 1s-184.666 1 -237.999 1
c-67.333 0 -127.166 0.666992 -179.499 2s-108.666 3 -168.999 5s-102.5 3 -126.5 3z" />
    <glyph glyph-name="quoteleft" unicode="&#x2018;" horiz-adv-x="268" 
d="M223 729l-4 -29l-35 -21c-16.667 -33.333 -42.667 -61 -78 -83l-5 -60l16 4l7 3l87 -37l33 -61l-38 -81l-75 -26l-69 53l-15 71l1 76c26 60.667 47 97 63 109z" />
    <glyph glyph-name="quoteright" unicode="&#x2019;" horiz-adv-x="268" 
d="M45 350l0.000976562 25.001l44 43c8.66699 5.33301 19 14 31 26c23.333 27.333 38.666 60.666 45.999 99.999l-20 -4c-4.66699 0 -8 1.66699 -10 5l-62 30l-24 67l6 55l83 44l66 -39l41 -97c-4.66699 -8 -10.667 -20.667 -18 -38l-29 -71
c-18 -47.333 -69.333 -96 -154 -146z" />
    <glyph glyph-name="quotesinglbase" unicode="&#x201a;" horiz-adv-x="268" 
d="M45 -201v21l48 26l66 87l7 59l-48 -12l-52 36l-36 54l36 65l65 54l82 -41l21 -99c0 -24.667 -8.66699 -54 -26 -88l-49 -83c-32.667 -16.667 -70.667 -43 -114 -79z" />
    <glyph glyph-name="quotedblleft" unicode="&#x201c;" horiz-adv-x="498" 
d="M223 729l-9.99902 -16.999l-41 -37l-26 -42l-42 -57l-3 -40l22 5c1.33301 0 3 -1.33301 5 -4l63 -19l35 -63l-12 -79l-85 -12l-61 33l-43 73c20 73.333 49.667 130.666 89 171.999s75.666 70.333 108.999 87zM453.001 729.001l0.000976562 -35.001l-44 -23
c-7.33301 -13.333 -15.833 -25.833 -25.5 -37.5s-21.834 -24.167 -36.501 -37.5l-15 -60l27 5c6.66699 0 27.667 -4.33301 63 -13l37 -81l-38 -69l-47 -32l-82 49c-8.66699 21.333 -15 44.333 -19 69s-6 47.334 -6 68.001l35 56c8 12 20.667 27.667 38 47l47 53z" />
    <glyph glyph-name="quotedblright" unicode="&#x201d;" horiz-adv-x="498" 
d="M45 350l-10 29.001l64 23l13 34l41 47l13 61l-24 -5l-74 12l-34 83l22 79l81 18l68 -51l35 -77c0 -14.667 -13.667 -50.334 -41 -107.001c-12 -26 -29.333 -42 -52 -48l-36 -63zM276 350.001l-10.001 9.00098l52 35c40 50.667 66.667 100.667 80 150
c-17.333 -6 -29.333 -8.33301 -36 -7l-60 14l-31 89l35 67l45 8l82 -7l37 -105l-5 -47l-36 -63c-16 -24.667 -32.667 -42.334 -50 -53.001l-16 -22c-5.33301 -7.33301 -12.666 -16.333 -21.999 -27z" />
    <glyph glyph-name="quotedblbase" unicode="&#x201e;" horiz-adv-x="498" 
d="M45 -201l-2 29l50 24l72 89l1 51l-22 -4l-2 2l-76 32l-30 64l16 75l77 10l70 -37l39 -81l-23 -38l-16 -70c-6 -10.667 -16.667 -35 -32 -73l-62 -18zM276 -201l-10 23l59 60c23.333 22 45.333 39 66 51l7 59l-42 -10l-58 44l-31 66c18 42 44.667 74.333 80 97l90 -47
c19.333 -40.667 29 -81.334 29 -122.001l-1 -19c-17.333 -25.333 -42.666 -67.666 -75.999 -126.999c-28.667 -15.333 -66.334 -40.333 -113.001 -75z" />
    <glyph glyph-name="dagger" unicode="&#x2020;" horiz-adv-x="752" 
d="M29 408l-5.99805 25.002c9.33301 9.33301 16 18.666 20 27.999l-1 14c25.333 30 47.333 54 66 72l-10 -4l77 -40c65.333 0 125.666 -13.667 180.999 -41h-6l-27 85l-30 61l-21 79c7.33301 9.33301 21.333 17 42 23v29l48 33l-16 -6l26 6l8 12l24 -22l-6 22
c23.333 -12.667 41 -34 53 -64l32 -19l-12 6c-14 -43.333 -26.167 -85.833 -36.5 -127.5s-18.833 -82.834 -25.5 -123.501l-2 12l88 24c13.333 1.33301 25.166 3 35.499 5s26.833 6 49.5 12l68 34l14 -18l-1 -10c12 -26 33.667 -47.333 65 -64h-10l-6 -16l8 3
c0 -20 0.666992 -32.667 2 -38l-12 -16l-47 -28l-8 -38v4c-28.667 12 -73 26.833 -133 44.5s-104.667 33.167 -134 46.5c56.667 -73.333 85 -130.333 85 -171c0 -4.66699 -0.333008 -8.33398 -1 -11.001l12 -10l-42 -140l-6.5 -63
c-1.66699 -16.667 -5.16699 -43.667 -10.5 -81l-30 -158l-4 4l-17 2l-12 -4l-8 -8l-12.5 65c-4.33301 22 -10.833 52.333 -19.5 91l-46 158l-20 122l-2 2l48 85c2 9.33301 3.33301 15.333 4 18s4 11.334 10 26.001l46 77l-8 6l-73 -52c-62 -12.667 -124 -27.667 -186 -45
l-7 30c-16.667 12.667 -37.667 26 -63 40z" />
    <glyph glyph-name="daggerdbl" unicode="&#x2021;" horiz-adv-x="771" 
d="M735 581l-21.999 -27.9971c1.33301 -15.333 3.66602 -30.333 6.99902 -45l-82 73c-24.667 13.333 -51.5 23.5 -80.5 30.5s-59.5 10.5 -91.5 10.5c-51.333 -23.333 -102.666 -38.333 -153.999 -45l-71 -74l-19 -63c86 -14.667 185.667 -22 299 -22l146 8l6 -4l-32 -7
l-2 -19l-14 -19l20 -8c-5.33301 0 -40.666 -0.666992 -105.999 -2s-128.666 -2 -189.999 -2l-131 -8l-12 12l-2 -33c0 -8.66699 2 -22.667 6 -42l129 22c69.333 0 155.666 -7.33301 258.999 -22l10 -21l-36 -1l-4 -37l-2 -2l-113 6l-58 -4l-58 -4l-105 20v-12l18 -64l75 -75
l169 -49h83c50.667 25.333 96.334 60.333 137.001 105l-16 -28l-6 -57l26 -9c-17.333 -10.667 -41.666 -23.667 -72.999 -39l-45 -8c-14 0 -23.333 -0.333008 -28 -1s-10.667 -2 -18 -4l-74 -18c-19.333 2.66699 -35.5 5.16699 -48.5 7.5s-31.5 6.5 -55.5 12.5l-141 68
c-30.667 41.333 -58 95.666 -82 162.999l-40 -4l-39 16l-40 -8l-8 8l32 -5l-6 33l2 33l8 -16l36 -4l5 18l20 -18l14 10l-1 31c0 5.33301 0.166992 9.16602 0.5 11.499s1.16602 4.5 2.49902 6.5l-24 18l-33 6l-48 -20l8 -4l-2 21l2 39l16 11l-2 -6l32 4l35 20l36 -8l-2 -19
c8 26 20.333 59 37 99c9.33301 17.333 22.666 37.166 39.999 59.499s38.666 46.833 63.999 73.5c53.333 6 118.666 18 195.999 36c51.333 -16 108.333 -29 171 -39z" />
    <glyph glyph-name="bullet" unicode="&#x2022;" horiz-adv-x="294" 
d="M51 236l-14 -14l38 91l61 24l77 -41l23 -47l-19 -74l-60 -26l-72 2z" />
    <glyph glyph-name="ellipsis" unicode="&#x2026;" horiz-adv-x="996" 
d="M59 94v-14l41 100l75 8l80 -22l30 -82l-52 -61l-56 -31l-87 23zM392 94h-8l51 80l65 32l74 -34l34 -84l-18 -73l-100 -27l-63 21zM723 96l39 76l57 36l84 -50l36 -60l-44 -83l-64 -29l-65 43z" />
    <glyph glyph-name="perthousand" unicode="&#x2030;" horiz-adv-x="1200" 
d="M29 544l-4 -3.99902c21.333 44 36 92.333 44 145l59 41c28.667 0 55 -1 79 -3s49.333 -5.66699 76 -11c14 -8.66699 27.167 -18.5 39.5 -29.5s25.5 -24.833 39.5 -41.5c29.333 -34 46.333 -64.333 51 -91l-28 -60.5c-8 -17 -14 -28.833 -18 -35.5
c-20 -36.667 -40.667 -65.334 -62 -86.001l-82 -10l-89 16l-61 47c-19.333 26 -34 67 -44 123zM75 31.001c234 294 430.667 523.667 590 689l4 12l21 -28l1 -17l41 -10l-24 -6l-183 -226l-110 -116c-6 -6 -36.333 -39 -91 -99l-205 -240l22 2l-39 21l4 -1
c-12.667 4 -23 10.333 -31 19zM391 173.001l-8 1.99902l19 74l52 62c24 22 66 42 126 60c51.333 -8 96.333 -26.667 135 -56c11.333 -48.667 29.333 -99.667 54 -153c-4 -34 -19.333 -70.333 -46 -109c-50.667 -35.333 -99 -59 -145 -71
c-36 18.667 -76.667 36.334 -122 53.001l-50 56zM797 173l-2.00195 -6l14 84l43 54c38.667 20.667 86 40.667 142 60c22.667 0 44.834 -4.16699 66.501 -12.5s42.5 -19.5 62.5 -33.5c24 -94 36 -147 36 -159c0 -42.667 -10.667 -83 -32 -121
c-47.333 -22 -99.666 -41 -156.999 -57c-18.667 0 -38 4.16699 -58 12.5s-40 20.5 -60 36.5l-43 76zM536.998 230l-2 -9l14 -24l-14 -25l-8 -4l22 -1l-10 -21l2 -37l-4 8v-6c0 -54 9.33301 -81 28 -81l3 3l34 11l17 62l-12 21l14 -1l10 21l-8 37l-16 1c0 9.33301 4 21 12 35
v10l-6 -3l-15 75l-22 22l-33 -16l-6 -39c-0.666992 -6 -1 -13.667 -1 -23c0 -8 0.333008 -13.333 1 -16zM257.998 484l-13.999 8c0 20 8.66699 40.667 26 62l-24 -20l2 36l12 24l10 6l-12 4c0 44 -6.33301 70 -19 78c-8 4 -14.333 6 -19 6l-41 -6l-3 -65l-14 -27l2 8l26 -44
l-8 -12l-4 6c-2 -22.667 -7.33301 -40.667 -16 -54l26 -14l-12 4c0 -27.333 1 -45 3 -53c5.33301 -20 17.666 -30 36.999 -30c20 0 33 9.66699 39 29c2 6 3 24 3 54zM941.999 230c0 -18 4.33203 -38.667 12.999 -62v-5l-13 -37l-4 -3l4 -6c0 -44.667 5.66699 -71.667 17 -81
l17 -15l51 17l-2 68l-8 7l20 15c-2 11.333 -3 21.666 -3 30.999s0.333008 16.333 1 21l-2 -2l-18 23l2 12l20 29l-12 -12l10 11l-20 53c-11.333 4.66699 -23.166 8.83398 -35.499 12.501s-24.5 6.16699 -36.5 7.5z" />
    <glyph glyph-name="guilsinglleft" unicode="&#x2039;" horiz-adv-x="296" 
d="M29 237c12.667 18.667 34.999 46.334 66.999 83.001l86 66l75 89l6 -2l-2 -6l4 -37l-8 -16l2 -10c-5.33301 -12 -14.666 -41.333 -27.999 -88c-10 -36.667 -21.333 -65.334 -34 -86.001l-10 2c20.667 -56 51.334 -113 92.001 -171l-2 -6l-22 -21c6 -4 14 -17 24 -39h-22
c-14 21.333 -37 50.333 -69 87l-47 35c-20.667 14 -36.334 26.333 -47.001 37l-71 91z" />
    <glyph glyph-name="guilsinglright" unicode="&#x203a;" horiz-adv-x="296" 
d="M29 -5c0 15.333 -2.00098 32 -6.00098 50l12 8l-6 -6c8 29.333 18.667 59.5 32 90.5s30.333 64.833 51 101.5l-12 -6c-11.333 20 -22.166 51.333 -32.499 94s-20.5 74 -30.5 94l4 -10l-12 21c0 16.667 2 31.667 6 45l-18 4c32 -38 73.667 -80.333 125 -127l133 -119
l-20 8l-67 -99c-62 -36 -119 -81 -171 -135z" />
    <glyph glyph-name="uni20AC" unicode="&#x20ac;" horiz-adv-x="839" 
d="M602 288l-97.999 4.00391l-97 4l-64 -18l-12 10c8 -48 21.667 -92.333 41 -133c23.333 -19.333 44.166 -37.5 62.499 -54.5s33.833 -32.5 46.5 -46.5l79 -10l68 11c44 28 73.333 51.333 88 70c17.333 21.333 29 56 35 104c4 -10.667 11.333 -20.334 22 -29.001l38 3l-8 4
c-10 -34.667 -24 -65.334 -42 -92.001c-12.667 -18.667 -35.334 -44 -68.001 -76l-90 -31c-43.333 -8.66699 -80.666 -13 -111.999 -13c-10 0 -25.667 2 -47 6l-48 8l-69 -1c-49.333 28 -100 65.667 -152 113c-10 59.333 -28 111 -54 155c-12 9.33301 -27.333 17.333 -46 24
l-29 -20l-10 2l-4 13l26 19l-12 43l2 -20c7.33301 1.33301 15.166 3 23.499 5s22.166 5.66699 41.499 11l8 -16l-2 8l3 36c-19.333 -13.333 -38.666 -20 -57.999 -20l-22 18l-6 29l14 -1l20 21l-22 4l55 -14l27 24l-8 -18l22 78c47.333 48 80.333 99.333 99 154
c23.333 5.33301 56 14.666 98 27.999l80 47l89 2c20.667 0 78.667 -12.667 174 -38l43 -11c27.333 0 41 14.667 41 44l9 4c6.66699 -22 11.667 -43 15 -63s5 -43 5 -69l6 -134l-29 -17c-15.333 41.333 -28.666 84 -39.999 128l-113 76l-79 13l-90 -1l-57 -49
c-4.66699 -8.66699 -12.667 -25.334 -24 -50.001l-20 -43l-23 -105c41.333 6.66699 82.5 12 123.5 16s77.5 6 109.5 6l92 -20l10 24l-14 -31l10 -19l-18 -21l-10 12l-157 -7l-157 -5l6 2v-5c0 -10.667 -3 -23.667 -9 -39l105 2l54 9l54 9l105 2l-12 2l-14 -23l18 -15
l-26 -17z" />
    <glyph glyph-name="trademark" unicode="&#x2122;" horiz-adv-x="759" 
d="M29 652l-14.001 19.001l14 20l4 41l-16 -14l100 -12c7.33301 0 19 2.33301 35 7l35 7l64 -2l-8 -6l12 -19l-4 -32l-6 -9l-2 12l-19 -2l-8 -15l-47 -4l10 -4l-8 -98v-73l18 -108l-24 2l-25 -16l-15 12l-23 -4l-10 18c2.66699 17.333 5 36.666 7 57.999s3 47 3 77
c0 31.333 0.833008 56 2.5 74s4.83398 39.333 9.50098 64l-14 -6l-8 28c-22 0 -41 -3 -57 -9zM238.999 360.001l20.998 179.999c8 70 20 128.667 36 176l10 -4l7 8l46 10l13 -10l2 6c14 -41.333 23.667 -86 29 -134l31 -46c14.667 -34.667 22 -64.667 22 -90
c0 35.333 5.33301 62 16 80c10 14 22.333 34.667 37 62c6 16 10.667 33 14 51s5 37.667 5 59l6 -2l23 28l39 -14l27 2l-4 2l19 -128l24 -106l5 -128l-52 8l-18 -6l8 4c0 17.333 -0.333008 32.5 -1 45.5s-2.66699 28.833 -6 47.5l-15 92l-12 -2
c-0.666992 6 -1.16699 12 -1.5 18s-0.5 14 -0.5 24v32l-18 -67l-13 -17c0 -7.33301 -1.66699 -16.166 -5 -26.499s-7.66602 -20.833 -12.999 -31.5l-22 -55l-7 -74l-6 12h-14h-8c-3.33301 1.33301 -5.66602 2 -6.99902 2l-27 -12l-24 66c-9.33301 24 -14 47.667 -14 71
l-39 66l12 -8l-21 74l2 -28l-2 -23l-2 -23l2 -76l-22 -39v-78l-8 -12l-28 14l-26 -12l-8 16z" />
    <glyph glyph-name="c278" unicode="&#x2212;" 
 />
    <glyph glyph-name="NULL" horiz-adv-x="0" 
 />
    <glyph glyph-name="nonmarkingreturn" 
 />
  </font>
</defs>
</svg>
