<?xml version="1.0" standalone="no"?>
<!DOCTYPE svg PUBLIC "-//W3C//DTD SVG 1.1//EN" "http://www.w3.org/Graphics/SVG/1.1/DTD/svg11.dtd" >
<svg>
<metadata>
Created by FontForge 20090914 at Sun Apr 18 10:51:37 2021
 By www-data
&#194;&#169; Copyright SoftMaker Software GmbH and its licensors
</metadata>
<defs>
<font id="VeronaRandomHeavy" horiz-adv-x="290" >
  <font-face 
    font-family="VeronaRandom-Heavy"
    font-weight="400"
    font-stretch="normal"
    units-per-em="1000"
    panose-1="0 0 9 0 0 0 0 0 0 0"
    ascent="800"
    descent="-200"
    x-height="511.002"
    cap-height="730"
    bbox="-86.001 -277 1325 1036"
    underline-thickness="50"
    underline-position="-75"
    unicode-range="U+0020-U+2212"
  />
<missing-glyph horiz-adv-x="500" 
d="M31 0v1036h438v-1036h-438zM438 31v974h-376v-974h376z" />
    <glyph glyph-name=".notdef" horiz-adv-x="500" 
d="M31 0v1036h438v-1036h-438zM438 31v974h-376v-974h376z" />
    <glyph glyph-name="space" unicode=" " 
 />
    <glyph glyph-name="exclam" unicode="!" horiz-adv-x="325" 
d="M43 624c-0.666992 6.66699 -3.66699 9.33398 -9 8.00098l18 44c36 25.333 81.333 43.333 136 54l72 -34l46 -54c0 -8 6.66699 -20.667 20 -38c-10.667 -38 -23.667 -88 -39 -150l-53 -213l-4 12c-2 -10 -3 -18.333 -3 -25c0.666992 -5.33301 1 -9 1 -11l-34 36l-25 -8
l-22 16l-14 -22c-6.66699 0 -10.667 0.166992 -12 0.5s-2.33301 1.16602 -3 2.49902l10 -1c-30 65.333 -53 128.666 -69 189.999c-18.667 70.667 -28 138.334 -28 203.001zM172 187l6 1c3.33301 0 6 -1.33301 8 -4l1 -9l60 -14l42 -59l-1 -16
c-8 -48 -17.667 -76.333 -29 -85c-6 -4 -35 -9 -87 -15l-6 -1c-6 0 -15.333 4.33301 -28 13l-82 -13l-1 86c0 18 4.33301 39.5 13 64.5s19.667 41.5 33 49.5l15 -3c32 0 55.333 3.66699 70 11z" />
    <glyph glyph-name="quotedbl" unicode="&#x22;" horiz-adv-x="555" 
d="M72 548c-7.33301 2 -14.333 15.666 -21 40.999c-2.66699 10 -4.66699 19 -6 27s-2 15 -2 21c0 4.66699 5 14.667 15 30l2 46c64 14 114.667 21 152 21c13.333 0 21 2.33301 23 7l47 -62l-18 -75l-7 -38c-2.66699 -14 -6 -25.667 -10 -35l-42 -73l-41 -85l-18 -1l-30 -1
c-54.667 0 -82 11.333 -82 34c0 18.667 13.667 35.834 41 51.501s41 34.167 41 55.5c0 14 -5.66699 21 -17 21l-10 -2l2 4l-9 25l-26 -14zM332 547.999c-7.33301 0.666992 -14.667 14.667 -22 42c-2.66699 10.667 -4.66699 19.834 -6 27.501s-2 14.834 -2 21.501l4 -2l-2 96
l124 2c39.333 0 67 -9.33301 83 -28l-6 -48l6 -33c4 -14 6 -24.667 6 -32c0 -60.667 -13 -114.667 -39 -162c-42.667 -20.667 -89.667 -40 -141 -58c-10.667 0 -20.5 2.83301 -29.5 8.5s-13.833 13.167 -14.5 22.5c0 17.333 13.667 34.166 41 50.499s41 35.166 41 56.499
c0 12 -4.33301 20.333 -13 25l-29 10l6 -11l-19 6z" />
    <glyph glyph-name="numbersign" unicode="#" horiz-adv-x="634" 
d="M38 238l-20.999 28.0029l43 8l-18 -4l41 2l23 -2l23 -2l53 10l-34 16c3.33301 30.667 20 65.667 50 105l-20 51l14 -22l-52 -4l-1 16l-40 10l-2 -22l-9 52l5 34l-3 -8l-4 18l47 -16c14 6 26.167 10.5 36.5 13.5s19.833 4.5 28.5 4.5l2 -10l46 81
c0 20 0.833008 39.167 2.5 57.5s4.83398 38.833 9.50098 61.5l-16 8l18 -16l56 2l32 -6l-6 2c-8.66699 -16.667 -14.834 -35.667 -18.501 -57s-5.5 -48 -5.5 -80l-29 -32c-12.667 -14.667 -20.334 -25.667 -23.001 -33l81 -6l35 16l-12 -16l30 79l-13 92l14 57l-10 -10
l64 24l-2 -24l42 -12l-2 14l-12 -69l-33 -52l12 -77l-30 2c17.333 0 43 -4 77 -12l70 8l-10 -18l-31 4l25 -34l1 -40l-40 -4l-57 38l-54 -36l4 40c-6.66699 -24.667 -13.667 -58.667 -21 -102l-18 -102l4 22l62 -16l9 -16l38 24l30 -22l-27 4
c5.33301 -18.667 12 -30.667 20 -36v-36l-64 2l-19 24h-68l-2 -2c0 -6.66699 -0.833008 -23.334 -2.5 -50.001s-2.5 -47.667 -2.5 -63l-2 -113l-2 12l-22 -20c-18 20 -38.667 33.333 -62 40l-20 -22l48 61l-23 82l40 49c-14.667 12 -33 22.667 -55 32l-27 -10l-13 -26
l-20 28l26 -65l-29 -62l-6 -77l-16 -20l-20 30l-18 -36l-14 32l-26 -24c0 19.333 1.16699 37.166 3.5 53.499s6.83301 35.833 13.5 58.5c12 41.333 28 74.666 48 99.999l-6 -4l-46 24l-53 2l-34 -42c8 11.333 14.333 30 19 56zM232.001 274.003l47 9.99805l8 -30l25 18
l-14 10l50 27l-27 92l44 55l4 -28l-27 26l-55 2l-11 -32l-16 16l2 -31c-12 -23.333 -20.667 -47.666 -26 -72.999s-8 -50.666 -8 -75.999z" />
    <glyph glyph-name="dollar" unicode="$" horiz-adv-x="760" 
d="M358 83l-14 61l24 56l-18 85h22l-38 -12l-10 5l-20 -4l28 36c-6 -0.666992 -10.667 -1 -14 -1c-37.333 0 -83.666 14.667 -138.999 44l-141 87l-24 125l25 72c28 21.333 63.667 44.333 107 69c50 18 104 27 162 27l66 3l-14 28l8 16l-16 24l22 34l7 -2l2 -24l25 -6l10 30
c-10.667 -20 -18.334 -37.5 -23.001 -52.5s-7 -28.167 -7 -39.5l-6 -6l14 -18l5 1l16 -2l17 -2c20 0 34.833 5.16699 44.5 15.5s19.834 16.166 30.501 17.499c4 0 7.83301 -0.166992 11.5 -0.5s5.16699 -1.5 4.5 -3.5l62 -43l12 -87l64 -45l-18 16c6 -8 9 -15.333 9 -22
c0 -7.33301 -4 -14.666 -12 -21.999c-8 -6 -16 -9 -24 -9c-8.66699 0 -20 9 -34 27l-50 -7l-19 51h-18h-15c-32 0 -56.667 2 -74 6l8 -1l-16 -62l-20 -15l2 4h31l23 -8l31 -34l11 20c28.667 -22.667 66 -46.667 112 -72c68.667 -37.333 107 -59 115 -65
c12.667 -46 31 -95 55 -147c-35.333 -42.667 -64 -96 -86 -160c-44 -19.333 -86 -48 -126 -86l-50 -1h-52c-8.66699 0 -17.167 0.333008 -25.5 1s-16.5 2 -24.5 4l-2 -51l3 -16l16 -19l-40 -22l27 -8l-40 26l13 -12l-26 16l22 12c0 30 -8.66699 56.333 -26 79l20 -16l-43 28
l-93 5l-25 3l-26 4c-12.667 0 -23.834 -7.66699 -33.501 -23s-21.5 -23 -35.5 -23c-10 0 -16.333 4.33301 -19 13l-2 27c-26 34 -55.333 62.333 -88 85l-1 42c-16 22 -24.667 39 -26 51c0 9.33301 3.66699 17.333 11 24c5.33301 6 13.333 9.66699 24 11
c8.66699 0 24.667 -8.33301 48 -25l43 -29l94 -38l51 -50h116zM398 264l18 -70c-8.66699 -17.333 -13 -38.333 -13 -63c0 -11.333 1 -23.666 3 -36.999l-20 -4l106 9l19 64c2 9.33301 -1.66699 21.666 -11 36.999s-19 23 -29 23c-8 0 -17.333 -1.66699 -28 -5l17 17l-46 25
l3 -5zM356 535l10 15v62l-10 31v-8c-40.667 0 -61 -13 -61 -39c0 -14 6.66699 -27.333 20 -40c11.333 -10 25 -17 41 -21z" />
    <glyph glyph-name="percent" unicode="%" horiz-adv-x="851" 
d="M81 1c-4 0 -7.66699 1.33203 -11 3.99902c0 3.33301 -4.66699 6 -14 8l235 242c18 22 43.667 61 77 117s59.5 95.333 78.5 118s53.833 58.334 104.5 107.001l113 110l-6 2c5.33301 6 16.333 10 33 12l77 -14v12c4 0 6.66699 -3 8 -9c-0.666992 -2 -1.5 -3.66699 -2.5 -5
s-3.5 -4 -7.5 -8l-13 -11l-181 -207l-183 -230l-213 -237l18 -4l-19 -8l-20 -5l-31 22l-63 -12zM6 567.999c21.333 39.333 37.334 76.667 48.001 112c61.333 24 126.666 43 195.999 57l73 -22c14 -32.667 32.333 -60 55 -82c8 -27.333 13.833 -54.5 17.5 -81.5
s5.5 -54.833 5.5 -83.5l-24 -53c-53.333 -38.667 -103 -63 -149 -73c-60.667 23.333 -116.667 52.333 -168 87l-21 74c-12 35.333 -23 57 -33 65zM440.001 173l-16 -2.00098c30 43.333 54.667 89 74 137c47.333 36.667 104 59 170 67c33.333 -21.333 68 -52.666 104 -93.999
c33.333 -38.667 59 -76.667 77 -114c-20 -47.333 -43.333 -90 -70 -128l-47 -34l-91 -3c-51.333 0 -107.333 16.333 -168 49l-30 35zM217.001 669.999c-4 -10 -17.667 -22.666 -41 -37.999c0 -19.333 1.16699 -43.333 3.5 -72s5.83301 -68.334 10.5 -119.001l25 -8l48 3
l-32 92l23 127zM635.001 295l16 0.000976562l-28 -26l-29 -96l7 -87l39 -41l23 49c-2 18 -3 38 -3 60c0 11.333 0.333008 31.666 1 60.999s1 53.333 1 72z" />
    <glyph glyph-name="ampersand" unicode="&#x26;" horiz-adv-x="885" 
d="M555 329l-0.000976562 -34.9971l40 19l-10 -21l6 -2l15 -13l60 46l38 56l9 70l7 72c0 12.667 -3 26.667 -9 42l-8 27c0 13.333 16 30.666 48 51.999s55.667 32 71 32c16.667 0 25 -12.667 25 -38c0 -11.333 -1.33301 -23.333 -4 -36l11 -42
c0 -23.333 -2.33301 -44.5 -7 -63.5s-13 -40.167 -25 -63.5l-28 -21l7 -81c-17.333 -8.66699 -38.833 -27.834 -64.5 -57.501s-42.834 -54.5 -51.501 -74.5l2 -7l-6 2c26.667 -27.333 54.334 -50 83.001 -68l-5 -42l18 22c28 -22 54 -37 78 -45
c16 -5.33301 24 -14.333 24 -27c0 -16 -4.33301 -24 -13 -24c-4.66699 2.66699 -7.66699 5.33398 -9 8.00098c-4 0 -23.333 -1.33301 -58 -4s-59.667 -4 -75 -4l-48 -6l-48 -4l-27 -1h-24c-30 0 -54.333 11.333 -73 34l-8 4c-11.333 0 -85.333 -14.333 -222 -43
c-50 12 -106 18 -168 18c-31.333 48 -63 88 -95 120c2 8.66699 3.33301 22.667 4 42s1 42 1 68c16 21.333 41.333 50.666 76 87.999l60 34l19 9c6 2.66699 9.66699 6.66699 11 12l-2 17l-2 18l-59 65l22 48l-4 76c15.333 20 49.333 53.333 102 100c62 0 122 9.33301 180 28
c48 -16.667 91.667 -25 131 -25c12.667 0 22.334 0.666992 29.001 2l74 -80l-5 -46l6 -72l-82 -79l-71 -43l2 -6c6 -6 12 -12.833 18 -20.5s10.667 -14.834 14 -21.501l-7 -19l39 14zM335.999 205.003h-17.001l-36 35l1 26l-7 9l-9 4c-6.66699 0 -20.667 -17.667 -42 -53
c32 -50.667 79.333 -88 142 -112c24.667 0 37.334 4.66699 38.001 14l-33 37zM458.998 581.003c0 15.333 -4.33301 29.3311 -13 41.998s-20 19 -34 19s-25.667 -6.66699 -35 -20c-8 -13.333 -12 -27.666 -12 -42.999s3.83301 -31.333 11.5 -48s18.5 -26 32.5 -28
c14.667 2.66699 26.667 12.334 36 29.001s14 33 14 49z" />
    <glyph glyph-name="quotesingle" unicode="'" horiz-adv-x="295" 
d="M72 548c-7.33301 2 -14.332 15.6641 -20.999 40.9971c-0.666992 3.33301 -2.16699 11.5 -4.5 24.5s-3.5 20.833 -3.5 23.5l2 3l9 -5l12 80l95 20c28 0 47.667 -2 59 -6c2 -0.666992 3.66699 -1.5 5 -2.5s0.666016 -2.83301 -2.00098 -5.5l57 -62
c-8 -13.333 -13.167 -30.666 -15.5 -51.999s-3.5 -52.666 -3.5 -93.999c-41.333 -46 -71 -91.333 -89 -136l-94 -3c-11.333 0 -21.333 2.66699 -30 8s-13.334 13 -14.001 23c0 18.667 13.667 35.834 41 51.501s41 34.167 41 55.5l-2 11l-1 10l4 4l-36 26l21 -35
c-5.33301 2.66699 -10.666 5.66699 -15.999 9s-10 7 -14 11z" />
    <glyph glyph-name="parenleft" unicode="(" horiz-adv-x="362" 
d="M22 361l-5.99805 -20c15.333 59.333 23 112 23 158v15v11c-1.33301 5.33301 -2 9.33301 -2 12c10 21.333 27.333 53 52 95c11.333 15.333 47.666 47 108.999 95l121 94l62 4c12 0 18 -4.33301 18 -13c0 -3.33301 -2 -9 -6 -17l-7 -14c-10 -20 -23 -36 -39 -48l-40 -35
c-34.667 -36.667 -61.334 -81.667 -80.001 -135c0 -24 -3 -60.667 -9 -110l-6.5 -56c-2.33301 -20.667 -3.5 -38 -3.5 -52c0 -59.333 10.333 -103.666 31 -132.999l-1 -79c28 -48 52 -94 72 -138l45 -36c28 -24.667 42.667 -41 44 -49c0 -8 -11.667 -14.333 -35 -19
c-54 18 -129.333 64.667 -226 140c-14 59.333 -44.333 112.666 -91 159.999c-18 38 -27 82.667 -27 134c0 16 0.666992 28 2 36z" />
    <glyph glyph-name="parenright" unicode=")" horiz-adv-x="362" 
d="M-38 -88c0 11.333 13.002 20.0029 39.002 26.0029c21.333 38.667 50.666 76.667 87.999 114c0 28 7 65.667 21 113l33 111c10 39.333 15 95 15 167l-10 29l-10 30l-4 103c-26.667 34 -65.667 73.667 -117 119l-26 53c-19.333 11.333 -29 22 -29 32c0 6 3.66699 9 11 9
l50 -7l41 -8l81 -38c20 -18 51.333 -50 94 -96c10 -12.667 28.667 -49.334 56 -110.001l53 -121l2 -27c0 -16.667 -3 -38.334 -9 -65.001s-15.667 -59.334 -29 -98.001l-19 -43l-22 -112l-70 -36l-25 -69l-130 -87l-64 -3c-12.667 0 -19.334 4.66699 -20.001 14z" />
    <glyph glyph-name="asterisk" unicode="*" horiz-adv-x="392" 
d="M130 421c-4 -6.66699 -10.167 -11.999 -18.5 -15.999s-18.833 -6 -31.5 -6c-7.33301 0 -19.166 2 -35.499 6s-26.5 9.33301 -30.5 16l31 61l47 33l-5 24l-5 -42l23 24l14 -2c8 0 12.667 3 14 9l-5 3l-42 17l-1 -12l-27 -2l24 8l-35 7l-25 79c-2 7.33301 5 13.5 21 18.5
s29 7.5 39 7.5c22.667 0 34 -6.33301 34 -19l-2 -9l35 -18l-5 15l-9 -36l16 4l10 -7l4 5l4 23l-35 38l10 -30c14 33.333 22.333 52.666 25 57.999c5.33301 12 14.666 29.667 27.999 53l52 -41l4 -72l-3 8l-24 -31l-9 -4l12 6l-2 -8l4 -5l4 1l-12 4l45 32l-18 11l13 20l18 2
l54 -36l52 12l-26 -63l-30 -31l-31 20l-9 -42l-23 20h6c-4.66699 0 -9.66699 -2 -15 -6c2 -2.66699 3.66699 -4 5 -4c6 0 15.333 4.33301 28 13l1 -34l-11 28l19 -32l38 6l6 -3l31 -61c0 -14 -7.66699 -25 -23 -33c-12 -6 -25.667 -9 -41 -9c-26 0 -44 16 -54 48l4 23l-9 2
l-12 -10c-0.666992 2.66699 -4 5 -10 7l-4 -4c0 -4.66699 -4.66699 -11.667 -14 -21h44l-9 -31l2 22l2 -32l-1 -74l-112 32l12 72l25 -11l1 42l-14 -8l2 9l-3 4c-4 -0.666992 -11.667 -9.66699 -23 -27l23 2l-47 -11l27 -34z" />
    <glyph glyph-name="plus" unicode="+" horiz-adv-x="664" 
d="M244 288l-32.002 -11.001c-28 2.66699 -53.667 5.66699 -77 9s-47 8 -71 14l18 -14c-8 0 -12.333 1.66699 -13 5l9 15l-30 38l26 69l-2 48l-8 -18c0 2.66699 0.333008 4.66699 1 6s1.66699 2.33301 3 3c2.66699 -1.33301 6 -6.33301 10 -15l72 31l37 -10l60 15l-4 -12v99
l-16 73l16 -8l3 17l3 18l47 -20l59 16l29 -26l14 12l14 -1l-7 3l30 -72c-6.66699 -50 -16.667 -93 -30 -129l34 34l25 -16l16 1c12.667 0 25.334 -1.33301 38.001 -4s25.334 -7 38.001 -13l20 16h22h13c4 1.33301 6.33301 2 7 2l-38 -72l12 -23l-14 -78l22 18
c0 -10 -2.33301 -15.333 -7 -16c-1.33301 0.666992 -2.83301 1.33398 -4.5 2.00098s-4.16699 2.66699 -7.5 6h-76c-11.333 -6.66699 -22.333 -12.5 -33 -17.5s-22 -9.83301 -34 -14.5l-10 2c0 -38.667 -10 -73.667 -30 -105l34 -39l-16 2l-1 -25
c-30 -5.33301 -68 -8 -114 -8l-35 8v4c-11.333 0 -24 6 -38 18l26 41l4 65l-36 69z" />
    <glyph glyph-name="comma" unicode="," horiz-adv-x="295" 
d="M72 0c-8 2 -15.332 19.667 -21.999 53c-2.66699 14 -4.66699 25.667 -6 35s-2 19 -2 29l20 50l99 20c43.333 0 78 -8 104 -24l13 -30l-8 -75l7 -101c-42.667 -49.333 -86.334 -92 -131.001 -128l-68 -2c-29.333 0 -44 10.333 -44 31c0 16 13.667 32.667 41 50
c27.333 16 41 34.667 41 56c0 12 -1.66699 18.333 -5 19v-5l-38 9l31 14l-36 -11z" />
    <glyph glyph-name="hyphen" unicode="-" horiz-adv-x="339" 
d="M34 262c-3.33301 0 -14.001 10 -32.001 30l6 57l34 29c-8 18.667 -14.667 29.667 -20 33c0 15.333 15.667 23 47 23l33 -2l26 -1l51 4l51 3h53l20 -8c8.66699 0 19.667 -8.66699 33 -26l-38 -28l26 -26l-10 -58l4 -4c0 -14 -2 -21 -6 -21c-4.66699 2 -8 3.66699 -10 5
h-22h-19c-33.333 0 -56.166 0.5 -68.499 1.5s-28.833 3.16699 -49.5 6.5l-111 -30z" />
    <glyph glyph-name="period" unicode="." horiz-adv-x="289" 
d="M151 187l4.00098 -0.000976562c8.66699 0 21 -2 37 -6l36 -12l40 -67l-1 -16c0 -38 -5.66699 -63.667 -17 -77c-6.66699 -8.66699 -20.334 -13 -41.001 -13c-13.333 0 -26 -1.16699 -38 -3.5s-23.667 -5.83301 -35 -10.5l-70 17l-31 72
c0 22.667 5.66699 52.334 17 89.001l-1 -3l57 37l57 -5z" />
    <glyph glyph-name="slash" unicode="/" horiz-adv-x="478" 
d="M11 -12c-3.33301 0 -6.99805 1.99805 -10.998 5.99805l1 19c38 74.667 103.333 193 196 355c81.333 144.667 145.666 263.667 192.999 357l-2 -4c2 4 5 6.66699 9 8c2 -0.666992 4.16699 -1.16699 6.5 -1.5s6.16602 -2.16602 11.499 -5.49902l13 6l13 26l33 -30l-6 8
c4 0 7 -2 9 -6c-2 -1.33301 -5.16699 -2.33301 -9.5 -3s-7.83301 -1 -10.5 -1l-116 -228l-44.5 -102l-65.5 -139l-72 -128l-76 -126h8c-4 -5.33301 -10 -8.66602 -18 -9.99902l-13 1l-24 18h-35z" />
    <glyph glyph-name="zero" unicode="0" horiz-adv-x="664" 
d="M22 361l11.998 1.99805l-27 88c9.33301 24 28 60.667 56 110s47.667 88.333 59 117l69 3l64 41l61 6l34 -8l36 -8l106 -11c14 -17.333 47 -44.666 99 -81.999c0 -39.333 14 -94.666 42 -165.999l-8 -102l3 -37l3 -36l-3 -88c-38 -78 -84.667 -134.333 -140 -169
c-35.333 -10 -82.666 -15 -141.999 -15l-60 3l-60 4c-15.333 0 -26.333 -0.666992 -33 -2c-22 23.333 -43.167 43.5 -63.5 60.5s-42.166 32.5 -65.499 46.5l-6 90l-27 56zM268.998 419.998l-19.999 -24l29 -31l-24 -18l15 -29c-0.666992 -3.33301 -1 -8.33301 -1 -15
c0 -16.667 6 -37.667 18 -63l-20 10c22.667 -84.667 44.667 -135 66 -151c13.333 0 34.666 14.667 63.999 44v62l-14 58c10 33.333 16.833 63 20.5 89s5.5 49.667 5.5 71l-40 95l10 57c-6 24 -21 41.667 -45 53l-52 -22z" />
    <glyph glyph-name="one" unicode="1" horiz-adv-x="664" 
d="M138 556l-23.999 5.99902c-8.66699 3.33301 -17 5 -25 5l20 51l60 5c65.333 42.667 124.666 73.334 177.999 92.001l55 9l17 5l18 4c12 0 18.333 -2.33301 19 -7c0 -4.66699 -4.33301 -12.667 -13 -24c6 -56 10.167 -131.167 12.5 -225.5s3.5 -204.833 3.5 -331.5l12 4
c13.333 -30.667 19 -56.334 17 -77.001c23.333 -4 35 -16 35 -36c0 -17.333 -13.333 -34 -40 -50l-89 26l-119 -14l-65 8l-18 -6c-30.667 0 -46 12.333 -46 37c0 17.333 11.5 28.833 34.5 34.5s34.5 20.834 34.5 45.501c0 11.333 -4 30 -12 56c0 12 0.333008 22 1 30
c3.33301 38.667 5 62.667 5 72c0 10 1 20.5 3 31.5l5 27.5c4 24 6 43 6 57l-2 110l-12 -34l-10 52l-30 13l-18 25l-11 -20l-22 19h20z" />
    <glyph glyph-name="two" unicode="2" horiz-adv-x="664" 
d="M297 174l3 -0.998047c2.66699 4.66699 4 9 4 13c32 -8 57 -19 75 -33l56 2l-8 34l103 -17l48 25l50 22c7.33301 0 14 -2.5 20 -7.5s9.33301 -11.5 10 -19.5l-1 -15v-15l-45 -43l-16 -50l-47 -49l16 -2c-5.33301 -10 -13 -16 -23 -18h-31c-11.333 0 -22.833 1 -34.5 3
l-33.5 6c-10.667 2 -20.5 3.66699 -29.5 5s-17.5 2 -25.5 2c-10.667 0 -23 -1 -37 -3s-31.667 -5.66699 -53 -11l-92 -18l-165 -2l4 18c-13.333 0 -25 5 -35 15c-8.66699 10.667 -13 22.667 -13 36c0 19.333 9 39 27 59l50 44l79 71l92.5 70.5l120.5 96.5l40 53l8 103
c-17.333 20 -45.333 44.333 -84 73l-42 -23l-20 -43c0 -19.333 9 -34 27 -44c7.33301 -3.33301 14 -7 20 -11c2 -1.33301 4.33301 -3 7 -5l-2 -6l-59 -96l-165 -2l-45 67l2 64l-16 75l105 80c20 13.333 39.333 24.666 58 33.999s38.667 17.666 60 24.999l43 3
c62.667 0 118.667 -11.333 168 -34l57 11c36 -48 79 -90 129 -126l-4 -60c-2 -23.333 -5.33301 -43 -10 -59c-48 -46 -86 -96.333 -114 -151c-26.667 -20 -42 -41.333 -46 -64l-79 -11l-55 -33c-28 -16 -45.333 -28.667 -52 -38z" />
    <glyph glyph-name="three" unicode="3" horiz-adv-x="664" 
d="M418 465l-5.00488 -8.99902c4 -2 22.333 -6.66699 55 -14c28.667 -4.66699 51.334 -10.667 68.001 -18l59 -28c8 -50 22 -125 42 -225l-24 -75l-78 -15l-65 -51c-29.333 0 -56.666 -4.5 -81.999 -13.5s-50.666 -21.833 -75.999 -38.5l-116 -1l-96 59
c-38 22 -67.667 44.667 -89 68c10 22 18 45.167 24 69.5s9 49.166 9 74.499l36 44l37 2c58.667 0 105 -10 139 -30l36 -38c-0.666992 -6 -7.16699 -11 -19.5 -15s-21.5 -9 -27.5 -15c-9.33301 -10.667 -14 -26.667 -14 -48c0 -5.33301 3.33301 -19.333 10 -42l31 -24l83 57
l42 97c-8.66699 41.333 -37.667 87.666 -87 138.999l-64 -3l-65 -3c-20 0 -30 11.667 -30 35l1 5l2 -2c38 34 74.333 75 109 123l91 45l-22 -14c3.33301 3.33301 5.66602 7.33301 6.99902 12l-3 4l-3 -3c-3.33301 -3.33301 -5.66602 -7 -6.99902 -11l-37 1v28l-43 -27l32 32
l-96 -48l-75 -43l-20 -16c-7.33301 -6 -15 -9.33301 -23 -10c-22 0 -33 10 -33 30l3 25c6 14 28 47.667 66 101c27.333 38.667 45 74.334 53 107.001l-2 -14c6 9.33301 16 14 30 14c8.66699 0 17.667 -3.66699 27 -11l23 -18l6 26l23 -18l8 -24
c11.333 3.33301 21.333 6 30 8c40.667 11.333 70.334 19.333 89.001 24l100 -14l97 6c14.667 0 27.834 -3.5 39.501 -10.5s17.5 -17.5 17.5 -31.5s-7.66699 -29.667 -23 -47l-81 -35l-34 -72l-71 -63z" />
    <glyph glyph-name="four" unicode="4" horiz-adv-x="664" 
d="M339 159c-0.666992 2.66699 -1.00195 6.99902 -1.00195 12.999c0 6.66699 0.333008 12.334 1 17.001l-108 2c-6.66699 0 -15.5 -0.333008 -26.5 -1s-24.167 -2 -39.5 -4l-66 -5l-64 12l-16 -16c-13.333 0 -22 3.66699 -26 11l-2 30c0 8 -3.66699 11 -11 9
c24.667 33.333 77 111 157 233c62 96 117 171.333 165 226l-4 10l29 41l88 -26l54 29l98 -36l-4 16c11.333 0 20 -5 26 -15l-15 -71c-6 -30 -9 -53.333 -9 -70c0 -14.667 2 -35.667 6 -63l8 -63l2 -121l4 -2c0 -8 1.33301 -12.333 4 -13l13 15l27 -28l13 24l-35 -14l22 -3
c8.66699 -2 12.334 -7 11.001 -15c0.666992 -2.66699 1.83398 -11.167 3.50098 -25.5s2.5 -26.166 2.5 -35.499l-16 -49l12 16c0 -4 -4.66699 -10.667 -14 -20l6 2l-38 -8v24l4 -8c-9.33301 0 -14 -6 -14 -18v-50c2 -17.333 13.167 -29.5 33.5 -36.5
s30.5 -19.167 30.5 -36.5c0 -25.333 -20 -38 -60 -38l-50 4l-50 4c-21.333 0 -52 -2 -92 -6l-93 -8l14 8c-31.333 0 -47 12.333 -47 37c0 17.333 9.66699 28.5 29 33.5s29 14.167 29 27.5c0 7.33301 -1.66699 14.666 -5 21.999c2 7.33301 9 18.333 21 33l5 -2z
M207.998 313.999c0 -8.66699 3.33301 -12.999 10 -12.999c3.33301 0 9 3 17 9l42 6l7 -39l24 32l14 -14c8.66699 0 17 11.667 25 35l11 41c-5.33301 38 -8.33301 60.333 -9 67c-3.33301 27.333 -5 51.666 -5 72.999l-6 4c0 4 -1.66699 7.66699 -5 11
c-4.66699 0 -10.667 2.66699 -18 8c-12 -14.667 -32.833 -51 -62.5 -109s-44.5 -95 -44.5 -111z" />
    <glyph glyph-name="five" unicode="5" horiz-adv-x="664" 
d="M229 182l7.99902 -3.99805l23 -54l14 -13l76 48l40 62l-6 55c-31.333 31.333 -88 64.333 -170 99c-19.333 0 -44.5 -4.16699 -75.5 -12.5s-53.167 -12.5 -66.5 -12.5c-10 0 -15.833 4 -17.5 12s-6.5 14 -14.5 18c65.333 87.333 104.666 192.333 117.999 315h14
c4 11.333 16 24.666 36 39.999l98 -6c13.333 0 34 2 62 6s49 6 63 6l112 -28l-14 6c15.333 0 32 4 50 12l34 13c16 0 25.333 -10.333 28 -31l1 -50l-54 -15l-17 -38l12 -16c-4 -8.66699 -18.667 -21.334 -44 -38.001c-28 0 -71.667 12 -131 36l-87 -30l22 14h-9l5 5l-22 -50
c-6 -17.333 -9 -34 -9 -50l-20 -14l-2 -4l4 -4l-8 -9c42.667 27.333 94 44 154 50l84 -20l63 -73l27 -83c12 -42 18 -68.333 18 -79l-1 -62c-28 -60 -52.667 -97.333 -74 -112c-61.333 -12 -113 -38 -155 -78l-101 -20c-67.333 32.667 -124.666 49 -171.999 49
c-8.66699 0 -15 -0.666992 -19 -2c-22 14 -44 36 -66 66l-53 78l19 72l55 38l94 20c24.667 0 50.334 -5.66699 77.001 -17c34 -14 51 -31.333 51 -52c0 -5.33301 -9 -12 -27 -20c-17.333 -6 -26.333 -13.667 -27 -23z" />
    <glyph glyph-name="six" unicode="6" horiz-adv-x="664" 
d="M423 584c0 14 -4.16699 25.833 -12.5 35.5s-19.166 14.5 -32.499 14.5c-8.66699 0 -22 -3 -40 -9c-4 -1.33301 -10.667 -2.83301 -20 -4.5l-20 -3.5l11 -112l-29 -86l2 -9c6 4 12 6.66699 18 8c6.66699 0 15.667 -3.66699 27 -11l63 32l11 1l126 -3l70 -72
c5.33301 -8.66699 12 -32.334 20 -71.001c6 -32 9 -55.333 9 -70c0 -62.667 -7 -108.667 -21 -138c-48.667 -35.333 -101.334 -67.333 -158.001 -96l-136 -17c-16 11.333 -39 23 -69 35c-29.333 10 -54.333 15 -75 15l-67 40l-36 68c0 39.333 -3.83301 76.5 -11.5 111.5
s-19.167 68.167 -34.5 99.5l43 198c31.333 39.333 60.333 83 87 131c26 5.33301 61.667 15.333 107 30l105 35l138 -14c20 -15.333 43.667 -37.666 71 -66.999l65 -72l-25 -53l-72 -20c-28 0 -51.833 1.16699 -71.5 3.5s-39.5 5.83301 -59.5 10.5l11 29c4 12 6 22.333 6 31z
M275 221l20 -20l-21 -86l49 -12l39 10l34 102c-14 63.333 -30.333 105 -49 125l-50 -49z" />
    <glyph glyph-name="seven" unicode="7" horiz-adv-x="664" 
d="M492 257c-13.333 -19.333 -24.165 -44.334 -32.498 -75.001s-12.5 -58.667 -12.5 -84l-44 -77l18 16l-10 -29c-5.33301 -2 -12.333 -9.33301 -21 -22l-65 14c-24 0 -54.333 -2.33301 -91 -7l-91 -11l20 18c-17.333 0 -26 8.33301 -26 25s29.333 86 88 208l59 55
c12 38.667 33.667 81.334 65 128.001l42 55c22 30 33 51.333 33 64c0 9.33301 -12.667 20 -38 32l-36 -28l-30 -2l-52 14l-8 24l-72 -47l-74 -5c-22 -16 -37.667 -24 -47 -24c-19.333 0 -29 10.333 -29 31l1 10l1 4v-4l45 72l4 59l33 45c16 18 31.333 27 46 27
c8 0 17 -3.66699 27 -11l26 -17l132 8c7.33301 0 16.666 -0.333008 27.999 -1s24.666 -2 39.999 -4l68 -5l55 3l55 3c19.333 0 29 -8.33301 29 -25c0 -5.33301 -2.66699 -14.666 -8 -27.999l9 -37l-54 -63c-7.33301 -18 -16.333 -44.333 -27 -79
c-12 -71.333 -18.667 -108 -20 -110c-10 -40.667 -22 -75.334 -36 -104.001v-16z" />
    <glyph glyph-name="eight" unicode="8" horiz-adv-x="664" 
d="M6 213l4.00098 0.00292969l-2 94l73 27l44 53c8.66699 3.33301 14.667 7 18 11c-4 2.66699 -7.33301 4.66699 -10 6c-6.66699 3.33301 -17.667 8 -33 14c-34 32 -60 75.667 -78 131c28 54 56 94 84 120s70.667 50.333 128 73c24 0 58 -0.333008 102 -1s76 -1 96 -1
c22.667 -16.667 49.5 -34.334 80.5 -53.001s66.833 -39 107.5 -61l19 -90c-35.333 -37.333 -70 -80 -104 -128c-8 -3.33301 -13 -7 -15 -11c0 -4.66699 9.66699 -7 29 -7c37.333 -14.667 73.666 -44.667 108.999 -90l-5 -95c-26.667 -75.333 -68 -139 -124 -191l-74 -21
c-28 0 -53.5 1 -76.5 3s-41.5 3.66699 -55.5 5c-4 0 -8.33301 0.166992 -13 0.5s-16.667 2.66602 -36 6.99902s-35 6.5 -47 6.5l-96 -9l-66 53c-26 45.333 -45.667 96.666 -59 153.999zM334.001 639.003l1.99805 22l-67 -33c12 -44 23 -90 33 -138c30 -22 47 -33 51 -33
c4.66699 0 11.334 1.66699 20.001 5c3.33301 6.66699 6.83301 17 10.5 31s7.83398 32.333 12.501 55c-29.333 32 -50 62.333 -62 91zM254.999 204.003l4.00098 -5.99902l8 -74l80 -41c23.333 23.333 46.666 58.333 69.999 105c-30 47.333 -52.667 87.666 -68 120.999l-20 8
c-6 0 -12 -1.66699 -18 -5l-18 -8l-44 -51z" />
    <glyph glyph-name="nine" unicode="9" horiz-adv-x="664" 
d="M384 289l0.998047 10.001c0 4 -1.33301 7.66699 -4 11l2 -6c0.666992 -2 3 -5.33301 7 -10c-42 -12 -91 -18 -147 -18l-99 9c-20 19.333 -42 50.333 -66 93c-19.333 36.667 -34.666 72 -45.999 106l1 68l61 90c22 19.333 60 39.666 114 60.999l124 43
c69.333 -6.66699 133.333 -34.334 192 -83.001s99.334 -107.667 122.001 -177c0 -123.333 -6 -211.666 -18 -264.999c-17.333 -14.667 -34.666 -35.167 -51.999 -61.5s-28.666 -50.5 -33.999 -72.5l-61 -56c-42.667 -7.33301 -86 -21 -130 -41l-87 7l-69 -18
c-48.667 20 -99.334 48.667 -152.001 86l-5 65l15 51l111 66l75 -48l18 -3c0 -3.33301 -3 -12 -9 -26c-1.33301 -2.66699 -2.83301 -7.5 -4.5 -14.5s-2.83398 -13.167 -3.50098 -18.5c0 -26.667 16.667 -49.667 50 -69l60 54c0 21.333 0.333008 42.833 1 64.5l2 62.5l9 33
l26 9zM329.998 623.001l6 -16l-43 -10l-31 -95l24 -69l48 -23l54 14c0 61.333 2 115 6 161z" />
    <glyph glyph-name="colon" unicode=":" horiz-adv-x="303" 
d="M165 187l24.999 2l86 -44l6 -43l-1 -16c-6 -47.333 -15.333 -75.333 -28 -84c-5.33301 -3.33301 -34.666 -8.66602 -87.999 -15.999c-7.33301 0 -11 6 -11 18l-67 21l-37 46c0 18.667 3.66699 40.5 11 65.5s17.333 41.833 30 50.5l17 -13
c9.33301 3.33301 26.333 13.666 51 30.999zM164.999 490c5.33301 0 8.50098 0.332031 9.50098 0.999023s1.83301 1.33398 2.5 2.00098l-3 3l74 -42l34 -50c0 -11.333 -1 -21.833 -3 -31.5s-3.66699 -17.167 -5 -22.5c-6 -25.333 -13.333 -41 -22 -47
c-2.66699 -1.33301 -21.334 -4 -56.001 -8c-26 0 -39 -6.66699 -39 -20l1 -7l-71 35l-37 71c0 22.667 3.33301 43 10 61c7.33301 24.667 20 37 38 37l-10 -11l42 12l19 25z" />
    <glyph glyph-name="semicolon" unicode=";" horiz-adv-x="310" 
d="M86 0c-5.33301 0.666992 -11.5 13.6689 -18.5 39.002s-10.5 42.666 -10.5 51.999c1.33301 0.666992 2.33301 1 3 1c-0.666992 -1.33301 -1.33398 -2.33301 -2.00098 -3l4 66l113 32l33 -1c20.667 -2 31.334 -4.33301 32.001 -7l-3 -2l45 -38l16 -73
c-31.333 -43.333 -56.333 -102 -75 -176l-75 -61l-55 -2c-29.333 0 -44 10.333 -44 31c0 17.333 13.5 34.166 40.5 50.499s40.5 34.833 40.5 55.5l-1 12l-1 10c0 6 2 12.667 6 20l-34 -31l10 4l-12 37zM173 490.002l7 0.998047l6 -2v-7h72l32 -78l-1 -15
c0 -21.333 -2.5 -39.166 -7.5 -53.499s-11.5 -24.166 -19.5 -29.499c-4.66699 -3.33301 -34.334 -9 -89.001 -17l-12 -1c-8.66699 0 -24 5.33301 -46 16l-44 23l-15 47c6 58 14 87 24 87l4 -5l31 7c14.667 20 39.334 34.333 74.001 43z" />
    <glyph glyph-name="less" unicode="&#x3c;" horiz-adv-x="326" 
d="M28 235c-4 7.33301 -6 13.334 -6 18.001l10 34l49 47c12 49.333 42.333 100 91 152l-10 4l10 14l4 1c1.33301 -2.66699 2 -5 2 -7l57 -8l18 38l33 -12l8 -8c7.33301 0 11.333 -1.5 12 -4.5s2.33398 -4.83301 5.00098 -5.5l13 4
c-64.667 -67.333 -104 -138.666 -118 -213.999l-17 -16l-8 -19v-4c0 -3.33301 -1 -6 -3 -8c4.66699 -24.667 19 -53.334 43 -86.001c20 -28 41.333 -52.333 64 -73l5 -82l14 16l3 -11l-2 -4c-2.66699 4 -4.33398 7.66699 -5.00098 11l-81 -14l-11 -20l-18 20
c-6 0 -12 1.33301 -18 4l-1 5c2 5.33301 3.66699 8.66602 5 9.99902l-79 105c-32 42.667 -60.333 75.667 -85 99z" />
    <glyph glyph-name="equal" unicode="=" horiz-adv-x="664" 
d="M76 181c-6.66699 0 -10.333 1.33301 -11 4c2 4 6.66699 7.33301 14 10v70l-10 9v52h-10c0 12 2 18 6 18c6.66699 -2 12.667 -6.33301 18 -13l80 15c34 6 60.667 9 80 9c18 0 45 -2 81 -6l81 -5l182 8c4 0 8.66699 -1.66699 14 -5l-3 -8l20 -54l-26 -43v-22l12 -14
c0 -16 -5.33301 -24.333 -16 -25l-247 3c-47.333 0 -89.333 0.833008 -126 2.5s-77 4.5 -121 8.5zM77.001 404c-9.33301 0 -21.334 9.33301 -36.001 28l10 35l-6 42l28 29l-14 12c0 11.333 2.33301 19 7 23l86 11l85 7c20 0 46.667 -2.33301 80 -7l80 -9h183
c12 0 21 -5 27 -15l17 -30l-6 -33l-20 -22l6 -61v16l-3 -22l-4 -1c-4 0 -8.66699 2.33301 -14 7l-93 -16c-16.667 -2.66699 -33.667 -5 -51 -7s-30.666 -3 -39.999 -3c-16 0 -40.667 3 -74 9l-74 13l-164 6z" />
    <glyph glyph-name="greater" unicode="&#x3e;" horiz-adv-x="322" 
d="M31 1c-6 0 -9.33594 2.33496 -10.0029 7.00195c0 4.66699 6 7 18 7l6 97l91 147l2 -20c4 6 6 11.667 6 17c0 4 -2 6 -6 6l-22 -6l-29 129c-11.333 45.333 -25.333 87 -42 125l-20 -18c-1.33301 1.33301 -2.66602 5.33301 -3.99902 12l14 20l37 -36l36 12l34 10
c4.66699 0 9.66699 -1.33301 15 -4l1 -4c0 -4.66699 -1.66699 -11.334 -5 -20.001c34 -42 73.333 -81.333 118 -118l21 -94l2 6c4 -6.66699 6.33301 -13.334 7 -20.001c0 -7.33301 -4.33301 -10 -13 -8c-5.33301 -32 -13.666 -62.667 -24.999 -92
s-25.666 -56.333 -42.999 -81l-27 -30l-28 -24l-8 -16l-3 1l6 8l-43 -28l-37 35l-59 -12z" />
    <glyph glyph-name="question" unicode="?" horiz-adv-x="485" 
d="M282 239l-83.001 0.000976562l-12 -6l-14 6c-16.667 0 -25 11 -25 33c0 53.333 30 97.666 90 132.999l-7 77l32 34c0 16 -4.16699 29.833 -12.5 41.5s-20.5 17.5 -36.5 17.5c-13.333 0 -24.166 -4.33301 -32.499 -13s-12.5 -20 -12.5 -34
c0 -12.667 4.66699 -24.667 14 -36l2 -8c0 -5.33301 -17 -16 -51 -32l-101 23l-11 84c0 48 14.333 97.667 43 149c8.66699 3.33301 18.167 6.33301 28.5 9l52.5 14c40 9.33301 65.667 14.666 77 15.999l127 -9l53 -70l48 -26l8 -90c0 -9.33301 -1 -18.666 -3 -27.999
s-3.66699 -16.666 -5 -21.999l-12 -51l-71 -67l18 3l-14 -48l-58 -3h20c-20 -20 -32.333 -39.667 -37 -59l-4 -21c-2 -8.66699 -5.66699 -14.334 -11 -17.001zM224.999 187.001c10 1.33301 16.998 7.99805 20.998 19.998c40 -32 72 -67 96 -105l-1 -16
c-6.66699 -42.667 -15.667 -69.667 -27 -81c-3.33301 -3.33301 -8.66602 -6.16602 -15.999 -8.49902s-16.666 -3.5 -27.999 -3.5c-26.667 0 -53.667 -6.33301 -81 -19l-44 23l-37 74c0 6 1 13.667 3 23l6 27.5c2 9 3.66699 17.667 5 26s2 15.5 2 21.5
c0 6.66699 -0.666992 11.334 -2 14.001l59 -23l29 4l-1 31z" />
    <glyph glyph-name="at" unicode="@" horiz-adv-x="865" 
d="M464 226c-8.66699 -18 -17.665 -31.001 -26.998 -39.001c-6 -4.66699 -21.333 -13.334 -46 -26.001c-50 0 -95 13 -135 39c-2 18.667 -11 65.334 -27 140.001c-0.666992 4.66699 -1 9 -1 13l2 23l2 36l66 67l17 63l104 21l59 -7l34 -23l-8 13l3 -11l12 19l-24 32l56 -12
l-16 10l54 -8l-16 4c-24 -62 -36 -114 -36 -156l10 -58c-3.33301 -3.33301 -6 -13.333 -8 -30l-16 -19c-3.33301 -11.333 -5 -35 -5 -71c0 -28.667 12.667 -43 38 -43c27.333 0 54.333 21.333 81 64c21.333 34 35.666 68 42.999 102v55l6 68l-41 71l-41 30l-38 62l-74 24
l-111 -19l-56 -34l-63 -12l-73 -90c-29.333 -39.333 -47.666 -72.333 -54.999 -99l5 -113l27 -51l-13 -37c12 -28 31 -57.833 57 -89.5s52.333 -54.834 79 -69.501l73 5l77 -42c45.333 6 107.333 37.333 186 94l37 48c18 12.667 33.667 21.667 47 27l-15 -59l46 20
c-12.667 -14 -34.667 -34 -66 -60l-30 -41c-52.667 -29.333 -106 -55.666 -160 -78.999l-50 21h-55h-20c-48.667 0 -90 2.66699 -124 8l-103 137c-39.333 56 -69.333 104.333 -90 145c15.333 66 41.666 161.667 78.999 287c35.333 48 103.666 94 204.999 138l70 -1l39 33
l101 -14c24 -12.667 56.333 -32 97 -58c15.333 -11.333 30 -29.666 44 -54.999l31 -55l56 -62l-30 -94c-2 -18 -3.66699 -31.333 -5 -40s-4.33301 -25 -9 -49c-4 -12.667 -12.5 -30 -25.5 -52s-32.167 -51.667 -57.5 -89l-36 -20l-74 -3l-62 59zM306.002 229.999
l38.999 -21.999l67 10c28 30 48 80.667 60 152l21 5l-10 13v41l-2 -5v-4c1.33301 10.667 2.33301 18.167 3 22.5s2.33398 10.166 5.00098 17.499l-13 82l-82 -2l-30 -28c-22 -34 -38.667 -68 -50 -102s-17 -68.667 -17 -104c0 -12.667 3 -38 9 -76z" />
    <glyph glyph-name="A" unicode="A" horiz-adv-x="758" 
d="M187 159l-26.0029 -18l27 15l-20 -38l6 4l-4 -23c0 -14 10.667 -23.167 32 -27.5s32 -16.166 32 -35.499c0 -20 -9 -30 -27 -30c-6 0 -12.667 1.33301 -20 4l-101 -8c-20 0 -36.667 -1.33301 -50 -4s-29.666 -7.33398 -48.999 -14.001l-12 16
c-31.333 -0 -47 12.333 -47 37c0 14.667 8 25 24 31l45 17c16 10 24 28 24 54l-2 28c28.667 34 67.334 84.333 116.001 151c18 34.667 45 108 81 220l42 165l16 -6c8 20 12 34 12 42c10 -4 22.333 -7.5 37 -10.5s29 -4.5 43 -4.5l81 1l48 -16v10c15.333 0 28 -12.333 38 -37
c12 -40 30.333 -94.333 55 -163l76 -173l63 -179l-8 -8c2.66699 -8 5.83398 -16.167 9.50098 -24.5s9.16699 -19.5 16.5 -33.5c9.33301 -14 25.833 -23.833 49.5 -29.5s35.5 -17.5 35.5 -35.5c0 -12 -5.5 -22.333 -16.5 -31s-23.167 -13 -36.5 -13l-124 -4
c-28.667 0 -61.667 2.33301 -99 7l-98 13l-8 -8c-31.333 -0 -47 12.333 -47 37c0 18 10.667 29 32 33s32 16.667 32 38c0 6.66699 2.66699 12.667 8 18c-12 8 -21.667 19 -29 33l6 20l2 -20l-17 -1l29 -16l-34 37l5 -8l-4 4l-36 8l6 12l-54 -26l-59 24l-48 -2l-28 -30
l-14 33l23 -14l-42 23l28 -44h-28l25 5l-18 -30l-2 16zM255.997 315c0 -8.66699 1.66797 -13.332 5.00098 -13.999l-1 12c22.667 0 43 -7.66699 61 -23l33 10l14 -6c11.333 0 18.5 1.16699 21.5 3.5s4.5 9.16602 4.5 20.499l3 21c-8 7.33301 -20.667 23.333 -38 48
c-12.667 20 -21.334 37.333 -26.001 52l10 20c-2 7.33301 -6 13.333 -12 18c-6 0 -9 -6 -9 -18l-42 -35l4 -59l-26 -33l-1 -9z" />
    <glyph glyph-name="B" unicode="B" horiz-adv-x="749" 
d="M531 424l1.99707 2.00098l99 -13l53 -57.5l58 -67.5c-17.333 -42.667 -26 -84.334 -26 -125.001c0 -12.667 0.666992 -22.334 2 -29.001l-33 -89l-65 -39l-202 6l-201 4l-196 -4l18 -12c-32 0 -48 12.333 -48 37c0 16 9.66699 27 29 33
c18.667 4.66699 29.834 14.834 33.501 30.501s10.167 33.5 19.5 53.5l-30 156l28 131l-12 136l-14 -34c-2 22.667 -7 57 -15 103c-24 6 -36 18.333 -36 37c0 20 19.667 37.333 59 52c80.667 -11.333 130.334 -18 149.001 -20c48.667 -4.66699 93.667 -7 135 -7l-10 -4l109 8
c58.667 0 110.334 -13.667 155.001 -41l52 -75c-10 -66 -17.667 -103 -23 -111c-12 -24.667 -42 -45 -90 -61zM344.997 636.001c-13.333 0 -20.667 -4.99902 -22 -14.999c0 -8 4.33301 -18.667 13 -32l-24 -42l12 -32l-28 4l18 -18c0 -12.667 3.66699 -27.334 11 -44.001
l70 11l3 92l-2 47zM355.996 377.002c-26 0 -47 -12 -63 -36l34 -54c-10.667 -60 -16 -108.667 -16 -146v6c0 -26 11.667 -49.333 35 -70c58.667 26.667 96 55.667 112 87l20 66l-42 61l-2 60z" />
    <glyph glyph-name="C" unicode="C" horiz-adv-x="856" 
d="M836 536c4 -10 5.99902 -18.666 5.99902 -25.999c0 -8 -3.83301 -15.333 -11.5 -22s-16.167 -10 -25.5 -10c-10.667 0 -21.334 9.66699 -32.001 29l-79 52l-47 64l-75 35l-71 -22l-74 6c-30.667 -20 -62.334 -60 -95.001 -120l-66 -143l11 -104l90 -101
c32.667 -33.333 68.667 -61 108 -83l20 -1c21.333 0 49.5 5.83301 84.5 17.5s63.167 17.5 84.5 17.5l19 -1l73 63l19 22c6 8 14 12 24 12s19.333 -4.33301 28 -13s13 -18.334 13 -29.001c0 -10 -12.333 -35.333 -37 -76l-40 -61c-25.333 -12.667 -53.666 -21 -84.999 -25
c-16 -2 -45.333 -3 -88 -3c-7.33301 0 -16.666 -1 -27.999 -3s-25.333 -5.66699 -42 -11c-34.667 -8.66699 -58 -13 -70 -13c-13.333 0 -35.666 2 -66.999 6l-67 5l-23 -1c-84 50 -168.333 124.333 -253 223l10 57l-36 66l-3 95c35.333 79.333 72.333 145 111 197
c31.333 24 84.5 44.667 159.5 62s128.5 36 160.5 56c22.667 -9.33301 59 -19.833 109 -31.5s88.333 -17.5 115 -17.5c10 0 19 8 27 24s20 24 36 24c19.333 0 32 -12.333 38 -37l3 -63l62 -35l14 -69z" />
    <glyph glyph-name="D" unicode="D" horiz-adv-x="802" 
d="M29 74v10.001l26 7c0 19.333 0.333008 33.5 1 42.5s3 26.167 7 51.5l6.5 47c2.33301 17.333 3.5 32.666 3.5 45.999c0 7.33301 -0.333008 16.333 -1 27s-2 23.334 -4 38.001l-7 65v171l-2 -18c0 26.667 -1 46.5 -3 59.5s-12.667 22.5 -32 28.5s-29 17.667 -29 35
c0 19.333 9.33301 29 28 29c14 0 33 -2 57 -6l56 -10l74 24l96 -3l10 -6c27.333 -4 73.5 -14.333 138.5 -31s107.5 -29.667 127.5 -39c33.333 -16.667 66.333 -42.334 99 -77.001c30 -32 54.333 -65.667 73 -101c0 -28 3.5 -55.167 10.5 -81.5s17.833 -53.5 32.5 -81.5
c-22.667 -49.333 -36 -94.333 -40 -135c-44 -26.667 -76 -57.667 -96 -93c-60 -40 -112.667 -69.333 -158 -88l-129 5c-35.333 1.33301 -72.333 2 -111 2l-203 15l-10 -3l-10 -3c-32 0 -48 12 -48 36c0 18 12.333 30.333 37 37zM347 615.001
c-18.667 0 -28 -7.99902 -28 -23.999c0 -6.66699 1.66699 -13.334 5 -20.001l-4 -135c-1.33301 -10.667 -6.33301 -31.167 -15 -61.5s-13 -52.833 -13 -67.5l6 -137l4 12l21 -76l60 -16c39.333 17.333 63.333 31 72 41l46 99l1 110l6 26l5 27l-15 111
c-22 36 -49.667 71.667 -83 107z" />
    <glyph glyph-name="E" unicode="E" horiz-adv-x="737" 
d="M59 184l9.00195 59.0039c4 24 6 43.667 6 59c0 22 -1.33301 55.167 -4 99.5s-7 99.5 -13 165.5l4 -6c0 24.667 -1.66699 44 -5 58c-2 14 -12.833 24 -32.5 30s-29.5 17.333 -29.5 34c0 11.333 5.33301 22 16 32c10.667 8.66699 22.667 13 36 13c32 0 79 -3.33301 141 -10
l75 -12c17.333 -2.66699 31.166 -4.66699 41.499 -6s21.166 -2 32.499 -2l167 2l-22 20c16 0 30.833 4.16699 44.5 12.5s26.5 13.166 38.5 14.499c14 0 24 -5.33301 30 -16l18 -31l67 -79l9 -30c6 -8.66699 9.66699 -17.667 11 -27c0 -8 -3.5 -15.167 -10.5 -21.5
s-14.833 -9.83301 -23.5 -10.5l-17 10c-9.33301 6 -25 16.667 -47 32l-72 54c-4 -0.666992 -10.333 -1 -19 -1c-28 0 -57 7.33301 -87 22l12 -16l-43 6l-14 -16l20 14l-79 -20l15 -34l-42 -63l36 -10l-26 -3l12 -12c0 -20 7.33301 -30 22 -30l7 1l28 16l-10 -40l6 22l16 -2
c12 0 22.833 9 32.5 27s21.5 27 35.5 27c13.333 0 23 -15 29 -45l52 -28l28 -35l-2 -62l16 10c6 -10 9.66699 -18.667 11 -26c0 -8 -4.33301 -15.833 -13 -23.5s-17 -11.5 -25 -11.5c-6 0 -27.667 13.333 -65 40c-33.333 23.333 -60 33.666 -80 30.999l-12 16l-31 -24
l-28 16l16 -6c-18 0 -31.333 -12.667 -40 -38l-13 -59l24 -32l-8 -83l-14 6l21 -34l81 -5l11 -27l36 16l29 -11l2 18l53 -22c22 4 50.5 18.167 85.5 42.5s62.833 39.833 83.5 46.5c12.667 14 23.334 21.333 32.001 22c8 0 15.167 -3 21.5 -9s10.166 -13.333 11.499 -22
c0 -10.667 -9.66699 -16 -29 -16c-20.667 -35.333 -39 -75 -55 -119l1 -53l-18 -4c-9.33301 -17.333 -20 -26 -32 -26c-11.333 0 -23.166 5.66699 -35.499 17s-20.833 18.333 -25.5 21c-14.667 4 -25.667 9.66699 -33 17c-15.333 0 -39.333 -1 -72 -3
c-76 -4.66699 -136.667 -7 -182 -7c-57.333 0 -101.833 -0.833008 -133.5 -2.5s-71.834 -4.83398 -120.501 -9.50098l12 8c-32 0 -48 12 -48 36c0 16 11 27.667 33 35c22 6 33 19.333 33 40c0 11.333 -5.66699 33.666 -17 66.999l30 -3l-8 6l-2 -9z" />
    <glyph glyph-name="F" unicode="F" horiz-adv-x="725" 
d="M58 189l13.999 117.999c0 12.667 -1 25 -3 37s-3.66699 21.667 -5 29c-5.33301 30.667 -8 52.667 -8 66v138l2 -16l12 8l-10 -1l18 32l2 13l-22 -16c0 25.333 -10.667 42 -32 50c-21.333 6 -32 18 -32 36c0 21.333 10 32 30 32l195 -2l73 3l71 3l161 -2
c24.667 0 46 4.66699 64 14c8 4 15.333 7.16699 22 9.5s12.334 3.83301 17.001 4.5c14 0 26.667 -9 38 -27l51 -43c0 -22.667 3.16699 -43.667 9.5 -63s15.833 -36.666 28.5 -51.999h12l10 -21c0 -5.33301 -3.83301 -11.333 -11.5 -18s-14.834 -10 -21.501 -10
c-3.33301 0 -46.666 32 -129.999 96l-63 14l-89 6c-6 0 -16 2 -30 6s-26 5.33301 -36 4l-16 -6c-42.667 0 -64 -10.333 -64 -31c0 -8.66699 3 -20.667 9 -36v-7l-14 -59l12 -21l-12 16c0 -19.333 6.33301 -29 19 -29l8 1l25 -19l18 2l35 35l-16 -22
c24.667 0 42 4.66699 52 14l19 24c6 8 14.333 12.333 25 13c8 0 14.333 -2.33301 19 -7c2 -4.66699 9.66699 -7 23 -7l-1 -66l56 -28l21 -80l-8 6c4 -8 6 -14.667 6 -20c0 -8 -3.5 -14.667 -10.5 -20s-14.833 -8 -23.5 -8c-6 0 -16.333 6.33301 -31 19
c-23.333 21.333 -51 39 -83 53s-54.667 26 -68 36l-36 -32l-8 9l4 -12l-12 14c-19.333 0 -33 -11 -41 -33l4 -75l20 -29l-36 -59l38 -22v-79c8 0 14 -0.333008 18 -1s9.66699 -3.5 17 -8.5s11 -13.833 11 -26.5c0 -18.667 -8.33301 -28 -25 -28c-6.66699 0 -15.667 2 -27 6
l-109 -30c-59.333 0 -111 8 -155 24l-22 -8c-31.333 -0 -47 12.333 -47 37c0 13.333 1.66699 23.333 5 30l17 25l27 9l30 52l2 36l-10 4z" />
    <glyph glyph-name="G" unicode="G" horiz-adv-x="893" 
d="M586 212l-5.99902 26.001l20 -7l-24 34l10 -16c0 21.333 -5.66699 35.666 -17 42.999l-32 13c-10.667 4 -16 13.667 -16 29c0 14.667 11.333 33 34 55h106l73 -34l126 12l-14 4c32 0 48 -12.333 48 -37c0 -16 -10.167 -27.167 -30.5 -33.5s-30.5 -21.833 -30.5 -46.5
c0 -10.667 2.33301 -31.334 7 -62.001l-6 2l6 5l10 -22h-12l-17 -80l49 -25c17.333 -8 26 -20 26 -36c0 -20 -8.66699 -30 -26 -30l-14 2l-129 -28c-21.333 4.66699 -46.166 7.83398 -74.499 9.50098s-62.833 2.5 -103.5 2.5h-73l14 22l-130 -20l-136 39
c-60.667 32 -108.667 67.333 -144 106c-31.333 96 -47 200.667 -47 314c0 48 12 94 36 138c52 36.667 92.667 69.667 122 99c68.667 0 118.334 10.333 149.001 31l127 -3l62 12l66 -15c13.333 -2.66699 26.666 -5 39.999 -7s23.666 -3 30.999 -3l-5 -8l38 12l14 28l-4 -16
l-12 20c4 6 12 9 24 9c10.667 0 19 -1.33301 25 -4c12.667 -24.667 22.167 -50.167 28.5 -76.5s9.5 -51.166 9.5 -74.499l42 -73l4 4l1 -8c0 -15.333 -12 -34 -36 -56l-36 27l-36 81c-22.667 14.667 -58.334 30.667 -107.001 48c-56.667 20.667 -95 36 -115 46l-89 -24
l-62 -52c-4 -11.333 -10.667 -28 -20 -50c-1.33301 -3.33301 -10.333 -23.333 -27 -60c-18.667 -42.667 -31 -80.667 -37 -114l48 -80c0 -24.667 5 -52.834 15 -84.501s23 -57.167 39 -76.5l60 -37c27.333 0 53.833 3.33301 79.5 10s51.5 15.667 77.5 27l-15 9l-4 88z" />
    <glyph glyph-name="H" unicode="H" horiz-adv-x="806" 
d="M751 560l14 -148.002l-28 -105l16 -160l10 18l-13 -82l19.5 -6c6.33301 -2 13.833 -4.66699 22.5 -8c14.667 -6 22 -17 22 -33c0 -22 -14.667 -36 -44 -42l-121 26l-77 -42l-101 6l6 16c-31.333 0 -47 12.333 -47 37c0 17.333 11 29 33 35c22.667 4 34 17.333 34 40
c0 10 -3.66699 27 -11 51c6 6.66699 13.333 21.334 22 44.001l-18 34l8 14c0 28 -21.333 49.333 -64 64l-6 -28c-12 2 -29.667 10 -53 24l-18 -12c-19.333 0 -31 -6.66699 -35 -20l-1 -42c0 -7.33301 -1 -15.666 -3 -24.999s-5.66699 -20.333 -11 -33l8 -36l-16 26l15 -91
l38 -15c13.333 -5.33301 20 -15.666 20 -30.999c0 -21.333 -13.667 -32 -41 -32l-22 2l-62 -24c-68 0 -135 10.667 -201 32l-10 -14c-31.333 0 -47 12.333 -47 37c0 18.667 9 30 27 34c21.333 3.33301 34.333 13.333 39 30c2 6 3 25.333 3 58l-18 16
c14.667 89.333 22 222.333 22 399l-26 -28v32c0 10 -0.166992 21.167 -0.5 33.5s-2.5 23.833 -6.5 34.5c-24.667 6 -37 18.333 -37 37c0 12 7 22.667 21 32c12 6.66699 25 10 39 10l79 -3l81 -3l111 6l2 -6c32 0 48 -12.333 48 -37c0 -16.667 -7.33301 -27.334 -22 -32.001
l1 -24l-55 -19l5 -55l28 -26l-30 -1l20 -18l-10 -14c0 -24.667 8 -37 24 -37c7.33301 0 15.333 2.66699 24 8l13 -36l29 38l55 -20h-4c25.333 0 46 20 62 60l-4 2l-18 44l26 18l-26 -2l2 56l-24 22c-23.333 6 -35 18.333 -35 37c0 20 7.66699 30 23 30c12.667 0 31 -2 55 -6
l55 -10l81 36l117 -4v-10c31.333 0 47 -12.333 47 -37c0 -14 -4.66699 -23.333 -14 -28l-29 -12c-11.333 -8.66699 -21 -25.667 -29 -51l-12 10l27 -33l-12 -4z" />
    <glyph glyph-name="I" unicode="I" horiz-adv-x="369" 
d="M47 304c0 12.667 3 32.668 9 60.001s9 47.666 9 60.999l-12 128l12 16l-10 45l-24 32c-14 4 -22.667 7.66699 -26 11c-6.66699 5.33301 -10 14.333 -10 27c0 17.333 7.33301 26 22 26c10 0 23 -4 39 -12l100 20l68 -14l106 26l-6 -10c31.333 0 47 -12.333 47 -37
c0 -16 -9.33301 -27.333 -28 -34c-18.667 -5.33301 -28 -16 -28 -32l2 -19l-14 -20l6 -9l-16 -22l-4 8c25.333 -128.667 38 -213.334 38 -254.001c0 -13.333 -3 -34 -9 -62l-15 -62l26 -36v-46l12 -21c12.667 -4.66699 21.667 -9.16699 27 -13.5s8 -12.5 8 -24.5
c0 -15.333 -6.33301 -25.333 -19 -30l-39 -6c-20.667 -2.66699 -35.167 -4.66699 -43.5 -6s-14.833 -2.66602 -19.5 -3.99902c-13.333 0 -35.5 3 -66.5 9s-54.167 9 -69.5 9l-81 -8c-30.667 -0 -46 12.333 -46 37c0 16 6 26 18 30l33 13c12 8 18 26 18 54
c0 20 -2.33301 48.333 -7 85z" />
    <glyph glyph-name="J" unicode="J" horiz-adv-x="561" 
d="M506 194l2 -7.00586c-3.33301 -28 -7.5 -51.167 -12.5 -69.5s-11.5 -33.5 -19.5 -45.5c-58.667 -43.333 -142.667 -76 -252 -98l-68 7c-20 24 -48 47 -84 69l-95 54c0 45.333 4.83301 85.333 14.5 120s24.167 64.334 43.5 89.001l84 51l83 -44l16 -74l1 -12
c0 -29.333 -18.333 -44 -55 -44c-20.667 0 -41.667 -12.333 -63 -37l45 -61l38 -6l56 34l-2 76c0 38.667 5 96.334 15 173.001s15 135.334 15 176.001l-14 16c0 28.667 -1 48.834 -3 60.501s-12.833 20.5 -32.5 26.5s-29.5 17.667 -29.5 35c0 19.333 9 29 27 29
c10.667 0 26.5 -2.16699 47.5 -6.5s36.833 -6.5 47.5 -6.5c64 0 133 10 207 30l4 -10c31.333 0 47 -12 47 -36c0 -17.333 -10.167 -29.166 -30.5 -35.499s-30.5 -18.166 -30.5 -35.499c0 -7.33301 4 -19 12 -35h-32l28 -20l2 4l-6 -10l-14 -106l2 -124l2 -125z" />
    <glyph glyph-name="K" unicode="K" horiz-adv-x="770" 
d="M310 297l21.999 -50.0039l-30 -24l28 -64h-20c0 -11.333 0.333008 -22 1 -32s2.5 -20.5 5.5 -31.5s13.833 -19.5 32.5 -25.5c18.667 -4 28 -15 28 -33c0 -15.333 -5.33301 -25.333 -16 -30l-36 -5l-83 -8c-46.667 0 -114 8 -202 24v-18c-32 0 -48 12.333 -48 37
c0 6 2.16699 12.833 6.5 20.5s9.5 11.5 15.5 11.5l-7 -9l62 55c-4.66699 15.333 -9.66699 48.333 -15 99l-7 95c0 13.333 2 35.5 6 66.5s6 54.167 6 69.5l-6 121l6 -6v10c0 22.667 -1.33301 39.834 -4 51.501s-13.5 20.5 -32.5 26.5s-28.5 17.333 -28.5 34
c0 15.333 4.33301 24.333 13 27l29 6l81 18l110 -26l117 30l-12 -18c30.667 0 46 -12.333 46 -37c0 -18 -11.667 -30 -35 -36c-12 -3.33301 -22 -13.666 -30 -30.999l-22 -43c3.33301 -12 6 -23.667 8 -35s3 -21.666 3 -30.999c-0.666992 -4.66699 -1 -8.33398 -1 -11.001
c12.667 -15.333 20 -31.333 22 -48l5 24c37.333 21.333 68.333 56.333 93 105l-4 -16c41.333 41.333 62 66 62 74c0 4 -9.16699 8.16699 -27.5 12.5s-27.5 16.5 -27.5 36.5c0 19.333 10 29 30 29c10 0 20 -1.66699 30 -5l58 20c36 -9.33301 82.333 -18.666 139 -27.999
l16 20c31.333 0 47 -12.333 47 -37c0 -18.667 -13 -30.667 -39 -36s-49.667 -17 -71 -35c-14 -10.667 -32.333 -31 -55 -61l8 8l-57 -3l-14 -46l26 6c7.33301 -21.333 14.333 -40 21 -56l23 -48c7.33301 -12 22.333 -33 45 -63c20 -26 33.667 -46.5 41 -61.5
s15 -38.167 23 -69.5l18 -70l-2 12c12 -25.333 22.833 -44.833 32.5 -58.5s25 -23.5 46 -29.5s31.5 -17.333 31.5 -34c0 -16 -6.66699 -26.333 -20 -31l-39 -4l-112 -10l-34 2l-33 2l-114 -8l-8 12c-31.333 0 -47 12.333 -47 37c0 18.667 9.5 29.834 28.5 33.501
s28.5 11.167 28.5 22.5c0 13.333 -6 34 -18 62l-28 58c-2.66699 10 -5.16699 18.5 -7.5 25.5s-7.16602 19.5 -14.499 37.5l-61 84l32 -20l-40 -2l-8 -43l-22 -14z" />
    <glyph glyph-name="L" unicode="L" horiz-adv-x="676" 
d="M57 191c-10 104 -14.999 184.666 -14.999 241.999l26 115l-10 12c0 26.667 -1 46.5 -3 59.5s-12.667 22.5 -32 28.5s-29 17.667 -29 35s16 36 48 56l171 -40l89 38l22 -18c31.333 0 47 -12.333 47 -37c0 -16 -9.66699 -27.167 -29 -33.5s-29 -21.166 -29 -44.499l4 -21
l4 -19l-10 -394l8 12l-7 -80l67 26l33 -12l-9 -13l57 16l-18 -12c34 0 57.667 -3.33301 71 -10l62 15l32 70l9 -9l14 28l-7 -3l22 -8c9.33301 7.33301 19.666 11.666 30.999 12.999c8.66699 0 16.834 -3.66699 24.501 -11s11.5 -15.333 11.5 -24
c0 -8 -4.66699 -14.667 -14 -20c-6 -8.66699 -15.667 -24 -29 -46l-27 -45c-24.667 -42.667 -44.334 -72.667 -59.001 -90l16 14c-6 -10.667 -10.333 -16.667 -13 -18c-4 -4 -10.667 -6 -20 -6c-10 0 -25 8 -45 24l-42 37l-66 -13c-28 -6 -50 -9 -66 -9s-42.167 4 -78.5 12
s-63.166 12 -80.499 12c-16.667 0 -41.334 -3.33301 -74.001 -10c-12.667 -2.66699 -26.167 -5 -40.5 -7s-25.5 -3 -33.5 -3c-32 0 -48 12.333 -48 37c0 6.66699 2 13.334 6 20.001s9.33301 10.667 16 12l35 -5l11 50l-15 49l8 -3l18 12l-32 11z" />
    <glyph glyph-name="M" unicode="M" horiz-adv-x="947" 
d="M-29 74l4.00293 -1.99707c0 25.333 48.667 138.666 146 339.999l11 144l18 4c10 30 15 50.333 15 61c0 11.333 -10 19.666 -30 24.999c-20 4 -30 16 -30 36c0 19.333 6 29 18 29c3.33301 0 8 -2 14 -6l73 34c18.667 0 35.167 -0.5 49.5 -1.5s28.833 -3.16699 43.5 -6.5
c37.333 -8 66.666 -18.667 87.999 -32l-2 20c32 0 48 -12.333 48 -37c0 -18.667 -9.66699 -30.334 -29 -35.001c-18 -2.66699 -27.667 -9.66699 -29 -21c0 -12.667 14.333 -38.667 43 -78l-1 -55l43 -40l-10 4c2 -3.33301 5.33301 -5 10 -5
c4 0.666992 12.667 -0.333008 26 -3l-2 43l35 36l2 11l-8 22c11.333 30 17.666 50.333 18.999 61c0 12 -10.333 20.167 -31 24.5s-31 16.5 -31 36.5c0 18.667 9.33301 28 28 28l17 -3l17 -3h61l83 28l51 -14l44 -3c15.333 -3.33301 23 -14.333 23 -33
c0 -20 -9.5 -31.833 -28.5 -35.5s-28.5 -11.5 -28.5 -23.5c0 -16 12.667 -46.333 38 -91l47 -84l22 -75l19 -77l50 -148l4 10l10 -26c6 -13.333 11.333 -24.333 16 -33c7.33301 -12 21.333 -22.667 42 -32c15.333 -6 23 -16.667 23 -32c0 -18 -7.66699 -27 -23 -27
c-8 0 -19 3 -33 9l-114 -4l-68 -28l-120 16l-2 -2c-32 -0 -48 12.333 -48 37c0 18 10.667 29.167 32 33.5s32 13.833 32 28.5c0 8 -2.33301 18 -7 30l-8 28l-3 61l-50 60l-23 77l8 -8c-0.666992 4.66699 -7.33398 8 -20.001 10c-10.667 0 -19.334 0.666992 -26.001 2
c-13.333 -52.667 -29 -105.5 -47 -158.5s-41 -112.5 -69 -178.5l2 -6c-2 -4.66699 -6.66699 -9 -14 -13l-7 2l9 -2c-88.667 121.333 -142.667 241.333 -162 360l-10 -18c-1.33301 3.33301 -5.66602 7 -12.999 11l-6 -3c-1.33301 -1.33301 -1.33301 -3 0 -5l-43 -86
c-2 -16 -3 -53 -3 -111l-18 8c-2.66699 -8 -5.5 -18 -8.5 -30s-4.83301 -21.333 -5.5 -28c0 -14 10.667 -23.167 32 -27.5s32 -16.5 32 -36.5c0 -16 -9 -31 -27 -45h-151l-28 12l-20 -4c-31.333 -0 -47 12.333 -47 37c0 11.333 3.33301 20 10 26z" />
    <glyph glyph-name="N" unicode="N" horiz-adv-x="801" 
d="M40 0c-32 0 -47.998 12.3301 -47.998 36.9971c0 6.66699 2 13.334 6 20.001s9.66699 10.667 17 12c1.33301 -1.33301 2.5 -3.16602 3.5 -5.49902s1.83301 -5.5 2.5 -9.5c4.66699 35.333 22 69 52 101c0 44 -4.66699 111.667 -14 203l-16 202h16
c0 28.667 -1.33301 49 -4 61s-13.5 21 -32.5 27s-28.5 17.667 -28.5 35c0 18 7.33301 27 22 27c6 0 13.667 -2.33301 23 -7c25.333 0 62.666 5.33301 111.999 16s85.666 16 108.999 16l10 -16c14 0 23.333 -1.66699 28 -5s7 -11.666 7 -24.999l100 -54
c17.333 -25.333 43.666 -58.333 78.999 -99l55 -51c34.667 -29.333 55.667 -44.666 63 -45.999c8.66699 0 13 13 13 39l-14 -5l26 61l-24 41l12 -14c0 27.333 -1.33301 47.5 -4 60.5s-13.667 22.333 -33 28s-29 17.167 -29 34.5c0 24 11.333 36 34 36l64 -20l51 6l52 34
l8 -20c31.333 0 47 -12.333 47 -37c0 -17.333 -7 -28 -21 -32c-16 -2.66699 -28.667 -13.667 -38 -33l-24 -55c9.33301 -36 16.166 -67.5 20.499 -94.5s6.5 -56.167 6.5 -87.5l1 -182l4 -158l-10 -20c0 -11.333 -3 -17 -9 -17c-4.66699 0 -15 4.66699 -31 14l-37 -17l-55 8
l18 -8c-12 0 -18 12.333 -18 37c0 12 -0.333008 23.833 -1 35.5s-2 19.5 -4 23.5c-25.333 35.333 -64 81.666 -116 138.999c-8 8 -17.5 16.5 -28.5 25.5s-25.167 19.5 -42.5 31.5l-72 55l-136 129l2 -20c-1.33301 2 -5.66602 3.66699 -12.999 5c-6 0 -9 -5 -9 -15
c0 -11.333 2.33301 -26.333 7 -45l7 -44c0 -36.667 -2.66699 -81.5 -8 -134.5s-12.666 -90.833 -21.999 -113.5l42 -36c24 -6 36 -18.333 36 -37c0 -25.333 -12.667 -38 -38 -38l-84 10l-32 -11l-70 4z" />
    <glyph glyph-name="O" unicode="O" horiz-adv-x="914" 
d="M22 324l8.00098 8.00391c21.333 90 35 169.667 41 239l194 130c66.667 0 122 3.16699 166 9.5s80 16.833 108 31.5c27.333 -8.66699 63 -23.334 107 -44.001c4.66699 -2.66699 14 -9.33398 28 -20.001c10.667 -8 20.667 -16 30 -24c22.667 -18.667 47 -33.334 73 -44.001
c24 -33.333 54 -72 90 -116c0 -34.667 3.16699 -65.834 9.5 -93.501s16.833 -53.5 31.5 -77.5l-42 -150c-18.667 -36.667 -60.334 -70.334 -125.001 -101.001l-41 -19l-65 -63l-73 12l-94 -37c-34.667 6.66699 -80.667 18 -138 34l-72 37l-74 22
c-26 6.66699 -52.667 19 -80 37l-41 47c-27.333 66.667 -41 127.334 -41 182.001zM453.001 637.004l16 10l-75 -14c-34.667 -34.667 -67.667 -83 -99 -145l-11 -134l-18 -24l11 -90l42 -80c40 -30 93 -48 159 -54c18.667 9.33301 49.667 18.666 93 27.999l59 85l2 114
c0 40 -8.66699 84 -26 132l-52 125c-36 20.667 -69.667 36.334 -101 47.001z" />
    <glyph glyph-name="P" unicode="P" horiz-adv-x="750" 
d="M58 313c0 10 -3 27.001 -9 51.001s-9 41.333 -9 52l8 164l10 -20v10c0 22.667 -1.16699 39.667 -3.5 51s-13.333 20.166 -33 26.499s-29.5 17.833 -29.5 34.5c0 20.667 11.667 31 35 31h10.5c3 0 9.5 -1.33301 19.5 -4c69.333 17.333 134.333 26 195 26l69 -34v10l128 9
c6 0 33.667 -8 83 -24l89 -31c28.667 -44 69 -84.333 121 -121l-12 -37l38 -93c-13.333 -49.333 -41 -101 -83 -155c-34 -32 -73 -54 -117 -66c-94 10 -166.667 15 -218 15c-17.333 0 -29 -3.33301 -35 -10c-4.66699 -7.33301 -7 -20.333 -7 -39l1 -51
c3.33301 -20 15 -32.5 35 -37.5s30 -16.167 30 -33.5c0 -16 -6.33301 -26 -19 -30l-39 -1l-85 -6l-46 2l-46 2l-97 -24l-6 20c-31.333 -0 -47 12.333 -47 37c0 14 4.66699 24.333 14 31l34 14l9 14l12 63v154zM354 615.001c-23.333 0 -43 -15 -59 -45l20 -59v-82l-24 -83
l16 36v-73l71 -15l72 20l42 38c0 28.667 -1.5 56 -4.5 82s-7.16699 55 -12.5 87l-62 66z" />
    <glyph glyph-name="Q" unicode="Q" horiz-adv-x="910" 
d="M728 50c20 -22 38.332 -32.999 54.999 -32.999l22 6l24 7c18 0 27 -9 27 -27c0 -12.667 -21.667 -32.334 -65 -59.001l19 -17c-20 -20 -42.333 -37.667 -67 -53l18 -8c-4 -6 -10.667 -9.33301 -20 -10c-16 0 -36 5.33301 -60 16l-48 19l-63 47l-33 53l-38 -2
c-16.667 0 -32.5 1 -47.5 3l-36.5 5c-39.333 5.33301 -67.333 8 -84 8l-69 -10l-75 50c-18 12 -32.333 22.333 -43 31s-19.334 16.667 -26.001 24l-53 69c-22 32 -39 55 -51 69l25 65l-10 86l21 101c14 14 37.333 45.667 70 95c26 41.333 52 70.333 78 87
c17.333 0 32.833 0.833008 46.5 2.5s29.5 5.5 47.5 11.5c36 10.667 65 23.334 87 38.001c36 -8 72 -12 108 -12h19h15c6.66699 1.33301 11.667 2 15 2c24 -12.667 49 -21.5 75 -26.5s54.333 -7.5 85 -7.5l73 -63l26 -76l77 -31l-13 -95l39 -83v-76
c-13.333 -38.667 -31.333 -73.334 -54 -104.001c-19.333 -6.66699 -40.166 -20.167 -62.499 -40.5s-40.166 -40.833 -53.499 -61.5zM600.999 188.001c14 30 20.998 61.667 20.998 95c0 16 -5 33 -15 51l4 94c-19.333 37.333 -42 91 -68 161l-31 23l-78 5
c-13.333 -8.66699 -31.5 -21.667 -54.5 -39l-73.5 -57v-14c0 -30 -0.666992 -55.333 -2 -76c-2.66699 -24.667 -4.66699 -43.667 -6 -57c-8.66699 -78 -13 -127.333 -13 -148c37.333 -28.667 73.333 -70.667 108 -126l58 -8l26 2l-29 41c-12 14 -26.333 21 -43 21l-19 -6
c-7.33301 -4 -12.666 -6 -15.999 -6c-8 0 -13.333 14.667 -16 44c26 22 67 43 123 63l56 -8c14.667 -10 37.334 -28.333 68.001 -55z" />
    <glyph glyph-name="R" unicode="R" horiz-adv-x="817" 
d="M311 159h8.00195l6 -19l-32 -28l18 10c0 -21.333 5.66699 -35.666 17 -42.999l32 -13c11.333 -4 17 -13.667 17 -29c0 -28.667 -27.333 -43 -82 -43l-29 1l-20 1h-210l4 4c-32 0 -48 12.333 -48 37c0 12 3.66699 20.333 11 25l27 10c14 4 23.667 16 29 36c2 8 3 25 3 51
l-12 22l4 188c0 38.667 2.33301 73.167 7 103.5s11 56.166 19 77.499l-18 10c0 11.333 -0.333008 22 -1 32s-2.33398 20.333 -5.00098 31s-13.5 19 -32.5 25s-28.5 17.333 -28.5 34c0 22 18.667 38.333 56 49l118 -12l38 2l37 2h120l13 -20l90 13l124 -36
c10 -9.33301 28 -21.5 54 -36.5s44 -26.5 54 -34.5s23.667 -21.667 41 -41l40 -45l19 -73c0 -46.667 -4.33301 -97.334 -13 -152.001l-70 -49l-63 -3l-4 -37l36 -42l16 -8c20.667 -24.667 37 -42.334 49 -53.001c19.333 -17.333 39.666 -28.666 60.999 -33.999
c23.333 -4 35 -15.667 35 -35c0 -18 -11.333 -34.333 -34 -49l-112 28c-49.333 0 -125 -9.33301 -227 -28l-14 12c-30.667 0 -46 12.333 -46 37c0 16 8.33301 27 25 33c16 4.66699 24.667 9.66699 26 15c0 12.667 -13.333 31.334 -40 56.001l-30 62l-1 -24l-10 22l-26 -18
l19 2l-7 32l-7 -36l-20 20l-9 1c-12 0 -19 -4.66699 -21 -14zM363.002 627l-45 -41c8 -20.667 12 -44.667 12 -72l-22 -71c4 -28 10 -60.667 18 -98l-13 -11l82 -48c59.333 19.333 111.333 52.333 156 99l10 51l-19 76c-36.667 24 -63 50.333 -79 79l-53 16
c-26 8 -41.667 14.667 -47 20z" />
    <glyph glyph-name="S" unicode="S" horiz-adv-x="760" 
d="M-29 190c0 9.33301 3.66992 17.333 11.0029 24c5.33301 6 13.333 9.66699 24 11c12.667 0 40.667 -18.333 84 -55l81 -69l117 -23c30.667 19.333 82 29 154 29l34 -1l43 64l-37 63c-48.667 17.333 -91 27.666 -127 30.999l-16 30l-17 2l-20 -22
c-48 40 -114.333 77 -199 111l-67 117l-8 54c10 51.333 37 98.666 81 141.999c25.333 14 57.166 25.167 95.499 33.5s80.833 12.5 127.5 12.5c52 -18 86.667 -27 104 -27c18 0 32 5.16699 42 15.5s20.333 16.166 31 17.499c12 0 27.333 -7.33301 46 -22l6 -69l32 -7l48 -53
l7 -16c4 -7.33301 6 -13.333 6 -18c0 -7.33301 -4 -14.666 -12 -21.999c-8 -6 -16 -9 -24 -9c-10 0 -18 9 -24 27l-73 8l-12 48l-88 -6l-69 27c-42 0 -63 -14 -63 -42c0 -19.333 14.167 -35.5 42.5 -48.5s45.833 -27.167 52.5 -42.5l34 -3l5 16l16 -23l40 6l80 -12l32 -42
c39.333 -11.333 79.333 -34 120 -68l15 -73l6.5 -36c2.33301 -13.333 3.5 -25.666 3.5 -36.999l-5 -79c-36.667 -44 -107 -98.333 -211 -163l-108 -4l-14 -3l-13 -4c-24.667 0 -59.834 6.33301 -105.501 19s-79.167 19 -100.5 19c-14.667 0 -26.834 -7.66699 -36.501 -23
s-21.5 -23 -35.5 -23c-12 0 -20.333 4.66699 -25 14l-43 82l-49 37c0 8.66699 -3.33301 24.334 -10 47.001z" />
    <glyph glyph-name="T" unicode="T" horiz-adv-x="731" 
d="M225 301c0 18 2.99902 42.999 8.99902 74.999l14 75l10 138h-18c0 21.333 -10 32 -30 32c-28.667 0 -61.667 -2 -99 -6l-45 -64c-26 -32 -48 -48 -66 -48c-17.333 0 -28.333 7.66699 -33 23l-14 47c16 22.667 50 52.334 102 89.001l4 71h8
c6.66699 12.667 18.667 19 36 19c10.667 0 18.667 -1.66699 24 -5l17 -15c6.66699 -6 15.334 -9.33301 26.001 -10l20 2l20 1l107 -14l124 4l125 4c16.667 0 31.667 5 45 15s24.333 15.333 33 16c12 0 19.167 -2.33301 21.5 -7s3.5 -14.667 3.5 -30l41.5 -48.5l26.5 -33.5
c18 -27.333 31.333 -60 40 -98l-14 18l5 -17c0 -8 -3.66699 -15.167 -11 -21.5s-15.666 -9.5 -24.999 -9.5c-15.333 0 -26 8.66699 -32 26l-14 11l9 5l-18 -9l6 30l-63 49l-97 7c-12.667 0 -20.334 -3.33301 -23.001 -10v-25c0 -58.667 -1.33301 -113.667 -4 -165
c-8 -153.333 -12 -235 -12 -245l10 -18c0 -32.667 0.833008 -54 2.5 -64s12.5 -18.667 32.5 -26c17.333 -4 26 -15 26 -33c0 -21.333 -17.333 -35 -52 -41l-73 -1l-100 -1c-22 0 -39 -0.666992 -51 -2s-28 -3.66602 -48 -6.99902l-12 16c-30.667 0 -46 12.333 -46 37
c0 7.33301 5 16.666 15 27.999c12 11.333 20.333 20.333 25 27l30 19v38c-2 14 -3.33301 24.667 -4 32z" />
    <glyph glyph-name="U" unicode="U" horiz-adv-x="736" 
d="M69 560l2.99902 41.0039c0 26 -10.667 41 -32 45s-32 16 -32 36c0 18 5 27 15 27c1.33301 -0.666992 2.83301 -1.33398 4.5 -2.00098s3.83398 -2.33398 6.50098 -5.00098l92 -2l47 15l50 16l98 8l-2 -20c30.667 0 46 -12.333 46 -37c0 -11.333 -3.33301 -20 -10 -26
l-25 -11c-8 -2 -17.333 -13.667 -28 -35l-23 -46v-97c0 -14 0.5 -24.667 1.5 -32s3.16699 -20 6.5 -38l13 -71l-34 -95l16 -4l-4 -17c14.667 -24.667 29.334 -63.667 44.001 -117l79 12l109 -6l45 32l4 93l-20 12l30 88c-5.33301 45.333 -9.5 84.166 -12.5 116.499
s-4.5 66.166 -4.5 101.499l-16 22l16 77l-51 6c-20 6 -30 17.667 -30 35c0 20.667 10.667 31 32 31c9.33301 0 18.333 -1.33301 27 -4l27 18l66 12l51 -18l37 -7c12 -4 18 -14.333 18 -31s-10.333 -28.167 -31 -34.5s-31 -22.166 -31 -47.499c0 -14 7.33301 -31.333 22 -52
l-15 -207l34 -89h-14c0 -14.667 7 -25.667 21 -33l-36 -114c-40.667 -46.667 -98.334 -84.667 -173.001 -114c-35.333 0 -88.166 3 -158.499 9s-129.833 9 -178.5 9c-24 14.667 -47.833 30.167 -71.5 46.5s-42.834 30.166 -57.501 41.499l-8 110c0 4 3 6.66699 9 8l15 -4
l-10 137c0 35.333 10.333 104.333 31 207z" />
    <glyph glyph-name="V" unicode="V" horiz-adv-x="766" 
d="M-57 684c0 24 17.3369 36.0029 52.0039 36.0029c15.333 0 35 -2.33301 59 -7l25.5 -3.5c7 -1 18.5 -3.5 34.5 -7.5l84 18l111 -10l-6 10c30.667 0 46 -12.333 46 -37c0 -16 -5 -26 -15 -30l-28 -7c-10.667 -5.33301 -16 -19 -16 -41l-3 -40
c26 -98.667 81 -202.334 165 -311.001l-18 -22c1.33301 -3.33301 5 -6.33301 11 -9l7 4c-0.666992 3.33301 -3.66699 7 -9 11l81 162c28.667 62.667 48 119.667 58 171l10 -10c11.333 30 17.666 50.333 18.999 61c0 12 -10.833 20.833 -32.5 26.5s-32.5 17.5 -32.5 35.5
s7.33301 27 22 27c6.66699 0 14.667 -2.33301 24 -7l48 36l87 -32c26 8 42.667 12 50 12c32 0 48 -12.333 48 -37c0 -17.333 -12.333 -29 -37 -35c-4.66699 -0.666992 -14.334 -12.334 -29.001 -35.001s-23 -38 -25 -46c-11.333 -49.333 -29.333 -114 -54 -194
c-3.33301 -6.66699 -9.83301 -17.5 -19.5 -32.5s-21.834 -32.167 -36.501 -51.5l-63 -85l-36 -204l-18 14c-2 -6 -4.66699 -9.33301 -8 -10l-26 14l-42 4c-20.667 -14 -43 -24.167 -67 -30.5s-50.333 -9.5 -79 -9.5l-4 18l-13 1l4 -6l-83.5 169
c-21.667 44.667 -38.167 79.667 -49.5 105c-26 58 -46.667 110 -62 156s-26.333 88.667 -33 128l-16 8c-3.33301 8 -6.33301 15.667 -9 23s-6.33398 15.666 -11.001 24.999c-10 20.667 -20.5 33 -31.5 37s-19.333 8.33301 -25 13s-8.5 13 -8.5 25z" />
    <glyph glyph-name="W" unicode="W" horiz-adv-x="996" 
d="M-43 682c0 14 3.66797 23.0029 11.001 27.0029l29 3c6 0 20.667 0.666992 44 2s44 2 62 2c8 0 17 1 27 3l25 5l52 5l110 -8l-20 -2c31.333 0 47 -12.333 47 -37c0 -16 -8.16699 -26.667 -24.5 -32s-25.166 -12.666 -26.499 -21.999l1 -33v-33l33 -92l58 -34l-7 -64
c5.33301 -6 11.333 -12 18 -18c2 -1.33301 4.33301 -3.33301 7 -6l5 2c0 3.33301 -5 9.66602 -15 18.999l59 31l-8 31c15.333 30.667 23 52.667 23 66c0 9.33301 -9.33301 17 -28 23c-18 4 -27 15.667 -27 35c0 10 3.33301 18.5 10 25.5s15.334 10.167 26.001 9.5l92 -12
l70 27l44 -38l2 22c32 0 48 -11.667 48 -35c0 -20 -9.83301 -31.833 -29.5 -35.5s-29.5 -11.5 -29.5 -23.5c0 -9.33301 3.5 -25.333 10.5 -48s12.5 -36.334 16.5 -41.001c0 -7.33301 0.666992 -15 2 -23s4.33301 -21.667 9 -41l18 14l7 -8l25 11l27 58l3 89l35 74l8 -20
c14 32 21 52.667 21 62c0 11.333 -10.5 19.166 -31.5 23.499s-31.5 16.5 -31.5 36.5c0 17.333 12.667 34.333 38 51l52 -28l96 14l34 22l8 -22c31.333 0 47 -12.333 47 -37c0 -15.333 -7.33301 -26 -22 -32l-14 -5c-4 -1.33301 -16 -15.333 -36 -42s-31 -43 -33 -49
l-70 -162c-24 -42 -56 -106 -96 -192c-2.66699 -6 -6.33398 -17.833 -11.001 -35.5s-8.66699 -33.834 -12 -48.501l-19 -86l-16 -16c-2 -6 -5.33301 -9.33301 -10 -10l-22 6l7 -8l-32 -2l-47 18l8 -18c-42.667 0 -74.667 70 -96 210l-6 2l-11 10l-8 -1c-4 0 -9 2 -15 6
c-2 -22 -9.66699 -46.667 -23 -74l-34 -69l-8 -43c-5.33301 -24 -10.666 -36 -15.999 -36c-3.33301 0.666992 -8 3.66699 -14 9l-43 -6l-6 -22l-11 -8l-18 22l-15 1c-6.66699 0 -16.334 -2.66699 -29.001 -8c-6.66699 24.667 -14.834 53.167 -24.501 85.5
s-22.167 71.833 -37.5 118.5l-39 86l-40 85l-64 180c-2.66699 7.33301 -6.33398 16 -11.001 26s-12.667 24.667 -24 44c-6.66699 12.667 -19 22.5 -37 29.5s-27 18.5 -27 34.5z" />
    <glyph glyph-name="X" unicode="X" horiz-adv-x="790" 
d="M526 605l10.001 10.002l16 -18c13.333 13.333 20 24.333 20 33c0 6 -11.333 11.5 -34 16.5s-34 17.167 -34 36.5s21 33.666 63 42.999l80 9l38 -25l109 6l-8 4c32 0 48 -12.333 48 -37c0 -15.333 -7.33301 -26 -22 -32c-35.333 -12 -69 -45.333 -101 -100l-70 -33
c-26.667 -42 -66.334 -81 -119.001 -117l6 -12c-2 -1.33301 -3.66699 -5.33301 -5 -12l1 13c23.333 -36.667 54 -78.334 92 -125.001l98 -120l-20 14c24.667 -30.667 40 -48.667 46 -54c16.667 -16 36.334 -28 59.001 -36c14.667 -5.33301 22 -16.333 22 -33
c0 -18 -7.66699 -27 -23 -27c-7.33301 0 -18 3 -32 9l-57 -11l-56 -7c-4.66699 -0 -11.334 0.333008 -20.001 1s-18.667 2 -30 4l-50 5l-111 -2l-14 -8c-30.667 -0 -46 12.333 -46 37c0 18 9.83301 29.167 29.5 33.5s29.5 10.166 29.5 17.499c0 10 -21 37 -63 81l-2 10
l-21 5v18l-8 6c-1.33301 -2 -2 -3.66699 -2 -5c-2 -6 -3.33301 -10.333 -4 -13c-5.33301 -2.66699 -12.333 -4 -21 -4c-7.33301 0 -15.666 1 -24.999 3l17 -14c-50.667 -44.667 -76 -74.334 -76 -89.001c0 -5.33301 9.5 -10.166 28.5 -14.499s28.5 -16.166 28.5 -35.499
c0 -18 -5 -27 -15 -27c-1.33301 0.666992 -2.83301 1.33398 -4.5 2.00098s-3.5 2.33398 -5.5 5.00098h-111l-50 -28l-69 2l-22 10c-31.333 0 -47 12.333 -47 37c0 12.667 9 24 27 34c27.333 13.333 44.666 23.333 51.999 30c23.333 20.667 47.333 48 72 82l66 89l88 30
l-16 6l3 8c-0.666992 3.33301 -6.66699 6 -18 8l-28 71l-96 72l-44 107l-4 -14l-41 52c-16.667 19.333 -33 31.5 -49 36.5s-24 16.5 -24 34.5c0 10.667 3.66699 20 11 28c6 8 14.333 12 25 12l108 -8c15.333 0 26.833 0.5 34.5 1.5s21.5 3.16699 41.5 6.5l76 12l80 -26
l12 10c30.667 0 46 -12.333 46 -37c0 -17.333 -10.167 -28.833 -30.5 -34.5s-30.5 -11.5 -30.5 -17.5c0 -12.667 20.667 -38.667 62 -78l8 -28l17 -27c8.66699 -2 15 -4.66699 19 -8l-3 -3l54 14l5 40l14 6c6 7.33301 10.833 16.166 14.5 26.499s5.5 21.166 5.5 32.499z" />
    <glyph glyph-name="Y" unicode="Y" horiz-adv-x="772" 
d="M525 137l-16 13.999l-2 -22l18 -6c0 -21.333 5.33301 -36 16 -44l31 -13c10.667 -4 16 -14 16 -30c0 -18 -15 -34.667 -45 -50l-93 36l-92 -28l-121 16l14 -10c-31.333 0 -47 12.333 -47 37c0 18.667 9.83301 30 29.5 34s31.834 14 36.501 30l24 73l-28 21l22 12l-8 -3
l-12 41c-4 16.667 -10.667 29.667 -20 39l-77 82c-10 20 -28 51.333 -54 94l-75 84l14 16l-39 54c-15.333 18 -31.5 29.5 -48.5 34.5s-25.5 16.5 -25.5 34.5s10.667 33.333 32 46l132 -14l115 25l100 -28l16 8c31.333 0 47 -12.333 47 -37c0 -18 -10 -30 -30 -36
c-18.667 -4 -28.334 -9.33301 -29.001 -16c0 -11.333 18 -36 54 -74v-39l47 -47l20 -53l2 20c3.33301 -5.33301 8 -9.33301 14 -12c2.66699 1.33301 10.334 10.333 23.001 27l-5 45l54 18l-1 35l22 10c23.333 35.333 35 59 35 71c0 6 -8.83301 11.833 -26.5 17.5
s-26.5 17.167 -26.5 34.5c0 20 6.66699 30 20 30l11 -4l90 22c13.333 -6 30.833 -11 52.5 -15s46.167 -6 73.5 -6l-2 8c30.667 0 46 -12 46 -36c0 -15.333 -9.66699 -27.333 -29 -36c-26.667 -11.333 -42.667 -20.666 -48 -27.999c-8.66699 -17.333 -22.334 -40 -41.001 -68
l-78 -95l-28 -89l-58 -71l-10 -2c-8 -14 -18 -45.333 -30 -94l8 -1c8 -30 11.333 -50.667 10 -62z" />
    <glyph glyph-name="Z" unicode="Z" horiz-adv-x="836" 
d="M1 0c-18 0 -26.9961 10.002 -26.9961 30.002l2 4l221 270c91.333 109.333 158.333 203 201 281l20 -10c4 5.33301 6.66699 11 8 17c0 13.333 -25.667 20 -77 20l-18 -17c-25.333 16 -55 24 -89 24l2 6c-54 -34 -100.667 -60.333 -140 -79c-22 -25.333 -40 -38 -54 -38
c-23.333 0 -35 10 -35 30c0 12 11.667 33.667 35 65c19.333 27.333 36.333 46.666 51 57.999l2 88l18 -20c8.66699 10.667 19.667 16 33 16c6.66699 0 15.5 -3.33301 26.5 -10s19.833 -10.667 26.5 -12l7 4l117 -10c47.333 -4 86.333 -6 117 -6c16.667 0 32.667 1 48 3
s27.666 3.66699 36.999 5c40.667 5.33301 69 8 85 8l204 -14l-8 6c13.333 0 20 -7.33301 20 -22l-1 -26c-46.667 -38 -105.334 -90.333 -176.001 -157c-16.667 -19.333 -38.834 -55.333 -66.501 -108s-49.834 -89.334 -66.501 -110.001c-10.667 -14 -34.667 -37 -72 -69
l-78 -68l12 -20l-4 -7c0.666992 -2.66699 3.66699 -5 9 -7l19 -27l83 8c36 0 70 -4 102 -12l88 52l62 31l30 27c12 12 23.667 18 35 18c24 0 36 -11.333 36 -34l-2 -2c-0.666992 0.666992 -1.33398 1 -2.00098 1c-5.33301 2.66699 -9.66602 6 -12.999 10l-41 -80l1 -47
l-53 -66c-6 -26 -20.333 -39 -43 -39c-8 0 -17 5 -27 15s-19.667 15.667 -29 17l-10 -1l-9 -2l-234 14c-5.33301 0 -73 -4.33301 -203 -13c-70 -4.66699 -130 -7 -180 -7v12z" />
    <glyph glyph-name="bracketleft" unicode="[" horiz-adv-x="284" 
d="M110 -78l9 -11.999l-16 -3l-41 30l20 -14c-12.667 0 -19 10 -19 30c0 7.33301 1.33301 14.666 4 21.999l-16 120c-3.33301 30 -5.33301 47.667 -6 53c-2.66699 26 -4 47.667 -4 65c0 34 3.33301 81 10 141l7.5 83c1.66699 18.667 2.5 38.334 2.5 59.001l-4 254v-6
c0 8 1.66699 19 5 33l4 31l21 -30l28 23l9 16l-32 -14l122 -4l20 14l20 -8c20 0 30 -6.66699 30 -20c0 -12 -7.33301 -19 -22 -21h-34c-10 0 -19.333 -8.33301 -28 -25c-5.33301 -11.333 -9 -24 -11 -38l-6 -220c0 -30 3.66699 -71 11 -123s11 -90 11 -114
c0 -25.333 -0.5 -43.833 -1.5 -55.5s-3.16699 -32.834 -6.5 -63.501l-12 -119l18 -6c0 -22 3.33301 -35 10 -39c3.33301 -2 17 -3 41 -3c20 0 30 -7.33301 30 -22c0 -13.333 -9 -20 -27 -20l1 10c-52 -12 -90 -18 -114 -18l-44 2z" />
    <glyph glyph-name="backslash" unicode="\" horiz-adv-x="355" 
d="M29 720l31.999 -22h84l48 44l-28 -28c0 -51.333 5 -109.333 15 -174c7.33301 -48.667 20.333 -115.667 39 -201s49.334 -203 92.001 -353l-6 14l-56 -6l-24 28l-70 -6l4 -34l-60 270c-2 11.333 -4.16699 27.333 -6.5 48s-3.5 41 -3.5 61c0 21.333 -1 40 -3 56
s-5 33.667 -9 53c-6 30 -16 69 -30 117l-34 117z" />
    <glyph glyph-name="bracketright" unicode="]" horiz-adv-x="284" 
d="M174 -78l-41.999 6l-72 -28l-52 16h22c-19.333 0 -29 6.66699 -29 20c0 12 7 19 21 21h34c12 0 18 4.33301 18 13c0 6 -3 16 -9 30l12 242l9 127l5 126c0 34 -2.33301 74 -7 120c0 21.333 -1 41.333 -3 60c-4 26.667 -6.66699 46.667 -8 60l8 -14
c0 22 -2.33301 34.5 -7 37.5s-19.334 4.5 -44.001 4.5c-19.333 0 -29 7.33301 -29 22c0 13.333 8.66699 20 26 20l-9 -18h40c34 0 70.667 7.33301 110 22l26 -6l-23 14l6 -11l39 10l-14 -18c10.667 0 17 -10.667 19 -32v-44l8 -232c0 -28 -3.33301 -68.667 -10 -122l-6 -55
c-2.66699 -26.667 -4 -48.667 -4 -66c0 -34 3 -81 9 -141l15 -143l-6 14c0 -29.333 -8.33301 -50 -25 -62l1 26l-18 1l-11 -42v22z" />
    <glyph glyph-name="asciicircum" unicode="^" horiz-adv-x="422" 
d="M15 583c-8.66699 4 -13.3359 10.332 -14.0029 18.999c0 15.333 25 45 75 89c22.667 19.333 40.167 33.833 52.5 43.5s23.833 17.834 34.5 24.501l-14 6c2.66699 2.66699 19.334 10.667 50.001 24l10 -10c7.33301 5.33301 23 12 47 20l-20 -20
c14.667 0 28.334 -9.33301 41.001 -28l28 -45l51 -53c26 -24 45.667 -38.667 59 -44c4 -5.33301 6.33301 -11 7 -17l-2 -17l-1 -19l-40 24l-35 -25l-18 -3l-18 -3c-10 0 -23.333 5.33301 -40 16l3 32c-6.66699 8 -14 16 -22 24s-19.667 18.667 -35 32l-6 -16
c-5.33301 4 -10.666 6.66699 -15.999 8l-7 -2c-14 -12 -39.667 -29.333 -77 -52l-17 -47l12 18c-6 -8 -13.333 -12 -22 -12l-3 1l4 1l-12 28l-33 -19l-40 36z" />
    <glyph glyph-name="underscore" unicode="_" horiz-adv-x="452" 
d="M29 -67l-18 2l20 51l-2 32l20 -26l110 -12l106 28l116 -4l6 -6l-6 -23l14 -26l-2 -16c-2 0 -52.167 -1.66699 -150.5 -5s-169.5 -5 -213.5 -5v10z" />
    <glyph glyph-name="grave" unicode="`" horiz-adv-x="284" 
d="M-21 730c-3.33301 3.33301 -5.66699 10.333 -7 21c0 9.33301 5 14 15 14c6.66699 0 16.667 -3 30 -9l9 18l48 14l39 -24l-12 8c12 0 21 -4 27 -12l46 -68c15.333 -24 28 -48.333 38 -73l35 -17l-22 -20l3 -11c0 -6 -4.66699 -12.667 -14 -20l-24 -16l-8 9l-25 -5l-28 21
l14 6c-10 2 -18 13.667 -24 35c-48 34 -94.667 71.667 -140 113v16z" />
    <glyph glyph-name="a" unicode="a" horiz-adv-x="642" 
d="M329 299l-19.001 52l-8 -20l2 14l-38 61l-45 12c-27.333 0 -52.166 -10.167 -74.499 -30.5s-38.5 -30.5 -48.5 -30.5c-20.667 0 -31 9.33301 -31 28c0 16.667 11.333 35 34 55l53 37l71 51c24.667 -5.33301 51.667 -9.66602 81 -12.999s61 -5 95 -5
c54 -35.333 100.333 -72.333 139 -111l-13 -99l48 -66l7 -31l-10 -6l53 -89l17 -7c6.66699 0 13 2.66699 19 8l9 8c6 0 9.66699 -3 11 -9l-30 -77l-45 -49c-18 2.66699 -49 11.334 -93 26.001c-17.333 5.33301 -33.5 9.16602 -48.5 11.499s-29.5 3.5 -43.5 3.5l-19 13
c-0.666992 -0.666992 -1 -1.33398 -1 -2.00098c-3.33301 -6 -6 -12.667 -8 -20l-65 1l-115 -25l-54.5 12c-17.667 4 -43.167 10.667 -76.5 20l-72 79l-16 44c24 75.333 77.667 129.333 161 162l103 1c26 0 49.667 -3 71 -9zM362.999 147l-27 28l24 19l-27 16l4 20l-20 4
c-10 0 -24 -3 -42 -9l-41 -13l-6 -41l37 -81l44 -11c38 0 57 14.667 57 44z" />
    <glyph glyph-name="b" unicode="b" horiz-adv-x="697" 
d="M290 721l-1.99902 -64.002l20 -88l-20 -78c0 -8 2 -18 6 -30h5c5.33301 0 14.666 -2 27.999 -6l33 35l49 2c26 0 79 -10.333 159 -31c57.333 -52 95.333 -104 114 -156l8 -91l-17 -81c-36 -40 -63 -78 -81 -114c-26.667 0 -66.5 -3 -119.5 -9s-91.5 -9 -115.5 -9
c-44 38 -68 57 -72 57c-10 0 -44.5 -12 -103.5 -36s-94.167 -36 -105.5 -36c-16 0 -24 8.33301 -24 25l2 22l2 23l-3 21l-4 174c0 14 4.66699 35.167 14 63.5s14 48.833 14 61.5l-12 178l-8 -6c0 20.667 -10 35.834 -30 45.501s-30 20.834 -30 33.501s7 23.667 21 33l59 1
l176 83l10 -10l12 2c6 0 11 -5 15 -15zM396.001 427.998l18 12l-80 -27l-26 -27l-39 -110l6 11l-3 -17l26 -13l-14 -8c0 -10.667 5 -24.667 15 -42l-11 -75l88 -13l62 11c0 2.66699 1.33301 11 4 25s7 33.333 13 58c7.33301 38 11 65 11 81l-7 85z" />
    <glyph glyph-name="c" unicode="c" horiz-adv-x="589" 
d="M544 293c-6 -18.667 -16.6689 -27.999 -32.002 -27.999c-13.333 0 -21.5 3.66699 -24.5 11s-4.5 19.666 -4.5 36.999c0 6 -6.33301 11.333 -19 16l8 104l-28 2c-58.667 0 -105.667 -11.333 -141 -34l-41 -49l19 -136c8 -52.667 20 -96.667 36 -132l70 -10
c22 0 37.333 4.66699 46 14l30 39l60 57l14 19c4.66699 6 12 9.33301 22 10c20 0 30 -11.667 30 -35c0 -34 -17 -60 -51 -78l-43 -65l-183 -57c-37.333 0 -74.666 9.66699 -111.999 29c-25.333 11.333 -54.666 31.333 -87.999 60l-86 76l-12 113l48 109
c20 44.667 39.667 78.667 59 102c20.667 0 45 7.66699 73 23c24 11.333 45.333 25.333 64 42l85 -1l70 -35l53 6l82 -33c14 -6 25.167 -15.167 33.5 -27.5s14.5 -19.5 18.5 -21.5l-31 -51c0 -32 -5.66699 -56 -17 -72z" />
    <glyph glyph-name="d" unicode="d" horiz-adv-x="698" 
d="M651 327c0 -20 -3.33398 -47.999 -10.001 -83.999l-16 -84l16 -20c0 -20.667 5.66699 -34.667 17 -42l31 -13c11.333 -4 17 -13.333 17 -28c0 -12 -13.667 -26.333 -41 -43c-26 0 -51.333 -2.5 -76 -7.5s-50.667 -12.167 -78 -21.5l-56 16l-18 -14h-6
c-13.333 0 -20 6 -20 18l4 20l4 21c0 6 -2.66699 9.33301 -8 10c-6 0 -22 -7 -48 -21l-45 -25l-78 -22l-88 31l-38 -7l-38 89l-48 27l-6 107l9 50c6 33.333 9.66699 50.666 11 51.999c4.66699 15.333 31.334 59.666 80.001 132.999l85 23l70 18
c54.667 0 94.667 -12.667 120 -38l6 -1c2.66699 1.33301 4 2.66602 4 3.99902c0 4 -3 11 -9 21l-6 2c12 26 18 42.667 18 50c0 22 -10.333 37.5 -31 46.5s-31 19.833 -31 32.5c0 10.667 2.66699 16.334 8 17.001l5 -6l65 47l88 4l93 67l8 -22l12 2c7.33301 0 12 -5 14 -15
c0 -50.667 1.66699 -119.667 5 -207s5 -149.666 5 -186.999zM418.999 201.001c0 9.33301 4 17.667 12 25l-26 4l19 30l-8 26l-8 99l-47 50l-57 7l-75 -62l-20 -85l19 -90c32 -32 71 -57.667 117 -77l41 22z" />
    <glyph glyph-name="e" unicode="e" horiz-adv-x="606" 
d="M291 205c-4 -1.33301 -8 -4 -12 -8c0 -6 3.66699 -12.333 11 -19l16 -14l40 -56l62 -11c40.667 12.667 90 31 148 55l12 9c3.33301 2 8.33301 3.66699 15 5c18 0 27 -9.33301 27 -28c0 -6.66699 -2.33301 -15 -7 -25l-10 -24l-94 -45l-76 -47
c-26.667 -15.333 -55.334 -26 -86.001 -32c-36.667 16 -71.667 28.167 -105 36.5s-63.666 12.5 -90.999 12.5l-86 64l-31 86c10 70 20 123.333 30 160c4 14.667 7.33301 26 10 34l10 29c8.66699 26 13 48 13 66l62 10l92 66c4 0.666992 11 1 21 1
c41.333 0 97.666 -11 168.999 -33c30.667 -31.333 68.334 -58.333 113.001 -81c29.333 -40.667 44 -73.667 44 -99l6 -10c-60 -26.667 -158.333 -66 -295 -118zM259 282c4 0 14.333 -5.33398 31 -16.001l29 15l22 43l23 -13l4 12c4 2 7.33301 5.33301 10 10l-2 9l9 20
l-30 59l-45 21l-45 -23l-29 -58c0 -5.33301 0.333008 -11.833 1 -19.5s2.5 -18.667 5.5 -33s8.5 -23.166 16.5 -26.499z" />
    <glyph glyph-name="f" unicode="f" horiz-adv-x="384" 
d="M302 503l44.9971 -3.99609l21 -12l23 16h-14c10.667 0 16.334 -2.33301 17.001 -7c-0.666992 -2.66699 -3.66699 -2.66699 -9 0l11 -44l-18 8l11 -34l-18 -10c0 -4.66699 -1.66699 -8.66699 -5 -12l-33 -1l-15 14l18 -16l-25 -1
c-4.66699 -0.666992 -10.667 -5.66699 -18 -15c13.333 -30.667 20 -86.667 20 -168l-26 -85l16 12c0 -34 6.33301 -57.667 19 -71c4.66699 -3.33301 16.334 -8.33301 35.001 -15c12.667 -4 19 -13.667 19 -29c0 -12.667 -7.33301 -24.334 -22 -35.001l-99 20
c-48.667 0 -91.834 -2 -129.501 -6s-72.5 -10.667 -104.5 -20l14 12c-22 0 -33 10 -33 30c0 13.333 9.33301 24 28 32c20.667 6.66699 33.334 16 38.001 28c1.33301 4.66699 2.33301 10.667 3 18s1 19.333 1 36l-20 15l15 107l15 108l-10 8c0 8.66699 -1.66699 13 -5 13
l-19 -12l3 38l-25 -26l-4 6c-7.33301 0 -12.666 0.666992 -15.999 2l-1 4l8 39l-38 22l31 1l-18 14v6c0 8 8.66699 14 26 18l25 -26l4 22l31 -12l-20 12c4 0 8 2 12 6c0 4 -2.66699 7.16699 -8 9.5s-8.5 4.16602 -9.5 5.49902s-1.5 2.66602 -1.5 3.99902
c0.666992 2 1.66699 4 3 6s3.33301 4.66699 6 8l-67 21l-9 34l11 71l69 15l69 45l46 -10l45 -7l106 9c20 -12 39.5 -21.5 58.5 -28.5s37.833 -10.5 56.5 -10.5v-65l-14 -45l-59 -14c-4.66699 -1.33301 -9.83398 -1.5 -15.501 -0.5s-12.167 2.83301 -19.5 5.5
c-16 5.33301 -24 11.666 -24 18.999l3 5c6 4.66699 11.667 14.667 17 30l-34 41l-61 -7c-26.667 -6 -40 -18.667 -40 -38s17.333 -39 52 -59c34.667 -18 53.334 -34.667 56.001 -50z" />
    <glyph glyph-name="g" unicode="g" horiz-adv-x="667" 
d="M237 139c0 -6.66699 6.33105 -15 18.998 -25l29 -18l15 38l6 -16l29 -18l-2 16c76 0 131 9 165 27c46.667 -36 94.334 -67 143.001 -93l22 -69l-1 -55l-37 -33c-7.33301 -2 -17.666 -5.33301 -30.999 -10c-4.66699 -1.33301 -14.334 -5.33301 -29.001 -12
c-26 -11.333 -46 -18.333 -60 -21l-53 -4h-53l-98 -43c-98.667 23.333 -172.334 35 -221.001 35l-62 43l-17 44c0 24 21.667 48.667 65 74l-26 -1l26 -18l12 19l11 12l-37 17c-18.667 10.667 -28 26.334 -28 47.001c0 21.333 9.66699 38.333 29 51
c9.33301 5.33301 29.666 13.666 60.999 24.999c25.333 8.66699 42.666 17.667 51.999 27c-3.33301 2 -10.666 4 -21.999 6l-22 3l-42 16c-36 56 -63 100 -81 132l48 35l3 52l33 45c67.333 22 113.333 43 138 63l125 -13c16.667 0 29.334 2.66699 38.001 8l34 17l21 93
c72 0 125.667 -2.33301 161 -7l28 -60c0 -31.333 -19.333 -47 -58 -47c-12 0 -28 3.33301 -48 10c-10.667 4 -19 6.66699 -25 8s-13 2.33301 -21 3c-14 0 -21 -6 -21 -18c0 -10.667 12.667 -16 38 -16l4 11l-3 -28l34 21l-6 -14l88 -29l43 -43l12 -113l-50 -32
c-17.333 -30 -43 -63 -77 -99c-13.333 0 -28.333 -0.666992 -45 -2s-36 -4.33301 -58 -9c-48 -9.33301 -82 -14 -102 -14l-34 2l-33 2c-5.33301 0 -11.166 -2.16699 -17.499 -6.5s-10.166 -9.5 -11.499 -15.5zM333.998 453l19.999 14.002l-73 -40
c-5.33301 -26.667 -10.666 -56.334 -15.999 -89.001s-8 -64.334 -8 -95.001l69 -6l54 7l53 79l-51 106zM187.997 0.00195312c-22 -15.333 -33.001 -28.999 -33.001 -40.999c0 -6 2 -14 6 -24l45 -40l101.5 12.5c35.667 4.33301 65.834 6.5 90.501 6.5
c22 14.667 43.667 27.334 65 38.001c0 20.667 -10 31 -30 31l-13 -2l-34 16l7 -4l-20 12l10 -16c-20.667 0 -33 -3 -37 -9c-16.667 1.33301 -38.667 3.66602 -66 6.99902s-58 7.66602 -92 12.999z" />
    <glyph glyph-name="h" unicode="h" horiz-adv-x="717" 
d="M289 721l-13.999 -124.003c0 -16 3 -47.667 9 -95c2 -14 3.33301 -30.333 4 -49s1 -33.667 1 -45l3 -6l-3 1h-13l43 43l29 -5l-14 16c54.667 8 99.667 25.333 135 52c28 0 53.333 -6.33301 76 -19l67 -49l5 -72l44 -60l-12 -94c12.667 -38.667 24.667 -62 36 -70
c8 -32 20 -55 36 -69l36 -18c11.333 -5.33301 17 -14.666 17 -27.999c0 -12 -5.33301 -20.333 -16 -25l-32 -7l-90 -16c-24 6.66699 -49.667 12 -77 16s-55 6 -83 6h-22.5c-7 0 -15.167 -0.666992 -24.5 -2l6 -2c-22 0 -33 10 -33 30c0 15.333 9.66699 26.333 29 33
c14 4 22.333 14.667 25 32l6 44l-43 32c-6.66699 46.667 -10 80 -10 100l-6 -4l-21 70l-24 28l-55 -49l4 -57l-32 -31v-46l16 -29l-2 -8c0 -28 1.66699 -46.833 5 -56.5s15 -18.5 35 -26.5c17.333 -6 26 -16.667 26 -32l-6 -19c-2.66699 -8 -6.33398 -11 -11.001 -9
l-131 -22c-28 12.667 -55.5 22.167 -82.5 28.5s-53.5 9.5 -79.5 9.5l-20 -18c-22 0 -33 10 -33 30c0 14 10.667 25.167 32 33.5s32 20.833 32 37.5c0 8 -6 27.667 -18 59c0 12.667 0.333008 23.334 1 32.001c3.33301 42 5 68.333 5 79c0 8.66699 3 29 9 61l7 61v141
c0 22.667 -5.33301 39.334 -16 50.001l-31 17c-10.667 5.33301 -16 14 -16 26c0 11.333 9.66699 27 29 47l57 19l82 -4l95 37l4 8l11 2c5.33301 0 10 -5 14 -15z" />
    <glyph glyph-name="i" unicode="i" horiz-adv-x="344" 
d="M296 152l-24.001 -14.002l15 -69c28.667 -4 44 -6.66699 46 -8c17.333 -5.33301 26 -16 26 -32c0 -11.333 -3 -17.666 -9 -18.999c-3.33301 1.33301 -5.33301 4.66602 -6 9.99902l-135 -38l-104 38l-71 -24l-32 9c-10.667 4 -16 12.333 -16 25c0 14 9 24.667 27 32
c19.333 6.66699 32 16 38 28c2.66699 8 4 26 4 54l-3 45l-5 46l16 45l-4 56l-4 -4c0 20.667 -10.167 35.834 -30.5 45.501s-30.5 20.834 -30.5 33.501c0 11.333 7.66699 25 23 41l83 27l74 -6l46 20c22.667 10.667 36.334 19 41.001 25l11 2c8 0 12.667 -5 14 -15v-118
l6 -117zM14.999 612.998l10 -10.001c19.333 44 54 82.333 104 115c56.667 0 102 4 136 12l20 -54c0 -30 -24.333 -61 -73 -93c-36 -23.333 -71 -39.666 -105 -48.999l-78 5l-15 61z" />
    <glyph glyph-name="j" unicode="j" horiz-adv-x="331" 
d="M288 505l-10.999 -80.001l-7 -79c0 -24 3 -56 9 -96l13 -96l16 -197l-16 2l-12 -64c-20.667 -6 -48 -23 -82 -51l-102 -27c-37.333 17.333 -76 40.333 -116 69l-23 33c0 18.667 6.33301 28 19 28c8.66699 0 15.167 -6.83301 19.5 -20.5s12.166 -20.5 23.499 -20.5
c15.333 0 26 8.66699 32 26l5 44l12 58c5.33301 25.333 8 44.333 8 57c0 15.333 -3.33301 37.333 -10 66l-6.5 33.5c-2.33301 12.333 -3.5 23.166 -3.5 32.499c0 12 0.333008 20.833 1 26.5s3 16.5 7 32.5l12 60l-20 -10c0 20.667 -10.167 35.834 -30.5 45.501
s-30.5 20.834 -30.5 33.501s10.333 25 31 37c22 -2 62.333 5 121 21l125 37l-10 12l10 2c6.66699 0 12 -5 16 -15zM16.001 612.999l10 -2.00098l19 55l65 58l74 14l90 -6l12 -56c0 -9.33301 -3.33301 -23.666 -10 -42.999l-15 -43l-66 -32h-73
c-39.333 -1.33301 -69 -6.33301 -89 -15l-19 57z" />
    <glyph glyph-name="k" unicode="k" horiz-adv-x="649" 
d="M18 0c-21.333 2 -32.001 12.002 -32.001 30.002c0 15.333 10 26.333 30 33s32.667 16.667 38 30c2 5.33301 3 22.666 3 51.999c0 97.333 5 193.666 15 288.999l-36 108l20 6c0 22.667 -10.167 38.167 -30.5 46.5s-30.5 19.166 -30.5 32.499l4 18l3 17l87 35l95 -4l89 25
l-12 16l11 2c6 0 10.667 -5 14 -15c1.33301 -3.33301 2 -8 2 -14v-18v-21l-2 -4l17 -45l-24 -75l26 -81c-11.333 -28 -20 -68.667 -26 -122l6 -10c0 -9.33301 2.33301 -17.666 7 -24.999c8 2 22 12 42 30l-14 16l17 1l20 10l-6 -6c38 38 57.333 60.333 58 67
c0 6 -7.16699 12 -21.5 18s-21.5 15.333 -21.5 28c0 20 11 29 33 27l51 14c34 0 62.833 -2.83301 86.5 -8.5s41.5 -12.834 53.5 -21.501l16 20c22 0 33 -10 33 -30c0 -6.66699 -9 -24.667 -27 -54l-35 29l-27 -41l10 20c-13.333 -3.33301 -27.666 -11.333 -42.999 -24
s-23.666 -24.667 -24.999 -36c0 -10.667 7.33301 -17.334 22 -20.001l2 -71c42 -41.333 70.333 -77.666 85 -108.999l-12 -20c5.33301 -11.333 11 -22.166 17 -32.499s11.333 -18.166 16 -23.499s23 -13.333 55 -24c24.667 -7.33301 37 -19 37 -35
c0 -13.333 -5.66699 -21.333 -17 -24l-32 -6c-18.667 -3.33301 -37.334 -7.33301 -56.001 -12c-5.33301 -0.666992 -11.333 -2 -18 -4c-56.667 0 -105.667 9.33301 -147 28l-16 -12l-23 3l-21 4c0 32.667 -4 68.667 -12 108s-20.667 65 -38 77
c-2.66699 8 -7.66699 15.667 -15 23c-6 0 -13.667 -4.66699 -23 -14l-10 8l-6 -13l10 -48l10 -11l-32 -6c26.667 -18.667 47.667 -41.334 63 -68.001c18.667 -6 28 -17 28 -33s-11.667 -30.667 -35 -44l-117 14l-90 -16l-117 30z" />
    <glyph glyph-name="l" unicode="l" horiz-adv-x="346" 
d="M298 513c0 -20.667 -5.33398 -52.834 -16.001 -96.501s-16 -74.834 -16 -93.501c0 -24.667 2 -57 6 -97l10 -97l6 16c0 -28 1.66699 -47 5 -57s14.333 -18.167 33 -24.5s28 -17.5 28 -33.5c0 -14.667 -6.66699 -22 -20 -22c-6 0 -13 2 -21 6l-71 -32
c-81.333 10 -155.666 23.333 -222.999 40l6 -22c-22 0 -33 10 -33 30c0 14.667 9.16699 25.334 27.5 32.001s29.5 17.167 33.5 31.5s12 28.5 24 42.5c0 14 -1.16699 31.667 -3.5 53s-5.83301 51.333 -10.5 90c0 9.33301 -3.66699 28.666 -11 57.999l-7 58
c0 14.667 0.333008 26 1 34s3 23 7 45l14 80l-10 -6c0 20.667 -10 35.834 -30 45.501s-30 20.834 -30 33.501l1 9l1 10c0 6 -2.33301 11.333 -7 16l101 7c14.667 9.33301 44.834 22.833 90.501 40.5s76.167 26.5 91.5 26.5c7.33301 0 11.666 -5 12.999 -15z" />
    <glyph glyph-name="m" unicode="m" horiz-adv-x="1008" 
d="M293 505l-2.00195 -34.0029l-2 -34l10 -51l-6 20l4 -6l7 4c8 10.667 17.333 27.667 28 51c46.667 29.333 99 49 157 59l76 -28l26 -37l6 -21c2.66699 -10 6.33398 -15.333 11.001 -16c4.66699 4.66699 8 8.66699 10 12l6 -4l-8 17c3.33301 6 13 15 29 27l33 25l81 22
l138 -51l26 -104l29 -78l17 -149l12 16c2 -12 8 -30 18 -54c6 -10.667 19.667 -20.334 41 -29.001c16.667 -6 25 -16.667 25 -32c0 -16 -7.66699 -24 -23 -24l-14 2l-110 -20l-79 28l-106 -16c-21.333 0 -32 10 -32 30c0 14 8.33301 24.5 25 31.5s25 16.5 25 28.5
c0 8.66699 -1 18.167 -3 28.5s-5.66699 22.166 -11 35.499l-23 61l8 26l-33 54h16c-8 33.333 -24.333 50 -49 50c-22 0 -33 -12 -33 -36l3 -20c-10 -20.667 -18.667 -48.667 -26 -84l32 -48l-34 2l-2 -26l40 -35l-12 12l-8 -2c0 -20 10.667 -34.167 32 -42.5
s32 -20.166 32 -35.499c0 -25.333 -22.667 -38 -68 -38l-26 1l-18 1c-9.33301 0 -23.333 2.33301 -42 7l-42 7l-96 -10c-10 -0.666992 -19.667 1.66602 -29 6.99902c-8 6 -12.333 14.333 -13 25c0 12.667 9.66699 23.334 29 32.001c7.33301 2.66699 15 12.334 23 29.001
l16 37c-16.667 32 -28 74.333 -34 127l40 30l-20 10c0 34.667 -22.333 54.334 -67 59.001c-7.33301 -28 -13.666 -61.333 -18.999 -100c-3.33301 -4.66699 -6 -9 -8 -13c-7.33301 -12 -15.333 -26 -24 -42l-2 -40l14 -14c0 -26 1 -44.667 3 -56s11.667 -21 29 -29
c14.667 -6 22 -16 22 -30c0 -11.333 -4 -22 -12 -32l-134 14c-14.667 0 -39 -3.66699 -73 -11l-81 -13l-14 12c-22 0 -33 10 -33 30c0 12 8.16699 22 24.5 30s27.166 18.333 32.499 31l12 45l-22 67l24 62l-24 77l14 -10c0 20.667 -10.167 35.834 -30.5 45.501
s-30.5 20.834 -30.5 33.501c0 16.667 7 25 21 25c66.667 42.667 148.334 64 245.001 64v18l12 2c8 0 12.667 -5 14 -15z" />
    <glyph glyph-name="n" unicode="n" horiz-adv-x="721" 
d="M295 505l-14 -11.0029l34 -44v-25l-20 -14l3 -8l-15 5l41 7l20 28l-3 11l-8 -8l52 65l105 12l68 -13l58 -48l37 -114l-9 -69c0 -19.333 3.5 -43.333 10.5 -72s15.5 -49.667 25.5 -63h12c2 -12 8 -30 18 -54c6 -9.33301 20 -18.666 42 -27.999
c18 -7.33301 27 -18.333 27 -33c0 -8 -4 -16 -12 -24c-7.33301 -6 -15.333 -9.66699 -24 -11c-3.33301 0 -18.833 0.833008 -46.5 2.5s-47.5 2.5 -59.5 2.5l-105 3l-87 -14l-2 12c-21.333 0 -32 10 -32 30c0 13.333 8.66699 23.5 26 30.5s26 20.5 26 40.5
c0 10 4.33301 19.667 13 29l-40 48l-12 108l-10 6l-5 32l-34 43l-67 -68l3 -39l-30 -26l30 -34l-26 -74l18 18l-2 6l16 -40v-8l-22 6c0 -20 10.833 -34.167 32.5 -42.5s32.5 -20.5 32.5 -36.5c0 -14.667 -7.33301 -22 -22 -22c-7.33301 0 -14.666 1.66699 -21.999 5l-98 -14
l-95 4l-97 4l8 -6c-22 0 -33 10 -33 30c0 14.667 10.333 26.167 31 34.5s31 22.166 31 41.499l-13 101c9.33301 14.667 16.666 31.834 21.999 51.501s8 42.834 8 69.501l-16 4c0 20.667 -10.333 35.834 -31 45.501s-31 20.834 -31 33.501c0 5.33301 5 17.666 15 36.999
l69 35l82 -6l119 45l-18 -4l12 2c5.33301 0 10 -5 14 -15z" />
    <glyph glyph-name="o" unicode="o" horiz-adv-x="724" 
d="M22 245l12.002 12.999l-7 81c13.333 27.333 38.666 57.333 75.999 90c13.333 12 45 37 95 75c34.667 3.33301 86 16 154 38c35.333 -5.33301 68.166 -12 98.499 -20s63.5 -19 99.5 -33l54 -78l64 -23c16.667 -25.333 28.667 -52.166 36 -80.499s11 -58.5 11 -90.5
l-20 -60l-83 -69c-33.333 -28 -58.333 -53.667 -75 -77c-28 -7.33301 -57.833 -13.333 -89.5 -18s-61.5 -7 -89.5 -7c-10.667 0 -33.167 4.33301 -67.5 13s-61.5 13 -81.5 13l-25 -1l-62 29l-56 70zM316.002 447.999l-12 17.999l-45 -39
c-7.33301 -22.667 -12.666 -47 -15.999 -73l-7 -56c14.667 -53.333 29.667 -93.666 45 -120.999c14.667 -24 43 -56.667 85 -98l32 -13l65 52l-9 27l9 82c-20.667 72 -35.334 116.333 -44.001 133c-28 58.667 -62.333 88 -103 88z" />
    <glyph glyph-name="p" unicode="p" horiz-adv-x="697" 
d="M309 464l5.99707 6.99805l-28 -43l18 2c0 -4.66699 0.666992 -8.33398 2 -11.001c3.33301 2.66699 11 16.334 23 41.001c15.333 11.333 38.833 20.333 70.5 27s60.5 10 86.5 10c18.667 -4 50.334 -15 95.001 -33l60 -115c16 -36 28.667 -78.667 38 -128
c0 -18.667 -4.33301 -39.334 -13 -62.001s-21 -46.667 -37 -72c-30 -48.667 -62 -83.667 -96 -105l-89 22l-64 -20c-14.667 22 -39.667 51 -75 87l-24 -54l30 1l-2 -52l-6 12c0 -28 1.5 -46.5 4.5 -55.5s15.5 -17.5 37.5 -25.5c19.333 -6 29 -17 29 -33
c0 -14 -5 -21 -15 -21c-3.33301 0 -7.66602 2 -12.999 6l-109 -36l-115 36l-101 -26l12 12c-22 0 -33 10 -33 30c0 14 10 25 30 33c19.333 6.66699 32 15.667 38 27c3.33301 8.66699 5 26.667 5 54l-16 19c0 7.33301 0.333008 24.333 1 51s1 50 1 70
c0.666992 8 5.66699 22.667 15 44c8 20.667 13 35.334 15 44.001l4 68v69l-20 -12c0 20.667 -10.167 35.834 -30.5 45.501s-30.5 20.834 -30.5 33.501c0 10 2.33301 15 7 15c4.66699 -2 9.33398 -5.33301 14.001 -10c60 27.333 120 58.333 180 93l83 3l-18 6l12 2
c7.33301 0 13 -7.66699 17 -23zM412.997 408.998l16 7.99902l-99 -27l-36 -119l29 -2l-25 -26l1 -8l2 2l-2 -10l4 -7l13 -85l51 -24l45 48c6 6.66699 22 22.334 48 47.001l43 105c-21.333 40 -51.333 72.667 -90 98z" />
    <glyph glyph-name="q" unicode="q" horiz-adv-x="679" 
d="M432 449l64 40l35 -7l82 52l-8 -18l10 1l13 -2h15l4 -181c0 -19.333 -2 -49.333 -6 -90s-6 -71.334 -6 -92.001l4 -189l-6 34c10 -53.333 21.667 -86.666 35 -99.999c18.667 -6 28 -16.667 28 -32c0 -9.33301 -4.33301 -17.333 -13 -24s-18.334 -10.667 -29.001 -12
l-46 2l-45 2l-65 -1l-63 -2l-93 2l12 4c-22 0 -33 10 -33 30c0 14 10.333 24.667 31 32s33.334 16.333 38.001 27l23 84l-26 20l-10 33h18l-3 8l-7 -4l-40 -43l-99 -41l-99 7l-63 37c-20 34 -37 80.333 -51 139l9 75l-26 64l50 111c40.667 34 84 68.333 130 103l69 -18
l43 12c12 -4 24 -8.5 36 -13.5l27 -11.5c30.667 -14 51 -26.667 61 -38zM407 222l-26.999 29l-1 37l31 9l-20 -16l-16 78c-20.667 21.333 -55.334 47 -104.001 77l-53 -56c0 -18.667 7.66699 -59.667 23 -123c9.33301 -48.667 15.666 -90 18.999 -124
c16.667 0 40.334 -1 71.001 -3s53 -3 67 -3c0 13.333 0.666992 25.5 2 36.5s4 30.5 8 58.5z" />
    <glyph glyph-name="r" unicode="r" horiz-adv-x="453" 
d="M294 505l-18.002 -1.99902c8 -24 20 -43.667 36 -59l-18 -12l3 -6c2.66699 2 7 8.33301 13 19c11.333 22 27.833 40 49.5 54s44.834 21 69.501 21c40.667 0 61 -8.66699 61 -26l-24 -71c-16 -45.333 -25 -72.666 -27 -81.999c-4 -21.333 -13.667 -32 -29 -32
c-10 0 -19 8 -27 24c-10 19.333 -18.667 31.333 -26 36l-41 4l-25 -91l14 -50l-16 -75l6 -12c0 -28.667 1.5 -47.334 4.5 -56.001s15.167 -16.834 36.5 -24.501s32 -19.167 32 -34.5c0 -14 -7 -21 -21 -21c-7.33301 0 -16.666 2.33301 -27.999 7h-87l-106 -38l-85 10l-16 12
c-22 0 -33 10 -33 30c0 13.333 9 23.666 27 30.999c20.667 7.33301 33.667 17 39 29c3.33301 8.66699 5 26.667 5 54c0 19.333 -6.33301 40.666 -19 63.999l36 68l-24 52l8 4c0 20.667 -10.333 35.834 -31 45.501s-31 20.834 -31 33.501l4 24l5 23l97 -5l58 54l105 9l-2 2
l11 2c7.33301 0 12 -5 14 -15z" />
    <glyph glyph-name="s" unicode="s" horiz-adv-x="638" 
d="M388 345c14.667 -4 25.0029 -9.33203 31.0029 -15.999l42 1l-32 6l64 -28c12 -16.667 39.667 -39.334 83 -68.001c38.667 -26 62 -47.333 70 -64c-30 -60.667 -60 -108.334 -90 -143.001c-56 -18 -107 -37 -153 -57l-22 -1c-24 0 -56.167 6.5 -96.5 19.5
s-68.833 19.5 -85.5 19.5c-10 0 -19.667 -7.66699 -29 -23c-8 -15.333 -18.333 -23 -31 -23c-10.667 0 -16.334 1.33301 -17.001 4l2 2c-14 28.667 -27.5 53.334 -40.5 74.001s-27.167 40.334 -42.5 59.001l-7 40l-18 -2c-4 10 -6.66699 19.667 -8 29c0 18 9 27 27 27
c7.33301 0 26.166 -13.833 56.499 -41.5s52.833 -41.5 67.5 -41.5c4.66699 0 8.33398 0.666992 11.001 2l67 -60l91 6c32 6.66699 53.333 25 64 55l-57 -4l-67 32c-8 19.333 -23 36.333 -45 51l-26 -18l34 -10c-28.667 6.66699 -60.334 17.667 -95.001 33
c-41.333 18 -69.333 36.333 -84 55l-35 72l15 55l-15 60c18 3.33301 56.167 16.833 114.5 40.5s94.166 35.5 107.499 35.5c19.333 0 46 -5.16699 80 -15.5s58.333 -15.5 73 -15.5c12.667 0 23 9.16699 31 27.5s19 27.5 33 27.5c10.667 0 18.667 -4.66699 24 -14l16 -26
l35 -45l10 -39l29 -41l4 4c6 -10.667 9.66699 -19.334 11 -26.001c0 -16.667 -8 -25 -24 -25l-22 4l-23 6l-38 37l-85 32c-44 15.333 -72 23 -84 23c-36 0 -54 -11.333 -54 -34c0 -10.667 19 -23 57 -37l73 -23l3 14v-12z" />
    <glyph glyph-name="t" unicode="t" horiz-adv-x="428" 
d="M298 504l36 16l74 -2l28 -32l6 18c6 0 10 -2 12 -6c1.33301 -6 5.33301 -10 12 -12l-1 -33l-40 15l-9 -45l14 6c-2 -6.66699 -6.33301 -10.334 -13 -11.001l-41 15l-38 -18c-24 0 -40.333 -3.33301 -49 -10l-6 -95c0 -8.66699 2.33301 -20.334 7 -35.001l9 -35l4 -79
l-6 -28l9 -57l44 4c16.667 0 37.5 7.16699 62.5 21.5s39.833 21.5 44.5 21.5c16 0 25.333 -6.33301 28 -19v-36c0 -9.33301 1.66699 -18.666 5 -27.999c-24.667 0 -53.167 -7 -85.5 -21s-59.166 -29.667 -80.499 -47l-106 -8l-58 37l-104 18l-2 54
c0 9.33301 2 19.666 6 30.999l-13 51l7 73c22.667 28.667 34 60.667 34 96l-32 87l12 -12c0 10 -11 18 -33 24l-10 -28l-22 6l-4 12l6 2c-18 0 -27 10 -27 30c0 4.66699 1.5 11.334 4.5 20.001s9.16699 22.334 18.5 41.001c40 36 98.667 62 176 78l36 61
c22 32 40.333 48 55 48c17.333 0 30 -17.667 38 -53l-8 -43l-22 -34c5.33301 -18 12.666 -37.667 21.999 -59z" />
    <glyph glyph-name="u" unicode="u" horiz-adv-x="679" 
d="M394 52l-3.00293 5.99707c-12.667 -10.667 -33.334 -25 -62.001 -43l-56 2l-43 -45l-77 40c-28 16.667 -51.667 33 -71 49l-31 99c0 14.667 2.33301 34.667 7 60l7 60l-2 52h-6c0 20.667 -10 35.834 -30 45.501s-30 20.834 -30 33.501c0 13.333 7.33301 20 22 20
c4 -0.666992 7 -1 9 -1c22.667 20 58.834 37.833 108.501 53.5s85.834 31.834 108.501 48.501l18 -14l12 2c6 0 14.333 -8.33301 25 -25l4 -117v-90l-6 -60c-4 -33.333 -8 -53 -12 -59l13 -61l43 -9c20.667 0 41.334 13.333 62.001 40l-28 68l16 85l-18 32l18 8
c0 22 -10.167 37.167 -30.5 45.5s-30.5 19.5 -30.5 33.5c0 3.33301 1.66699 9.66602 5 18.999s7.33301 19.333 12 30l97 -7c24.667 0 54 5.5 88 16.5s61 23.833 81 38.5l-16 10l11 2c2 0 3.5 -0.333008 4.5 -1s1.83301 -1.33398 2.5 -2.00098
c-2 -5.33301 -5.66699 -10.666 -11 -15.999l22 -118c-16.667 -65.333 -25 -131 -25 -197l1 -42h20c0 -34 6.33301 -57.667 19 -71c2.66699 -2 14.667 -6.66699 36 -14c12.667 -4 19 -14 19 -30c0 -8.66699 -2.33301 -15.667 -7 -21
c-1.33301 -1.33301 -2.66602 -2.5 -3.99902 -3.5s-2.33301 -0.5 -3 1.5l-112 -28l-91 24l-27 -2l-27 -2c-24 0 -36 4.33301 -36 13c2.66699 2.66699 4 16.334 4 41.001z" />
    <glyph glyph-name="v" unicode="v" horiz-adv-x="576" 
d="M-54 472c0 15.333 16.001 30.999 48.001 46.999c70 -24 139.333 -36 208 -36c9.33301 0 16.666 0.333008 21.999 1s15.333 3 30 7l52 12h-10c22 0 33 -10.333 33 -31c0 -12.667 -4 -20.667 -12 -24c-7.33301 -2 -12 -3.5 -14 -4.5l-7 -3.5
c-7.33301 -6 -11 -21.667 -11 -47c0 -10 -0.666992 -18.667 -2 -26s-2.33301 -13.333 -3 -18l48 -20l-16 -65l36 6l-4 -20c0.666992 -4 4 -7.33301 10 -10c5.33301 0.666992 10 -2 14 -8l11 62c10.667 4.66699 25.334 20.334 44.001 47.001l-22 18
c9.33301 28 14.666 46.667 15.999 56c0 12.667 -7.33301 22 -22 28s-22 15.667 -22 29c0 9.33301 4.33301 18 13 26c8 6 17.667 9.66699 29 11l35 -3l36 -5l100 -4l12 6c21.333 0 32 -10.333 32 -31c0 -10 -9 -20.5 -27 -31.5s-29.667 -20.167 -35 -27.5l-14 -45l-39 -120
c-4.66699 -9.33301 -9.16699 -17.666 -13.5 -24.999s-11.5 -18 -21.5 -32l-39 -55l-22 -139l-14 18l-6 -13h4l-94 6l-23 -24l-44 -6l-16 22c-11.333 0 -17 2.66699 -17 8s2.66699 13.666 8 24.999l-90 118c-6.66699 26.667 -13.667 50.334 -21 71.001
c-1.33301 2.66699 -9 21.667 -23 57c-24 63.333 -45.333 107.666 -64 132.999c-6.66699 10 -22 19.333 -46 28c-18 6 -27 16.667 -27 32z" />
    <glyph glyph-name="w" unicode="w" horiz-adv-x="971" 
d="M376 302l16 5.00098l-14 38l10 21l12 -8c11.333 28 17.666 47.333 18.999 58c0 10.667 -7.5 19.167 -22.5 25.5s-22.5 16.5 -22.5 30.5c0 16.667 7 25 21 25c8.66699 0 22 -2.33301 40 -7l41 -7l108 6l42 24l20 -10c22 0 33 -10.333 33 -31
c0 -12.667 -7.16699 -22.167 -21.5 -28.5s-21.5 -15.166 -21.5 -26.499c0 -12.667 7.66699 -25.667 23 -39c0 -16 4 -40 12 -72c2.66699 -8.66699 5.83398 -20.667 9.50098 -36s6.16699 -28 7.5 -38l16 8l8 -6c4 0 8.33301 2.33301 13 7l34 84l26 15l-8 18
c13.333 30.667 20.666 50.667 21.999 60c0 10.667 -7 18.834 -21 24.501s-21 15.5 -21 29.5c0 13.333 10 27.666 30 42.999l80 2l49 -33l82 6l-6 12c22 0 33 -10 33 -30c0 -14 -8.33301 -24.333 -25 -31c-21.333 -7.33301 -36.5 -16.833 -45.5 -28.5
s-21 -36.834 -36 -75.501s-26.167 -64 -33.5 -76l-83 -125c-3.33301 -8.66699 -9.5 -23 -18.5 -43l-28.5 -62c0 -5.33301 -1.16699 -10.666 -3.5 -15.999s-4 -8.83301 -5 -10.5s-1.83301 -2.5 -2.5 -2.5l-77 2l-20 -18l-72 22l12 -8c-13.333 0 -23.666 8 -30.999 24l-6 19.5
c-2 6.33301 -4.66699 13.833 -8 22.5l-71 107l8 22l-9 7l-15 -7v-77c-21.333 -12.667 -49.666 -46.667 -84.999 -102l16 2c-4 -7.33301 -8 -12.666 -12 -15.999l-23 -2l-54 10l-21 -19l-82 -12l20 22c-8 0 -12.667 2 -14 6l7 19c-26.667 37.333 -54 93.666 -82 168.999
c-32 86.667 -56.333 145 -73 175l-16 -12c-13.333 30 -22 47.667 -26 53c-10 14 -25.667 25 -47 33c-11.333 4 -17 13.333 -17 28c0 13.333 6.33301 21.333 19 24h33l161 1l96 10c12 1.33301 23.167 -1.33398 33.5 -8.00098s15.5 -15.667 15.5 -27
c0 -12.667 -6.66699 -21.834 -20 -27.501s-20 -14.167 -20 -25.5l2 -40l2 -41c2 -15.333 13 -34 33 -56c23.333 -24.667 37.666 -42 42.999 -52l-12 10c2 -4.66699 5.33301 -7.33398 10 -8.00098l2 2l-7 -2c14.667 14.667 29 32.334 43 53.001l-16 35z" />
    <glyph glyph-name="x" unicode="x" horiz-adv-x="686" 
d="M-22 0c-21.333 0 -32 10.0039 -32 30.0039c0 14.667 9.66699 25.334 29 32.001c31.333 10 53.333 20 66 30l49 54c0 10 2.5 22.167 7.5 36.5s12.833 30.833 23.5 49.5l46 26l8 14c0 5.33301 4.66699 11.333 14 18c-39.333 21.333 -63 40.333 -71 57l-14 -3l-2 14l-46 48
c-18 16 -36.667 27.167 -56 33.5s-29 17.166 -29 32.499c0 14 4 21 12 21c1.33301 -0.666992 2.83301 -1.33398 4.5 -2.00098s3.5 -2.33398 5.5 -5.00098l138 8c11.333 0 26.666 -2.33301 45.999 -7c21.333 -4 37 -6 47 -6l154 14l-16 8c22 0 33 -10.333 33 -31
c0 -15.333 -10 -25.666 -30 -30.999l-2 -9c0 -8.66699 9.5 -24.834 28.5 -48.501s31.833 -36.5 38.5 -38.5c4 2 7.33301 4.66699 10 8l23 33c9.33301 14.667 14.666 26.667 15.999 36c0 8 -7.33301 15 -22 21s-22 15.667 -22 29l3 16c2 8 5 12 9 12l87 -17l62 28l89 -8
c22 0 33 -10.333 33 -31c0 -13.333 -9.66699 -23.333 -29 -30s-35 -17.334 -47 -32.001l-33 -43l-54 -63l-26 -66v20l-7 -13l6 -31l51 -18l7 -6l5 -46h20l46 -47c16.667 -14.667 35 -26.334 55 -35.001c19.333 -6 29 -17 29 -33c0 -14.667 -5.66699 -22 -17 -22
c-4 0 -8.66699 1.66699 -14 5l-121 2c-54 0 -101.833 -1 -143.5 -3s-82.167 -5.66699 -121.5 -11h20c-22 0 -33 10 -33 30c0 11.333 10 22 30 32c4 4 6 8 6 12c0 10 -20.667 31.333 -62 64l24 3l-21 23l-8 3l-4 -2l-7 5c-4 -2.66699 -14.167 -16 -30.5 -40
s-25.166 -40 -26.499 -48c0 -7.33301 8 -14.666 24 -21.999c16.667 -6 25 -16 25 -30c0 -14.667 -4.66699 -22.334 -14 -23.001c-3.33301 2 -5.66602 3.66699 -6.99902 5l-107 -32c-19.333 6 -40.5 11.667 -63.5 17s-48.167 10.333 -75.5 15z" />
    <glyph glyph-name="y" unicode="y" horiz-adv-x="579" 
d="M-54 474c0 16 15.334 29.001 46.001 39.001l98 -20c48 18.667 111.333 28 190 28l10 -18c21.333 0 32 -10.333 32 -31c0 -13.333 -6.5 -22.166 -19.5 -26.499s-19.5 -12.5 -19.5 -24.5c0 -11.333 3.16699 -29.333 9.5 -54s9.5 -42 9.5 -52l11 5l6 -48l16 10l8 -5
c1.33301 6.66699 2 12.667 2 18l21 6l10 26l-3 32h14c16 33.333 24.667 55.333 26 66c0 8 -6.16699 14.833 -18.5 20.5s-18.5 14.5 -18.5 26.5c0 16.667 7.66699 25 23 25c9.33301 0 24 -2 44 -6l44 -10l38 36h70l6 -14c22 0 33 -10.333 33 -31
c0 -10.667 -2.66699 -17.667 -8 -21l-22 -10c-25.333 -8.66699 -50 -37.334 -74 -86.001l-57 -117c-24.667 -37.333 -56.667 -90.666 -96 -159.999c-4 -8.66699 -8 -18.5 -12 -29.5s-8.66699 -25.5 -14 -43.5l-23 -74l-2 8l-43 -70l-56 -44l-84 -3l-56 7l-56 43l-7 130
l-6 -18l-2 14c0 20.667 11 31 33 31c11.333 0 26.666 -9.33301 45.999 -28l1 -64l30 11l57 -3l25 70c1.33301 3.33301 0.833008 7.5 -1.5 12.5s-5.5 7.5 -9.5 7.5l-16.5 53.5c-7.66699 24.333 -15.834 48.166 -24.501 71.499c-4.66699 12 -21.667 41 -51 87
c-19.333 33.333 -34.666 68.666 -45.999 105.999l-22 6l-16.5 30.5c-5 9.66699 -9.16699 16.5 -12.5 20.5c-11.333 15.333 -26.333 27 -45 35c-11.333 4 -17 13.667 -17 29z" />
    <glyph glyph-name="z" unicode="z" horiz-adv-x="629" 
d="M4 0c-20 0 -29.9961 13.333 -29.9961 40l2 5c2 0 3.33301 -0.333008 4 -1l142 192c56.667 72.667 111 130 163 172l8 2l6 9c-5.33301 4 -8 12.667 -8 26c-34 0 -63.5 -2.5 -88.5 -7.5s-50.167 -15.167 -75.5 -30.5l-39 -56c-20.667 -24.667 -39.667 -37 -57 -37
c-16.667 0 -25 9 -25 27l9 14c6.66699 9.33301 17 22.666 31 39.999l-2 80l56 43l-6 2c4 10.667 12.333 16 25 16c8.66699 0 18.667 -5.33301 30 -16c11.333 -9.33301 22.666 -14.666 33.999 -15.999c10 0 32.5 0.833008 67.5 2.5s61.833 2.5 80.5 2.5l147 4h121l10 -14
c10 0 16.333 -3.66699 19 -11l5 -22l4 5c-14 -12 -31.333 -28.333 -52 -49l-70 -72c-6 -8 -12.5 -17.833 -19.5 -29.5l-27.5 -46.5c-18.667 -34.667 -33.334 -59.5 -44.001 -74.5s-26.334 -32.833 -47.001 -53.5l-49 -48h-12l-5 -8c1.33301 -4 2.66602 -6 3.99902 -6h8l8 1
l98 -6l80 40l53 45l19 27c7.33301 9.33301 17 14 29 14c19.333 0 29 -10.667 29 -32l-6 -31l-31 -20l-26 -87l-25 -32v-16c-8 -17.333 -18.667 -26 -32 -26c-8 0 -17.5 5.33301 -28.5 16s-18.833 16 -23.5 16c-4 0 -9 -3.33301 -15 -10l-32.5 3.5
c-9 1 -23.167 3.5 -42.5 7.5c-31.333 4 -56.333 6 -75 6l-74 -4l-74 -5c-10 0 -20.333 0.666992 -31 2s-26.667 4.33301 -48 9l-81 16z" />
    <glyph glyph-name="braceleft" unicode="{" horiz-adv-x="397" 
d="M29 360l-5.99707 12.002l53 7l38 57c-12 86 -18 152.333 -18 199l14 115l-32 -28l44 103l61 39l62 -18l27 -24l88 34l-40 -8v-27l18 -44l12 -11l-12 -10c-28 0 -47.333 -5.33301 -58 -16s-17.334 -28.667 -20.001 -54l-7 -83l18 -76v-50.5
c0 -17.667 0.333008 -36.167 1 -55.5l-65 -55l-27 -6c3.33301 0 5.83301 -0.166992 7.5 -0.5s3.16699 -0.833008 4.5 -1.5l-5 2l81 -50l1 -52c0 -8 -3 -22.333 -9 -43s-9 -35.334 -9 -44.001c0 -10 2 -25.833 6 -47.5s6 -37.834 6 -48.501l-4 -63h10
c0 -32 18.667 -48 56 -48l31 12l-38 -23c4 -21.333 11.333 -45 22 -71l-34 18l-66 -9c-10 -2 -21.333 -3.33301 -34 -4s-22.334 -1 -29.001 -1l-71 39c-0.666992 4.66699 -2 19.667 -4 45s-3 53.333 -3 84c0 27.333 -1.33301 51.333 -4 72s-6.33398 39.667 -11.001 57
c16 58 24 95 24 111l-38 45z" />
    <glyph glyph-name="bar" unicode="|" horiz-adv-x="218" 
d="M29 0l-0.999023 232l-1 232c0 37.333 2.33301 80.666 7 129.999c0 22.667 1.5 46.334 4.5 71.001s5.16699 44.334 6.5 59.001l-18 4l38 2l52 -28l56 18l-14 -8c3.33301 -40.667 6.66602 -90.834 9.99902 -150.501s5 -116.167 5 -169.5l1 -390l-12 18
c-14 -8 -36.667 -12 -68 -12l-54 12z" />
    <glyph glyph-name="braceright" unicode="}" horiz-adv-x="397" 
d="M39 -95l-30 44l6 23l14 -8h13c21.333 0 36.666 6 45.999 18c6.66699 8.66699 10 24.667 10 48l-20 53c12 118 27 195.667 45 233l38 38l26 6l-26 2l-52 19l7 79l-30 95l14 78l-24 61l22 14c0 32 -18.667 48 -56 48l-13 -4l-2 17c0 13.333 8 39 24 77l-38 6l70 -10l45 8
l34 -12l-8 -12l74 1l65 -85c0 -10 -1.33301 -54.5 -4 -133.5s-4 -134.5 -4 -166.5l4 -16l-5 -45l40 -11l-26 -15c0 -7.33301 -1.66699 -19 -5 -35s-7.66602 -34.333 -12.999 -55c-10 -40 -15 -66 -15 -78c0 -34 1 -67.5 3 -100.5s5.66699 -69.833 11 -110.5l-20 6l-7 -89
l-99 -9c-40 -4 -72 -11.333 -96 -22l-32 4c2 8 3.5 13.5 4.5 16.5s4.16699 10.5 9.5 22.5z" />
    <glyph glyph-name="asciitilde" unicode="~" horiz-adv-x="482" 
d="M40 784l-12.9971 -5.00098c-18 0 -27 9 -27 27c0 22.667 13.333 48.667 40 78c3.33301 4 9.66602 10.5 18.999 19.5s24.666 22.5 45.999 40.5c4.66699 0 35 9 91 27c90 -48.667 149.333 -73 178 -73c14 0 26.667 3.33301 38 10l-3 28l38 -21l-3 48l-6 -18
c2 4 7.33301 6 16 6c18 0 27 -10 27 -30c0 -38 -11 -74 -33 -108l-29 -27l-88 -30l-27 29c-20.667 2 -47 8 -79 18l-77 24c-8 1.33301 -15.667 2 -23 2h-11l-34 -2c-8 0 -17 1.33301 -27 4c0 -7.33301 -1.33301 -15.666 -4 -24.999s-6.33398 -19.333 -11.001 -30l-8 6z" />
    <glyph glyph-name="nonbreakingspace" unicode="&#xa0;" 
 />
    <glyph glyph-name="exclamdown" unicode="&#xa1;" horiz-adv-x="325" 
d="M304 97c2 -7.33301 6.33301 -14.332 13 -20.999l-21 -62l-40 6l-107 -22l-63 15l-45 66v6l-4 29c12.667 85.333 23 146.666 31 183.999c15.333 69.333 35 128 59 176l-10 -6c1.33301 6 3.66602 9 6.99902 9c5.33301 -2 10.333 -6.33301 15 -13l42 34l31 -36l22 14l-20 6
c10 0 16.333 -2.33301 19 -7l6 -20c14.667 -64.667 25.834 -128.167 33.501 -190.5s11.5 -116.833 11.5 -163.5zM175 736.001l31.999 2l71 -39l14 -49c1.33301 -5.33301 -2 -22.333 -10 -51s-14.667 -45.334 -20 -50.001l-87 -15
c-5.33301 -1.33301 -8.66602 -2.66602 -9.99902 -3.99902l3 -5l-77 15l-33 81c0 54 17.333 95.333 52 124l30 -26l29 19z" />
    <glyph glyph-name="cent" unicode="&#xa2;" horiz-adv-x="589" 
d="M370 519l18.002 43.999l-28 -18l8 56l-12 -28l34 34l25 -22l-10 -22v-21l20 -41l-16 14l57 4c80 -43.333 120 -71.666 120 -84.999c-2.66699 -2.66699 -5 -4 -7 -4l-15 4l-13 -79l12 -21l1 -29l-20 -12c-6 -18.667 -16.667 -28 -32 -28c-13.333 0 -21.5 3.5 -24.5 10.5
s-4.5 19.167 -4.5 36.5c0 6.66699 -7 11.667 -21 15l-2 81l-75 15v-226c0 -16 2.33301 -36.667 7 -62l3.5 -27.5c1 -7.66699 3.5 -19.5 7.5 -35.5l2 2c19.333 6 28 14 26 24l55 35l30 46c16.667 22.667 31 34 43 34c20 0 30 -11.667 30 -35
c0 -8.66699 -8.33301 -44 -25 -106c-15.333 -9.33301 -35.833 -21.166 -61.5 -35.499s-61.834 -33.5 -108.501 -57.5l-2 -27l22 -23l-28 -13h10c-11.333 -6 -21 -9.33301 -29 -10l-18 10l32 -8l-14 42l22 -3l-16 46l14 5l-129 -29l-46 43l-86 5
c-20.667 20.667 -41.334 56.167 -62.001 106.5s-38.667 85.166 -54 104.499c17.333 114 81 209.333 191 286l70 -4zM370.002 74.999l10 71c4 28 6 51.333 6 70l-26 116l28 105l-62 -26l-82 -111l19 -51l-15 -79c21.333 -18 38 -50 50 -96z" />
    <glyph glyph-name="sterling" unicode="&#xa3;" horiz-adv-x="798" 
d="M241 328l-78.9951 2c-32 0 -57.333 5.33301 -76 16l4 -12l32 17l-20 46v37l10 -20l7 16l36 -10l35 10l6 -10c-6 16 -13.667 43.333 -23 82s-18.333 66.667 -27 84l36 71c35.333 22 81 39.333 137 52l144 31c58 -14 93.667 -21 107 -21c8.66699 0 19.667 3.83301 33 11.5
s22.333 11.5 27 11.5c2 0 5.83301 -1.5 11.5 -4.5s15.167 -10.167 28.5 -21.5c9.33301 -16.667 21.666 -47.667 36.999 -93c12.667 -40.667 26 -71.334 40 -92.001l2 2c4 -8 6.66699 -16.333 8 -25c0 -4 -3.83301 -8.33301 -11.5 -13s-14.5 -7 -20.5 -7
c-17.333 0 -26 8 -26 24l-30 16l-15 26h-46l26 -2l-61 75l-86 33c-27.333 -26 -50.333 -57.333 -69 -94c0 -62 13.667 -107.667 41 -137l52 -6c16.667 0 33 1.33301 49 4s32 7 48 13l32 -34l-28 -10l22 -36l-30 -36l24 4l-169 -20l-2 20l4 -49l-12 -62
c2 -3.33301 9.66699 -8 23 -14c9.33301 -4 15 -10 17 -18l56 -9c11.333 0 22.833 1 34.5 3s21.667 3.83301 30 5.5s18.666 2.83398 30.999 3.50098s23.166 1 32.499 1l29 38c16.667 20 29 30.667 37 32c18 0 36 -14 54 -42l-41 -91c-16 -30.667 -35.667 -58.667 -59 -84
l-59 -36l-113 -9c-6.66699 2.66699 -14.334 5 -23.001 7s-20.334 3 -35.001 3l-61 3l6 12l-49 -3l12 22l-8 2l-60 -45l-73 12l-21 -24h-126l-44 46l1 90l-12 73l66 34l108 10c10.667 0 23.667 -1.33301 39 -4l36 -4c4 0 6.33301 2.66699 7 8c0 6 -6 20.667 -18 44z
M199.005 82c24.667 0 47.333 12.667 68 38c-27.333 16.667 -50 25 -68 25c-28 0 -42 -10.333 -42 -31c0 -21.333 14 -32 42 -32z" />
    <glyph glyph-name="currency" unicode="&#xa4;" horiz-adv-x="979" 
d="M664 244l-61.0029 -3.99707c-12.667 0 -36 4.33301 -70 13s-61.667 13 -83 13h-11l-24 -36c23.333 -26 47 -56.667 71 -92c29.333 -18.667 63.333 -32.334 102 -41.001s81.334 -13 128.001 -13l101 58l53 45l19 22c6 8 14 12 24 12s19.333 -4.33301 28 -13
s13 -18.334 13 -29.001l-6 -23c-2.66699 -10.667 -3.66699 -19 -3 -25l-66 -73c-74 -8 -137.667 -30 -191 -66h-217l-73 40l-98 6c-12 32.667 -28.667 59 -50 79l-53 55l-48 84l-56 -6l-19 14l-68 -18v-18l46 41l-4 48l22 35l-22 -12l68 -10l18 2l2 25
c0 8 -4.66699 11.667 -14 11l-16 12l-52 -22l-28 26l32 13l6 60l18 1l-18 8l24 24c11.333 -9.33301 38.333 -18.666 81 -27.999l-13 6c2 10 5 20.833 9 32.5s9.66699 26.167 17 43.5c2.66699 5.33301 18.334 24.666 47.001 57.999s45.667 51.666 51 54.999l85 44
c13.333 4 50.333 11 111 21l108 13c22 0 54.833 -5.16699 98.5 -15.5s76.167 -15.5 97.5 -15.5c10 0 19 8 27 24s20 24 36 24c12 0 21.667 -5 29 -15c4 -6 8 -17.333 12 -34l38 -33l12 -87l24 -39l-8 -8l6 -26c0 -8 -3.83301 -15.333 -11.5 -22s-16.167 -10 -25.5 -10
c-3.33301 0 -41.666 25 -114.999 75l-43 80c-28 8.66699 -59 15.167 -93 19.5s-71 6.5 -111 6.5l-64 -45l-51 -78l-6 -58l104 -6c12 0 30 3 54 9s42.333 9 55 9l108 -4l4 -8l-28 -45l14 -12l-26 -59l8 32l-64 -10c-26 -4 -47 -6 -63 -6l-49 3l-48 3l-87 -16l-18 10v-8
c0 -11.333 2.33301 -18 7 -20c117.333 -12 187 -18 209 -18l80 14l-10 -4l4 -47l-30 -24v-19z" />
    <glyph glyph-name="yen" unicode="&#xa5;" horiz-adv-x="930" 
d="M276 356c-21.333 49.333 -73.001 112.665 -155.001 189.998c2 17.333 -8 50 -30 98c-46 0 -69 13 -69 39c0 25.333 16.667 38 50 38c5.33301 0 12.666 -0.333008 21.999 -1s20 -2 32 -4l55 -7l116 -1c13.333 0 33 2 59 6l59 10l2 -4c31.333 0 47 -12.333 47 -37
c0 -19.333 -9.5 -31.166 -28.5 -35.499s-28.833 -9.83301 -29.5 -16.5c0 -13.333 17 -37.666 51 -72.999c26 -26.667 47 -45.667 63 -57l20 -73l-12 10c3.33301 -5.33301 8 -9.33301 14 -12l25 7c19.333 34.667 45.333 72 78 112l-10 16c24 36 36 59.667 36 71
c0 6 -9 11.833 -27 17.5s-27 17.167 -27 34.5c0 12 5.66699 22.667 17 32s23.333 14 36 14l60 -3l60 -2l86 -8l-14 2c30.667 0 46 -12 46 -36c0 -6.66699 -2.16699 -13.834 -6.5 -21.501s-9.5 -11.5 -15.5 -11.5c-4 0 -11.333 5.33301 -22 16
c-11.333 -15.333 -36.666 -58.666 -75.999 -129.999c-24.667 -46 -59 -87.333 -103 -124c-2.66699 -22.667 -10 -45.334 -22 -68.001l82 14l35 22l52 -14l26 -30l-20 -2c2 -9.33301 13.333 -25.666 34 -48.999c-3.33301 3.33301 -20 8 -50 14l-51 8
c-6.66699 0 -16.667 -0.333008 -30 -1s-30 -2 -50 -4c-20 0 -36 -0.833008 -48 -2.5s-20.333 -3.83398 -25 -6.50098c-8 -18.667 -18.333 -38 -31 -58l82 22c48 -18.667 93 -28 135 -28h11c4.66699 0 11 0.666992 19 2l18 16l4 -50l-12 -18l10 -16l-6 6l-97 -4l-52 25
c-23.333 -2 -55 -7.33301 -95 -16l-14 7l-4 -34l38 6l-12 -44l-8 14c0 -27.333 10.5 -44.166 31.5 -50.499s31.5 -18.5 31.5 -36.5c0 -19.333 -8.33301 -29 -25 -29c-7.33301 0 -14.333 1.66699 -21 5l-111 -24c-55.333 0 -113.333 7.33301 -174 22l-6 -10
c-31.333 -0 -47 12.333 -47 37c0 18 10 29.667 30 35c19.333 4 31 13.167 35 27.5s6 34.5 6 60.5l8 8l-104 -6l-73 30c-65.333 -16 -100.666 -23.333 -105.999 -22l6 4l14 41l-30 18l2 4l92 -4c84.667 0 149.667 6 195 18l-4 -14l-18 35l-16 -3l-59 38
c-48.667 -23.333 -103.667 -35 -165 -35l-29 1l22 12v42l-14 39l18 10l56 -28l69 14l44 -14z" />
    <glyph glyph-name="brokenbar" unicode="&#xa6;" 
 />
    <glyph glyph-name="section" unicode="&#xa7;" horiz-adv-x="619" 
d="M142 499l3.99902 -7.99805c-32 38 -53.667 76.667 -65 116c10.667 32.667 21.5 61.167 32.5 85.5s20.833 41.833 29.5 52.5c32 15.333 74 25.333 126 30l130 7l81 -23c46 -17.333 69 -35.666 69 -54.999c0 -18 -15 -27 -45 -27h26l-5 -13l-36 8l14 -16
c-1.33301 -0.666992 -4.66602 -3 -9.99902 -7l-17 -13c-10.667 -9.33301 -21.334 -14 -32.001 -14c-12 0 -19.667 8 -23 24c-2 22 -7.66699 41.333 -17 58c-12.667 22.667 -27.667 34 -45 34c-24.667 0 -54.667 -18.667 -90 -56c0 -14.667 6.83301 -30.667 20.5 -48
s28.5 -27.333 44.5 -30l47 -53h46c54 -48 103 -89 147 -123l21 -70l-4 -56c-3.33301 -22.667 -10.666 -39.667 -21.999 -51l-6 -62l-69 -59l42 -46l12 -47l-13 -111l-36 -59l-88 -43l-106 5l-43 -16l-74 15l-58 38c-29.333 22 -44 40.667 -44 56c0 3.33301 11 13 33 29
l45 28l-7 -25l12 38l-11 -13l40 16c8 0 13 -1.66699 15 -5l40 -102c19.333 0 34.833 -1.16699 46.5 -3.5s24.5 -7.5 38.5 -15.5c19.333 41.333 31.333 86.666 36 135.999c-36.667 17.333 -100 39.666 -190 66.999l-74 75l-30 12c-8 53.333 -26 110.666 -54 171.999l13 40
c32 26 53 60 63 102zM451.999 293.002l2 18c-32 7.33301 -64 27.333 -96 60l-23 2l-30 29l-45 -8l16 14l-54 35c-26 16 -42.667 24.667 -50 26c-22 0 -33 -22.333 -33 -67l29 -61l288 -166c18 0 27 13.667 27 41c0 30 -10.333 55.667 -31 77z" />
    <glyph glyph-name="dieresis" unicode="&#xa8;" horiz-adv-x="383" 
d="M1 644h-4l14 50l75 52l79 -52v-48l-33 -69l-44 -17c-34.667 21.333 -63.667 49.333 -87 84zM210 644c4.66699 13.333 7 27.333 7 42l89 52l53 -10l41 -70l-44 -89l-53 -1l-83 9z" />
    <glyph glyph-name="copyright" unicode="&#xa9;" horiz-adv-x="932" 
d="M58 360l9.99707 10l17 81l-8 57l42 97c40.667 40 90.334 76 149.001 108l77 -11c42.667 21.333 93 32 151 32l115 -35c24 -26.667 53.667 -55 89 -85c26 -22 44.833 -43.667 56.5 -65s24.834 -63.333 39.501 -126c0 -19.333 -1.16699 -40.833 -3.5 -64.5
s-5.83301 -52.5 -10.5 -86.5c-18.667 -41.333 -54.667 -114 -108 -218c-57.333 -42.667 -145.666 -72 -264.999 -88c-21.333 4 -52.333 19.167 -93 45.5s-77.667 42.5 -111 48.5l-52 86l-78 57c-11.333 42 -17 94.333 -17 157zM126.997 360l8.00195 -9.99902
c5.33301 -18.667 9.5 -40.667 12.5 -66s4.5 -55 4.5 -89l63 -36l64 -84c3.33301 0.666992 8.66602 1 15.999 1c33.333 0 72.666 -11.667 117.999 -35l87 10c50.667 35.333 101 60 151 74c19.333 27.333 34.333 64.666 45 111.999l27 117l-20 141
c-60 84 -117.667 143.333 -173 178c-103.333 -10 -171 -19.667 -203 -29c-74 -20 -128.667 -57.667 -164 -113c0 -70 -12 -127 -36 -171zM589.999 531.001l-18.999 -2l-30 -19l5 -44c-14.667 11.333 -26.334 17 -35.001 17c-6 0 -11.667 -2.66699 -17 -8l-101 5l-39 -19
c-13.333 -48.667 -25.333 -101.334 -36 -158.001l46 -72c54 -10 85.333 -15 94 -15c40 0 72.667 18.667 98 56l-16 -32l27 -52l22 -4c-26 -20 -47 -30 -63 -30l-10 1l-116 -38l-85 34l-53 97c-21.333 40.667 -32 73.334 -32 98.001c0 36 11.333 75.333 34 118
c19.333 36 43.333 68.333 72 97l63 22c42 0 78.5 -3.83301 109.5 -11.5s58.167 -21.167 81.5 -40.5z" />
    <glyph glyph-name="ordfeminine" unicode="&#xaa;" horiz-adv-x="488" 
d="M38 319l139.999 8c10.667 0 28.334 -4 53.001 -12s43 -12 55 -12l120 4l22 -2l12 -34l-14 2l-6 -38l-58 1l-58 1c-15.333 0 -38 -3 -68 -9l-68 -15l-134 26l-14 -10l40 28l-30 32l28 26zM315.999 668l11.9971 31l8 6l-18 27l18 -22l3 22l33 6h69l-16 -14l13 -252l-2 -114
l-14 16c-8.66699 -5.33301 -23 -11.333 -43 -18c-7.33301 -2 -15.166 -3.83301 -23.499 -5.5s-14.5 -2.5 -18.5 -2.5l-12 30l10 22l-34 17l4 -6l10 10l-4 -11l-44 -42l-96 -11l-75 36c-29.333 34 -58.666 64.667 -87.999 92c24.667 56.667 43.334 112.667 56.001 168l58 65
l84 19l63 -25c19.333 -10 35 -24.667 47 -44zM129.996 528l9 -41l80 -36l79 -4l12 43l7 44c0 10 -7.66699 16 -23 18l12 45l-63 46l-72 -32z" />
    <glyph glyph-name="guillemotleft" unicode="&#xab;" horiz-adv-x="515" 
d="M28 235c-4 6 -6.00293 13.334 -6.00293 22.001c0 2 -0.5 3.33301 -1.5 4s-3.16699 0.333984 -6.5 -0.999023c11.333 13.333 23.5 29.166 36.5 47.499s27.5 40.833 43.5 67.5c38 65.333 62.667 105.333 74 120l-6 -6l16 22c-1.33301 6 -2.66602 10 -3.99902 12h22
c26.667 0 54.334 1.33301 83.001 4l25 -20h-10c8 0 12.333 -2.66699 13 -8l-12 -23c-7.33301 -17.333 -12.666 -29 -15.999 -35c-0.666992 -1.33301 -6 -10.666 -16 -27.999l-54 -54l-27 -96l4 4l-5 -15c0 -7.33301 -3.66699 -19.333 -11 -36l73 -40
c10 -24.667 21 -49.834 33 -75.501s24.667 -50.834 38 -75.501l-10 -10l3 -11c-2 -4 -12.333 -9 -31 -15l-15 26l-42 -23l-15 8l-14 -2l-18 4c-4 1.33301 -10 2 -18 2l-53 71l-24 85l-65 73zM214.997 235.001c-4 6 -6 11.668 -6 17.001c0 4 3.33301 14.667 10 32
c26 16.667 56.667 59 92 127c32 61.333 50 92.666 54 93.999h1c4 -2 7 -4.66699 9 -8l51 -8c23.333 0 47 6 71 18h-16c8 0 12.333 -2.66699 13 -8l-3 -20c-62 -90 -105.333 -162.667 -130 -218l12 6l-4 -15c0 -5.33301 7.33301 -15.333 22 -30l3 -76l115 -129l-18 -2l3 -11
c-2 -4 -11.667 -8.33301 -29 -13c-14 2.66699 -29.667 7.66699 -47 15l-43 -4l2 -4c-12 0 -18 1.66699 -18 5l9 -5c-14 27.333 -39.333 66 -76 116s-63.667 90.333 -81 121h4z" />
    <glyph glyph-name="logicalnot" unicode="&#xac;" horiz-adv-x="685" 
d="M29 360l-6 48l26 54l-12 58l-2 -26l200 12l86 -4l86 -4l198 8l-2 -12l14 -86c0 -10 -1 -19.667 -3 -29l-6 -27.5c-2 -9 -3.66699 -17.5 -5 -25.5s-2 -15.333 -2 -22l2 -82l16 -16l-58 28l-42 -20l-12 24l8 -2l-28 42l12 24v58l14 -14c-115.333 12 -231.333 18 -348 18
c-12 0 -21.333 -0.333008 -28 -1s-20.667 -2.66699 -42 -6l-70 -11z" />
    <glyph glyph-name="minus" unicode="&#xad;" 
 />
    <glyph glyph-name="registered" unicode="&#xae;" horiz-adv-x="932" 
d="M58 360l11.999 -6.00098c0 77.333 6.33301 134 19 170c21.333 34 47.666 66 78.999 96c34.667 34.667 67.334 59.667 98.001 75c22 10.667 76.667 28.334 164 53.001c102.667 -20 182 -58.333 238 -115l37 -48c14.667 -18.667 30.334 -31.667 47.001 -39
c14.667 -54 23 -84.333 25 -91c6 -21.333 14 -47 24 -77c-10.667 -30.667 -18.167 -59 -22.5 -85s-6.5 -52 -6.5 -78c-28 -54.667 -52 -93.667 -72 -117c-26 -30.667 -62.333 -58 -109 -82l-93 -7l-59 -39c-10.667 5.33301 -23.167 11 -37.5 17l-54.5 22l-73 13
c-58 18 -123 73 -195 165c-6 28 -11 56.167 -15 84.5s-6 57.833 -6 88.5zM126.999 359.999l13 -36.001l15 -37l40 -110c12 -27.333 33.333 -60.666 64 -99.999l77 4c4.66699 0 12.834 -1 24.501 -3s27.834 -5.33301 48.501 -10
c13.333 -2.66699 28.666 -4.83398 45.999 -6.50098s32.333 -2.5 45 -2.5c59.333 14.667 131 66 215 154c0 14 1 28 3 42s6.66699 33.667 14 59c5.33301 20 9.16602 39.333 11.499 58s3.5 37 3.5 55c-21.333 41.333 -48.333 81 -81 119l-94 103l-52 -6l-67 20l-116 -8
c-13.333 -11.333 -36.333 -27 -69 -47s-56 -36.667 -70 -50c-21.333 -19.333 -38 -42.666 -50 -69.999l-21 -54v-74zM295.999 150.998l-11.999 71.999c-5.33301 32 -8 56 -8 72c0 104 10.667 204.333 32 301l-8 -24l51 -2c15.333 0 45.666 8.66699 90.999 26l-16 -28
c18.667 0 36.667 -1.16699 54 -3.5s34.666 -6.5 51.999 -12.5c20.667 -15.333 31 -30.333 31 -45l-2 -82v-54c0 -10.667 0.333008 -20 1 -28l-70 -7l-25 6l66 -83l18 -65l50 -23l-16 -42l-34 18l-54 2l-18 70c-12 8.66699 -23.167 17.667 -33.5 27s-21.166 21 -32.499 35
c-23.333 28.667 -39.333 54.334 -48 77.001l-4 -8l28 -78l-26 -67l18 -34l-4 -6l-27 -10l-43 4l-11 -4v-4zM383 378.997l17 14l-13 -20l11 -14l34 30l16 -13l28 73l-12 32l-61 40l26 -6l-52 4l12 4l-24 -30l24 -23l6 -58l-4 -29z" />
    <glyph glyph-name="macron" unicode="&#xaf;" horiz-adv-x="456" 
d="M34 562c-6 0 -14.001 13.667 -24.001 41l2 7l24 32v37l-14 -10c0 10 4.33301 17 13 21l64 -14c27.333 -6 48.333 -9 63 -9c26.667 0 63.334 2.33301 110.001 7l115 7l41 -1l-6 8c6.66699 0 13 -9.66699 19 -29l10 -38l-34 -22l4 -37l14 20c0 -8 -1.66699 -12.333 -5 -13
c-3.33301 0.666992 -7 3 -11 7l-126 -35l-263 37z" />
    <glyph glyph-name="degree" unicode="&#xb0;" 
 />
    <glyph glyph-name="plusminus" unicode="&#xb1;" horiz-adv-x="594" 
d="M506 87l14 -7l-4 -50l2 -5l-14 4c-108 -17.333 -216.667 -26 -326 -26c-15.333 0 -39 3 -71 9l-71 15l24 -22l-36 45l36 -2l6 29l-26 32l144 -42l164 42l142 -28zM309 453l-12.001 -21l30 -40l-32 -79c75.333 14.667 121.666 22 138.999 22l82 -4l-12 -6l-2 -17l18 -16
l-26 -17l6 -8l-68 -2c-39.333 0 -81.666 6 -126.999 18l-16 -36l40 -9v-46l-20 -63c-5.33301 6 -15.666 13.333 -30.999 22l4 -6l-23 -16l-28 -6c19.333 44 28 77 26 99l-32 51l28 4c-14 0 -28.5 -1.33301 -43.5 -4s-27.167 -5 -36.5 -7c-34 -6 -59.667 -9 -77 -9l-70 6
l22 -16l-18 27c2 10.667 13.333 25.667 34 45h-24c46.667 0 87.667 7.33301 123 22l90 -30l-2 14l-26 39l34 64l-24 33l-12 -4l45 4l18 -24l7 24z" />
    <glyph glyph-name="twosuperior" unicode="&#xb2;" 
 />
    <glyph glyph-name="threesuperior" unicode="&#xb3;" 
 />
    <glyph glyph-name="acute" unicode="&#xb4;" horiz-adv-x="307" 
d="M81 550c-18 0 -26.999 6.33398 -26.999 19.001c0 7.33301 0.333008 13 1 17s3 12 7 24l13 41c12.667 10.667 31.334 35.667 56.001 75c15.333 27.333 36 44 62 50l11 -6l44 14l43 -16l-8 4c16.667 0 25 -7 25 -21c0 -11.333 -7.33301 -17 -22 -17l-59 -82
c-22.667 -31.333 -46.334 -55 -71.001 -71l16 6c-8.66699 -10.667 -25.334 -18.334 -50.001 -23.001l-5 9l-38 -35z" />
    <glyph glyph-name="mu" unicode="&#xb5;" 
 />
    <glyph glyph-name="paragraph" unicode="&#xb6;" horiz-adv-x="670" 
d="M247 720c10 0 17.6689 -0.331055 23.002 -0.998047s15.333 -3 30 -7l54 -12c46.667 13.333 87.667 23.333 123 30s70.666 10 105.999 10l26 -10l-4 -40l-26 -21l12 -50l8 8l-119 32l-113 -32l-123 34l23 -2l-148 -103c0 -11.333 1.33301 -28 4 -50s7 -48.667 13 -80
l36 -56l94 -4l6 -22l20 24h32l-6 -28l-20 94l14 83l-24 80l26 -4l3 -12l66 -2l7 -8l2 28l-2 -226c2 -34.667 3.83301 -69.834 5.5 -105.501s2.5 -66.834 2.5 -93.501c0 -50.667 1.5 -91.5 4.5 -122.5s6.16699 -48.167 9.5 -51.5l-33 4l-46 -22l-37 6l20 -2l-14 88
c0 12.667 0.333008 22 1 28s2.66699 16.833 6 32.5s5.66602 28.5 6.99902 38.5s2 19.333 2 28l-14 90l10 4l-30 -36l-16 22h-26l14 6l-81 -1l-101 74l-46 74c12 44 30.333 121.667 55 233l83 45zM450.002 0.00195312l-6 204.001c0 22 3.33301 52 10 90
c2.66699 16.667 5 33.667 7 51s3 30.666 3 39.999c0 24 -2 56.667 -6 98l-10 98l4 18l49 -10l20 -22l27 -2l-26 28c2.66699 -31.333 5 -81.5 7 -150.5s3 -149.167 3 -240.5l10 -216l-8 22l-19 -8l-28 16h-49z" />
    <glyph glyph-name="periodcentered" unicode="&#xb7;" horiz-adv-x="274" 
d="M137 360l11.999 3.00098c3.33301 1.33301 5.33301 3.66602 6 6.99902l87 -14l12 -81c1.33301 -8 -1.5 -26 -8.5 -54s-14.167 -44 -21.5 -48c-3.33301 -2 -21 -5 -53 -9c-27.333 0 -41.666 -4 -42.999 -12l6 -15l-112 53l-1 54c0 13.333 3.5 33 10.5 59s16.167 39 27.5 39
l17 11l61 -15v22z" />
    <glyph glyph-name="periodcentered" unicode="&#x2219;" horiz-adv-x="274" 
d="M137 360l11.999 3.00098c3.33301 1.33301 5.33301 3.66602 6 6.99902l87 -14l12 -81c1.33301 -8 -1.5 -26 -8.5 -54s-14.167 -44 -21.5 -48c-3.33301 -2 -21 -5 -53 -9c-27.333 0 -41.666 -4 -42.999 -12l6 -15l-112 53l-1 54c0 13.333 3.5 33 10.5 59s16.167 39 27.5 39
l17 11l61 -15v22z" />
    <glyph glyph-name="cedilla" unicode="&#xb8;" horiz-adv-x="161" 
d="M15 -125l15.999 -22l19 62l69 39c18.667 -20.667 37.334 -52 56.001 -94c-6 -30 -19.333 -58.667 -40 -86c-24 -34 -50.667 -51 -80 -51c-16 0 -24.333 5.33301 -25 16c0 12 10.667 24.667 32 38c22 12 33 22.333 33 31c-4.66699 0.666992 -7 -1 -7 -5
c0.666992 -2 1.16699 -4.33301 1.5 -7s1.5 -6 3.5 -10l-67 37z" />
    <glyph glyph-name="onesuperior" unicode="&#xb9;" 
 />
    <glyph glyph-name="ordmasculine" unicode="&#xba;" horiz-adv-x="488" 
d="M35 223l12.001 22l-2 46l-28 48l12 -24l48 1c2 0 32.667 -2 92 -6c30 -2 58 -3 84 -3c26.667 0 59.667 -1 99 -3s65 -3 77 -3l-32 32l8 -60l-6 -64l-131 -6c-90.667 0 -172.334 6.66699 -245.001 20h12zM29.001 544l-19.999 16l37 87c50.667 18 90 45 118 81l87 17
l99 -65l92 -124c-18.667 -35.333 -32.834 -65.5 -42.501 -90.5s-14.5 -45.5 -14.5 -61.5c-64 -26 -118 -39 -162 -39l-80 2l-76 37c-7.33301 44 -20 90.667 -38 140zM134.002 544c0 -7.33301 7.33008 -19.333 21.9971 -36l17 -53l60 -18c37.333 27.333 65 63 83 107
c0 2 0.333008 3.5 1 4.5s1.33398 1.83301 2.00098 2.5l15 -9c-35.333 44.667 -65.666 75.667 -90.999 93l-16 1l-36 -3c-15.333 -31.333 -33.666 -55.333 -54.999 -72z" />
    <glyph glyph-name="guillemotright" unicode="&#xbb;" horiz-adv-x="510" 
d="M31 -3c-3.33301 0 -6.66699 2.00098 -10 6.00098l6 24l54 47l34 92c18 48 27.667 76.333 29 85l-4 25l-40 49l-21 94l-74 73l20 -4l-4 15c-4 3.33301 -7.33301 5.66602 -10 6.99902c26 10.667 52 16 78 16c8 0 14 -0.333008 18 -1l51 -38l-16 18l15 -3l2 -26
c20 -22.667 41.5 -49.667 64.5 -81s46.5 -66 70.5 -104v-20l7 -20c0 -8 -23.333 -33.333 -70 -76l-7 -69l-77 -102l18 12l-8 -15c-10 0 -21.667 4.33301 -35 13l-35 -14l-9 17l-35 -32zM218.999 -2.99902c-4 0 -7.66992 2.00098 -11.0029 6.00098l-8 6l62 71
c19.333 50 37 107 53 171l10 -16c2 4 3.66699 10.333 5 19c0 6.66699 1 12 3 16c-20 24 -38.667 61.667 -56 113c-9.33301 29.333 -17.833 53.666 -25.5 72.999s-14.834 34 -21.501 44l-18 -12l-4 11c2 2.66699 4 4.66699 6 6c6 5.33301 13 11 21 17l5 -6l64 1l21 -4l4 -8
l15 -3c-3.33301 -5.33301 -6.66602 -8 -9.99902 -8c58 -60.667 95.667 -117.667 113 -171l45 -36l-10 -16l7 -20c0 -8 -3 -12 -9 -12l-51 -70l-16 -87l-67 -78l8 12l-10 -15c-7.33301 0 -17.666 4.33301 -30.999 13c-7.33301 -4 -14.666 -8.5 -21.999 -13.5
s-13.666 -9.5 -18.999 -13.5l-67 30z" />
    <glyph glyph-name="onequarter" unicode="&#xbc;" 
 />
    <glyph glyph-name="onehalf" unicode="&#xbd;" 
 />
    <glyph glyph-name="threequarters" unicode="&#xbe;" 
 />
    <glyph glyph-name="questiondown" unicode="&#xbf;" horiz-adv-x="485" 
d="M197 475l0.00195312 -8.99902l44 32l47 -20l16 4c6 -1.33301 12 -3.33301 18 -6c1.33301 -0.666992 4.16602 -2.16699 8.49902 -4.5s6.5 -10.833 6.5 -25.5c0 -14 -13 -52 -39 -114c-20.667 -50.667 -36.334 -85.334 -47.001 -104.001l-27 -25
c0 -39.333 15.667 -59 47 -59c13.333 0 24.5 4.5 33.5 13.5s13.5 20.167 13.5 33.5c0 10.667 -5 23 -15 37l-2 7c0 11.333 13.667 17 41 17c4.66699 0 16.667 -1.33301 36 -4s45.333 -7 78 -13l23 -65l-14 -101l-76 -61l-71 -6l-64 -32c-62 30 -124.667 54.667 -188 74
l-56 62l-16 83c20.667 54 49.667 95.667 87 125l20 56l48 -17l-4 30h6c20 20 32.333 39.667 37 59c1.33301 10 4.33301 21 9 33zM261.002 733.001l32.002 5.99902l66 -40l18 -51l-1 -16c-4.66699 -46 -14.334 -73.667 -29.001 -83c-4.66699 -3.33301 -33.334 -9 -86.001 -17
c-10 -0.666992 -17.333 -6 -22 -16l-72 53l-23 48c0 20.667 3.66699 40.334 11 59.001c8 26 20.333 39 37 39l17 9l31 4l21 -17v22z" />
    <glyph glyph-name="Agrave" unicode="&#xc0;" horiz-adv-x="758" 
d="M187 159c-9.33301 -16 -19.668 -27.6641 -31.001 -34.9971l18 -2l-4 -23c0 -14 10.667 -23.167 32 -27.5s32 -16.166 32 -35.499c0 -17.333 -7.33301 -26 -22 -26c-7.33301 0 -19 4 -35 12l-49 -36l-66 -6l-67 38l-20 -18c-31.333 0 -47 12.333 -47 37
c0 17.333 11.333 28.666 34 33.999s39 15 49 29l46 57c6.66699 22 14.667 46 24 72l38 101c20.667 39.333 51 102.666 91 189.999c8 21.333 18.333 53.666 31 96.999l27 98l6 -18c2 4.66699 6 10 12 16l8 -8c27.333 0 51 0.666992 71 2s37.333 5.33301 52 12l86 -14l-8 14
c9.33301 0 16 -5.33301 20 -16l2 -29c50.667 -97.333 92.167 -188 124.5 -272s55.5 -162.333 69.5 -235l8 -8c2.66699 -8 5.83398 -16.167 9.50098 -24.5s9.16699 -19.5 16.5 -33.5c9.33301 -14 25.833 -23.833 49.5 -29.5s35.5 -17.5 35.5 -35.5
c0 -21.333 -13.667 -32 -41 -32h-116c-12 0 -29 -2 -51 -6l-52 -8l-136 -10l14 20c-31.333 0 -47 12.333 -47 37c0 18 10.667 29.167 32 33.5s32 15.5 32 33.5l-6 38l-22 -16l1 41l16 2l-2 -10l17 -15c-0.666992 3.33301 -5.66699 9.66602 -15 18.999l-11 36l-16 -27v17
l-30 12l-123 -10h-62l-6 3l1 -4l-18 -7l10 6l-20 -10l13 -1l4 -12l-12 -16zM255.998 315.003c0 -8.66699 2.66797 -13.333 8.00098 -14c5.33301 2 10.666 6 15.999 12l29 -18l20 17l41 -22l-2 4c17.333 0 26 5 26 15c0 5.33301 -7 8 -21 8l22 35
c-18 43.333 -38.667 77 -62 101l10 6c-2 7.33301 -6 13.333 -12 18c-4 -2.66699 -6 -5 -6 -7l1 -13l2 -10c-32 -32 -50 -63.333 -54 -94l4 -21l-20 -6zM208.999 986.004c0 12 14.3311 22.333 42.998 31l21 -32l32 32l33 -8l24 -4l27 -2l29 -91l-5 -18l67 -73l-18 -4l3 -11
c0 -8 -3.33301 -14 -10 -18l-10 -4c0.666992 -2 1.33398 -3.83301 2.00098 -5.5s2.66699 -5.16699 6 -10.5c-12.667 5.33301 -31 15.333 -55 30l-16 -15l-2 18l-15 2c-6.66699 0 -15.667 -2.33301 -27 -7c-29.333 30.667 -47.666 71 -54.999 121l-45 28
c-19.333 14 -29 27.667 -29 41z" />
    <glyph glyph-name="Aacute" unicode="&#xc1;" horiz-adv-x="758" 
d="M187 159l14.001 -11.999l-13 -7l-26 -30l12 12l-4 -23c0 -14 10.667 -23.167 32 -27.5s32 -16.166 32 -35.499c0 -18 -16.333 -36 -49 -54h-85c-6.66699 0 -17 2.33301 -31 7l-31 7l-67 -4l4 8c-31.333 0 -47 12.333 -47 37c0 17.333 11.333 28.666 34 33.999
s39.334 15.333 50.001 30l39 54c21.333 44 49.333 108.333 84 193c5.33301 24 11.666 47.167 18.999 69.5s18.666 54.5 33.999 96.5c9.33301 19.333 26.333 46.333 51 81l57 80l-22 22c8 17.333 11.333 28.666 10 33.999l98 -26l71 36l40 -32l2 10c9.33301 0 16 -1 20 -3
c31.333 -112 100.666 -293.667 207.999 -545l-4 -12c2.66699 -8 5.83398 -16.167 9.50098 -24.5s9.16699 -19.5 16.5 -33.5c9.33301 -14 27.333 -24 54 -30c20.667 -4 31 -15.667 31 -35c0 -17.333 -6 -26 -18 -26c-6.66699 0 -15 4 -25 12l-100 -36l-40 -2
c-66 0 -127 11.333 -183 34l-16 -18c-31.333 -0 -47 12.333 -47 37c0 18 10.667 29.167 32 33.5s32 15.5 32 33.5c0 7.33301 -3.33301 15.333 -10 24l-4 -4l-5 13l6 22l17 -29l-35 52l22 -9l-7 26l-26 -16l2 -3l8 -4l-14 27l-74 -40l-53 32l-42 -16l-4 -8c-20 0 -39 3 -57 9
l22 3l-4 2l-10 -30l3 25l-16 -46v16zM256.001 315.001c0 -9.33301 2.66699 -16.667 8 -22l43 16l22 -19l37 24l2 -20c17.333 0 26 6 26 18l1 3l12 -10l-16 83l-40 10l-2 67l-6 -6c-2 7.33301 -6 13.333 -12 18l-5 -1l-5 -1l-19 6l-8 -63l-30 -31l-14 -45l8 -16zM306.001 785
c-18 0 -27.001 6.33301 -27.001 19l3 27l50 23l7 66l38 75v-6c5.33301 10.667 17 16 35 16c21.333 0 44.333 -3.33301 69 -10l43 6l-16 6c16.667 0 25 -7 25 -21c0 -6 -6.33301 -20.333 -19 -43l-21 -38c-25.333 -25.333 -62 -53 -110 -83h14
c-6.66699 -8 -12 -12.333 -16 -13c-4.66699 2 -8.66699 5.33301 -12 10c-3.33301 -4 -7.16602 -9.33301 -11.499 -16l-14.5 -23l-59 3z" />
    <glyph glyph-name="Acircumflex" unicode="&#xc2;" horiz-adv-x="758" 
d="M187 159l-12.002 -23.999l19 5l-36 -2l16 -16l-4 -23c0 -14 10.667 -23.167 32 -27.5s32 -16.166 32 -35.499c0 -20.667 -15.667 -35.334 -47 -44.001c-30.667 6.66699 -58 12 -82 16s-43 6 -57 6c-2 0 -6.33301 -0.333008 -13 -1s-17.834 -2.5 -33.501 -5.5
s-24.5 -5.5 -26.5 -7.5c-31.333 0 -47 12.333 -47 37c0 15.333 8 26 24 32c26 7.33301 41.667 13 47 17c8.66699 7.33301 15.834 17.666 21.501 30.999s8.5 29.333 8.5 48c72 98.667 133.667 214.334 185 347.001l35 113c18 58 31 87.667 39 89c4 -2 6.66699 -3.66699 8 -5
l60 24c47.333 -12 86.333 -18 117 -18l11 2l11 2l44 -7c7.33301 -45.333 22.333 -117 45 -215c4.66699 -16.667 17.834 -53.5 39.501 -110.5l91.5 -229.5l4 2c2.66699 -8 5.83398 -16.167 9.50098 -24.5s9.16699 -19.5 16.5 -33.5c9.33301 -14 27.333 -24 54 -30
c20.667 -4 31 -15.667 31 -35c0 -14.667 -5.66699 -24.334 -17 -29.001l-36 -3l-106 -6l-93 20l-120 -26l-10 8c-31.333 -0 -47 12.333 -47 37c0 18 10.667 29.167 32 33.5s32 15.5 32 33.5c0 4 -0.5 6.83301 -1.5 8.5s-2.5 2.16699 -4.5 1.5l-22 30l11 19l16 12l-12 -16
l13 -27l-9 39l-21 30l14 -17l-38 2l2 15l-12 -12l-119 -22l-58 16l-16 18l-4 -37l-15 8l10 23l-10 -8l-14 -34l-3 11l12 -32c0 14 1 23 3 27zM255.998 315.001c0 -8.66699 5.33301 -18 16 -28l19 -4l62 31c6 -3.33301 11 -10 15 -20c17.333 0 26 6.33301 26 19
c0 4.66699 5 8.66699 15 12c-21.333 17.333 -39.333 41 -54 71l-12 63c-2 7.33301 -6 13.333 -12 18c-5.33301 0 -10.333 -10.667 -15 -32l-30 -33l10 -25l-34 -81l-4 20zM168.998 837.001c0 7.33301 1.33105 15.332 3.99805 23.999l5 25l51 17c16 30 48.667 60.333 98 91
l-10 6c6 8 13.667 12 23 12c2 -2.66699 3 -4.66699 3 -6l26 24c11.333 0 20.833 -1 28.5 -3s13.167 -4.33301 16.5 -7l-10 -6l22 -2h23l61 -90c24.667 -35.333 48.334 -62.666 71.001 -81.999l2 4c4 -5.33301 6.33301 -11 7 -17c0 -10 -15.667 -17.333 -47 -22l-29 -33
l-44 24l22 -10c-9.33301 -1.33301 -15.666 -2 -18.999 -2c-4.66699 0.666992 -8 1 -10 1l7 -1l-49 54l-6 24l-55 12l16 -2l-21 10l-37 -68l-41 1l-6 -18c-6 -8 -13.333 -12 -22 -12l-29 12l-2 14l-1 -5c-32 8 -48 18.333 -48 31z" />
    <glyph glyph-name="Atilde" unicode="&#xc3;" horiz-adv-x="758" 
d="M187 159l13.999 -9.99902l-37 -5l26 -6l-16 -16l-4 -23c0 -14 10.667 -23.167 32 -27.5s32 -16.166 32 -35.499c0 -26.667 -31 -44 -93 -52l-111 -2l-69 16l14 2c-31.333 0 -47 12.333 -47 37c0 17.333 11.333 28.666 34 33.999s38.834 14.666 48.501 27.999
s31.167 57.666 64.5 132.999l23 57c7.33301 18 16.333 39 27 63l74 168l36 89l31 82l8 6c4 9.33301 8.66699 15 14 17l18 3l72 20l45 -40l72 22c11.333 0 24.666 -9 39.999 -27c4.66699 -19.333 10.667 -42.5 18 -69.5s17 -58.833 29 -95.5c8 -21.333 23.333 -55 46 -101
c20.667 -42 35 -75 43 -99s16 -55.667 24 -95l18 -93l6 20c2.66699 -8 5.83398 -16.167 9.50098 -24.5s9.16699 -19.5 16.5 -33.5c9.33301 -14 27.333 -24 54 -30c20.667 -4 31 -15.667 31 -35c0 -16 -11 -32 -33 -48l-106 26c-28 -5.33301 -60.167 -9.66602 -96.5 -12.999
s-79.833 -5 -130.5 -5c-42 0 -63 13.667 -63 41c0 18 10.667 29.167 32 33.5s32 15.5 32 33.5l-2 6l-8 -10v38l1 19l-4 2l-5 -5l13 24l-37 17l6 -14l-10 -23v16l-26 13v4l-62 -16c-42.667 8.66699 -79.667 18 -111 28l14 -28l6 5l-45 -12v5l16 -8l-26 -8l11 23
c-8 -12 -12 -22 -12 -30zM255.999 315.001c0 -8.66699 2.33301 -14 7 -16h17l43 -4l16 -21l13 34l16 -14c17.333 0 26 5 26 15c0 3.33301 -1 6 -3 8l-12 105c-16.667 14.667 -28.667 27 -36 37c-2 7.33301 -6 13.333 -12 18c-4 0 -6.33301 -3.66699 -7 -11v-15
c-12 -16 -24 -39 -36 -69l-28 -74l-2 18zM212.999 807.001l-9 -4c-15.333 0 -23 7 -23 21c0 4 3 15.667 9 35l11 35l32 29l77 17l22 -11l83 -9c6.66699 0 17.667 -3.33301 33 -10s28.333 -10 39 -10l21 3l10 43l3 -12l18 4c2 4 6.66699 6 14 6c14.667 0 22 -9 22 -27
c0 -32 -11.333 -59.333 -34 -82c-16 -16 -42 -33 -78 -51l-55 3h-56c-32 27.333 -61.667 46 -89 56c-9.33301 0 -22 -10 -38 -30l-1 11l2 2l-3 -21z" />
    <glyph glyph-name="Adieresis" unicode="&#xc4;" horiz-adv-x="758" 
d="M108 848l10.001 -12l4 64l86 41c21.333 -19.333 43.666 -48.333 66.999 -87l-25 -69l-48 -20l-92 30zM524.001 854l12 50l55 25l98 -39l23 -64c-20.667 -34 -53.667 -59 -99 -75l-77 50zM187.001 159l-18.001 -8.00195l29 -5l-14 -32l-10 8l-4 -23
c0 -14 10.667 -23.167 32 -27.5s32 -16.166 32 -35.499c0 -15.333 -13 -32.666 -39 -51.999l-149 36l-69 -6l-2 -14c-31.333 -0 -47 12.333 -47 37c0 15.333 8.33301 26 25 32c25.333 6.66699 41 12.667 47 18c18 14.667 27 42 27 82l108 157
c8 55.333 25.667 119.666 53 192.999s55.333 136 84 188l2 -10c4 11.333 10.333 17.333 19 18h27l46 6c45.333 -11.333 83 -18.666 113 -21.999l16 20c9.33301 0 26 -9 50 -27c5.33301 -39.333 15.666 -91.666 30.999 -156.999c8 -22.667 24.333 -57.334 49 -104.001
c22.667 -44 39 -79 49 -105c4 -14 9.33301 -41 16 -81l3.5 -35.5c1 -9.66699 3.5 -25.834 7.5 -48.501l18 -2c2.66699 -8 5.83398 -16.167 9.50098 -24.5s9.16699 -19.5 16.5 -33.5c9.33301 -14 27.333 -24 54 -30c20.667 -4 31 -15.667 31 -35
c0 -29.333 -31.667 -44 -95 -44l-43 2l-27 2c-8.66699 0 -15.667 -0.333008 -21 -1s-16.666 -2.66699 -33.999 -6l-54 -7l-124 26l16 -8c-31.333 0 -47 12.333 -47 37c0 18 10.667 29.167 32 33.5s32 15.5 32 33.5c0 4 1.33301 6.33301 4 7l14 -5l-23 57l-14 14l6 -18l-7 11
l17 -10l4 25l-27 -4l2 12c-6 -11.333 -10 -21.666 -12 -30.999l-26 9v6c-35.333 6 -66.333 15.333 -93 28l-62 -28l2 8l-28 5l-33 -28l12 35l-6 -28l-20 22l-5 -47l-2 -2l16 8zM256 314.998c0 -8.66699 2.33301 -13.333 7 -14c4 2 7 6 9 12l59 -35l39 28l-2 -12
c17.333 0 26 6.33301 26 19c0 6 3.66699 14.667 11 26l-44 51l8 12l-46 73l20 -16c-2 7.33301 -6 13.333 -12 18l-14 -3l-15 -3l-8 -35l4 -49l-60 -53l20 -8z" />
    <glyph glyph-name="Aring" unicode="&#xc5;" horiz-adv-x="758" 
d="M187 159l5.99902 -2.00391l-39 -27l20 -8l-4 -23c0 -14 10.667 -23.167 32 -27.5s32 -16.166 32 -35.499c0 -12.667 -3.16699 -21.167 -9.5 -25.5s-16.166 -6.5 -29.499 -6.5c-24.667 0 -41 -0.333008 -49 -1s-17.333 -2 -28 -4c-28 -2.66699 -52.667 -9.66699 -74 -21
l-91 24l22 -2c-31.333 0 -47 12.333 -47 37c0 17.333 12 29 36 35c18 3.33301 36 15.333 54 36l43 53l60 169c10 41.333 28.333 100 55 176c9.33301 22.667 25.333 54.334 48 95.001l52 94l-2 2c4 10 9.33301 15 16 15s16.667 -4.33301 30 -13h44l51 38l100 -12l-20 -6
c10 0 17 -4.33301 21 -13l11 -26c20 -34.667 47.667 -89 83 -163c4 -12 7.16699 -24.667 9.5 -38s3.5 -29.666 3.5 -48.999c0 -18.667 1.16699 -34.667 3.5 -48s5.5 -26 9.5 -38c7.33301 -26 20.666 -59 39.999 -99l45 -98l-2 12c2.66699 -8 5.83398 -16.167 9.50098 -24.5
s9.16699 -19.5 16.5 -33.5c9.33301 -14 27.333 -24 54 -30c20.667 -4 31 -15.667 31 -35c0 -21.333 -14 -32 -42 -32c-11.333 0 -46.333 4.66699 -105 14c-64.667 -22.667 -129.667 -34 -195 -34h-15c-6 0 -14.333 0.666992 -25 2v14c-31.333 0 -47 12.333 -47 37
c0 18 10.667 29.167 32 33.5s32 15.5 32 33.5c0 6.66699 -7.33301 15.334 -22 26.001l36 -16l-41 29l22 20l-8 -4l-13 -23l7 44l-4 -1l13 20c0 -8.66699 -3.33301 -19.667 -10 -33l-28 2l-24 21l36 -12c-7.33301 0 -27.333 3.33301 -60 10c-24 4 -43.667 6 -59 6l-92 -10
l16 14l-14 -31l1 6l-34 13l12 4l-8 -34l-5 -3h16l-18 -2zM288.999 874.996l27 65c18 10 39 17.167 63 21.5s49.333 6.5 76 6.5l70 -100c-32 -40 -74.333 -74.333 -127 -103l-62 11zM255.999 314.996c0 -16 12.667 -24.002 38 -24.002l-3 -4l62 3l21 -12l-6 16
c9.33301 0 16 1 20 3s6 8.33301 6 19l3 9c0 14.667 -1.16699 28.334 -3.5 41.001s-6.5 25.334 -12.5 38.001l-48 45l10 10c-2 7.33301 -6 13.333 -12 18l-21 -16l2 -43l-46 -29l6 -81l-14 18zM397.999 921.994c-12.667 0 -23.832 -4.66602 -33.499 -13.999
s-14.5 -20.333 -14.5 -33c0 -13.333 4.66699 -24.833 14 -34.5s20.666 -14.5 33.999 -14.5c12 0 22.667 5 32 15s14 21 14 33c0 13.333 -4.16699 24.666 -12.5 33.999s-19.5 14 -33.5 14z" />
    <glyph glyph-name="AE" unicode="&#xc6;" horiz-adv-x="1132" 
d="M195 159l-27.001 -23.998l12 3l15 -16h-22c-8.66699 -15.333 -13 -26.666 -13 -33.999c0 -6 8.83301 -11.833 26.5 -17.5s26.5 -17.167 26.5 -34.5c0 -20 -21.667 -37.333 -65 -52l-63 38l-105 -33l-20 12c-30.667 0 -46 12 -46 36c0 16 9 27.667 27 35
c30 9.33301 47 16 51 20c20.667 15.333 31 41.666 31 78.999c39.333 40 91.333 98.333 156 175c25.333 34.667 59.333 94.334 102 179.001l49 100l40 89l22 -12l10 17l-2 4l42.5 -6c13.667 -2 29.667 -4.5 48 -7.5s34.333 -5.16699 48 -6.5s27.167 -2 40.5 -2
c22.667 0 50.667 2.33301 84 7l85 9l135 4l-2 -2c16.667 0 32 4.83301 46 14.5s26.667 14.5 38 14.5c15.333 0 28.333 -9.33301 39 -28l24 -45l41 -43c14.667 -14.667 27.334 -32 38.001 -52l-14 4c2 -4.66699 3.66699 -11.334 5 -20.001c0 -20.667 -10.333 -31 -31 -31
c-11.333 0 -30.833 13.167 -58.5 39.5s-43.834 45.833 -48.501 58.5l-168 10l-66 -1l-24 -48l18 -24l-28 -49l42 -26h-20c0 -16 6.33301 -26 19 -30l39 -9l2 -9l25 8l-16 10c16 0 27 9 33 27s16.667 27 32 27c8.66699 0 13.334 -2.66699 14.001 -8
c-0.666992 -2 -1.33398 -3.83301 -2.00098 -5.5s-2.66699 -4.16699 -6 -7.5l50 -66l57 -31l-2 -56h20c2 -3.33301 3 -7 3 -11c0 -24 -12.333 -36 -37 -36c-15.333 0 -24 11 -26 33c-59.333 6 -109.333 19.667 -150 41c-27.333 0 -45 -6 -53 -18c-4 -6 -8 -25.667 -12 -59
l18 -59l-18 -70l10 -14c0 -31.333 16.333 -47 49 -47c10.667 0 21.667 1 33 3s20.333 3.66699 27 5l111 -18c32 4.66699 62.667 17 92 37c12.667 8 33.334 24.667 62.001 50c18.667 15.333 33 23.666 43 24.999c19.333 0 29 -10.667 29 -32c0 -6 2.33301 -12.667 7 -20
c-21.333 -36.667 -54.333 -82 -99 -136l-10 -52l-4 10c-4 -10 -13 -15 -27 -15c-15.333 0 -36 15.333 -62 46l-184 12c-18 0 -43 -2 -75 -6l-76 -10l-164 -12l-12 10c-32 0 -48 12.333 -48 37c0 14.667 4 24 12 28c8.66699 2 14.167 3.5 16.5 4.5l8.5 3.5
c10.667 9.33301 16 27.666 16 54.999l7 -16l-2 47l-23 12l20 -12l-8 11l18 -8l-24 11l24 6l-28 14l25 -22l-12 13l-29 -18l2 32l-81 -30l-32 22l-91 16l18 -20c-24 0 -40 -9 -48 -27zM293.999 307.002c0 -4.66699 11.999 -11.668 35.999 -21.001l33 22l40 -6l7 -14l18 8
c17.333 0 26 6.66699 26 20c0 8 -0.5 14.167 -1.5 18.5s-3.16699 12.166 -6.5 23.499l-7 42c0 26 11.333 73 34 141h-12c0 6 -1.66699 11.667 -5 17l-13 -5c-34 -47.333 -71 -92.666 -111 -135.999l-35 -94h4c-3.33301 -3.33301 -5.66602 -8.66602 -6.99902 -15.999z" />
    <glyph glyph-name="Ccedilla" unicode="&#xc7;" horiz-adv-x="856" 
d="M836 536c4 -10 6.00195 -18.666 6.00195 -25.999c0 -8 -3.83301 -15.333 -11.5 -22s-16.167 -10 -25.5 -10l-16 3l-14 4c-22.667 18.667 -44.334 38.667 -65.001 60s-41.667 45.333 -63 72c-41.333 26 -82 42.333 -122 49c-66.667 -10.667 -121.334 -34 -164.001 -70
c-8 -51.333 -28.667 -94 -62 -128l-15 -99c0 -39.333 3 -74.333 9 -105s15.667 -58 29 -82c38 -35.333 81.667 -67 131 -95c24.667 5.33301 49.334 8.83301 74.001 10.5s52.334 2.5 83.001 2.5c29.333 4 58.333 17 87 39l61 54c18.667 18 32.334 27.333 41.001 28
c10 0 19.333 -4.33301 28 -13s13 -18.334 13 -29.001c0 -12 -10 -30.667 -30 -56c-17.333 -20 -32.333 -34.333 -45 -43c-50.667 -28.667 -89 -47.667 -115 -57c-8 -2.66699 -22.667 -5 -44 -7l-44 -6l-80 -27c-37.333 0 -74.333 2.66699 -111 8
c-20 2.66699 -46.667 8 -80 16l-70 53l-77 17c-7.33301 24 -21.833 49.333 -43.5 76s-43.834 48.334 -66.501 65.001l4 71c-9.33301 20 -16.833 43.333 -22.5 70s-8.5 55.667 -8.5 87l50 47l31 83l85 75c32 27.333 64 46.666 96 57.999l112 25
c45.333 0 97.666 -3 156.999 -9l64 -12c27.333 -6 48.666 -9 63.999 -9c10 0 19 8 27 24s20 24 36 24c18.667 0 35.667 -17 51 -51l32 -33l-4 -85l28 -51v4zM354.002 -105.999l-14 8c27.333 24.667 57.333 44 90 58l45 4l49 -88l-19 -68l-51 -39
c-24.667 -17.333 -44.667 -26 -60 -26c-16 0 -24.333 5.33301 -25 16c0 12 10.833 24.167 32.5 36.5s32.5 22.833 32.5 31.5h-6l10 13h-87z" />
    <glyph glyph-name="Egrave" unicode="&#xc8;" horiz-adv-x="737" 
d="M59 184l12 73.001l7 73c0 8 -0.666992 15.667 -2 23s-4.33301 19 -9 35c-7.33301 27.333 -11 47 -11 59l3 116l2 -2c0 24.667 -1.66699 44 -5 58c-2 14 -12.833 24 -32.5 30s-29.5 17.333 -29.5 34c0 18.667 6.66699 28 20 28c6 0 13.333 -2.33301 22 -7l171 32
c38.667 0 122.667 -10 252 -30l22 14c16 0 30.833 4.16699 44.5 12.5s26.5 13.166 38.5 14.499c13.333 0 31.666 -13.667 54.999 -41l5 -40l23 -43l53 -16l-12 -16c6 -8.66699 9.66699 -17.667 11 -27c0 -8 -3.83301 -15.333 -11.5 -22s-15.167 -10 -22.5 -10
c-4.66699 0 -15.667 6.66699 -33 20l-35 27c-13.333 8.66699 -23.5 16.334 -30.5 23.001s-12.167 16.667 -15.5 30l-61 12l-71 -23l-31 14l-14 -24l24 36l-85 -44l-15 -38l-6 -5l36 -20l-32 -35l18 -10l3 -16c2 -8 5 -12.667 9 -14l3 1c14 -2 28 -8 42 -18l-6 32l18 -18
c12 0 22.833 9 32.5 27s21.5 27 35.5 27c12.667 0 31 -19 55 -57c18 -29.333 30 -51.666 36 -66.999l44 -30l-12 -6c6 -10 9.66699 -18.667 11 -26c0 -8 -4.33301 -15.833 -13 -23.5s-17 -11.5 -25 -11.5c-6 0 -21 8.66699 -45 26l-50 33l-32 14
c-9.33301 4.66699 -18 12 -26 22l-6 -20l-45 18l-14 -26l18 6c-16 0 -24 -6 -24 -18c0 -6 3 -14 9 -24l-40 -29l16 -59c6 -22.667 13.333 -41.334 22 -56.001l-13 -88l43 11l61 -23l2 24l31 -5l28 12l57 -4l73 14l23 33l63 30c12.667 14 23.334 21.333 32.001 22
c21.333 0 32 -14.667 32 -44c0 -10 1.33301 -21.667 4 -35l-23 -37l-70 -50l-11 -67v10c-9.33301 -17.333 -20 -26 -32 -26c-11.333 0 -24 6.66699 -38 20c-13.333 11.333 -22.333 17.666 -27 18.999c-7.33301 0 -13 -6.66699 -17 -20h-194c-27.333 0 -79 5 -155 15l-159 23
v-16c-32 0 -48 12 -48 36c0 16 11 27.667 33 35c22 6 33 19.333 33 40c0 7.33301 -2.83301 18.333 -8.5 33s-9.16699 25.667 -10.5 33c14.667 6 26.667 15.667 36 29zM205 965.001c-3.33301 3.33301 -5.66699 10.333 -7 21c0 8 7 16.667 21 26c12 6 23 9 33 9h46l29 -14
l17 -3l16 -3c32.667 -90.667 63 -156.667 91 -198v14l3 -11c0 -14 -6.66699 -21 -20 -21l-24 9l18 -23c-36.667 0 -63 3.33301 -79 10l20 20c-4.66699 0.666992 -7.66699 1.5 -9 2.5s-2.33301 1.83301 -3 2.5l6 2c-22 14 -47.333 40.667 -76 80
c-38 52 -61.333 82.333 -70 91z" />
    <glyph glyph-name="Eacute" unicode="&#xc9;" horiz-adv-x="737" 
d="M59 184l-18.999 126.002l40 109l-35 138l16 4c0 24.667 -1.66699 44 -5 58c-2 14 -12.833 24 -32.5 30s-29.5 17.333 -29.5 34c0 18 6 27 18 27c6.66699 0 14.667 -3.33301 24 -10c30.667 7.33301 64 13.5 100 18.5s73.333 7.5 112 7.5c23.333 0 59 0.333008 107 1
s84 1 108 1l18 -8c16 0 30.833 4.16699 44.5 12.5s26.5 13.166 38.5 14.499c11.333 0 25 -6.66699 41 -20l37 -31l33 -51c0 -13.333 4 -28.833 12 -46.5s12 -29.167 12 -34.5c0 -8 -3.83301 -15.333 -11.5 -22s-15.167 -10 -22.5 -10c-4 0 -21.333 11.833 -52 35.5
s-52.667 36.167 -66 37.5s-28.5 2.66602 -45.5 3.99902s-32.5 2 -46.5 2l-22 28l-33 2l-24 -8l2 12l-65 -32l17 -44l-2 -39l-12 -12l14 -3l-16 -20c0 -14 6.33301 -25.333 19 -34l38 -17l-4 16l6 22l10 -20c12 0 22.833 9 32.5 27s21.5 27 35.5 27c16 0 23 -5.66699 21 -17
l36 -74l42 -23l38 -50l-14 4c6 -10 9.66699 -18.667 11 -26c0 -8 -4.33301 -15.833 -13 -23.5s-17 -11.5 -25 -11.5c-5.33301 0 -23.5 11.167 -54.5 33.5s-54.167 33.5 -69.5 33.5c-10 0 -17 -4.66699 -21 -14l-48 12l-1 18l-14 -14l8 4c-8.66699 0 -17 -2.66699 -25 -8
l-24 -14l-6 -65l6 -60l26 -35l-20 -10l43 -80l45 -1l31 5l12 12c9.33301 -10.667 18.333 -18.334 27 -23.001c81.333 6.66699 149 25.667 203 57l28 35c15.333 18 27.666 27 36.999 27c8 0 15.167 -3 21.5 -9s10.166 -13.333 11.499 -22c0 -8.66699 -2.66699 -19.667 -8 -33
l-12 -32l-72 -88l-1 -25l-15 -26c-6.66699 -8 -15 -12.667 -25 -14c-11.333 0 -24.166 6.5 -38.499 19.5s-24.166 19.5 -29.499 19.5c-4 0 -6 -2 -6 -6l-198 6c-13.333 0 -23.333 -0.333008 -30 -1s-19.334 -2.66699 -38.001 -6s-33 -5.66602 -43 -6.99902
s-19.667 -2 -29 -2c-19.333 0 -51.333 4.66699 -96 14l-100 20l18 -16c-32 0 -48 12 -48 36c0 16 11 27.667 33 35c22 6 33 20.333 33 43c0 10 -3 32 -9 66l22 -31v40l-30 5zM296.001 785.002h-4.99902c-12 0 -19 5 -21 15c-0.666992 8 -4 11 -10 9l54 59
c8 41.333 21 87 39 137l14 -16l31 34l39 -30l30 24l37 12l-6 -22c16.667 0 25 -7 25 -21l-2 -20l-2 -19l-32 -48l-80 -31l-28 -50l8 4c-2.66699 -3.33301 -6.33398 -7 -11.001 -11c-1.33301 -0.666992 -3 -2 -5 -4l-2 2l-15 -31l-44 25z" />
    <glyph glyph-name="Ecircumflex" unicode="&#xca;" horiz-adv-x="737" 
d="M59 184l12.999 110v149l-7 126l-4 -8c0 24.667 -1.66699 44 -5 58c-2 14 -12.833 24 -32.5 30s-29.5 17.333 -29.5 34c0 26 18 39 54 39c14 0 24.667 -0.333008 32 -1s20.833 -2.66699 40.5 -6s35.834 -5.66602 48.501 -6.99902s24 -2 34 -2
c96.667 0 189.334 9.33301 278.001 28v-14c16 0 30.833 4.16699 44.5 12.5s26.5 13.166 38.5 14.499c10.667 0 26.334 -6.33301 47.001 -19l33 -56l-3 -47l57 -20l-10 -14c6 -8.66699 9.66699 -17.667 11 -27c0 -8 -3.5 -15.167 -10.5 -21.5s-14.833 -9.83301 -23.5 -10.5
c-8.66699 4.66699 -16.334 9 -23.001 13c-2 1.33301 -13.333 9.33301 -34 24c-33.333 24.667 -56.333 39 -69 43l-63 16l-41 15l-38 -14l5 -6l-16 -8l-4 18l-73 -10l17 -42l-18 -37l18 -28l-26 -25l14 4c0 -16 5 -24 15 -24c5.33301 0 11.333 2.33301 18 7l-2 -8l42 8
l-4 -16c12 0 22.833 9 32.5 27s21.5 27 35.5 27l16 -3h15l22 -66l56 -29l14 -62c6 -10 9.66699 -18.667 11 -26c0 -8 -4.33301 -15.833 -13 -23.5s-17 -11.5 -25 -11.5c-6 0 -17.667 6.33301 -35 19c-20 14.667 -37.667 26.334 -53 35.001c-12.667 6 -25.5 10.667 -38.5 14
s-26.5 5 -40.5 5l-4 6l-11 -6l-20 6l2 -6c-14.667 0 -29.667 -10 -45 -30l26 -79l-14 -24l6 -67l-18 14l13 -70l89 -5l21 -15l18 8l-3 1l12 16l87 -24c45.333 10 82.666 25 111.999 45l36 38c19.333 20 33.666 30.667 42.999 32c8 0 15.167 -3 21.5 -9
s10.166 -13.333 11.499 -22c0 -8.66699 -7 -16.667 -21 -24l-13 -51l-47 -85c-20.667 -38.667 -38 -58 -52 -58c-11.333 0 -24 6.66699 -38 20c-13.333 11.333 -23.666 17.666 -30.999 18.999c-6 0 -11 -2 -15 -6l-176 12h-152l-162 -8l-16 4l-33 7c-10 4 -15 13.667 -15 29
c0 16.667 9.66699 28 29 34c19.333 4.66699 31 14.334 35 29.001l7 45c1.33301 11.333 2.83301 19.666 4.5 24.999s4.83398 11.333 9.50098 18l-36 -12l18 27v-18zM171.999 818c-8 4 -12.668 10 -14.001 18l1 8l1 9l-3 11c28.667 23.333 83 64 163 122l-14 14
c2 3.33301 7 6.5 15 9.5s13 7.83301 15 14.5l26 -16l-7 8l20 20l18 -22c18 0 36.333 -9.66699 55 -29l38 -50l53 -54c25.333 -27.333 38.666 -45.333 39.999 -54l-3 -15l-2 -15l-14 10l-47 -33l-38 -4l6 16l-16 -2c-9.33301 0 -16.666 0.666992 -21.999 2l-15 30l-58 12
l-11 30l6 14c-5.33301 4 -10.666 6.66699 -15.999 8c-3.33301 0 -9 -4 -17 -12l-27 -3l-18 -43l-27 -21v-4c-6 -8 -13.333 -12 -22 -12c-3.33301 0 -9 6 -17 18l-14 -6c-7.33301 12 -17 22.333 -29 31z" />
    <glyph glyph-name="Edieresis" unicode="&#xcb;" horiz-adv-x="737" 
d="M68 314c0 14 -1.83594 54.998 -5.50293 122.998s-5.5 115.333 -5.5 142l4 -18c0 24.667 -1.66699 44 -5 58c-2 14 -12.833 24 -32.5 30s-29.5 17.333 -29.5 34c0 14.667 9.33301 31.667 28 51l157 -34c24.667 0 130 14 316 42l-14 -22c16 0 30.833 4.16699 44.5 12.5
s26.5 13.166 38.5 14.499c10 0 23.667 -4.33301 41 -13c0 -18 2.5 -36 7.5 -54s13.833 -38.333 26.5 -61l57 -28h-8c6 -8.66699 9.66699 -17.667 11 -27c0 -8 -3.5 -15.167 -10.5 -21.5s-14.833 -9.83301 -23.5 -10.5l-14 9c-13.333 8.66699 -26.666 18 -39.999 28
c-32.667 24.667 -62.667 37 -90 37c-28 7.33301 -56 22.333 -84 45l-2 -16l-31 -12l-16 8h-47l-7 -58l-22 -35l16 -36l-8 -25l-6 18c0 -11.333 9 -29.666 27 -54.999l34 30l-14 -8l30 -10l-8 10c12 0 22.833 9 32.5 27s21.5 27 35.5 27s24 -7.33301 30 -22l13 -39l38 -57
c14 -22 22 -43.333 24 -64l18 22c6 -10 9.66699 -18.667 11 -26c0 -8 -4.33301 -15.833 -13 -23.5s-17 -11.5 -25 -11.5c-6 0 -21 8.66699 -45 26l-50 33c-14.667 6 -37.334 17.333 -68.001 34l-16 -16h-17l-4 -14v10c-14 0 -25.667 -4.66699 -35 -14l10 -75l-28 -56l18 -71
l-16 8l47 -62c18.667 7.33301 41.334 13.333 68.001 18l20 -6l31 3l-12 -4l92 -8c29.333 -2.66699 53.333 -4 72 -4l39 67l45 22c12.667 14 23.334 21.333 32.001 22c22 0 33 -12.667 33 -38c0 -7.33301 3 -17.666 9 -30.999l-71 -35l-23 -83c-14 -41.333 -30 -62 -48 -62
c-9.33301 0 -24 7.83301 -44 23.5s-41.333 23.5 -64 23.5l-162 -14c-16 0 -38.333 3.66699 -67 11c-12.667 2.66699 -25.167 5.16699 -37.5 7.5s-22.166 3.5 -29.499 3.5l-180 -4l-6 -10c-32 0 -48 12 -48 36c0 16.667 9.66699 28 29 34c19.333 4.66699 31 14.334 35 29.001
l5 75l2 -21l-6 4l-2 15c2 4 5 27 9 69zM177.997 878.998l22 -19.999c6 49.333 21.667 88.666 47 117.999l87 -18l36 -80c-20 -33.333 -51.667 -62 -95 -86l-66 15zM386.997 878.999l20 16l15 66l57 22l45 -32l33 -84l-18 -59l-87 -27z" />
    <glyph glyph-name="Igrave" unicode="&#xcc;" horiz-adv-x="369" 
d="M59 160l10 75.0039c4 30 6 55 6 75c0 9.33301 -0.333008 16.666 -1 21.999s-3 15 -7 29l-10 52l-10 164l32 2c-22 37.333 -38 59.666 -48 66.999c-14 4 -22.667 7.66699 -26 11c-6.66699 5.33301 -10 14.333 -10 27c0 19.333 9.33301 29 28 29l31 -1l80 8
c50.667 0 114 -7.33301 190 -22v22c31.333 0 47 -12.333 47 -37c0 -14 -6.83301 -23.667 -20.5 -29s-22.5 -10.333 -26.5 -15c-11.333 -11.333 -19 -34.333 -23 -69l-10 -7l22 12l-8 -10c0 -28.667 0.333008 -52.667 1 -72c3.33301 -98 5 -162 5 -192l4 -156l2 14l-18 -62
l49 -23c18.667 -10.667 28 -23.334 28 -38.001s-12.667 -33.334 -38 -56.001l-97 34l-98 -2c-10.667 0 -28 -2.33301 -52 -7l-51 -5c-32 -0 -48 12.333 -48 37c0 16 12.333 28.333 37 37c20.667 6 31 20 31 42zM21 965.004
c-3.33301 3.33301 -5.66602 10.332 -6.99902 20.999c0 9.33301 5.66699 14 17 14c8 0 18 -2.33301 30 -7c19.333 0 36.5 1.66699 51.5 5s29.833 8.33301 44.5 15l-14 -6c10.667 0 27.667 -10 51 -30l5 -47l30 -61c16 -30 28.667 -47.333 38 -52l3 -11
c0 -14 -6.66699 -21 -20 -21c-1.33301 4.66699 -2 9 -2 13l-34 -11c-8.66699 8.66699 -20.334 16.667 -35.001 24l6 -10c-8 0.666992 -20.333 13 -37 37l-32 44c-8.66699 8.66699 -24.167 19.834 -46.5 33.501s-38.5 25.5 -48.5 35.5v14z" />
    <glyph glyph-name="Iacute" unicode="&#xcd;" horiz-adv-x="369" 
d="M39 435c0 16.667 2.99902 40.6689 8.99902 72.002l13 72l14 -8l-28 31l-16 44c-14 4 -22.667 7.66699 -26 11c-6.66699 5.33301 -10 14.333 -10 27c0 13.333 5 22.666 15 27.999c4.66699 1.33301 9 2.33301 13 3s11 1 21 1h114l58 18l102 -24l6 10
c31.333 0 47 -12.333 47 -37c0 -17.333 -12 -29 -36 -35c-10 -2 -25.333 -23.333 -46 -64l10 8l32 -5l-32 -26v8l-6 -158c0 -108 10.667 -192 32 -252l-2 -12l4 -64l32 -17c11.333 -5.33301 17 -15.333 17 -30c0 -18.667 -7.66699 -28 -23 -28c-5.33301 0 -13 2 -23 6
l-109 -26c-21.333 0 -81.666 6.66699 -180.999 20v-8c-32 0 -48 12.333 -48 37c0 16 6 26 18 30l33 13c12 8 18 26 18 54c0 21.333 -0.666992 47.666 -2 78.999s-2 52.333 -2 63c0 14 -3.33301 40.667 -10 80c-2.66699 17.333 -4.66699 32 -6 44s-2 23.667 -2 35z
M111.999 785.002h-5.00098c-14.667 0 -22 6.33301 -22 19c0 5.33301 7 11 21 17l30 33l15 94l30 31c0.666992 9.33301 6.66699 18 18 26l31 12l33 -28l30 40l21 -8v-14c16.667 0 25 -7 25 -21c0 -10.667 -22.333 -38.667 -67 -84l-81 -80h12
c-7.33301 -8 -13.666 -13 -18.999 -15l-27 -2l7 3l-13 -8l-51 -7z" />
    <glyph glyph-name="Icircumflex" unicode="&#xce;" horiz-adv-x="369" 
d="M41 551l18 -3.99805l12 67l-40 32c-14 4 -22.667 7.66699 -26 11c-6.66699 5.33301 -10 14.333 -10 27c0 8.66699 2.83301 17.5 8.5 26.5s12.5 12.833 20.5 11.5l126 -24c16.667 11.333 44.667 21 84 29c28.667 4.66699 58 7 88 7l2 -14c31.333 0 47 -12.333 47 -37
c0 -16 -8.66699 -27 -26 -33c-17.333 -4 -26 -11.667 -26 -23c0 -8 3.33301 -17.667 10 -29l-10 -12l-20 -3l32 -42c-13.333 -34 -23.333 -70.667 -30 -110s-10 -84 -10 -134c0 -2.66699 1 -9.83398 3 -21.501s5.66699 -29.834 11 -54.501c10 -46 16 -70 18 -72l-8 -34
l26 -41c12.667 -4.66699 21.667 -9.16699 27 -13.5s8 -12.5 8 -24.5c0 -20 -15.333 -36 -46 -48c-7.33301 0 -22 0.666992 -44 2s-41 2 -57 2c-27.333 0 -46.833 0.5 -58.5 1.5s-25.5 3.16699 -41.5 6.5l-28 -1l-36 -2c-48.667 0 -73 13.333 -73 40c0 16 6 26 18 30l33 13
c12 8 18 26 18 54c0 120.667 -6.66699 259.667 -20 417zM-8 837.002c0 6.66699 4.33105 16.332 12.998 28.999l65 23c5.33301 16.667 17 35.834 35 57.501s35.667 38.167 53 49.5l-18 4l52 30l-6 -24l17 6l46 -10l-22 12c10 0 19 -4 27 -12l19 -21l53 -36l44 -66l26 -24
c11.333 -10 17 -19.333 17 -28c0 -4 -5.66699 -11.667 -17 -23l-20 -19l-45 1l-2 -4l-14 4c-10.667 0 -19 -0.666992 -25 -2c-8 0 -14.333 -2.66699 -19 -8l-25 52l-42 24l-13 26l8 -6c-5.33301 4 -10.666 6.66699 -15.999 8l-5 -3v-5l-35 -17l-6 -43
c-13.333 -7.33301 -27.666 -12.333 -42.999 -15c-6 -8 -13.667 -12 -23 -12c2 -4 4 -6.66699 6 -8l-24 38l-9 -13c-34.667 12 -52 23.667 -52 35z" />
    <glyph glyph-name="Idieresis" unicode="&#xcf;" horiz-adv-x="369" 
d="M49 431l8 124.001l24 26l-20 47l-42 21c-16 8 -24 19.667 -24 35c0 17.333 11 32.666 33 45.999l114 -18l68 30h100l14 -22c31.333 0 47 -12.333 47 -37c0 -16 -8.66699 -27 -26 -33c-17.333 -4 -26 -11 -26 -21c0 -6.66699 4 -15 12 -25c-4 -14 -14.667 -29.667 -32 -47
l24 22l2 -10l-10 -128l-13 -74c-6 -31.333 -9 -56 -9 -74l6 -124l20 -18l8 -70l33 -15c10.667 -5.33301 16 -15.333 16 -30c0 -25.333 -16 -38 -48 -38c-7.33301 0 -13 0.5 -17 1.5s-11.333 3.16699 -22 6.5c-2.66699 0.666992 -9 2.16699 -19 4.5s-16.333 3.5 -19 3.5
c-76.667 0 -147.667 -8.66699 -213 -26l2 12c-32 -0 -48 12.333 -48 37c0 16 6 26 18 30l33 13c12 8 18 26 18 54c0 22 -0.333008 49 -1 81s-1 53 -1 63l-6 77zM-6 879.001l-12 1.99902c27.333 32 62.333 54.667 105 68l37 -12c12 -16.667 20.833 -36.167 26.5 -58.5
s8.5 -49.166 8.5 -80.499l-92 -3l-58 21zM203 879l-2 -20l49 72l41 22l77 -22l-3 -60c-18 -38 -43.667 -69.333 -77 -94c-36.667 30.667 -65 64.667 -85 102z" />
    <glyph glyph-name="Eth" unicode="&#xd0;" 
 />
    <glyph glyph-name="Ntilde" unicode="&#xd1;" horiz-adv-x="801" 
d="M40 0c-32 0 -48.002 12.3359 -48.002 37.0029c0 9.33301 4.83301 18.166 14.5 26.499s15.834 15.833 18.501 22.5l20 -12c16 52 24 129.667 24 233l-3 67l-3 68c0 16 2 37 6 63l10 63l-20 -8c0 28.667 -1.33301 49 -4 61s-13.5 21 -32.5 27s-28.5 17.667 -28.5 35
c0 20 8.33301 30 25 30l12 -2l66 18l85 -10l78 18l10 -18c13.333 0 23 -2 29 -6l20 -22l104 -92l77 -70c26.667 -26.667 49.334 -53 68.001 -79l18 -2c4 -6 9.33301 -9 16 -9s13.667 13 21 39l-20 3l12 61l10 3l-10 16c0 27.333 -1.33301 47.5 -4 60.5
s-13.667 22.333 -33 28s-29 17.167 -29 34.5c0 16.667 4.66699 25.334 14 26.001c5.33301 -2 9.33301 -5.33301 12 -10l66 42l57 -42l52 30l8 -10c31.333 0 47 -12.333 47 -37c0 -16.667 -8.66699 -27.5 -26 -32.5s-27.833 -15.833 -31.5 -32.5
s-6.83398 -35.5 -9.50098 -56.5s-4 -43.5 -4 -67.5c0 -13.333 -0.333008 -33.833 -1 -61.5s-1 -48.834 -1 -63.501l-2 -158l14 -208v18l-1 -10l-1 -6l3 5l-100 -13l7 -2l-22 6l-13 3c-2 5.33301 -3 9.66602 -3 12.999c0 16.667 -0.5 32.167 -1.5 46.5
s-4.16699 29.5 -9.5 45.5l-134 117c-30.667 32.667 -74.334 76 -131.001 130c-15.333 13.333 -38.666 29.666 -69.999 48.999l-72 46l18 6c-1.33301 2 -5.66602 3.66699 -12.999 5c-6 0 -15 -10.333 -27 -31l2 -65l-4 -97l-2 -98l6 -8l18 -69l24 -20
c24 -6 36 -18.333 36 -37c0 -22 -19.333 -37.333 -58 -46l-32 14l-60 -13l-60 16zM234.998 807.003l-9.00195 -4.00098c-15.333 0 -23 7 -23 21c0 18.667 14.667 43.667 44 75c34.667 36.667 54.334 59 59.001 67c16.667 -6 29 -10.333 37 -13
c14.667 -5.33301 35.334 -13.666 62.001 -24.999c52 -18.667 86.667 -28 104 -28l26 2l27 3l-9 36l7 3l-19 -20l20 14c2 4 6.66699 6 14 6c14.667 0 22 -9 22 -27c0 -24 -8.66699 -46 -26 -66l-52 -52l-34 -15l-42 4h-26.5c-5.66699 0 -10.5 -0.333008 -14.5 -1l-117 56
c-9.33301 0 -17.333 -3.33301 -24 -10l9 3l-26 -40l-11 9z" />
    <glyph glyph-name="Ograve" unicode="&#xd2;" horiz-adv-x="914" 
d="M22 324l8.00098 -18.002l-10 108l15 33c8 17.333 14.667 30.333 20 39c15.333 29.333 28.666 52.333 39.999 69l96 129c105.333 32 161.666 48 168.999 48l98 -1l99 -1c14 0 59 -17 135 -51l163 -165l6 -109l37 -60c-8 -94 -33.333 -171.667 -76 -233
c-15.333 -5.33301 -32.666 -14.666 -51.999 -27.999l-48 -33l-95 -51h-79c-25.333 0 -46.833 0.333008 -64.5 1s-34.167 1.33398 -49.5 2.00098c-6.66699 0 -12 0.333008 -16 1s-15 3 -33 7s-32.333 6 -43 6l-98 -15l-75 72c-20 15.333 -52.667 43.333 -98 84l-36 62z
M453.001 636.998l-18 12c-16.667 -30 -57.667 -65 -123 -105c-6.66699 -58 -16 -121.333 -28 -190h-20c35.333 -80 59 -150.667 71 -212l50 -56c28 0 55.167 0.333008 81.5 1l76.5 2l58 55c22 94 33 153.667 33 179l-9 100c-34 60 -55.667 109 -65 147l-61 69z
M294.001 964.998c-3.33301 3.33301 -5.66699 10.334 -7 21.001c0 9.33301 3.66699 14 11 14c4 0 9.33301 -2.33301 16 -7c8.66699 6 33 12.667 73 20l22 -3c4.66699 -0.666992 10.834 -2.5 18.501 -5.5s15.5 -14.167 23.5 -33.5c30 -31.333 55.333 -63 76 -95
c0 -4.66699 0.333008 -8.33398 1 -11.001s3 -10.334 7 -23.001l4.5 -18.5c2.33301 -9.66699 3.5 -15.5 3.5 -17.5c0 -8.66699 -4 -14.667 -12 -18c-5.33301 -1.33301 -8 -8.66602 -8 -21.999l-30 37l-19 -20l-16 18c-10.667 2 -17.334 9.66699 -20.001 23l-65 40l-10 63
l-61 52z" />
    <glyph glyph-name="Oacute" unicode="&#xd3;" horiz-adv-x="914" 
d="M22 324l-17.9961 20.001c12.667 15.333 28 49.666 46 102.999c15.333 46 34.333 78 57 96l23 70c22.667 6 47.167 16.833 73.5 32.5s46.833 32.834 61.5 51.501c8 0 22.5 0.833008 43.5 2.5s36.167 2.5 45.5 2.5c4 0 19 4.66699 45 14l44 14l116 -2
c24 -14.667 64.167 -32.834 120.5 -54.501s92.166 -36.834 107.499 -45.501c26.667 -21.333 48.334 -48.333 65.001 -81c9.33301 -20 20.666 -52.667 33.999 -98l9 -34c0 -24 -4.33301 -61.667 -13 -113c-4 -22 -6.66699 -42.333 -8 -61s-2 -36 -2 -52
c-16.667 -38.667 -47.334 -80.334 -92.001 -125.001l-73 -29c-14.667 -5.33301 -27.167 -9.66602 -37.5 -12.999s-22.5 -6.66602 -36.5 -9.99902c-8.66699 0 -18.667 -0.666992 -30 -2c-34 -4 -59 -6 -75 -6c-4.66699 0 -10.834 -1 -18.501 -3s-13.834 -3.66699 -18.501 -5
l-39 -5l-126 6c-86.667 40.667 -154 68.667 -202 84l-81 83l2 39c0 52 -7.66699 92.333 -23 121zM453.004 637.001l-16 -15.999l-71 12l-16 -71l-71 -84l5 -124l2 2l7 -124c12 -44 36.667 -82.667 74 -116l99 -20c54 13.333 105.333 59 154 137l2 74
c0 55.333 -8.33301 128.666 -25 219.999c-32 44 -68 82 -108 114zM384.004 785.002l-5 -0.000976562c-14.667 0 -22 6.33301 -22 19l1 4l3 -3c4 -4 7 -7.33301 9 -10c13.333 18.667 24.333 42.334 33 71.001c4 12 7 25.167 9 39.5s3 26.5 3 36.5l42 67l-2 -20
c6 12 22.333 18 49 18l37 -16l-4 10l61 14l-12 -8c16.667 0 25 -7 25 -21c0 -8 -2.66699 -19 -8 -33c-23.333 -19.333 -67.333 -69 -132 -149l4 18l-14 -13v8l-35 -15l-1 -6l-23 9z" />
    <glyph glyph-name="Ocircumflex" unicode="&#xd4;" horiz-adv-x="914" 
d="M22 324l-2 -19.999l-10 126l34 66l61 41l27 80c62 71.333 138 113.666 228 126.999l87 -32l96 16l91 -42l90 -7c13.333 -28 34.666 -59.333 63.999 -94l79 -83l-2 -67l31 -88l-2 -86l-28 -63c-6.66699 -14.667 -12.667 -26.667 -18 -36s-10.666 -17.333 -15.999 -24
l-46 -42l-58 -69l-57 -16c-25.333 -6.66699 -44.666 -10 -57.999 -10l-49 -3l-80 -19l-40 -10h-17h-14h-11c-26 0 -44 1.33301 -54 4c-12 2 -24.5 4.66699 -37.5 8s-32.167 9.33301 -57.5 18c-46.667 14.667 -77.334 27 -92.001 37l-47 43c-26 24 -44.333 46.333 -55 67
c-14.667 52 -27 111.333 -37 178zM453 637.001l16 -14l-75 -8l-60 -39c-15.333 -34.667 -27.5 -70.667 -36.5 -108s-13.5 -75.333 -13.5 -114l12 -4c0 -62.667 13 -132 39 -208c20 -18.667 88.667 -37 206 -55l44 55c6 52 23.667 117.667 53 197l-7 96
c-10 26 -27 57.667 -51 95l-59 91zM261 818.001c-8.66699 4 -13.3359 10.335 -14.0029 19.002c0 8.66699 1.66699 13.334 5 14.001l2 -3c34.667 25.333 72.667 57.666 114 96.999l17 45l26 20c2 0.666992 3.33301 1.66699 4 3s1.33398 2.33301 2.00098 3
c0 4 -3.33301 10.667 -10 20l46 -38l7 36l40 -24l-18 4l20 -2h21c8 -24.667 26.333 -53.667 55 -87c32 -36.667 52.333 -64.334 61 -83.001l22 2l6 -11v-8l-1 -12c0 -4.66699 1.66699 -10 5 -16l-62 -4l-17 15l-14 -28l-8 6l-16 -2c-11.333 0 -20 4 -26 12l-43 18l8 16
l-37 36l-2 6c-5.33301 4 -10.666 6.66699 -15.999 8c-2 0 -3.66699 -0.833008 -5 -2.5s-0.666016 -4.83398 2.00098 -9.50098l-55 -1c-4.66699 -16.667 -13 -38.667 -25 -66l-14 -11c-3.33301 -2 -8 -3.66699 -14 -5l-2 2c0.666992 2 1.5 3.66699 2.5 5
s3.83301 4.33301 8.5 9l-40 -20l1 47l-38 -4z" />
    <glyph glyph-name="Otilde" unicode="&#xd5;" horiz-adv-x="914" 
d="M22 324l-15.999 10.002c0 72 21 136.333 63 193l140 157c22.667 9.33301 67.167 21.666 133.5 36.999s109.166 23 128.499 23c36 0 56 -0.666992 60 -2c12 -2 41.167 -11.833 87.5 -29.5s73.5 -29.5 81.5 -35.5c64 -46 111 -102.333 141 -169l31 -75
c6 -14.667 12.167 -28.167 18.5 -40.5s12.833 -22.833 19.5 -31.5l-32 -84l-16 -67c-6 -30.667 -12.667 -51.334 -20 -62.001l-60 -84c-30 -8.66699 -69 -23 -117 -43l-115 -43c-25.333 8.66699 -59.333 16 -102 22l-104 11l-171 23c-30 30 -68.667 80 -116 150l-20 85
c-2 8.66699 -7 27 -15 55zM453.001 637.002l-6 -12l-53 2c-57.333 -82.667 -94 -173.667 -110 -273l12 -26c0 -37.333 0.833008 -70 2.5 -98s5.16699 -59.333 10.5 -94l78 -44l85 -12l37 41l58 17c18.667 22.667 35.667 50 51 82c18.667 39.333 28 70.333 28 93
c0 94 -13.667 165.333 -41 214l-47 31l-35 61zM291.001 807.002l-9.00195 -4.00098c-15.333 0 -23 7 -23 21c0 7.33301 0.333008 13 1 17s3.33398 14.167 8.00098 30.5s7.66699 30.5 9 42.5l80 19c14.667 2.66699 28.167 4.33398 40.5 5.00098s26.5 1 42.5 1
c72 -26 113.667 -39 125 -39c16.667 0 33.667 8.33301 51 25l-13 -10l-11 19l9 -6l16 10c2 4 6.66699 6 14 6c14.667 0 22 -9 22 -27c0 -26.667 -16.667 -62.667 -50 -108l-62 -25c-22 0 -52.667 9.33301 -92 28c-43.333 20.667 -79.333 31 -108 31
c-7.33301 0 -18.666 -6 -33.999 -18l-1 -21l-8 24l-19 -15z" />
    <glyph glyph-name="Odieresis" unicode="&#xd6;" horiz-adv-x="914" 
d="M122 846l-18 4c22 10 43.5 22.167 64.5 36.5s41.5 30.833 61.5 49.5l27 -38l19 -72l-11 -40l-51 -16l-80 18zM657 846v22l75 82l86 -26l5 -92c-10 -34 -30.667 -64.667 -62 -92l-85 62zM22 324l-10.0039 -6.00098c0 34 3.33301 65.167 10 93.5s16 53.166 28 74.499
c2.66699 5.33301 8.66699 14.333 18 27c2 2.66699 10.667 13.667 26 33c16.667 22.667 28 46.334 34 71.001l81 65l49 19c22.667 8 39.667 12 51 12l51 1c9.33301 1.33301 18.333 3 27 5c13.333 4 23.666 7 30.999 9c28 6.66699 47 10 57 10c28 0 64.667 -10.167 110 -30.5
s82.333 -30.5 111 -30.5c42.667 -18 82.334 -51.667 119.001 -101c33.333 -46 55.333 -93.667 66 -143c0 -58.667 -2.33301 -106.667 -7 -144s-12 -70 -22 -98c-5.33301 -16.667 -16.666 -36.667 -33.999 -60l-40 -57c-26 -6.66699 -48.167 -14.167 -66.5 -22.5
s-36.5 -19.5 -54.5 -33.5l-147 -11c-25.333 0 -49.166 -1.66699 -71.499 -5s-47.166 -7.66602 -74.499 -12.999c-63.333 42 -129 63 -197 63l-71 57c-11.333 30.667 -39.666 77.667 -84.999 141zM452.996 636.999l-57 -6l-66 -57c-16.667 -34 -28.5 -68.833 -35.5 -104.5
s-10.5 -74.167 -10.5 -115.5l22 -8l-7 -96l36 -94l54 -34c16 -10 33 -21.333 51 -34l153 68l27 75l-12 84l27 120l-24 84l-57 67c-29.333 6 -63 23 -101 51z" />
    <glyph glyph-name="multiply" unicode="&#xd7;" 
 />
    <glyph glyph-name="Oslash" unicode="&#xd8;" horiz-adv-x="916" 
d="M741 637l51.9971 21.002l2 31l46 53l-14 -24l43 -3l21 -31l-15 7l36 -26l-62 1l-38 -55l-28 -15l-14 8c12 -10.667 23.333 -22 34 -34s21.667 -25.333 33 -40c27.333 -36 43.333 -65 48 -87l5 -94v-78c-30.667 -39.333 -50 -90.666 -58 -153.999l-120 -86l-86 -13
l-74 -23l-128 -10l-40 13l-64 -20c-54 41.333 -108 67 -162 77l-59 -68l-42 9l28 -28l-36 4l-28 19l-6 44l4 -22l50 32l-1 39c14.667 21.333 25.334 34.333 32.001 39c-36 18 -65.333 51.667 -88 101l32 93l-26 108c20.667 35.333 52.334 75.666 95.001 120.999l28 86
c28 20 79.333 41 154 63l167 43c28 -8.66699 55.333 -15.834 82 -21.501s51.334 -8.5 74.001 -8.5c9.33301 -4.66699 24.333 -12.834 45 -24.501s46.667 -27.167 78 -46.5zM613.997 440.002c-62.667 -68.667 -135.666 -124.333 -218.999 -167l-75 -98
c42 -32.667 87 -57.667 135 -75l102 24c27.333 20.667 50.666 55.667 69.999 105v106c0 43.333 -4.33301 78.333 -13 105zM291.998 261.003c27.333 14.667 62.335 37.9971 105.002 69.9971c4.66699 4.66699 12 13.334 22 26.001l22 28
c17.333 25.333 32.166 43.5 44.499 54.5s33.5 25.167 63.5 42.5l66 38l-38 -16c-16 48.667 -32.667 81.334 -50 98.001c-14 12.667 -44.667 26 -92 40l-40 -14l-60 -76l-8 -57l-51 -83c3.33301 -21.333 8.66602 -71.666 15.999 -150.999z" />
    <glyph glyph-name="Ugrave" unicode="&#xd9;" horiz-adv-x="736" 
d="M69 560l2.99805 40.999c0 26 -10.667 41 -32 45s-32 16 -32 36c0 18 6 27 18 27c5.33301 0 12 -3 20 -9l80 34l197 -29l-4 14c30.667 0 46 -12.333 46 -37c0 -15.333 -9 -26.666 -27 -33.999c-17.333 -4.66699 -28 -14.667 -32 -30c-6 -27.333 -9 -52 -9 -74
c0 -10.667 2.33301 -26.334 7 -47.001l11 -48c-23.333 -74 -38.333 -147.333 -45 -220l12 -2l6 -9c0 -39.333 12 -77 36 -113l105 -26c38 30 74 56 108 78l22 67c-3.33301 4 -9 41 -17 111c-3.33301 38.667 -5.66602 63.667 -6.99902 75s-3.66602 29.333 -6.99902 54l34 106
l-40 6c-8 26 -13 49.333 -15 70c-13.333 4 -21.666 7.66699 -24.999 11c-7.33301 5.33301 -11 13.666 -11 24.999c0 20.667 11 31 33 31c19.333 0 39.833 -1 61.5 -3s47.5 -5.66699 77.5 -11l21 16l18 4c31.333 0 47 -12 47 -36c0 -15.333 -5.33301 -25.333 -16 -30l-30 -11
c-10.667 -7.33301 -16 -22.666 -16 -45.999c0 -12 -2 -23.667 -6 -35l45 -318l-12 10c0 -6 0.166992 -10.167 0.5 -12.5s1.16602 -4.5 2.49902 -6.5l2 2c-14 -73.333 -39.667 -128.666 -77 -165.999l-80 -50l-44 -30l-125 13l-100 -33l-179 80l-50 86l-12 76
c0 5.33301 -2 8 -6 8c0 40.667 1 81 3 121s6 80.667 12 122l46 95zM197.998 985.999c0 8.66699 3.33301 13.333 10 14c1.33301 -0.666992 2.83301 -1.33398 4.5 -2.00098s3.83398 -2.33398 6.50098 -5.00098c10 2.66699 20.667 6.33398 32 11.001
c14 6.66699 25 11.667 33 15l35 -22l8 10c12 0 27.667 -9.33301 47 -28c18.667 -31.333 28 -72.333 28 -123c20.667 -18.667 37 -31.667 49 -39l3 -11c0 -7.33301 -5 -13.666 -15 -18.999l-29 -11l-12 35l-25 -27l-6 5l2 12c-4 0.666992 -6.83301 1.66699 -8.5 3
s-2.83398 2.33301 -3.50098 3l4 3l-42.5 38l-47.5 45c-48.667 48.667 -73 79.667 -73 93z" />
    <glyph glyph-name="Uacute" unicode="&#xda;" horiz-adv-x="736" 
d="M69 560l2.99902 41c0 26 -10.667 41 -32 45s-32 16 -32 36c0 26.667 22 40 66 40l35 -4l33 -4l105 -5l76 30l-4 -20c30.667 0 46 -12.333 46 -37c0 -15.333 -10.333 -27 -31 -35c-20 -6 -30 -20 -30 -42c0 -4.66699 1.33301 -11.334 4 -20.001s7 -19 13 -31l-28 -99
l17 -127l-26 -105l-2 4c6 -18.667 13 -46 21 -82l31 -46l77 4l103 -4l51 60c0 44 -5.33301 76.333 -16 97l6 76c0 74 -3.66699 147.333 -11 220l-16 -2l14 95c-47.333 0 -71 12.333 -71 37c0 27.333 18.333 41 55 41l51 -12c12 0 27.333 2.16699 46 6.5
s42.334 10.833 71.001 19.5l-12 -18c31.333 0 47 -12 47 -36c0 -16.667 -10.333 -28.167 -31 -34.5s-31 -22.166 -31 -47.499c0 -13.333 6 -28 18 -44l-3 -54c0 -57.333 7.33301 -105.666 22 -144.999l-16 -91c4 -13.333 13 -35.666 27 -66.999
c-17.333 -52.667 -52.333 -107.334 -105 -164.001l-53 -5l-65 -51l-107 19l-136 -29c-50 36 -103.667 58 -161 66l-56 94v84c0 8 -2 20 -6 36c0 27.333 6.66699 59.666 20 96.999c8 23.333 14.167 42 18.5 56s7.83301 27 10.5 39c0.666992 2 2 10.5 4 25.5s3 27.5 3 37.5
l3 65zM294.999 785c-18 0 -26.999 6.33398 -26.999 19.001c0 1.33301 0.5 2.5 1.5 3.5l2.5 2.5c7.33301 -2 12.333 -3.66699 15 -5v89c24.667 31.333 45 59.666 61 84.999l18 10c5.33301 10 23.666 16.667 54.999 20l5 -24l34 38l45 -34l-8 18c16.667 0 25 -7 25 -21
c0 -8.66699 -4 -13 -12 -13l-10 2l-24 -70l-68 -33l-22 -46v-4l-13 -13c2 4.66699 3.66699 8 5 10l-19 -33l-59 -6l13 -7z" />
    <glyph glyph-name="Ucircumflex" unicode="&#xdb;" horiz-adv-x="736" 
d="M69 560l3 40.998c0 26 -10.667 41 -32 45s-32 16 -32 36c0 20.667 16.667 35.334 50 44.001l72 10l119 -35l76 10l-6 8c30.667 0 46 -12.333 46 -37c0 -15.333 -10.333 -27 -31 -35c-20 -6 -30 -20 -30 -42c0 -8 5 -17 15 -27l-42 -123l23 -208l-18 -20l14 -7l-5 -65
l55 -68c33.333 18 75.666 27 126.999 27l27 -1l21 16l38 95l-10 26l18 106c-20 68.667 -33.667 137.334 -41 206.001l14 16l-22 59l-11 9c-13.333 4 -21.666 7.66699 -24.999 11c-7.33301 5.33301 -11 13.666 -11 24.999c0 14.667 5.66699 25 17 31
c6 0.666992 11.667 1.5 17 2.5s11.666 2.83301 18.999 5.5l59 16l52 -20l47 2c31.333 0 47 -12 47 -36c0 -17.333 -12 -29.666 -36 -36.999c-15.333 -4 -24 -17.333 -26 -40c0 -18 -4 -26.333 -12 -25l42 -141c-15.333 -48.667 -23 -117 -23 -205l20 18v-10
c0 -10 -1.66699 -21 -5 -33l12 -102c-16.667 -18 -37.167 -34.5 -61.5 -49.5s-53.833 -29.167 -88.5 -42.5c-25.333 -10 -82.666 -27 -171.999 -51c-76.667 0 -148 9.66699 -214 29l-67 44c-21.333 42.667 -37.5 79.5 -48.5 110.5s-16.5 57.167 -16.5 78.5l-1 21l34 75
l-27 140l14 77zM172 817.998c-6.66699 2.66699 -11 7.00098 -13 13.001v19c0 6.66699 -2.66699 12.667 -8 18c23.333 15.333 50.333 35.666 81 60.999c35.333 30 58.666 53.667 69.999 71h4l15 9c8 4 12.333 8.33301 13 13l38 -26l-5 4l10 34l16 -20c15.333 0 23 -12 23 -36
l62 -21c39.333 -33.333 67.333 -75 84 -125l10 12c4 -5.33301 6.33301 -11 7 -17l-2 -9c-1.33301 -4 -1 -7 1 -9l-52 16l-17 -33l-40 -6h12l-16 -2l-32 6l-37 46l10 30l-29 24l-12 -18c-5.33301 4 -10.666 6.66699 -15.999 8l-21 -6l-29 -43l6 13l-45 -25v-22
c-6 -8 -13.333 -12 -22 -12l-31 8v12l-7 -15l-48 42z" />
    <glyph glyph-name="Udieresis" unicode="&#xdc;" horiz-adv-x="736" 
d="M145 868l2 44l103 28l40 -8l33 -64l-21 -68l-64 -52l-80 42c-8.66699 36.667 -13 62.667 -13 78zM485 852l-4 -10l8 64l144 22l2 -95l-24 -57l-32 -8c-30.667 24 -62 52 -94 84zM69 560l3 41c0 26 -10.667 41 -32 45s-32 16 -32 36c0 19.333 19.333 36 58 50
c52 0 100.333 -8.33301 145 -25l126 30l-18 -18c30.667 0 46 -12.333 46 -37c0 -15.333 -10.333 -27 -31 -35c-20 -6 -30 -22.667 -30 -50l2 -25l3 -20c-16.667 -118.667 -25 -194.667 -25 -228l4 -113l-6 16l18 -23l-13 -43c47.333 -46.667 97.333 -76.667 150 -90l45 50
l57 12l20 91l-6 26c0 20 2 51.667 6 95l7 95l-22 104l12 12l-24 81l-39 13c-14.667 7.33301 -22 18 -22 32c0 22 22.333 39 67 51c25.333 -12.667 51 -23.334 77 -32.001l53 8l14 10c31.333 0 47 -12 47 -36c0 -16.667 -10.333 -28.167 -31 -34.5s-31 -22.166 -31 -47.499
c0 -14 2.66699 -24.667 8 -32l6 -119l-13 -96l28 -117l-2 16c0 -8.66699 1.66699 -16.334 5 -23.001c-23.333 -72.667 -47 -127.334 -71 -164.001l-112 -58c-22.667 -10 -44 -17.667 -64 -23s-39 -8 -57 -8h-26h-21h-16h-13c-28.667 0 -48 1 -58 3
c-50.667 6 -109 28 -175 66c-14 62 -32 115 -54 159l1 9l1 -8c8.66699 48 13 124.333 13 229c0 12.667 0.333008 21.834 1 27.501s3 16.834 7 33.501l12 62z" />
    <glyph glyph-name="Yacute" unicode="&#xdd;" 
 />
    <glyph glyph-name="Thorn" unicode="&#xde;" 
 />
    <glyph glyph-name="germandbls" unicode="&#xdf;" horiz-adv-x="709" 
d="M80 270l-12 219.002l6 -4l-1 96l46 99l86 19l39 40l127 -15c51.333 -4.66699 91.666 -14.667 120.999 -30l39 -34l35 -93l-8 -66l-42 -47l9 -4l-16 -5l-17 18l-6 -18c-10 -8 -15 -17 -15 -27c0 -5.33301 11.333 -16 34 -32l45 -28c16 -8.66699 37.667 -23.334 65 -44.001
l69 -75l17 -74l-22 -74c-25.333 -23.333 -60 -58.666 -104 -105.999l-92 -18l-55 43l-58 21c-6.66699 2 -15 10.333 -25 25c-7.33301 13.333 -11.666 24.666 -12.999 33.999c0 18.667 8.66699 28 26 28c8.66699 0 21.334 -8.83301 38.001 -26.5s34 -26.5 52 -26.5
c12 0 23 5 33 15s15 21.333 15 34c0 13.333 -9.66699 30 -29 50l3 15l-64 91c-16.667 15.333 -41.334 44.666 -74.001 87.999l57 107l27 40l33 73l-36 56l-60 21l-25 -41l-52 -22l14 -92c2.66699 -19.333 4.66699 -36 6 -50s2 -27.667 2 -41
c0 -24.667 -2.33301 -59.334 -7 -104.001l-7 -104l8 -199l2 20c0 -9.33301 -3.33301 -20.666 -10 -33.999c-43.333 0 -79.333 1.83301 -108 5.5s-55 10.5 -79 20.5l-68 -8l-4 -6c-22 0 -33 10 -33 30c0 13.333 9 23.666 27 30.999c20.667 6.66699 34 16.334 40 29.001
c3.33301 6.66699 5 18.667 5 36v37l10 54c4 22 6 39.667 6 53z" />
    <glyph glyph-name="agrave" unicode="&#xe0;" horiz-adv-x="642" 
d="M315 303l6 30l-1 -18l-6 40l-26 -16l4 83l-71 -4c-28 0 -53.667 -10.667 -77 -32c-20 -18 -35.333 -27.667 -46 -29c-20.667 0 -31 9.33301 -31 28c0 15.333 16.333 42.333 49 81l70 15l57 37l53 -12l89 10l106 -58l47 -63l-7 -91l44 -34l15 -81l-10 -20l45 -61l17 -7
c6.66699 0 13 2.66699 19 8l9 8c8.66699 0 15 -10 19 -30l-20 -66l-51 -43l-98 -5l-49 9l-69 54l-9 6c-53.333 -37.333 -100 -56 -140 -56c-48.667 0 -113.667 15.333 -195 46c-4.66699 18 -22.667 59 -54 123l10 54l50 70c26 14 57.667 23 95 27l99 2
c6.66699 0 15 -0.333008 25 -1s20.667 -2 32 -4zM363 147l5 40l-28 27l-3 18c-16.667 2.66699 -33 10 -49 22l-42 -40l-28 -61l52 -40.5c15.333 -12.333 28.333 -23.5 39 -33.5c38 0 57 15.667 57 47zM158 730c-3.33301 3.33301 -5.66699 10.3311 -7 20.998
c0 12.667 18.667 24.334 56 35.001l40 -18l39 18l-6 -14c15.333 0 23 -7.33301 23 -22c30.667 -45.333 58 -89 82 -131l35 -17l-16 -20l3 -11c0 -7.33301 -5 -13.666 -15 -18.999l-27 -13l-14 3l-3 31l-18 -27l-8 20c-11.333 2 -23 14.333 -35 37l-20 46l-66 35l-31 46h-12z
" />
    <glyph glyph-name="aacute" unicode="&#xe1;" horiz-adv-x="642" 
d="M315 303l9.99902 16l-5 -10l2 14c-11.333 6 -29.333 29.667 -54 71l-47 24c-27.333 0 -52.166 -10.167 -74.499 -30.5s-38.5 -30.5 -48.5 -30.5c-20.667 0 -31 9.33301 -31 28c0 4.66699 0.666992 9.5 2 14.5s4.33301 13.5 9 25.5l16 41l72 23l51 41l95 4l105 -30l72 -48
l20 -76l18 -76c12 -40.667 29.667 -81.667 53 -123l-14 12l27 -73l49 -19c6.66699 0 13 2.66699 19 8l9 8c8 0 12 -5.33301 12 -16l-1 -44l-125 -84c-52 23.333 -97 40 -135 50l-19 13c-2 -5.33301 -3 -10 -3 -14l-97 -45l-161 19l-123 83v54l12 66l50 46
c62.667 19.333 122 40.333 178 63c7.33301 0 15.833 -0.333008 25.5 -1s20.167 -2 31.5 -4zM359.999 191l-9.99902 -7l-13 46l-26 5c-6.66699 -2 -12.334 -3.33301 -17.001 -4l-48 -13l-6 -37l1 -67l68 -35c38 0 57 14.667 57 44l-2 34zM243 550
c-14.667 0 -22.001 6.33398 -22.001 19.001l4 17l5 16l6 59l65 52v21l18 21c5.33301 6 12.333 9.66699 21 11c8.66699 0 19.334 -2.66699 32.001 -8l15 26l44 10l17 -14l2 -8c16.667 0 25 -7 25 -21c0 -8.66699 -4.66699 -22.334 -14 -41.001l-73 -66
c-28 -26 -49 -51 -63 -75l14 18l-34 -31l-31 17l-11 -2l-3 -17z" />
    <glyph glyph-name="acircumflex" unicode="&#xe2;" horiz-adv-x="642" 
d="M315 303l1.99805 34.001l-17 12l8 -16l-6 -2l-50 79l-31 8c-27.333 0 -52.166 -10.167 -74.499 -30.5s-38.5 -30.5 -48.5 -30.5c-20.667 0 -31 9.33301 -31 28c0 26 21 43 63 51l56 67l47 25l73 10l155 -66l81 -95c8.66699 -18.667 18.334 -48.667 29.001 -90l25 -92
l-2 -28c13.333 -26 29.333 -48 48 -66c6.66699 0 13 2.66699 19 8l9 8c6 0 9.33301 -1.33301 10 -4h-9l-10 -54l-39 -51l-94 -9c-12 0 -30 3 -54 9l-53 15l-19 13c-2 -2.66699 -3.33301 -5 -4 -7c-2.66699 -5.33301 -5.66699 -13.666 -9 -24.999l-59 7l-109 -33l-76 14
c-32 21.333 -75.667 54.333 -131 99v62l14 44l46 56c42.667 25.333 104 43.666 184 54.999c10 1.33301 29 -0.333984 57 -5.00098zM362.998 147.001l-6.99902 5.99902l2 35l-33 32l12 10l-18 4c-0.666992 -1.33301 -0.333984 -2.66602 0.999023 -3.99902l-74 -26l-14 -57
l11 -45l66 -23c38 0 57 14.667 57 44zM124.999 583c-9.33301 4 -13.998 10.332 -13.998 18.999c0 6 5.66699 20.333 17 43l49 15c18.667 36.667 42.667 77 72 121l10 -16l22 14l-6 2l46 -10l23 6l20 -6l-18 8c12 0 29.667 -8.66699 53 -26l18 -53
c54 -30 97.333 -62.333 130 -97l-22 6c4.66699 -7.33301 7 -13 7 -17s-1.66699 -6.33301 -5 -7c-4.66699 0.666992 -9.33398 4.33398 -14.001 11.001v-36l-53 17l-26 -16v-10l-16 -2c-8.66699 0 -13.334 2.33301 -14.001 7l4 9l-33 42l-38 -18l-23 38l4 10l-19 8l8 6
l-65 -35l18 -21l-39 -33h-8c-6 -8 -13.333 -12 -22 -12l-3 -2l4 -8l-32 32l-33 7l14 4h-16z" />
    <glyph glyph-name="atilde" unicode="&#xe3;" horiz-adv-x="642" 
d="M315 303l-23.999 2.00195l13 46l2 -8l-2 -12l-34 83l-56 4c-22.667 0 -45.167 -10.167 -67.5 -30.5s-38.5 -30.5 -48.5 -30.5c-20.667 0 -31 9.33301 -31 28c0 8 4.33301 22 13 42l18 43l78 33l63 -9l45 24l135 -12l68 -50c0 -20 6 -43.833 18 -71.5
s25.333 -50.5 40 -68.5l-2 -80l41 -61l20 2l-11 -73l49 -3c6.66699 0 12.667 2.33301 18 7l10 9l31 -18l-20 -80l-83 -1l-46 -29c-30.667 6.66699 -74.334 18 -131.001 34l-19 13c-0.666992 -0.666992 -1 -1.33398 -1 -2.00098c-2.66699 -5.33301 -4.66699 -12 -6 -20l-83 1
c-60 0 -116.333 -11.667 -169 -35l-67 44c-18 46.667 -39.333 89 -64 127l38 50l12 70c44.667 0 110 12.333 196 37c6.66699 1.33301 25.667 -0.333984 57 -5.00098zM364.001 185.002l-20.001 13l-3 46l-4 -14l-47 12l-44 -44l-14 -53
c16.667 -16.667 42.334 -38.667 77.001 -66c38 0 57 14.667 57 44l-1 31zM155 572.002l-8.99805 -4c-15.333 0 -23 7 -23 21c0 8 3.16699 18.5 9.5 31.5s13.166 21.833 20.499 26.5l26 67l63 11l42 -31l73 -9c6.66699 0 17.667 -3.33301 33 -10s28.333 -10 39 -10
c16 0 31.667 6.33301 47 19l-15 2l27 -9l3 46l-10 -20c2 4 6.66699 6 14 6c14.667 0 22 -9 22 -27c0 -32.667 -12.667 -56.667 -38 -72l-12 -58l-67 -3c-12 0 -28.667 2 -50 6l-50 9c-32.667 21.333 -64.334 36 -95.001 44c-8 2 -12.333 -0.333008 -13 -7l3 -7l-25 -9
l-24 16l-11 -29h20z" />
    <glyph glyph-name="adieresis" unicode="&#xe4;" horiz-adv-x="642" 
d="M115 645l-22 -12.001l57 85l50 22c29.333 -31.333 62 -62.666 98 -93.999l-23 -72l-83 1l-60 27zM326 645.999h-20l41 52c28 3.33301 70 11.333 126 24l37 -66l-23 -76l-82 -5l-66 7zM315 302.999l-13.999 24.0039l23 -8l-38 6l4 40l-20 51l-55 2
c-23.333 0 -46.166 -10.167 -68.499 -30.5s-38.5 -30.5 -48.5 -30.5c-20.667 0 -31 9.33301 -31 28c0 25.333 21 43.666 63 54.999l40 51l61 19l127 -18c47.333 -8 87.666 -22 120.999 -42l57 -79c0 -18 1.16699 -35.5 3.5 -52.5s7.5 -42.5 15.5 -76.5l29 -43l-8 -16l55 -43
l11 -39c6.66699 0 13 2.66699 19 8l9 8c7.33301 0 11 -6 11 -18c0 -8 -0.666992 -14.667 -2 -20l8 -42l-208 -49l-37 24c-12.667 8 -26 16 -40 24c-4.66699 -2.66699 -7.66699 -5.33398 -9 -8.00098l-85 -11l-57 -47l-124 24c-22.667 41.333 -47.667 67.666 -75 78.999
l-34 92l50 104c45.333 12 108.666 25 189.999 39c9.33301 1.33301 28.333 -0.333984 57 -5.00098zM363.001 147.003l5 24v29l-13 42l-18 -12l-15 3c-10.667 0 -24.667 -5.66699 -42 -17h-28l-4 -39l15 -75l46 -23c38 0 57 15.667 57 47z" />
    <glyph glyph-name="aring" unicode="&#xe5;" horiz-adv-x="642" 
d="M315 303l9.99805 26.001l-7 16l-32 -4l12 18l-12 39l-65 20c-27.333 0 -52.166 -10.167 -74.499 -30.5s-38.5 -30.5 -48.5 -30.5c-20.667 0 -31 9.33301 -31 28c0 14 13.667 39 41 75l56 7l61 55c34 0 65 -2.83301 93 -8.5s56.333 -15.5 85 -29.5l54 -40l83 -45l9 -87
l-6 -74l21 -43l78 -94c6.66699 0 13 2.66699 19 8l9 8c8 0 16.333 -13.333 25 -40c-26.667 -16 -59 -47.667 -97 -95l-72 -15l-55 51l-50 5l-19 13l3 -12c-51.333 -24 -102 -36 -152 -36c-13.333 0 -32.666 2 -57.999 6l-58 10l-61 46l-60 11l-22 94
c66 82 122.333 129.333 169 142l95 11c10 1.33301 29 -0.333984 57 -5.00098zM204.998 668.001l4 -22l48 110l58 29l75 -29l22 -81l-2 -73l-107 -37l-66 19zM349.998 169.001c0 4.66699 -0.333008 12.168 -1 22.501s-2 22.5 -4 36.5l-25 5c-6 0 -9.33301 -2.33301 -10 -7
l-56 8l-4 -61l23 -61l36 -33c38 0 57 14.667 57 44c0 13.333 -5.33301 28.666 -16 45.999zM314.998 716.002c-11.333 0 -22.166 -4.83105 -32.499 -14.498s-15.5 -20.834 -15.5 -33.501c0 -13.333 4.66699 -24.833 14 -34.5s20.666 -14.5 33.999 -14.5c12 0 22.667 5 32 15
s14 21 14 33c0 13.333 -4.66699 24.666 -14 33.999c-8 10 -18.667 15 -32 15z" />
    <glyph glyph-name="ae" unicode="&#xe6;" horiz-adv-x="923" 
d="M317 303l-18.0049 18.999l13 7l-28 27l20 -20c-10.667 28.667 -19 47.334 -25 56.001c-12.667 16.667 -30.334 25 -53.001 25c-29.333 0 -56.166 -10.167 -80.499 -30.5s-39.166 -30.5 -44.499 -30.5c-18 0 -29 6 -33 18v37c0 9.33301 -1.66699 18.333 -5 27l151 60
l90 11c39.333 4 69.333 9.33301 90 16l65 -66c28.667 12.667 72.667 25 132 37s102.333 23 129 33c50 -36 84.333 -55 103 -57c56.667 -80.667 85 -130 85 -148c-1.33301 -2 -2.33301 -3.33301 -3 -4c-4.66699 -6 -12.334 -13.333 -23.001 -22l-81 -2l-76 -68l-139 -22h20
c-3.33301 -2 -5.66602 -6 -6.99902 -12c0 -17.333 19.333 -39.333 58 -66c30.667 -20 56 -34 76 -42c27.333 7.33301 71.333 27.333 132 60l17 14c6 6 12.667 9 20 9c17.333 0 26 -9 26 -27c0 -23.333 -12.667 -35 -38 -35c-25.333 -36 -56.666 -75 -93.999 -117l-80 10
l-78 -16l-73 24l-63 -10l-70 38c-23.333 0 -47.666 -3.5 -72.999 -10.5s-51.666 -16.833 -78.999 -29.5c-20 0 -38.667 1 -56 3l-42 5c-42 6 -74.333 9 -97 9l-56 53l-31 98l17 55c32.667 28.667 81.334 58 146.001 88l102 2c12.667 0 30.667 -2 54 -6zM349.995 160.999
l8 36.999l-1 33l-20 -2l-14 3c-4.66699 0 -6 -5.66699 -4 -17l-85 12l-25 -52c38 -37.333 71.333 -68.666 100 -93.999c40 0 60 14.667 60 44c0 8.66699 -6.33301 20.667 -19 36zM589.995 278.998l51 27.001l4 19l61 9l-18 -12l6 4l-13 -7l4 62c-36 34 -56 51.667 -60 53
c-6 0 -12.667 -4.66699 -20 -14l-38 -11l-13 -51c0 -17.333 2 -34.333 6 -51s11.333 -25.334 22 -26.001z" />
    <glyph glyph-name="ccedilla" unicode="&#xe7;" horiz-adv-x="589" 
d="M512 265c-19.333 0 -29.001 14.332 -29.001 42.999c0 9.33301 5.66699 15 17 17l-54 74l-54 29l-77 -7c-7.33301 -40 -29 -92.667 -65 -158l30 -122c14 -22 49.667 -44.333 107 -67l16 1h15c14.667 0 27.667 -2.33301 39 -7c4 17.333 17 44.333 39 81
c25.333 42.667 46.333 64 63 64c20 0 30 -11.667 30 -35c0 -30.667 -13.667 -58.667 -41 -84l-25 -71c-21.333 -10 -42.833 -17.667 -64.5 -23s-45.5 -8 -71.5 -8l-141 -1c-60.667 28 -118.667 66 -174 114l-32 58v174l46 64l67 44l30 60l77 -9c5.33301 0 13.5 1 24.5 3
s25.167 5.33301 42.5 10l74 15l49 -16c9.33301 -3.33301 26 -9.66602 50 -18.999c57.333 -22 86 -40.333 86 -55c0 -4 -10.333 -18.333 -31 -43l8 -51l-17 -45c-9.33301 -20 -20.666 -30 -33.999 -30zM220.999 -108.001l7.99902 -12l7 68l87 24l41 -4l31 -101
c-10.667 -8.66699 -23.667 -22 -39 -40l-28 -53c-4 -6.66699 -14 -14 -30 -22c-13.333 -6 -25.666 -9.66699 -36.999 -11c-16 0 -24.333 5.33301 -25 16c0 12 10.833 24.167 32.5 36.5s32.5 22.833 32.5 31.5c-3.33301 0 -5.33301 -0.5 -6 -1.5s0 -2.16699 2 -3.5l-67 34z
" />
    <glyph glyph-name="egrave" unicode="&#xe8;" horiz-adv-x="606" 
d="M291 205c-4 -1.33301 -7.99609 -4 -11.9961 -8l9 -31c26 -34 65.333 -62.333 118 -85l98 17l35 38c19.333 20 34 30 44 30c18 0 27 -9.33301 27 -28c0 -19.333 -13.667 -33 -41 -41l-48 -71c-42 -15.333 -81.333 -27.333 -118 -36s-67.334 -13 -92.001 -13l-94 10
c-58.667 43.333 -109.334 72.333 -152.001 87l-43 80l6 166c16 36.667 39.667 81.667 71 135c41.333 20.667 111.666 42 210.999 64l107 -16c36 -35.333 78.333 -64.333 127 -87c4.66699 -6.66699 10.5 -16 17.5 -28s11.833 -20.667 14.5 -26
c7.33301 -16 11.666 -28.667 12.999 -38l1 -3c-69.333 -50 -133 -83 -191 -99l-114 5zM259.004 282l-11 -10.001l69 29c25.333 10.667 46.333 22 63 34l-12 -12c4 2 7.33301 5.33301 10 10l-2 9l-25 18l-2 43l-35 51c-42 -32.667 -68 -63.667 -78 -93
c0 -5.33301 0.333008 -11.833 1 -19.5s2.5 -18.667 5.5 -33s8.5 -23.166 16.5 -26.499zM140.004 729.999c-3.33301 3.33301 -5.66797 10.334 -7.00098 21.001c0 10 12 19 36 27l44 12l-4 -30l53 -8v20c4.66699 0 8.33398 -0.333008 11.001 -1s5 -1.66699 7 -3l-5 -2l69 -55
l-9 -90l59 -55l-8 16l3 -11c0 -14 -6.66699 -21 -20 -21c-1.33301 1.33301 -2.33301 2.66602 -3 3.99902c-4 5.33301 -7 10.333 -9 15l-4 -23l-11 -7l-18 31l-20 -4c-8 1.33301 -12 5.33301 -12 12l6 21c-44 22 -75 40.333 -93 55s-39.667 42.667 -65 84v-8z" />
    <glyph glyph-name="eacute" unicode="&#xe9;" horiz-adv-x="606" 
d="M291 205c-4 -1.33301 -7.99902 -4 -11.999 -8l-1 -21l54 -66l90 7l68 -17l43 36c25.333 20 42 30 50 30c18 0 27 -9.33301 27 -28c0 -10 -4.33301 -19.333 -13 -28l-24 -21l-62 -71l-82 -2l-86 -35l-128 4c-128.667 58 -193 172.333 -193 343c28 27.333 55 62.333 81 105
c50.667 16 98.667 41.333 144 76l91 -8l59 24c20 -10.667 52.333 -30.667 97 -60c17.333 -12 36.666 -32.667 57.999 -62c24.667 -34 37 -60.333 37 -79c0 -8 -16 -15 -48 -21l-59 -9l-97 -70l-94 3v-22zM259.001 282c4 0 6.33398 2.66602 7.00098 7.99902l27 29l62 11
l1 -13c6 2 13.333 7.33301 22 16l-2 9l9 42c-32.667 22.667 -71.334 34 -116.001 34l-26 -1l-7 -56c0 -5.33301 0.333008 -11.833 1 -19.5s2.5 -18.667 5.5 -33s8.5 -23.166 16.5 -26.499zM230.002 549.999c-18 0 -27 6.33301 -27 19l3 35l34 29
c10.667 46 24.334 83 41.001 111l20 10c4.66699 8.66699 11 13 19 13c6 0 12.667 -2.33301 20 -7c16.667 4.66699 37 8 61 10l15 16l16 -14c16.667 0 25 -7 25 -21c0 -9.33301 -6.33301 -14 -19 -14c-4.66699 0 -8.33398 0.333008 -11.001 1l-14 -42
c-52.667 -43.333 -84 -84.333 -94 -123l2 14c-15.333 -18.667 -30.333 -30 -45 -34l-17 -16l-49 11z" />
    <glyph glyph-name="ecircumflex" unicode="&#xea;" horiz-adv-x="606" 
d="M291 205c-4 -1.33301 -7.99902 -4 -11.999 -8l11 -41c41.333 -8 82 -32.333 122 -73l96 15l33 39c17.333 18 31.333 27.667 42 29c18 0 27 -9.33301 27 -28c0 -7.33301 -3.66699 -20.333 -11 -39l-14 -40c-22.667 0 -51.334 -8.66699 -86.001 -26l-82 -37l-106 -19
c-58.667 12 -113 32.333 -163 61c-54.667 32 -97.334 70.667 -128.001 116c1.33301 10.667 3.33301 24.834 6 42.501s7.83398 46 15.501 85s11.5 74.5 11.5 106.5l34 57l82 60l36 -1c64 0 128 8.33301 192 25l91 -38c67.333 -90.667 101 -146.334 101 -167.001
c0 -1.33301 -1 -3 -3 -5c-99.333 -44.667 -203 -82.667 -311 -114h16zM259.001 282c4 0 6.99902 3.33203 8.99902 9.99902c12.667 8 38.334 12 77.001 12l23 39v-20c4 2 7.33301 5.33301 10 10l-2 9l-27 42v27l-45 9l-41 -15l-27 -44c0 -5.33301 0.333008 -11.833 1 -19.5
s2.5 -18.667 5.5 -33s8.5 -23.166 16.5 -26.499zM107 582.999c-8.66699 4 -13.002 13.668 -13.002 29.001c-5.33301 -2 -8.66602 -3.66699 -9.99902 -5c36 50 73.333 83 112 99l37 71l8 -12c6 8 13.667 12 23 12c4 -2.66699 6.33301 -5.33398 7 -8.00098l32 26l13 -24l8 16
l4 -8l9 -1h8c6 0 9.33301 2.33301 10 7l54 -71l60 -34l24 -43c14 -25.333 21 -40.333 21 -45l-3 -16l-2 -18l-85 -13l-8 6l-16 -2c-11.333 0 -20 8.66699 -26 26l-37 -4l-2 36l-27 46l-8 -16c-5.33301 4 -10.666 6.66699 -15.999 8l-11 -2l-10 -2
c-20 -23.333 -30.333 -40 -31 -50l-28 -23c-14 -12 -24.333 -18 -31 -18c-4.66699 0 -7 7.33301 -7 22l-18 -12l-35 13l-16 -8z" />
    <glyph glyph-name="edieresis" unicode="&#xeb;" horiz-adv-x="606" 
d="M279 197c0 -10.667 16.998 -42.999 50.998 -96.999l84 15l72 -23l44 40c25.333 22 43 33.333 53 34c18 0 27 -9.33301 27 -28c0 -19.333 -11.667 -33 -35 -41l-54 -83l-29 2c-24 0 -57.5 -4.83301 -100.5 -14.5s-71.167 -14.5 -84.5 -14.5l-64 6
c-61.333 37.333 -116.666 67.666 -165.999 90.999l-59 74c0 23.333 0.333008 54.833 1 94.5s1 67.5 1 83.5c6.66699 29.333 24 59 52 89c26 26.667 55 47.334 87 62.001c36 5.33301 77.833 10.666 125.5 15.999s94.5 8 140.5 8c20.667 -19.333 60.334 -51 119.001 -95
c6.66699 -4 15.667 -18.667 27 -44c12 -24 18 -40 18 -48l-1 -21c-16.667 -4 -30 -7.33301 -40 -10s-29.333 -9 -58 -19c-2.66699 -2 -10.667 -6.33301 -24 -13l-61 -31l-98 -23c-8 0 -17.333 -3.33301 -28 -10zM258.998 282.001c3.33301 0 6.99902 -6 10.999 -18l73 46
l11 25l14 -12c4 2 7.33301 5.33301 10 10l-2 9l-27 8l10 85l-59 21c-17.333 -28.667 -38.666 -60.334 -63.999 -95.001c0 -5.33301 0.333008 -11.833 1 -19.5s2.5 -18.667 5.5 -33s8.5 -23.166 16.5 -26.499zM111.997 644.001c2 6.66699 4.83203 15 8.49902 25
s9.5 23 17.5 39l65 28l71 -14c0.666992 -4 1 -8 1 -12v-12c0 -34 -7.33301 -67.667 -22 -101l-74 -61c-13.333 32.667 -35.666 68.667 -66.999 108zM320.996 644.001l-6 -8l19 76l71 10l49 -24l35 -72l-14 -51l-53 -29l-63 27z" />
    <glyph glyph-name="igrave" unicode="&#xec;" horiz-adv-x="345" 
d="M292 407c0 -15.333 -2 -40.1699 -6 -74.5029s-6 -59.833 -6 -76.5l12 -96l-12 -18l-5 -45l55 -35l21 -11c5.33301 -3.33301 8 -10.666 8 -21.999c0 -13.333 -4.33301 -20 -13 -20c-4 0 -8 3 -12 9l-91 -28l-122 32l-99 -34l-4 12c-21.333 0 -32 10 -32 30
c0 14 9 24.667 27 32c19.333 6.66699 32 16 38 28c0.666992 2 1.83398 6.33301 3.50098 13s2.5 15.667 2.5 27c0 10 0.666992 19 2 27s2.66602 14 3.99902 18l-14 40l20 47l-10 82l-4 -12c0 20.667 -10.167 35.834 -30.5 45.501s-30.5 20.834 -30.5 33.501l3 19
c0 8 -0.666992 14 -2 18l105 5l94 54l75 -11l-8 22l11 2c7.33301 0 12 -5 14 -15zM9 729.996c-3.33301 3.33301 -5.66699 10.333 -7 21c0 12 4 18 12 18l3 -1c22 0 43.667 5.33301 65 16l59 -16l-10 4c8 0 22.333 -5.33301 43 -16c0 -29.333 8.66699 -63 26 -101
s37 -67 59 -87l-4 14l3 -11c0 -14 -6.66699 -21 -20 -21c-0.666992 3.33301 -1.16699 7 -1.5 11s-0.5 8 -0.5 12l-38 -23l-3 17l-38 13l16 -14l-15 3c-4 0 -7.66699 -1.33301 -11 -4l-25 66c-38.667 24 -77.667 63 -117 117z" />
    <glyph glyph-name="iacute" unicode="&#xed;" horiz-adv-x="345" 
d="M286 505l-12.002 -112.001c0 -10.667 4 -28.5 12 -53.5s12 -43.5 12 -55.5l-14 -158l-2 8l5 -57c10.667 -2.66699 18.834 -4.83398 24.501 -6.50098s12.5 -4.16699 20.5 -7.5c18 -8 27 -19.333 27 -34c0 -16 -8.66699 -24 -26 -24c-5.33301 0 -12.666 0.333008 -21.999 1
s-20 2 -32 4c-24 4 -42 6 -54 6c-17.333 0 -52.666 -5 -105.999 -15l-109 -21l8 20c-21.333 0 -32 10 -32 30c0 14 9 24.667 27 32c19.333 6.66699 32 16 38 28c2.66699 8 4 26 4 54l20 21l-12 62c3.33301 14 5.5 27.167 6.5 39.5s1.5 27.5 1.5 45.5l-16 20
c0 20.667 -10.167 35.834 -30.5 45.501s-30.5 20.834 -30.5 33.501c0 15.333 5 23 15 23l119 46c25.333 8.66699 48.166 15.167 68.499 19.5s37.833 6.5 52.5 6.5l12 12l11 2c5.33301 0 10 -5 14 -15zM99.998 549.999c-18 0 -27 6.33398 -27 19.001c0 5.33301 3 9 9 11
l40 49c4 43.333 23.667 83.666 59 120.999l-10 4c4 8 24.333 20 61 36l23 -18l59 4l-12 -4c16.667 0 25 -7 25 -21c0 -18.667 -12.667 -45.667 -38 -81l-48 -17l-32 -52c-16.667 -12 -27 -21.333 -31 -28l5 3l-25 1l-51 -2l7 -25h-14z" />
    <glyph glyph-name="icircumflex" unicode="&#xee;" horiz-adv-x="345" 
d="M296 385c0 -15.333 -3.33301 -35.335 -10 -60.002l-12 -61l-2 -128l6 26l7 -73l46 -24c18.667 -10.667 28 -22.667 28 -36c0 -14 -16.333 -30.333 -49 -49l-34 -2c-59.333 0 -114.333 10.667 -165 32l-93 -20v10c-21.333 0 -32 10 -32 30c0 14 9 24.667 27 32
c19.333 6 32 15.333 38 28c2.66699 8 4 26 4 54l-4 43l24 44l-12 29l2 60l-10 12c0 20.667 -10.167 35.834 -30.5 45.501s-30.5 20.834 -30.5 33.501c0 26 26 47 78 63l104 23l85 39v-18l11 2c7.33301 0 12 -5 14 -15zM-14 601.998l2.99902 13l2 14l55 45l27 48l77 33
l-16 10l12 8l10 7c0 0.666992 -0.333008 1.83398 -1 3.50098s-3 4.83398 -7 9.50098l56 -34l-5 22h4h16c6 -2 11.833 -3.66699 17.5 -5s7.5 -7 5.5 -17c54.667 -42 102 -97.333 142 -166l16 16c4 -5.33301 6.33301 -11 7 -17l-4 -17l-3 -17h-12l-35 -17l-60 30l16 -20
l-27 -2h-11c-12 0 -20.667 -0.666992 -26 -2l-23 56l10 10l-27 18c-12.667 8 -22 12.667 -28 14c-6 0 -9 -8 -9 -24l-29 -7c-10.667 -8.66699 -27.667 -33.334 -51 -74.001v22c-7.33301 -8 -14.666 -12 -21.999 -12c-1.33301 -0.666992 -2.33301 -1.33398 -3 -2.00098l-26 8
l-19 -1l2 16c-22 14 -33.333 24.333 -34 31z" />
    <glyph glyph-name="idieresis" unicode="&#xef;" horiz-adv-x="345" 
d="M298 383c0 -105.333 -3.99902 -191 -11.999 -257l6 12l1 -75c21.333 0 37.666 -1.5 48.999 -4.5s17 -12.833 17 -29.5c0 -19.333 -23 -34 -69 -44c-12.667 -2 -25.667 -3.66699 -39 -5s-26.666 -2 -39.999 -2c-10 0 -21.833 1 -35.5 3s-31.834 5.66699 -54.501 11l-91 22
l-12 -14c-21.333 0 -32 10 -32 30c0 14 9 24.667 27 32c19.333 6.66699 32 16 38 28c2.66699 8 4 26 4 54l22 27c-2 7.33301 -4.66699 19.666 -8 36.999l-9 46c-6 37.333 -12.333 64.666 -19 81.999l14 -4c0 20.667 -10.167 35.834 -30.5 45.501s-30.5 20.834 -30.5 33.501
l3 15l2 16l111 1l139 81l12 -6l11 2c7.33301 0 12 -5 14 -15zM-25.999 660l14.001 38l83 32l49 -18l52 -78c-22.667 -31.333 -56.334 -64 -101.001 -98l-60 53c-14 37.333 -26.333 61 -37 71zM195.002 644l16 20l1 58l53 32l75 -26l13 -104l-26 -41l-65 -11l-59 19z" />
    <glyph glyph-name="eth" unicode="&#xf0;" 
 />
    <glyph glyph-name="ntilde" unicode="&#xf1;" horiz-adv-x="721" 
d="M295 505l-18.001 -29.0049l8 -26l-10 -35l20 -4l3 -8l5 -9l29 33l14 -10l9 31l-6 -4l46 43l97 4l54 23c28 -59.333 58.333 -113.333 91 -162c2.66699 -19.333 12.334 -61 29.001 -125c19.333 -74.667 34 -120.334 44 -137.001c6 -9.33301 20 -18.666 42 -27.999
c18 -7.33301 27 -18.333 27 -33c0 -15.333 -7.66699 -23 -23 -23l-13 2c-20 0 -34.5 -0.333008 -43.5 -1s-26.167 -2.66699 -51.5 -6s-45.833 -5.66602 -61.5 -6.99902s-29.167 -2 -40.5 -2l-105 12l2 -4c-21.333 0 -32 10 -32 30c0 12.667 8.66699 22.834 26 30.501
s26 18.834 26 33.501c0 11.333 -7 22 -21 32l6 64l-36 54l26 32l2 6l-39 44l-24 13l-49 -20l-37 -71l22 -46l-26 -36l-2 -26l12 -2l-22 12l34 -20l-18 -40l4 18c0 -19.333 10.667 -34 32 -44c22 -8 33 -19.667 33 -35c0 -6 -2.33301 -13.667 -7 -23l-11 -22h-130l-72 26
l-114 -16l8 6c-22 0 -33 10 -33 30c0 14 10 25.667 30 35c20.667 8 31 21 31 39c0 8.66699 -2 22 -6 40l14 47l-20 98l14 43c0 20.667 -10.333 35.834 -31 45.501s-31 20.834 -31 33.501c0 10.667 3.66699 16 11 16c4 0 8.66699 -2.33301 14 -7c30 36 78.333 64.333 145 85
l99 -7l-2 20l12 2c5.33301 0 10 -5 14 -15zM194.999 571.995l-9.00195 -4c-15.333 0 -23 7 -23 21c0 10.667 4.66699 23.334 14 38.001l20 34l20 53c19.333 0 43.833 -2.16699 73.5 -6.5s65.167 -11.833 106.5 -22.5l35 -12c4 -1.33301 10 -2.83301 18 -4.5
s14.333 -2.83398 19 -3.50098c17.333 0 34.333 9.66699 51 29l-7 -2l9 -1l-1 28v-16c2 4 6.66699 6 14 6c14.667 0 22 -9 22 -27c0 -32 -15.333 -57.333 -46 -76l-20 -42l-46 -15c-33.333 0 -63.666 13.667 -90.999 41c-35.333 4 -71.666 10 -108.999 18
c-6.66699 0.666992 -23 -2.33301 -49 -9l18 -28l-37 -9z" />
    <glyph glyph-name="ograve" unicode="&#xf2;" horiz-adv-x="724" 
d="M22 245l4.00195 13l-11 69l84 127c61.333 12 122.666 35.333 183.999 70l83 4c37.333 0 104.666 -17 201.999 -51l26 -64l68 -19c0 -28.667 3.16699 -55.5 9.5 -80.5s15.5 -48.5 27.5 -70.5c-18 -35.333 -27 -72.333 -27 -111c0 -10 0.666992 -17.667 2 -23l-57 -65
c-80.667 -22 -152.5 -39.167 -215.5 -51.5s-114.5 -18.5 -154.5 -18.5c-37.333 12.667 -70 33 -98 61c-8.66699 8.66699 -27 31.667 -55 69c-18.667 26 -36.667 43 -54 51zM316.002 448c-17.333 -6 -42 -31.332 -74 -75.999c0 -4.66699 -1.66699 -7.33398 -5 -8.00098l-16 6
l31 -102l35 -37c14 -58 28.333 -104.667 43 -140l52 -19l87 48l9 31c0 23.333 -3 48.5 -9 75.5s-16 58.167 -30 93.5c-34 85.333 -75 128 -123 128zM192.002 751.001c0 10.667 11 20.999 33 30.999l27 -32l46 34l5 -18l17 5h8l14 -1c6 0 12 2 18 6l5 -79l36 -50
c15.333 -18.667 29.333 -33.667 42 -45l2 -20l3 -11c0 -8.66699 -4 -14.667 -12 -18c-7.33301 -2 -11.333 -7.33301 -12 -16l-28 31l-17 -13l-12 11c-14.667 0 -22 8.33301 -22 25l-45 50l-64 19l-19 56c-16.667 12.667 -25 24.334 -25 35.001z" />
    <glyph glyph-name="oacute" unicode="&#xf3;" horiz-adv-x="724" 
d="M22 245c-6 10 -8.99902 29.334 -8.99902 58.001l42 90c26 18.667 62 40 108 64l114 55l67 -12l103 5c80 -22 139 -46 177 -72l63 -107c11.333 -22 20.166 -42.833 26.499 -62.5s9.5 -37.834 9.5 -54.501c-45.333 -90 -104 -153.333 -176 -190l-100 -23.5
c-26 -6.33301 -62.333 -16.166 -109 -29.499c-58.667 37.333 -138 62.666 -238 75.999c-26.667 52.667 -56 97.667 -88 135zM316.001 448.001l12 14.001l-57 -39l-29 -51c0 -6 -3.66699 -9 -11 -9c-3.33301 0 -6 0.333008 -8 1l43 -64
c-0.666992 -4.66699 -1 -11.334 -1 -20.001c0 -34.667 10 -72.667 30 -114c24.667 -49.333 55.667 -82 93 -98l55 24c15.333 36.667 28.666 83.667 39.999 141l-61 126c-35.333 59.333 -70.666 89 -105.999 89zM289.001 550.002h-4.99902c-14.667 0 -22 6.33301 -22 19l1 5
l2 -8c8 44 29.667 81 65 111l20 71l10 6c6 10.667 23.333 18 52 22c4 0 9.16699 0.333008 15.5 1s12.166 1 17.499 1h14c6 -1.33301 10.333 -2 13 -2l13 14l6 -18c16.667 0 25 -7 25 -21c0 -12 -23 -41.667 -69 -89c-28 -28 -55 -53 -81 -75h14
c-8 -8.66699 -21.333 -19 -40 -31l-19 -3l-11 -12l-17 15z" />
    <glyph glyph-name="ocircumflex" unicode="&#xf4;" horiz-adv-x="724" 
d="M22 245l-7.99805 2.99902c0 52 9.66699 93 29 123c44 49.333 93.833 86.833 149.5 112.5s118.167 38.5 187.5 38.5l111 -48c44 -18 82.333 -29 115 -33l64 -47c7.33301 -62.667 19 -117.667 35 -165c-14.667 -52 -36.334 -102 -65.001 -150
c-20.667 -6 -49.667 -29.333 -87 -70l-114 -34l-81 29l-117 -22c-56.667 22.667 -104.334 43.334 -143.001 62.001c-12 20 -25.167 53.5 -39.5 100.5s-26.5 80.5 -36.5 100.5zM316.002 447.999l-10 -17.999l-31 -1l-33 -57c0 -8 5 -16 15 -24l-11 -66l43 -57
c10 -50.667 22.333 -95.334 37 -134.001l92 -13l37 2l35 67l-37 98l-25 99c-6 22.667 -20.667 45.667 -44 69s-46 35 -68 35zM166.002 583c-8.66699 4 -13.333 10.333 -14 19l2 15l1 18l76 55c29.333 21.333 51.666 42.333 66.999 63l2 12c6 7.33301 13.333 11 22 11
c4 0 9.33301 -5.66699 16 -17c6 10.667 17.667 20 35 28l-6 -8c18 0 28.333 -0.666992 31 -2c8 -2 12 -10 12 -24l66 -51l26 -54l58 -39h6c5.33301 -6 7 -14.333 5 -25l7 8l-91 -53l-22 28l10 -16l-16 -2c-12 0 -18 9.33301 -18 28l-57 18l-47 38l22 4
c-5.33301 4 -10.666 6.66699 -15.999 8l-3 -2h8l-33 -37l-56 -19l3 -17c-10 -10 -19.333 -16.667 -28 -20c-14 0 -25 -0.666992 -33 -2l14 8l-9 23l-58 26z" />
    <glyph glyph-name="otilde" unicode="&#xf5;" horiz-adv-x="724" 
d="M22 245l4.00195 1l-3 73c13.333 23.333 26.166 43.833 38.499 61.5s24.166 32.5 35.499 44.5c29.333 29.333 65.666 51 108.999 65l65 20h97c42.667 0 90 -9.5 142 -28.5s90 -30.5 114 -34.5l89 -158c-5.33301 -32 -10.666 -78 -15.999 -138l-43 -70
c-34.667 -24.667 -68 -43 -100 -55c-19.333 -6 -49.833 -12.833 -91.5 -20.5s-77.167 -16.167 -106.5 -25.5c-49.333 0 -94 5.33301 -134 16s-75.333 26 -106 46l-45.5 60l-44.5 55zM316.002 448l20 20l-81 -21l-13 -78c0 -6 4.33301 -10.333 13 -13l-29 -80l43 -69l10 -69
l85 -63c10.667 0 20.667 0.833008 30 2.5s23.666 5.16699 42.999 10.5l39 63c-7.33301 61.333 -20.666 118 -39.999 170c-31.333 84.667 -71.333 127 -120 127zM196.002 572l-9.00098 -4c-15.333 0 -23 7 -23 21c0 10 4.16699 21.167 12.5 33.5s16.833 21.166 25.5 26.499
l24 59l65 9c22.667 0 53.334 -8.66699 92.001 -26s67.667 -26 87 -26c16 0 24 5 24 15l-3 14h33l-3 -11l15 22l-14 -2c2 4 6.66699 6 14 6c14.667 0 22 -9 22 -27c0 -31.333 -16.667 -58.666 -50 -81.999l-10 -34l-52 -17l-38 3c-4 0.666992 -8.16699 1 -12.5 1h-9.5
c-7.33301 0 -12.333 -0.333008 -15 -1l-112 66l-13 -10c-10 0 -20 -10 -30 -30l-7 19l10 -26l-35 9z" />
    <glyph glyph-name="odieresis" unicode="&#xf6;" horiz-adv-x="724" 
d="M22 245l13.999 18.999l-13 67l60 74c18.667 5.33301 39.667 17.666 63 36.999c20.667 16.667 38 34 52 52l61 -2l121 42c20.667 -2.66699 52.334 -9.66699 95.001 -21l63 -38l92 -44l38 -59c0 -22 2.33301 -50.667 7 -86l8 -71c0 -21.333 -4.33301 -62 -13 -122
c-20 -8 -54.333 -29.333 -103 -64c-40.667 -29.333 -76 -48 -106 -56c-28.667 6.66699 -79.334 15.667 -152.001 27c-33.333 4.66699 -61.666 9.33398 -84.999 14.001s-45.333 10.334 -66 17.001l-30 45l-68 22l-8 85zM158.999 643.999l16.001 14.001
c7.33301 22.667 31.666 54.667 72.999 96c28.667 -16.667 57.667 -49.334 87 -98.001l-43 -77l-61 -43l-51 45zM368 644l-18 -17.999l63 102l35 10l78 -38l27 -42c-32.667 -42.667 -62.667 -73.334 -90 -92.001l-89 11zM316 448.001l-21.999 17.999l-37 -31l-20 -93
c9.33301 -18.667 16.333 -40.667 21 -66s7 -52.333 7 -81c18 -45.333 49 -84.666 93 -117.999l24 17h59l19 75c2 8 8.33301 36 19 84l-62 116c-34.667 52.667 -68.334 79 -101.001 79z" />
    <glyph glyph-name="divide" unicode="&#xf7;" horiz-adv-x="594" 
d="M275 158c16 0 29.333 -5.33301 40 -16s16 -24.334 16 -41.001c0 -15.333 -5.66699 -28.666 -17 -39.999c-10 -11.333 -23 -17 -39 -17s-29.667 5.33301 -41 16c-10.667 12 -16 25.667 -16 41c0 16 5.5 29.5 16.5 40.5s24.5 16.5 40.5 16.5zM506 270l2.00098 -43l-22 14
l24 -37l-20 -10l-136 -8l-118 13c-37.333 4 -64.333 7 -81 9c-56.667 6.66699 -99.334 10 -128.001 10l16 -24l16 15l-30 44l36 -1l-10 18l75 -11l75 -7c18.667 0 45 3.33301 79 10l40.5 6.5c15 2.33301 28.167 3.5 39.5 3.5c10.667 0 19 -0.333008 25 -1s18.333 -3 37 -7
l62 -12zM275.001 427c15.333 0 28.5 -5.66895 39.5 -17.002s16.5 -24.666 16.5 -39.999s-5.66699 -28.666 -17 -39.999c-10 -11.333 -23 -17 -39 -17s-29.667 5.33301 -41 16c-10.667 12 -16 25.667 -16 41c0 16 5.5 29.5 16.5 40.5s24.5 16.5 40.5 16.5z" />
    <glyph glyph-name="oslash" unicode="&#xf8;" horiz-adv-x="732" 
d="M583 456l27.002 41l48 -2l15 39l2 -8l13 1c17.333 -16.667 30.666 -37.667 39.999 -63l-6 28l-60 -21l13 -22l-32 -17l-16 -2l69 -63l11 -61c5.33301 -24.667 11.666 -44 18.999 -58c-4 -29.333 -20.333 -63.666 -49 -102.999c-34.667 -49.333 -56.334 -82 -65.001 -98
c-22 -2 -50 -8 -84 -18l-83 -23l-80.5 -12.5c-27 -4.33301 -64.833 -10.833 -113.5 -19.5l-45 14l-54 62l-54 -13c-4 -27.333 -13 -49 -27 -65v-8c-21.333 4.66699 -40.666 17.667 -57.999 39l4 15l24 -12l-17 44l24 -1l61 14c-8 23.333 -30.667 51.666 -68 84.999l-31 93
l5 73c34 59.333 63 107.333 87 144l88 46c31.333 0 60.333 2.5 87 7.5s54.667 13.833 84 26.5c29.333 -11.333 59 -19.5 89 -24.5s61 -7.5 93 -7.5zM455.002 280l-43 -22l-48 -65l-67 -30l6 14l41 -60c23.333 -6 57.333 -17 102 -33l31 77c0 33.333 -6.66699 62.333 -20 87
l-17 -1l-1 39zM275.002 219l42 40l74 28l28 68l-4 2l-46 62l-57 6l-53 -20l-32 -54l1 -74z" />
    <glyph glyph-name="ugrave" unicode="&#xf9;" horiz-adv-x="679" 
d="M394 52l-3 5.99707l-86 -67c-34.667 0 -59.5 -0.5 -74.5 -1.5s-39.5 -3.16699 -73.5 -6.5l-77 55c-3.33301 30 -9.66602 66.667 -18.999 110l18 80l-40 40l-2 44l20 20c0 20.667 -10 35.834 -30 45.501s-30 20.834 -30 33.501c0 5.33301 5 21 15 47
c110 25.333 197 42.666 261 51.999l-10 8l12 2c6 0 15 -11 27 -33c-5.33301 -61.333 -16 -133.666 -32 -216.999l38 -93v4l-1 -57l35 -25c26.667 0 40 14.667 40 44c0 8 -2 18.667 -6 32l22 36l4 71l-32 58l22 -8c0 22 -10.167 37.167 -30.5 45.5s-30.5 19.5 -30.5 33.5
c0 8 5.66699 23.667 17 47c59.333 10 111.666 26.333 156.999 49l93 1v10l11 2l7 -1h-13l30 -114c0 -113.333 -10.667 -207 -32 -281l22 20c0 -34 6.33301 -57.333 19 -70c4 -4 16 -9 36 -15c12.667 -4 19 -14 19 -30c0 -6 -2.33301 -13.333 -7 -22l-13 -21h-76l-87 30
l-94 -28l-12 12l-12 1c-4 2 -6 5.33301 -6 10c2.66699 2.66699 4 16.334 4 41.001zM176 729.997c-4.66699 4.66699 -7 11.667 -7 21c0 4 7.66699 17.667 23 41h33l30 -24l63 12l-20 -8l14 -2h11c4 -32.667 16.667 -65.5 38 -98.5s34.333 -58.833 39 -77.5l22 -12l3 -11
c0 -14 -6.66699 -21 -20 -21l-10 3l-10 17l-63 -22l18 18c-10.667 2 -24 9 -40 21l-35 28l-38 79l-59 32z" />
    <glyph glyph-name="uacute" unicode="&#xfa;" horiz-adv-x="679" 
d="M394 52l-2.99707 5.99609c-14.667 -9.33301 -68.334 -38 -161.001 -86c-22.667 11.333 -44 21.333 -64 30s-41.333 17.334 -64 26.001l-42 51c5.33301 20.667 9.16602 41.667 11.499 63s3.5 45.333 3.5 72c-9.33301 18 -16 38 -20 60s-6 44.667 -6 68l8 -10
c0 20.667 -10 35.834 -30 45.501s-30 20.834 -30 33.501c0 10 2 15.667 6 17l3 -6l73 47l115 4l83 65l-14 -20l12 2c4 0 6.33301 -1.33301 7 -4l-6 -11l34 -117c-8.66699 -27.333 -14.834 -60.333 -18.501 -99s-5.5 -81.334 -5.5 -128.001l20 26l-7 -73l43 -15
c28 0 45 15 51 45l5 77l14 71l-30 44l10 -4c0 22 -10.167 37.167 -30.5 45.5s-30.5 19.5 -30.5 33.5c0 8 2 14 6 18l17 7c66.667 26.667 127 45 181 55l43 47l20 -20l17 2l-10 7v-140c0 -12 0.666992 -21.333 2 -28s4.33301 -20 9 -40
c2.66699 -12.667 5.16699 -25.167 7.5 -37.5s3.5 -22.166 3.5 -29.499l-12 -96l8 -12c0 -34 6.33301 -57.667 19 -71c2.66699 -2 14.667 -6.66699 36 -14c12.667 -4 19 -14 19 -30c0 -14.667 -12 -27.667 -36 -39h-175l-96 4l18 6l-12 1c-4 2 -6 5.33301 -6 10
c2.66699 2.66699 4 16.334 4 41.001zM267.003 549.996l-4.99902 -0.000976562c-14.667 0 -22 6.33301 -22 19l1 5l2 -10l16 73l45 58l16 59h18c4.66699 8.66699 11 13 19 13c4.66699 0 8 -0.333008 10 -1l31 4l18 18l67 2l-14 -18c16.667 0 25 -7 25 -21
c0 -5.33301 -0.333008 -8.5 -1 -9.5s-1.33398 -1.83301 -2.00098 -2.5l-1 5c-42 -74 -92 -131 -150 -171l18 14l-4 -5c-8 -9.33301 -12 -20.666 -12 -33.999l-35 3l-31 18l-21 -9z" />
    <glyph glyph-name="ucircumflex" unicode="&#xfb;" horiz-adv-x="679" 
d="M394 52l-2.99902 5.99512c-20.667 -14 -34 -32.333 -40 -55c-26.667 0 -51.5 -2.16699 -74.5 -6.5s-44.5 -11.166 -64.5 -20.499l-55 3c-36 50.667 -68.333 84.667 -97 102l15 79l-34 58c10 18.667 17.833 36.834 23.5 54.501s8.5 34.167 8.5 49.5l-16 10
c0 20.667 -10 35.834 -30 45.501s-30 20.834 -30 33.501c0 15.333 9.66699 21.666 29 18.999c40 30 77.5 50.5 112.5 61.5s78.5 16.5 130.5 16.5l-6 10l12 2c4 0 6.33301 -1.66699 7 -5c0 -6 -3.33301 -16 -10 -30l32 -71l-18 -124l22 -99l-26 -28l60 -64
c12 0 22.667 3.83301 32 11.5s14 17.167 14 28.5v78l-4 20l-4 21l4 94l8 -20c0 22 -10.167 37.167 -30.5 45.5s-30.5 19.5 -30.5 33.5c0 10.667 4 16 12 16c4 0 11.667 -3 23 -9l71 47c39.333 6 91 18.333 155 37l6 16l11 2c6 0 15.333 -7.66699 28 -23
c-5.33301 -38.667 -8 -111.667 -8 -219c0 -16 -2 -38.667 -6 -68l-10 -68l10 2c0 -34 6.33301 -57.667 19 -71c2.66699 -2 14.667 -6.66699 36 -14c12.667 -4 19 -14 19 -30c0 -6 -2.33301 -12.333 -7 -19c-1.33301 -2.66699 -3 -4 -5 -4
c-72.667 -7.33301 -130.334 -14.666 -173.001 -21.999l-110 36l6 -20l-12 1c-4 2 -6 5.33301 -6 10c2.66699 2.66699 4 16.334 4 41.001zM129.001 601.995c0 8.66699 2.33398 13.3311 7.00098 13.998l4 -3c38 46 63.333 83 76 111l53 23c4 8.66699 11.333 17.334 22 26.001
c8 6 12 11.333 12 16l20 -24l37 12l8 -14l-4 16l19 -4c26 -34.667 68.667 -74.334 128 -119.001l18 -35c14 -11.333 21 -21 21 -29l-4 -17l-5 -15c-12.667 4.66699 -36.334 9 -71.001 13l-20 -26l2 4l-16 -2c-11.333 0 -25.333 9.33301 -42 28l11 -4l-66 46l5 32l-8 -14
c-8 6.66699 -15.667 9.33398 -23 8.00098l-37 -13l-8 -61c-10 -6 -22.333 -9 -37 -9c-6 -8 -14 -12 -24 -12c-3.33301 -1.33301 -5 -2.66602 -5 -3.99902c-11.333 8 -25 13 -41 15l2 18c-22.667 4 -34 11.667 -34 23z" />
    <glyph glyph-name="udieresis" unicode="&#xfc;" horiz-adv-x="679" 
d="M149 645l12 12l19 47l45 38l54 -32l48 -59l-34 -56l-42 -25l-63 25zM361 645l-4 10c25.333 21.333 53 47 83 77l71 -44l11 -25l-1 -98l-69 -17zM394 52l-3 5.99609c-19.333 -12 -29 -23 -29 -33c0 -4.66699 1.66699 -10 5 -16l-64 2l-63 -33
c-24.667 9.33301 -56.334 27.333 -95.001 54c-40.667 28.667 -71 47.667 -91 57l-7 87l26 60l-26 50l18 42l-8 4c0 20.667 -10 35.834 -30 45.501s-30 20.834 -30 33.501c0 12 3 21 9 27l128 58c24 11.333 47.167 20.5 69.5 27.5s44.166 12.5 65.499 16.5l-6 -22
c12.667 0 28.334 1.66699 47.001 5l-8 -145l2 -45l2 -45l-30 -111l8 8l19 -79l39 -7c10 0 20.333 3.5 31 10.5s16.334 15.833 17.001 26.5l-3 34l-3 35l4 44l4 45l-4 40l4 -2c0 22 -10.167 37.167 -30.5 45.5s-30.5 19.5 -30.5 33.5c0 15.333 5.66699 23 17 23l61 47
l110 -12l79 49l11 2c4 0 6.33301 -1.33301 7 -4l-9 -15c4.66699 -37.333 11.667 -102.666 21 -195.999c5.33301 -55.333 11 -110.333 17 -165l-22 4c0 -34 6.33301 -57.333 19 -70c4 -4 16 -9 36 -15c12.667 -4 19 -14 19 -30s-8 -27 -24 -33l-112 24
c-14 0 -25 -0.333008 -33 -1s-23.667 -2.66699 -47 -6c-13.333 -1.33301 -24.333 -2.5 -33 -3.5s-24 -3.5 -46 -7.5l6 -2l-12 1c-4 2 -6 5.33301 -6 10c2.66699 2.66699 4 16.334 4 41.001z" />
    <glyph glyph-name="yacute" unicode="&#xfd;" 
 />
    <glyph glyph-name="thorn" unicode="&#xfe;" 
 />
    <glyph glyph-name="ydieresis" unicode="&#xff;" horiz-adv-x="579" 
d="M-54 474c0 15.333 7.33203 22.999 21.999 22.999c6 0 12 -1.33301 18 -4c60.667 0 103 1.66699 127 5s49 9.66602 75 18.999l104 -32l-2 18c21.333 0 32 -10.333 32 -31c0 -13.333 -6.5 -22.166 -19.5 -26.499s-19.5 -12.5 -19.5 -24.5c0 -9.33301 14.333 -28 43 -56
l-28 -48l47 -17l8 -30l-18 12l8 -5c-0.666992 0.666992 -1 1.33398 -1 2.00098c-2.66699 2.66699 -7 6 -13 10l41 34l26 4l5 32h-14c16 33.333 24.667 55.333 26 66c0 8 -6.16699 14.833 -18.5 20.5s-18.5 14.5 -18.5 26.5c0 16.667 9.66699 28 29 34l50 7l60 10l86 -16v-4
c22 0 33 -10.333 33 -31c0 -12 -9.83301 -22.833 -29.5 -32.5s-32.5 -18 -38.5 -25s-10.333 -17 -13 -30s-5.66699 -22.833 -9 -29.5l-81 -159l-70 -108l-75 -175l-16 4l-27 -66c-25.333 0 -62.666 -3 -111.999 -9l-112 -11l-30 17l-2 64l27 26l-32 58l4 -12l-2 14
c0 20.667 11 31 33 31c12 0 28 -11.333 48 -34c10 -38.667 23 -65 39 -79c32 24.667 56 57.667 72 99c0 20 -7.33301 42.667 -22 68l-38 61c-32.667 63.333 -63 135 -91 215h-20l-16.5 30.5c-5 9.66699 -9.16699 16.5 -12.5 20.5c-11.333 15.333 -26.333 27 -45 35
c-11.333 4 -17 13.667 -17 29zM94.999 651.999l28 46l53 22l83 -36l26 -56l-31 -43l-70 -35l-76 49c-2 15.333 -6.33301 33 -13 53zM307.999 643.999l-11.999 10c15.333 29.333 52.666 60 111.999 92c37.333 -32.667 66 -64.667 86 -96l-40 -71l-51 -15l-81 25z" />
    <glyph glyph-name="c279" unicode="&#x117;" 
 />
    <glyph glyph-name="char1003" unicode="&#x118;" horiz-adv-x="979" 
d="M664 244l-61.0029 -3.99707c-12.667 0 -36 4.33301 -70 13s-61.667 13 -83 13h-11l-24 -36c23.333 -26 47 -56.667 71 -92c29.333 -18.667 63.333 -32.334 102 -41.001s81.334 -13 128.001 -13l101 58l53 45l19 22c6 8 14 12 24 12s19.333 -4.33301 28 -13
s13 -18.334 13 -29.001l-6 -23c-2.66699 -10.667 -3.66699 -19 -3 -25l-66 -73c-74 -8 -137.667 -30 -191 -66h-217l-73 40l-98 6c-12 32.667 -28.667 59 -50 79l-53 55l-48 84l-56 -6l-19 14l-68 -18v-18l46 41l-4 48l22 35l-22 -12l68 -10l18 2l2 25
c0 8 -4.66699 11.667 -14 11l-16 12l-52 -22l-28 26l32 13l6 60l18 1l-18 8l24 24c11.333 -9.33301 38.333 -18.666 81 -27.999l-13 6c2 10 5 20.833 9 32.5s9.66699 26.167 17 43.5c2.66699 5.33301 18.334 24.666 47.001 57.999s45.667 51.666 51 54.999l85 44
c13.333 4 50.333 11 111 21l108 13c22 0 54.833 -5.16699 98.5 -15.5s76.167 -15.5 97.5 -15.5c10 0 19 8 27 24s20 24 36 24c12 0 21.667 -5 29 -15c4 -6 8 -17.333 12 -34l38 -33l12 -87l24 -39l-8 -8l6 -26c0 -8 -3.83301 -15.333 -11.5 -22s-16.167 -10 -25.5 -10
c-3.33301 0 -41.666 25 -114.999 75l-43 80c-28 8.66699 -59 15.167 -93 19.5s-71 6.5 -111 6.5l-64 -45l-51 -78l-6 -58l104 -6c12 0 30 3 54 9s42.333 9 55 9l108 -4l4 -8l-28 -45l14 -12l-26 -59l8 32l-64 -10c-26 -4 -47 -6 -63 -6l-49 3l-48 3l-87 -16l-18 10v-8
c0 -11.333 2.33301 -18 7 -20c117.333 -12 187 -18 209 -18l80 14l-10 -4l4 -47l-30 -24v-19z" />
    <glyph glyph-name="dotlessi" unicode="&#x131;" horiz-adv-x="345" 
d="M286 505c-10.667 -68 -16 -155.003 -16 -261.003l6 -110l14 22l3 -75l42 -19c16 -8 24 -19 24 -33s-7 -21 -21 -21l-14 3l-12 3l-85 4c-76 0 -145.667 -11.333 -209 -34v16c-21.333 0 -32 10 -32 30c0 14.667 8.66699 25.334 26 32.001c21.333 6 34.333 15.333 39 28
c2.66699 8 4 26 4 54l20 31l-36 66c10.667 42.667 16 73 16 91c0 20.667 -10.167 35.834 -30.5 45.501s-30.5 20.834 -30.5 33.501c0 16 11 23 33 21l71 47c45.333 0 100.333 16.333 165 49l-2 -10l11 2c5.33301 0 10 -5 14 -15z" />
    <glyph glyph-name="OE" unicode="&#x152;" horiz-adv-x="1298" 
d="M653 1c-30 0 -67.666 -5.33301 -112.999 -16l-34 19l-85 -16c-42.667 15.333 -101.667 28.666 -177 39.999c-67.333 34 -125.666 76 -174.999 126l-46 94l9 92l-11 92c49.333 39.333 97 112 143 218c28 12.667 77.667 32.334 149 59.001c16 0 37 2.33301 63 7l87 26
c11.333 -3.33301 43.666 -8.33301 96.999 -15s90.666 -10 111.999 -10l49 3l50 5c7.33301 0 43.333 1.5 108 4.5s115 4.5 151 4.5l20 -14c15.333 0 30.833 3.66699 46.5 11s32.834 11 51.501 11c6 0 10 2.33301 12 7l20 -67l60 -37l6 -87l16 20l3 -12
c0 -9.33301 -3 -17 -9 -23s-14.333 -9.66699 -25 -11l-28 4l-27 5l-79 93l-81 18l-46 -18l-7 -22l-75 -12l-19 -13l-2 -29l22 -30l-26 -39l16 12c0 -25.333 12 -38 36 -38l-9 -22h32l-7 16l32 6c5.33301 0.666992 12 9.66699 20 27c4 12 9.33301 19.333 16 22l28 2
c5.33301 0 9 3.33301 11 10c19.333 -62 36.333 -113 51 -153l54 -18l6 -24c0 -9.33301 -3.16699 -17 -9.5 -23s-14.833 -9.66699 -25.5 -11c-10 0 -32 11.667 -66 35l-55 39l-73 -11l-31 -23c-2.66699 -8.66699 -5.5 -21 -8.5 -37s-5.83301 -33.667 -8.5 -53l16 -45l-24 -46
l30 22l22 -73c25.333 -7.33301 49.666 -13.333 72.999 -18s45.666 -7 66.999 -7c27.333 9.33301 72 27.333 134 54c6.66699 3.33301 25.334 17 56.001 41c12 9.33301 25 18.666 39 27.999c2 1.33301 4.33301 3 7 5c8 0 15.333 -3.16699 22 -9.5
s10.334 -14.166 11.001 -23.499v9l-42 -89l-12 -49l-36 -71l-20 -4c-2 -7.33301 -12.333 -11 -31 -11l-35 3l35 -7l-18 31l5 9l-22 -8c-4 4 -12 9 -24 15s-21 9 -27 9c-16 0 -29.333 -0.333008 -40 -1c-52.667 -3.33301 -85.334 -5 -98.001 -5l-88 -13
c-40 -6.66699 -69 -10 -87 -10l-128 12zM565.001 135l6.00098 -19.9971c4 35.333 20 73.666 48 114.999l-9 51c-4 22 -6 39.667 -6 53l1 18l22 12l-24 -5l42 16l-47 60l-4 93l-48 36l-19 65l-69 14l-40 -41l-74 -6c-34 -86.667 -60.667 -172.334 -80 -257.001
c15.333 -80.667 29.666 -142.667 42.999 -186c46 -20.667 99.667 -47.334 161 -80.001c34.667 12 67 32.667 97 62z" />
    </font>
</defs>
</svg>
